<svg width="331" height="330" viewBox="0 0 331 330" fill="none" xmlns="http://www.w3.org/2000/svg">
<path d="M50.8846 152.064C-12.416 188.608 -12.416 247.863 50.8846 284.407C114.185 320.951 216.822 320.958 280.116 284.407C343.41 247.856 343.416 188.608 280.116 152.064C216.815 115.52 114.179 115.5 50.8846 152.064Z" fill="#F5F5F5"/>
<path d="M296.273 152.045C295.943 152.369 295.415 152.818 294.742 153.365C290.525 156.956 280.697 165.305 279.456 176.947L278.097 176.597C277.978 163.84 286.974 150.765 293.165 148.118C293.199 148.104 293.231 148.083 293.258 148.056C293.284 148.029 293.305 147.997 293.32 147.962C293.334 147.927 293.341 147.89 293.34 147.852C293.34 147.814 293.332 147.777 293.316 147.742C293.286 147.673 293.229 147.618 293.159 147.59C293.089 147.561 293.01 147.562 292.94 147.59C286.697 150.23 277.457 163.061 277.523 176.452L276.605 176.215C276.262 175.053 274.242 166.975 279.859 156.316C280.799 154.536 281.881 152.834 283.093 151.227L283.152 151.161C287.06 146.072 291.686 143.168 294.861 144.205C295.594 144.399 296.263 144.785 296.798 145.323C297.332 145.861 297.714 146.532 297.903 147.267C298.07 148.137 298.007 149.034 297.721 149.872C297.435 150.71 296.936 151.459 296.273 152.045Z" fill="white"/>
<path d="M289.046 140.113C286.505 143.756 283.872 147.524 282.651 150.897C281.405 152.527 280.301 154.26 279.351 156.078C277.774 159.027 276.631 162.188 275.958 165.463C275.443 146.079 286.076 130.879 289.323 128.167C289.352 128.142 289.376 128.113 289.393 128.079C289.41 128.046 289.421 128.01 289.424 127.972C289.427 127.935 289.423 127.897 289.411 127.861C289.399 127.826 289.381 127.792 289.356 127.764C289.308 127.706 289.238 127.67 289.163 127.663C289.088 127.655 289.013 127.677 288.954 127.724C285.495 130.602 273.833 147.353 275.529 168.268C275.525 168.279 275.525 168.291 275.529 168.301C275.227 170.889 275.37 173.51 275.952 176.05L274.348 175.561C273.919 174.109 270.579 161.813 273.325 145.525C274.783 136.819 279.826 128.365 285.317 125.368C287.858 123.995 290.346 123.817 292.716 124.847C293.264 125.033 293.761 125.345 294.169 125.756C294.576 126.167 294.883 126.667 295.065 127.216C295.93 130.246 292.584 135.037 289.046 140.113Z" fill="white"/>
<path d="M298.464 147.179C298.248 146.349 297.818 145.591 297.217 144.979C296.616 144.367 295.865 143.924 295.039 143.694C291.99 142.698 287.733 145.014 283.931 149.344C283.502 149.839 283.073 150.36 282.651 150.908C281.405 152.538 280.301 154.271 279.351 156.089C277.774 159.038 276.631 162.199 275.958 165.474C275.76 166.471 275.628 167.454 275.536 168.312C275.234 170.9 275.377 173.521 275.958 176.061C276.037 176.391 276.097 176.576 276.103 176.589C276.129 176.655 276.179 176.709 276.242 176.741H276.295L277.681 177.097L279.621 177.592C279.658 177.602 279.697 177.602 279.733 177.592C279.778 177.585 279.821 177.57 279.859 177.546C279.892 177.522 279.92 177.491 279.94 177.456C279.961 177.421 279.973 177.382 279.978 177.341C281.04 165.758 290.894 157.383 295.105 153.806C295.765 153.231 296.319 152.776 296.662 152.433C297.388 151.785 297.934 150.961 298.25 150.041C298.565 149.121 298.639 148.136 298.464 147.179ZM296.273 152.057C295.943 152.38 295.415 152.829 294.742 153.377C290.524 156.967 280.697 165.316 279.456 176.958L278.097 176.609L277.522 176.463L276.605 176.226C276.262 175.064 274.242 166.986 279.859 156.327C280.799 154.547 281.881 152.845 283.093 151.238L283.152 151.172C287.059 146.084 291.686 143.18 294.861 144.216C295.594 144.41 296.263 144.796 296.797 145.334C297.332 145.872 297.714 146.543 297.903 147.278C298.067 148.146 298.003 149.041 297.717 149.876C297.431 150.711 296.934 151.458 296.273 152.043V152.057Z" fill="#96B562"/>
<path d="M293.164 148.145C286.973 150.785 277.984 163.867 278.096 176.624V176.882C278.099 176.95 278.076 177.017 278.032 177.069C277.988 177.122 277.926 177.156 277.859 177.166H277.812H277.694C277.645 177.142 277.605 177.105 277.576 177.06C277.546 177.014 277.53 176.962 277.529 176.908C277.529 176.783 277.529 176.657 277.529 176.532C277.463 163.141 286.703 150.323 292.946 147.67C293.016 147.641 293.095 147.641 293.165 147.67C293.236 147.698 293.292 147.753 293.322 147.822C293.338 147.886 293.33 147.953 293.301 148.012C293.272 148.071 293.224 148.118 293.164 148.145Z" fill="#96B562"/>
<path d="M289.514 140.441C287.433 143.26 285.566 146.232 283.931 149.332C283.64 149.952 283.383 150.553 283.172 151.147C283.172 151.147 282.908 151.358 282.802 151.318C282.731 151.291 282.673 151.238 282.641 151.169C282.608 151.099 282.605 151.02 282.63 150.949V150.896C283.851 147.523 286.485 143.755 289.026 140.111C292.563 135.036 295.91 130.244 295.052 127.215C294.87 126.665 294.563 126.166 294.155 125.754C293.747 125.343 293.25 125.032 292.702 124.846C290.333 123.816 287.844 123.994 285.303 125.367C279.812 128.344 274.743 136.818 273.311 145.523C270.566 161.812 273.905 174.108 274.334 175.56L275.938 176.048L276.44 176.2C276.513 176.223 276.575 176.274 276.61 176.342C276.646 176.41 276.654 176.49 276.631 176.563C276.614 176.614 276.584 176.659 276.543 176.694C276.502 176.729 276.453 176.752 276.4 176.761C276.359 176.771 276.316 176.771 276.275 176.761H276.222L274.017 176.101C273.972 176.087 273.931 176.062 273.898 176.029C273.865 175.996 273.84 175.955 273.826 175.91C273.786 175.784 269.807 162.855 272.737 145.457C274.235 136.594 279.396 127.941 285.026 124.892C287.732 123.427 290.392 123.242 292.946 124.351C293.566 124.574 294.125 124.937 294.583 125.411C295.041 125.884 295.384 126.456 295.586 127.083C296.55 130.35 293.138 135.254 289.514 140.441Z" fill="#96B562"/>
<path d="M289.323 128.164C286.076 130.877 275.463 146.077 275.958 165.461C275.958 166.372 276.031 167.296 276.103 168.22C276.111 168.292 276.091 168.365 276.046 168.422C276.002 168.48 275.937 168.519 275.866 168.53C275.795 168.534 275.725 168.513 275.669 168.469C275.613 168.425 275.575 168.362 275.562 168.292C275.558 168.282 275.558 168.27 275.562 168.259C273.866 147.344 285.528 130.593 288.986 127.716C289.046 127.669 289.121 127.646 289.196 127.654C289.271 127.661 289.34 127.698 289.389 127.755C289.413 127.786 289.43 127.821 289.44 127.859C289.449 127.897 289.451 127.936 289.445 127.974C289.439 128.012 289.425 128.049 289.404 128.082C289.383 128.115 289.355 128.143 289.323 128.164Z" fill="#96B562"/>
<path d="M183.544 56.8602L177.38 60.4176C177.38 60.1404 177.433 59.8698 177.433 59.5992V57.8172C177.433 54.6426 175.202 53.3556 172.45 54.9462C171.268 55.6721 170.257 56.6447 169.486 57.7974C169.037 53.8374 165.902 52.3194 162.101 54.4974C157.989 56.8668 154.656 62.6418 154.656 67.3938V70.0338C154.629 71.0996 154.843 72.1578 155.283 73.1292L150.175 76.0794C149.37 76.6014 148.699 77.3064 148.219 78.1369C147.738 78.9673 147.461 79.8997 147.409 80.8578C147.409 82.62 148.643 83.3328 150.175 82.455L183.538 63.1896C184.341 62.6668 185.01 61.9614 185.49 61.131C185.969 60.3006 186.246 59.3687 186.296 58.4112C186.303 56.6952 185.069 55.9824 183.544 56.8602Z" fill="#EBEBEB"/>
<path d="M221.25 60.7199L216.63 63.3995C216.63 63.1949 216.67 62.9903 216.67 62.7857V61.4657C216.67 59.0699 214.987 58.0997 212.914 59.3009C212.019 59.8467 211.253 60.5809 210.67 61.4525C210.334 58.4363 207.971 57.3143 205.1 58.9775C201.998 60.7661 199.477 65.1221 199.477 68.7059V70.6859C199.454 71.4915 199.619 72.2912 199.958 73.0223L196.071 75.2399C195.463 75.6331 194.958 76.1647 194.595 76.7911C194.232 77.4174 194.024 78.1208 193.985 78.8435C193.985 80.1635 194.916 80.7113 196.071 80.0513L221.25 65.5313C221.856 65.1351 222.361 64.602 222.723 63.9749C223.085 63.3477 223.295 62.6442 223.336 61.9211C223.336 60.5813 222.398 60.0599 221.25 60.7199Z" fill="#EBEBEB"/>
<path d="M183.981 263.504L179.044 260.653L182.634 258.581C183.278 258.268 183.822 257.78 184.202 257.173C184.582 256.566 184.783 255.865 184.783 255.149C184.783 254.432 184.582 253.731 184.202 253.124C183.822 252.517 183.278 252.029 182.634 251.717L173.698 246.555C172.618 245.988 171.416 245.691 170.196 245.691C168.977 245.691 167.775 245.988 166.695 246.555L160.663 250.04L129.498 232.042C128.427 231.454 127.221 231.156 126 231.177C124.776 231.151 123.566 231.449 122.495 232.042L109.757 239.401C108.847 239.866 108.063 240.546 107.473 241.381C106.898 242.379 106.723 243.559 106.985 244.681L113.585 277.681C113.968 279.338 115.209 280.783 117.274 281.978L126.191 287.099C127.257 287.693 128.462 287.991 129.682 287.964C130.898 287.988 132.098 287.69 133.161 287.099L158.511 272.467L165.89 276.724C166.97 277.29 168.172 277.585 169.391 277.585C170.611 277.585 171.812 277.29 172.893 276.724L183.981 270.368C184.627 270.057 185.172 269.57 185.554 268.963C185.936 268.356 186.138 267.653 186.138 266.936C186.138 266.219 185.936 265.516 185.554 264.909C185.172 264.302 184.627 263.815 183.981 263.504ZM134.89 264.917L133.411 257.485L140.586 261.63L134.89 264.917Z" fill="#E0E0E0"/>
<path d="M42.2716 260.932C47.3744 262.793 52.2306 265.271 56.7321 268.311C61.7878 271.73 66.4144 275.881 71.7802 278.699C78.7894 282.389 86.8546 283.722 94.7482 283.319C99.2164 283.101 104.081 282.125 106.958 278.6C107.736 277.717 108.2 276.6 108.278 275.426C108.278 273.71 107.136 272.231 105.922 271.043C99.5001 264.747 90.4251 262.146 81.6801 260.107C72.9352 258.068 67.7014 255.533 59.128 250.953C55.4584 248.973 51.868 246.881 48.1456 245.013L48.0532 244.967C46.2308 243.969 44.3559 243.07 42.4366 242.274C39.9088 241.343 37.8166 240.663 35.0182 240.875C32.2198 241.086 29.0782 241.04 27.151 243.303C26.3547 244.258 25.8493 245.421 25.6948 246.654C25.5404 247.887 25.7434 249.139 26.2798 250.26C28.999 256.53 36.424 258.8 42.2716 260.932Z" fill="#E0E0E0"/>
<path d="M233.606 212.156C231.369 210.737 228.9 209.245 226.26 207.72C223.62 206.196 220.98 204.757 218.4 203.384C214.912 201.6 211.25 200.182 207.47 199.154C203.431 198.054 199.268 197.477 195.082 197.438H194.541C190.314 197.46 186.104 197.983 182.001 198.995C177.302 200.173 172.795 202.016 168.616 204.466C164.068 207.106 160.867 209.747 158.841 212.499C156.723 215.409 155.7 218.353 155.799 221.257C155.968 224.313 157.16 227.224 159.184 229.52C161.36 232.077 163.916 234.285 166.761 236.067C169.071 237.533 171.599 239.057 174.272 240.601C176.945 242.146 179.552 243.572 181.961 244.845C185.452 246.625 189.116 248.041 192.897 249.069C196.933 250.173 201.095 250.749 205.279 250.785H205.86C210.086 250.764 214.296 250.242 218.4 249.228C223.099 248.051 227.606 246.208 231.784 243.756C236.338 241.116 239.539 238.476 241.559 235.724C243.684 232.82 244.707 229.87 244.602 226.966C244.434 223.909 243.241 220.998 241.216 218.703C239.027 216.146 236.461 213.938 233.606 212.156ZM218.426 229.632C218.195 229.982 217.555 230.715 215.786 231.731C214.457 232.523 213.015 233.107 211.509 233.46C210.438 233.697 209.345 233.818 208.249 233.823C207.958 233.823 207.668 233.823 207.378 233.823C206.029 233.739 204.698 233.477 203.418 233.045C202.008 232.561 200.64 231.965 199.326 231.263C194.524 228.813 189.854 226.114 185.334 223.178C184.306 222.562 183.358 221.824 182.509 220.98C182.072 220.576 181.751 220.063 181.578 219.495C181.578 219.416 181.506 219.158 181.862 218.61C182.093 218.267 182.733 217.534 184.502 216.511C185.829 215.718 187.272 215.137 188.779 214.789C189.802 214.561 190.846 214.444 191.894 214.439C192.217 214.439 192.554 214.439 192.838 214.472C194.187 214.571 195.517 214.842 196.798 215.277C198.222 215.759 199.614 216.335 200.962 217C205.761 219.495 210.48 222.214 215.001 225.059C216.046 225.695 217.022 226.441 217.911 227.283C218.331 227.643 218.636 228.118 218.789 228.649C218.776 228.748 218.829 229.019 218.439 229.632H218.426Z" fill="#E0E0E0"/>
<path d="M307.176 192.369L302.239 189.518L305.829 187.446C306.473 187.133 307.017 186.646 307.397 186.039C307.777 185.432 307.978 184.73 307.978 184.014C307.978 183.298 307.777 182.596 307.397 181.989C307.017 181.382 306.473 180.895 305.829 180.582L296.886 175.421C295.806 174.853 294.605 174.556 293.385 174.556C292.165 174.556 290.963 174.853 289.884 175.421L283.851 178.899L252.686 160.907C251.606 160.34 250.405 160.043 249.185 160.043C247.965 160.043 246.763 160.34 245.683 160.907L232.952 168.26C232.039 168.723 231.253 169.403 230.662 170.24C230.085 171.237 229.91 172.418 230.173 173.54L236.773 206.54C237.156 208.196 238.397 209.642 240.463 210.836L249.406 215.997C250.472 216.591 251.677 216.889 252.897 216.862C254.119 216.89 255.327 216.592 256.395 215.997L281.746 201.359L289.125 205.622C290.204 206.19 291.406 206.487 292.626 206.487C293.846 206.487 295.047 206.19 296.127 205.622L307.169 199.247C307.815 198.936 308.361 198.449 308.742 197.842C309.124 197.235 309.327 196.532 309.327 195.815C309.327 195.097 309.124 194.395 308.742 193.788C308.361 193.181 307.815 192.693 307.169 192.383L307.176 192.369ZM258.085 193.775L256.58 186.35L263.754 190.488L258.085 193.775Z" fill="#E0E0E0"/>
<path d="M235.784 262.68C235.958 262.599 236.149 262.557 236.341 262.557C236.534 262.557 236.724 262.599 236.899 262.68L239.084 263.948C239.148 263.973 239.203 264.017 239.243 264.073C239.283 264.129 239.305 264.196 239.308 264.264C239.304 264.334 239.281 264.401 239.241 264.458C239.202 264.515 239.147 264.56 239.084 264.588L229.316 270.231C229.142 270.317 228.951 270.362 228.758 270.362C228.564 270.362 228.373 270.317 228.2 270.231L214.881 262.542C214.818 262.513 214.763 262.468 214.722 262.411C214.682 262.354 214.657 262.288 214.65 262.218C214.658 262.149 214.683 262.083 214.723 262.026C214.764 261.97 214.818 261.924 214.881 261.895L224.491 256.351C224.663 256.264 224.853 256.219 225.045 256.219C225.238 256.219 225.428 256.264 225.6 256.351L227.784 257.612C227.849 257.639 227.904 257.684 227.945 257.741C227.986 257.798 228.01 257.865 228.015 257.935C228.009 258.005 227.985 258.072 227.944 258.128C227.904 258.185 227.848 258.23 227.784 258.258L221.435 261.921L223.666 263.208L229.56 259.803C229.733 259.716 229.924 259.671 230.117 259.671C230.311 259.671 230.502 259.716 230.675 259.803L232.86 261.063C232.923 261.091 232.978 261.136 233.018 261.193C233.057 261.251 233.08 261.318 233.084 261.387C233.08 261.456 233.056 261.523 233.017 261.58C232.977 261.637 232.923 261.682 232.86 261.71L226.959 265.109L229.269 266.429L235.784 262.68Z" fill="#455A64"/>
<path d="M239.044 252.253C239.217 252.166 239.408 252.121 239.602 252.121C239.795 252.121 239.986 252.166 240.16 252.253L242.239 253.454C242.302 253.482 242.357 253.527 242.396 253.584C242.436 253.641 242.459 253.708 242.463 253.777C242.458 253.846 242.435 253.913 242.396 253.97C242.356 254.027 242.302 254.072 242.239 254.101L240.364 255.183C239.097 255.909 239.097 256.642 240.364 257.368L245.433 260.298C245.497 260.326 245.553 260.37 245.594 260.427C245.634 260.485 245.659 260.552 245.664 260.622C245.658 260.691 245.633 260.758 245.593 260.815C245.552 260.872 245.497 260.917 245.433 260.945L242.839 262.443C242.666 262.53 242.475 262.575 242.281 262.575C242.088 262.575 241.897 262.53 241.724 262.443L232.114 256.893C232.042 256.872 231.979 256.829 231.934 256.769C231.89 256.71 231.865 256.637 231.865 256.563C231.865 256.488 231.89 256.415 231.934 256.356C231.979 256.296 232.042 256.253 232.114 256.233L234.51 254.853C234.682 254.766 234.872 254.721 235.064 254.721C235.257 254.721 235.447 254.766 235.619 254.853L236.094 255.124C236.123 254.73 236.262 254.352 236.497 254.035C236.854 253.582 237.304 253.21 237.817 252.946L239.044 252.253Z" fill="#455A64"/>
<path d="M249.024 246.492C249.194 246.4 249.385 246.355 249.578 246.36C249.773 246.355 249.966 246.4 250.139 246.492L252.218 247.693C252.282 247.721 252.336 247.766 252.376 247.823C252.415 247.88 252.438 247.947 252.442 248.016C252.438 248.086 252.414 248.152 252.375 248.209C252.335 248.266 252.281 248.311 252.218 248.34L250.344 249.422C249.076 250.148 249.076 250.879 250.344 251.613L255.412 254.537C255.477 254.564 255.532 254.608 255.572 254.666C255.612 254.723 255.634 254.791 255.637 254.861C255.632 254.93 255.609 254.996 255.569 255.053C255.53 255.11 255.476 255.155 255.412 255.184L252.819 256.682C252.645 256.769 252.454 256.814 252.261 256.814C252.067 256.814 251.876 256.769 251.703 256.682L242.094 251.132C242.03 251.105 241.976 251.061 241.936 251.005C241.897 250.949 241.873 250.883 241.869 250.815C241.873 250.745 241.896 250.678 241.936 250.621C241.975 250.564 242.03 250.519 242.094 250.491L244.489 249.112C244.659 249.02 244.851 248.974 245.044 248.98C245.237 248.975 245.428 249.02 245.598 249.112L246.073 249.383C246.102 248.989 246.242 248.611 246.476 248.294C246.833 247.84 247.283 247.469 247.796 247.205L249.024 246.492Z" fill="#455A64"/>
<path d="M266.751 241.562C266.975 241.674 267.246 241.819 267.569 242.004C267.892 242.189 268.143 242.347 268.341 242.479C268.902 242.807 269.381 243.258 269.74 243.799C270.033 244.251 270.168 244.787 270.123 245.324C270.047 245.916 269.797 246.472 269.404 246.921C268.864 247.541 268.218 248.059 267.496 248.452C266.668 248.932 265.78 249.302 264.856 249.554C263.956 249.798 263.03 249.938 262.098 249.97C261.212 249.999 260.326 249.924 259.458 249.746C258.653 249.589 257.875 249.318 257.148 248.941C256.93 248.828 256.659 248.677 256.336 248.492C256.012 248.307 255.755 248.149 255.564 248.023C254.991 247.702 254.502 247.25 254.138 246.703C253.848 246.246 253.718 245.705 253.768 245.165C253.85 244.572 254.102 244.014 254.494 243.562C255.022 242.933 255.665 242.411 256.389 242.024C257.216 241.543 258.104 241.174 259.029 240.928C259.939 240.688 260.873 240.548 261.814 240.512C262.699 240.477 263.586 240.551 264.454 240.73C265.255 240.896 266.029 241.176 266.751 241.562ZM260.731 246.749C261.289 247.024 261.906 247.155 262.527 247.132C263.151 247.108 263.761 246.931 264.302 246.617C264.85 246.301 265.147 245.957 265.186 245.594C265.226 245.231 265.008 244.888 264.526 244.558C264.315 244.403 264.094 244.259 263.866 244.129C263.625 243.991 263.376 243.865 263.121 243.753C262.567 243.475 261.951 243.343 261.332 243.37C260.707 243.391 260.098 243.566 259.557 243.878C259.009 244.202 258.712 244.538 258.672 244.908C258.633 245.278 258.85 245.614 259.332 245.944C259.542 246.1 259.763 246.241 259.992 246.367C260.231 246.503 260.478 246.624 260.731 246.73V246.749Z" fill="#455A64"/>
<path d="M272.11 233.159C272.283 233.072 272.474 233.027 272.667 233.027C272.861 233.027 273.052 233.072 273.225 233.159L275.311 234.36C275.374 234.389 275.428 234.434 275.467 234.491C275.507 234.548 275.53 234.614 275.535 234.684C275.531 234.753 275.508 234.82 275.468 234.877C275.429 234.934 275.374 234.979 275.311 235.007L273.43 236.089C272.171 236.815 272.171 237.546 273.43 238.281L278.505 241.204C278.568 241.233 278.622 241.278 278.662 241.335C278.701 241.392 278.725 241.459 278.729 241.528C278.725 241.597 278.702 241.664 278.663 241.721C278.623 241.778 278.569 241.823 278.505 241.851L275.905 243.349C275.734 243.441 275.543 243.486 275.35 243.481C275.157 243.487 274.966 243.441 274.796 243.349L265.16 237.805C265.096 237.777 265.04 237.732 265 237.675C264.959 237.618 264.935 237.552 264.929 237.482C264.934 237.412 264.958 237.345 264.999 237.288C265.04 237.231 265.095 237.186 265.16 237.159L267.549 235.779C267.722 235.693 267.913 235.648 268.107 235.648C268.3 235.648 268.491 235.693 268.664 235.779L269.14 236.05C269.165 235.655 269.305 235.277 269.542 234.961C269.897 234.506 270.348 234.134 270.862 233.872L272.11 233.159Z" fill="#455A64"/>
<path d="M181.762 257.125L170.714 263.5C170.009 263.856 169.23 264.041 168.44 264.041C167.65 264.041 166.872 263.856 166.167 263.5L157.587 258.537L130.989 273.902C130.28 274.254 129.499 274.437 128.708 274.437C127.917 274.437 127.137 274.254 126.428 273.902L117.492 268.734C116.026 267.898 115.182 266.989 114.957 266.008L108.357 233.087C108.323 232.893 108.308 232.697 108.311 232.5C108.311 233.16 108.311 241.351 108.311 241.74C108.314 241.91 108.33 242.08 108.357 242.248L114.957 275.169C115.182 276.146 116.026 277.054 117.492 277.895L126.428 283.056C127.135 283.412 127.916 283.597 128.708 283.597C129.5 283.597 130.281 283.412 130.989 283.056L157.58 267.711L166.16 272.674C166.865 273.03 167.644 273.215 168.434 273.215C169.223 273.215 170.002 273.03 170.707 272.674L181.756 266.299C182.018 266.186 182.243 266.003 182.407 265.77C182.572 265.537 182.668 265.263 182.686 264.979V255.805C182.668 256.088 182.572 256.361 182.409 256.594C182.246 256.827 182.022 257.01 181.762 257.125Z" fill="#96B562"/>
<path d="M181.34 253.197V244.023C181.319 244.307 181.221 244.58 181.057 244.812C180.893 245.045 180.67 245.228 180.409 245.343L173.149 249.528L180.984 254.049C181.201 253.817 181.328 253.515 181.34 253.197Z" fill="#96B562"/>
<path d="M131.035 251.904L136.533 255.092L144.486 250.505L128.963 241.535L131.029 251.904H131.035Z" fill="#96B562"/>
<path opacity="0.35" d="M131.035 251.904L136.533 255.092L144.486 250.505L128.963 241.535L131.029 251.904H131.035Z" fill="black"/>
<path opacity="0.2" d="M181.34 253.197V244.023C181.319 244.307 181.221 244.58 181.057 244.812C180.893 245.045 180.67 245.228 180.409 245.343L173.149 249.528L180.984 254.049C181.201 253.817 181.328 253.515 181.34 253.197Z" fill="black"/>
<path opacity="0.2" d="M181.763 257.126L170.714 263.501C170.018 263.883 169.231 264.07 168.438 264.042V273.243C169.231 273.27 170.018 273.083 170.714 272.702L181.763 266.326C182.025 266.213 182.25 266.03 182.414 265.797C182.579 265.564 182.675 265.29 182.693 265.006V255.832C182.67 256.112 182.571 256.38 182.407 256.607C182.243 256.835 182.021 257.014 181.763 257.126Z" fill="black"/>
<path opacity="0.25" d="M114.957 265.981L108.357 233.06C108.323 232.866 108.308 232.669 108.311 232.473C108.311 233.133 108.311 241.323 108.311 241.713C108.314 241.883 108.33 242.053 108.357 242.221L114.957 275.142C115.002 275.334 115.071 275.521 115.162 275.696V266.522C115.072 266.351 115.003 266.169 114.957 265.981Z" fill="black"/>
<path opacity="0.35" d="M128.712 274.417C127.917 274.438 127.131 274.254 126.428 273.882L117.492 268.714C116.515 268.241 115.703 267.485 115.162 266.543V275.717C115.703 276.659 116.515 277.415 117.492 277.888L126.428 283.05C127.129 283.427 127.916 283.614 128.712 283.591C128.795 283.601 128.879 283.601 128.963 283.591V274.417C128.879 274.427 128.795 274.427 128.712 274.417Z" fill="black"/>
<path opacity="0.2" d="M130.989 273.9C130.367 274.237 129.67 274.413 128.963 274.415V283.589C129.671 283.588 130.368 283.409 130.989 283.067L157.58 267.709V258.535L130.989 273.9Z" fill="black"/>
<path opacity="0.35" d="M166.16 263.498L157.58 258.535V267.709L166.16 272.672C166.854 273.055 167.639 273.242 168.43 273.214V264.04C167.639 264.068 166.854 263.881 166.16 263.498Z" fill="black"/>
<path d="M170.714 263.499C170.008 263.854 169.228 264.04 168.437 264.04C167.646 264.04 166.866 263.854 166.16 263.499L157.58 258.535L130.989 273.9C130.281 274.252 129.502 274.435 128.712 274.435C127.922 274.435 127.142 274.252 126.435 273.9L117.492 268.739C116.035 267.894 115.193 266.986 114.964 266.013L108.364 233.093C108.232 232.586 108.291 232.048 108.529 231.581C108.917 231.09 109.408 230.692 109.968 230.413L122.699 223.06C123.4 222.684 124.188 222.5 124.983 222.526C125.774 222.5 126.557 222.684 127.253 223.06L159.646 241.758L166.906 237.574C167.612 237.218 168.392 237.033 169.183 237.033C169.974 237.033 170.754 237.218 171.46 237.574L180.403 242.735C180.679 242.828 180.92 243.005 181.09 243.242C181.26 243.479 181.352 243.763 181.352 244.055C181.352 244.347 181.26 244.631 181.09 244.868C180.92 245.105 180.679 245.282 180.403 245.375L173.143 249.566L181.723 254.529C181.996 254.625 182.233 254.804 182.401 255.04C182.568 255.277 182.658 255.56 182.658 255.849C182.658 256.139 182.568 256.422 182.401 256.658C182.233 256.895 181.996 257.073 181.723 257.169L170.714 263.499ZM144.479 250.497L128.963 241.56L132.17 257.631L144.479 250.497Z" fill="#96B562"/>
<path d="M241.15 216.395C241.11 218.606 240.239 220.863 238.562 223.16C236.767 225.628 233.76 228.079 229.54 230.512C225.564 232.849 221.275 234.604 216.802 235.726C212.701 236.746 208.488 237.245 204.262 237.211C200.288 237.177 196.335 236.629 192.501 235.581C188.88 234.6 185.372 233.245 182.033 231.535C179.618 230.268 177.097 228.895 174.443 227.344C171.79 225.793 169.328 224.335 167.025 222.869C164.396 221.228 162.037 219.191 160.029 216.83C158.344 214.953 157.348 212.558 157.204 210.039C157.25 211.491 157.145 217.603 157.204 219.213C157.348 221.732 158.344 224.127 160.029 226.004C162.037 228.365 164.396 230.402 167.025 232.043C169.326 233.509 171.799 235 174.443 236.518C177.083 238.043 179.618 239.442 182.033 240.716C185.374 242.42 188.882 243.774 192.501 244.755C196.335 245.803 200.288 246.351 204.262 246.385C208.488 246.419 212.701 245.92 216.802 244.9C221.275 243.778 225.564 242.023 229.54 239.686C233.764 237.249 236.772 234.798 238.562 232.334C240.364 229.872 241.202 227.456 241.136 225.107C241.09 223.741 241.176 218.461 241.15 216.395Z" fill="#96B562"/>
<path opacity="0.35" d="M206.526 237.165C205.773 237.165 205.021 237.224 204.275 237.211C200.301 237.177 196.348 236.629 192.514 235.581C188.893 234.6 185.385 233.245 182.046 231.535C179.631 230.268 177.109 228.895 174.456 227.344C171.803 225.793 169.341 224.335 167.038 222.869C164.409 221.228 162.049 219.191 160.042 216.83C158.357 214.953 157.36 212.558 157.217 210.039C157.263 211.491 157.157 217.603 157.217 219.213C157.36 221.732 158.357 224.127 160.042 226.004C162.049 228.365 164.409 230.402 167.038 232.043C169.339 233.509 171.812 235 174.456 236.518C177.096 238.043 179.631 239.442 182.046 240.716C185.386 242.42 188.894 243.774 192.514 244.755C196.348 245.803 200.301 246.351 204.275 246.385C205.021 246.385 205.773 246.385 206.526 246.339V237.165Z" fill="black"/>
<path opacity="0.2" d="M241.149 216.395C241.11 218.606 240.238 220.863 238.562 223.16C236.767 225.628 233.759 228.079 229.54 230.512C225.564 232.848 221.275 234.604 216.802 235.726C213.436 236.551 209.995 237.033 206.532 237.165V246.339C209.995 246.204 213.435 245.722 216.802 244.9C221.275 243.778 225.564 242.022 229.54 239.686C233.764 237.248 236.771 234.798 238.562 232.334C240.364 229.872 241.202 227.456 241.136 225.107C241.09 223.74 241.176 218.46 241.149 216.395Z" fill="black"/>
<path d="M179.776 211.524C180.287 212.046 180.836 212.529 181.42 212.969C181.704 212.784 181.987 212.599 182.304 212.415C183.854 211.508 185.531 210.84 187.281 210.435C188.846 210.086 190.453 209.966 192.052 210.078C193.605 210.191 195.137 210.499 196.613 210.996C198.159 211.52 199.671 212.139 201.141 212.85C206.029 215.424 210.752 218.154 215.311 221.041C215.905 221.41 216.453 221.793 216.954 222.163C217.958 221.573 218.832 220.785 219.522 219.846C220.101 219.044 220.338 218.045 220.182 217.068C219.941 216.05 219.398 215.13 218.624 214.428C217.608 213.461 216.49 212.607 215.291 211.88C210.728 208.976 206.011 206.241 201.141 203.676C199.678 202.959 198.172 202.333 196.633 201.802C195.157 201.306 193.625 200.997 192.072 200.884C190.472 200.772 188.865 200.894 187.3 201.247C185.55 201.649 183.872 202.317 182.324 203.227C180.974 203.916 179.795 204.897 178.872 206.098C178.579 206.487 178.37 206.932 178.256 207.406C178.143 207.879 178.128 208.371 178.212 208.851C178.485 209.865 179.025 210.789 179.776 211.524Z" fill="#96B562"/>
<path opacity="0.35" d="M179.776 211.524C180.287 212.046 180.836 212.529 181.42 212.969C181.704 212.784 181.987 212.599 182.304 212.415C183.854 211.508 185.531 210.84 187.281 210.435C188.846 210.086 190.453 209.966 192.052 210.078C193.605 210.191 195.137 210.499 196.613 210.996C198.159 211.52 199.671 212.139 201.141 212.85C206.029 215.424 210.752 218.154 215.311 221.041C215.905 221.41 216.453 221.793 216.954 222.163C217.958 221.573 218.832 220.785 219.522 219.846C220.101 219.044 220.338 218.045 220.182 217.068C219.941 216.05 219.398 215.13 218.624 214.428C217.608 213.461 216.49 212.607 215.291 211.88C210.728 208.976 206.011 206.241 201.141 203.676C199.678 202.959 198.172 202.333 196.633 201.802C195.157 201.306 193.625 200.997 192.072 200.884C190.472 200.772 188.865 200.894 187.3 201.247C185.55 201.649 183.872 202.317 182.324 203.227C180.974 203.916 179.795 204.897 178.872 206.098C178.579 206.487 178.37 206.932 178.256 207.406C178.143 207.879 178.128 208.371 178.212 208.851C178.485 209.865 179.025 210.789 179.776 211.524Z" fill="black"/>
<path d="M168.8 195.454C172.775 193.116 177.065 191.36 181.538 190.24C185.64 189.223 189.853 188.724 194.078 188.755C198.054 188.793 202.009 189.341 205.846 190.385C209.468 191.368 212.978 192.724 216.32 194.431C218.85 195.751 221.437 197.179 224.082 198.715C226.726 200.25 229.146 201.711 231.342 203.097C233.969 204.74 236.329 206.777 238.338 209.136C240.018 211.017 241.016 213.41 241.169 215.927C241.253 218.281 240.395 220.701 238.595 223.187C236.796 225.673 233.771 228.115 229.52 230.513C225.544 232.85 221.255 234.606 216.782 235.727C212.681 236.744 208.468 237.243 204.242 237.212C200.265 237.176 196.31 236.626 192.474 235.576C188.856 234.597 185.35 233.244 182.013 231.536C179.598 230.269 177.068 228.874 174.423 227.352C171.779 225.83 169.304 224.336 166.998 222.871C164.373 221.225 162.013 219.189 160.002 216.832C158.321 214.949 157.323 212.554 157.171 210.034C157.092 207.684 157.95 205.264 159.745 202.774C161.54 200.283 164.559 197.843 168.8 195.454ZM215.291 211.862C210.728 208.975 206.004 206.25 201.12 203.684C199.657 202.963 198.149 202.334 196.606 201.803C195.132 201.308 193.602 200.997 192.052 200.879C190.452 200.772 188.845 200.897 187.28 201.249C185.53 201.651 183.852 202.319 182.304 203.229C180.954 203.918 179.775 204.899 178.852 206.1C178.557 206.488 178.347 206.933 178.233 207.407C178.119 207.881 178.105 208.373 178.192 208.852C178.458 209.859 178.997 210.773 179.75 211.492C180.742 212.482 181.85 213.348 183.05 214.073C187.628 217.043 192.358 219.773 197.22 222.25C198.641 223.011 200.123 223.656 201.648 224.177C204.008 224.99 206.517 225.278 209 225.022C211.482 224.765 213.879 223.971 216.023 222.692C217.378 222.005 218.56 221.022 219.482 219.815C220.06 219.015 220.297 218.018 220.142 217.043C219.903 216.024 219.357 215.102 218.577 214.403C217.577 213.439 216.475 212.587 215.291 211.862Z" fill="#96B562"/>
<path d="M304.971 185.988L293.923 192.364C293.218 192.719 292.439 192.905 291.649 192.905C290.859 192.905 290.081 192.719 289.375 192.364L280.795 187.394L254.224 202.739C253.517 203.095 252.738 203.28 251.947 203.28C251.156 203.28 250.376 203.095 249.67 202.739L240.727 197.578C239.262 196.74 238.423 195.829 238.192 194.852L231.592 161.931C231.559 161.737 231.543 161.541 231.546 161.344C231.546 162.004 231.546 170.194 231.546 170.584C231.55 170.754 231.565 170.924 231.592 171.092L238.192 204.006C238.423 204.99 239.262 205.894 240.727 206.739L249.67 211.9C250.376 212.255 251.156 212.441 251.947 212.441C252.738 212.441 253.517 212.255 254.224 211.9L280.795 196.555L289.375 201.525C290.081 201.88 290.859 202.065 291.649 202.065C292.439 202.065 293.218 201.88 293.923 201.525L304.971 195.149C305.233 195.036 305.459 194.853 305.623 194.62C305.787 194.387 305.884 194.113 305.902 193.829V184.668C305.883 184.952 305.786 185.226 305.622 185.459C305.458 185.692 305.233 185.875 304.971 185.988Z" fill="#96B562"/>
<path d="M304.556 182.057V172.883C304.535 173.166 304.437 173.439 304.273 173.672C304.109 173.904 303.885 174.088 303.625 174.203L296.365 178.387L304.199 182.902C304.42 182.674 304.547 182.373 304.556 182.057Z" fill="#96B562"/>
<path d="M254.243 180.767L259.741 183.955L267.694 179.368L252.171 170.398L254.237 180.767H254.243Z" fill="#96B562"/>
<path opacity="0.35" d="M254.243 180.767L259.741 183.955L267.694 179.368L252.171 170.398L254.237 180.767H254.243Z" fill="black"/>
<path opacity="0.2" d="M304.556 182.057V172.883C304.535 173.166 304.437 173.439 304.273 173.672C304.109 173.904 303.885 174.088 303.625 174.203L296.365 178.387L304.199 182.902C304.42 182.674 304.547 182.373 304.556 182.057Z" fill="black"/>
<path opacity="0.2" d="M304.971 185.988L293.922 192.364C293.226 192.745 292.439 192.932 291.646 192.905V202.079C292.439 202.106 293.226 201.919 293.922 201.538L304.971 195.162C305.233 195.049 305.458 194.866 305.623 194.633C305.787 194.4 305.883 194.126 305.902 193.842V184.668C305.883 184.952 305.786 185.226 305.622 185.459C305.457 185.692 305.232 185.875 304.971 185.988Z" fill="black"/>
<path opacity="0.25" d="M238.166 194.852L231.566 161.931C231.533 161.737 231.517 161.541 231.52 161.344C231.52 162.004 231.52 170.194 231.52 170.584C231.524 170.754 231.539 170.924 231.566 171.092L238.166 204.006C238.209 204.202 238.28 204.391 238.377 204.567V195.393C238.282 195.223 238.211 195.041 238.166 194.852Z" fill="black"/>
<path opacity="0.35" d="M251.92 203.28C251.127 203.303 250.341 203.117 249.643 202.739L240.7 197.578C239.723 197.107 238.913 196.349 238.377 195.406V204.6C238.913 205.543 239.723 206.3 240.7 206.771L249.643 211.933C250.341 212.31 251.127 212.497 251.92 212.474C252.003 212.484 252.088 212.484 252.171 212.474V203.28C252.088 203.29 252.003 203.29 251.92 203.28Z" fill="black"/>
<path opacity="0.2" d="M254.197 202.74C253.577 203.082 252.88 203.262 252.171 203.261V212.435C252.88 212.436 253.577 212.256 254.197 211.914L280.769 196.569V187.395L254.197 202.74Z" fill="black"/>
<path opacity="0.35" d="M289.376 192.364L280.796 187.395V196.569L289.376 201.538C290.07 201.921 290.854 202.108 291.646 202.08V192.906C290.854 192.934 290.07 192.747 289.376 192.364Z" fill="black"/>
<path d="M293.929 192.365C293.23 192.744 292.441 192.929 291.646 192.9C290.853 192.925 290.067 192.74 289.369 192.365L280.789 187.402L254.217 202.74C253.51 203.092 252.73 203.275 251.94 203.275C251.15 203.275 250.371 203.092 249.663 202.74L240.72 197.579C239.264 196.734 238.421 195.826 238.192 194.853L231.592 161.932C231.463 161.425 231.522 160.889 231.757 160.421C232.145 159.93 232.636 159.532 233.196 159.253L245.928 151.9C246.635 151.545 247.416 151.359 248.208 151.359C249 151.359 249.781 151.545 250.488 151.9L282.874 170.598L290.134 166.407C290.842 166.056 291.621 165.873 292.411 165.873C293.201 165.873 293.981 166.056 294.688 166.407L303.625 171.601C303.901 171.694 304.141 171.872 304.312 172.109C304.482 172.345 304.574 172.63 304.574 172.921C304.574 173.213 304.482 173.497 304.312 173.734C304.141 173.971 303.901 174.149 303.625 174.241L296.365 178.432L304.945 183.396C305.218 183.492 305.455 183.67 305.622 183.907C305.79 184.143 305.88 184.426 305.88 184.716C305.88 185.005 305.79 185.288 305.622 185.525C305.455 185.761 305.218 185.94 304.945 186.036L293.929 192.365ZM267.694 179.363L252.171 170.407L255.379 186.471L267.694 179.363Z" fill="#96B562"/>
<path d="M205.924 146.825C206.499 144.145 195.562 150.461 194.988 153.141L198.499 162.625C198.627 162.899 198.834 163.129 199.093 163.285C199.866 163.76 202.717 165.371 202.961 165.522C203.159 165.643 203.382 165.718 203.612 165.74C203.843 165.763 204.076 165.732 204.293 165.652C204.511 165.571 204.707 165.442 204.867 165.274C205.027 165.107 205.147 164.905 205.218 164.684L209.785 149.022C210.076 147.735 205.924 146.825 205.924 146.825Z" fill="#96B562"/>
<path opacity="0.25" d="M205.924 146.825C206.499 144.145 195.562 150.461 194.988 153.141L198.499 162.625C198.627 162.899 198.834 163.129 199.093 163.285C199.866 163.76 202.717 165.371 202.961 165.522C203.159 165.643 203.382 165.718 203.612 165.74C203.843 165.763 204.076 165.732 204.293 165.652C204.511 165.571 204.707 165.442 204.867 165.274C205.027 165.107 205.147 164.905 205.218 164.684L209.785 149.022C210.076 147.735 205.924 146.825 205.924 146.825Z" fill="black"/>
<path d="M240.132 75.7411L148.874 128.389C148.446 128.667 148.09 129.042 147.834 129.484C147.578 129.925 147.43 130.421 147.402 130.93V181.09C147.43 181.6 147.578 182.096 147.834 182.537C148.09 182.979 148.446 183.354 148.874 183.631L149.792 184.153C150.247 184.384 150.75 184.505 151.26 184.505C151.77 184.505 152.274 184.384 152.729 184.153L243.993 131.445C244.421 131.166 244.776 130.789 245.031 130.347C245.285 129.904 245.432 129.407 245.459 128.898V78.7969C245.432 78.2879 245.285 77.7924 245.031 77.3508C244.776 76.9092 244.421 76.534 243.993 76.2559L243.076 75.7345C242.619 75.5047 242.115 75.3856 241.603 75.3867C241.092 75.3879 240.588 75.5093 240.132 75.7411Z" fill="#96B562"/>
<path opacity="0.25" d="M240.132 75.7411L148.874 128.389C148.446 128.667 148.09 129.042 147.834 129.484C147.578 129.925 147.43 130.421 147.402 130.93V181.09C147.43 181.6 147.578 182.096 147.834 182.537C148.09 182.979 148.446 183.354 148.874 183.631L149.792 184.153C150.247 184.384 150.75 184.505 151.26 184.505C151.77 184.505 152.274 184.384 152.729 184.153L243.993 131.445C244.421 131.166 244.776 130.789 245.031 130.347C245.285 129.904 245.432 129.407 245.459 128.898V78.7969C245.432 78.2879 245.285 77.7924 245.031 77.3508C244.776 76.9092 244.421 76.534 243.993 76.2559L243.076 75.7345C242.619 75.5047 242.115 75.3856 241.603 75.3867C241.092 75.3879 240.588 75.5093 240.132 75.7411Z" fill="black"/>
<path d="M245.465 78.7951V79.3693C245.464 79.1314 245.4 78.8981 245.28 78.6927C245.16 78.4873 244.988 78.317 244.782 78.1988C244.575 78.0805 244.341 78.0185 244.103 78.0189C243.866 78.0193 243.632 78.0821 243.426 78.2011L153.283 130.282C152.666 130.629 152.155 131.138 151.805 131.753V131.8L147.845 129.509C148.095 129.053 148.459 128.669 148.901 128.394L240.159 75.7393C240.615 75.5125 241.118 75.3945 241.627 75.3945C242.137 75.3945 242.64 75.5125 243.096 75.7393L244.013 76.2607C244.436 76.5404 244.788 76.9153 245.04 77.3554C245.293 77.7955 245.438 78.2886 245.465 78.7951Z" fill="#96B562"/>
<path opacity="0.45" d="M245.465 78.7951V79.3693C245.464 79.1314 245.4 78.8981 245.28 78.6927C245.16 78.4873 244.988 78.317 244.782 78.1988C244.575 78.0805 244.341 78.0185 244.103 78.0189C243.866 78.0193 243.632 78.0821 243.426 78.2011L153.283 130.282C152.666 130.629 152.155 131.138 151.805 131.753V131.8L147.845 129.509C148.095 129.053 148.459 128.669 148.901 128.394L240.159 75.7393C240.615 75.5125 241.118 75.3945 241.627 75.3945C242.137 75.3945 242.64 75.5125 243.096 75.7393L244.013 76.2607C244.436 76.5404 244.788 76.9153 245.04 77.3554C245.293 77.7955 245.438 78.2886 245.465 78.7951Z" fill="white"/>
<path d="M244.105 78.54C243.961 78.5405 243.82 78.5792 243.696 78.6522L153.547 130.739C153.014 131.047 152.571 131.49 152.263 132.023C151.954 132.555 151.792 133.16 151.791 133.775V182.668C151.791 182.945 151.85 183.592 152.385 183.592C152.62 183.582 152.848 183.509 153.045 183.381L199.819 156.374L202.743 164.485C202.868 164.768 203.075 165.005 203.338 165.167C203.601 165.329 203.907 165.407 204.215 165.392C204.524 165.376 204.82 165.267 205.065 165.079C205.31 164.891 205.492 164.634 205.588 164.34L209.548 150.757L243.208 131.327C244.429 130.627 244.97 129.914 244.97 129.023V79.3716C244.971 79.2593 244.949 79.148 244.905 79.0444C244.862 78.9409 244.798 78.8473 244.717 78.7695C244.636 78.6916 244.54 78.6311 244.435 78.5916C244.329 78.5522 244.217 78.5346 244.105 78.54Z" fill="white"/>
<path d="M152.385 184.138C151.725 184.138 151.27 183.571 151.27 182.693V133.774C151.271 133.067 151.458 132.372 151.811 131.76C152.164 131.147 152.672 130.638 153.283 130.282L243.432 78.2082C243.632 78.0896 243.859 78.0259 244.092 78.0234C244.439 78.0318 244.77 78.1736 245.016 78.4193C245.262 78.6651 245.404 78.996 245.412 79.3434V128.995C245.412 130.421 244.25 131.252 243.386 131.754L209.983 151.138L206.083 164.516C205.96 164.917 205.717 165.27 205.388 165.528C205.058 165.786 204.657 165.937 204.239 165.96C203.821 165.983 203.406 165.877 203.05 165.657C202.694 165.436 202.414 165.112 202.248 164.728L199.522 157.177L153.289 183.835C153.02 184.015 152.708 184.12 152.385 184.138ZM244.125 79.0992C244.072 79.0998 244.02 79.1134 243.973 79.1388L153.83 131.213C153.376 131.475 152.998 131.852 152.736 132.306C152.473 132.76 152.333 133.275 152.332 133.8V182.693C152.32 182.835 152.35 182.977 152.418 183.102C152.548 183.073 152.672 183.024 152.788 182.957L200.103 155.633L203.225 164.338C203.307 164.518 203.442 164.668 203.612 164.77C203.781 164.871 203.978 164.918 204.175 164.906C204.379 164.897 204.574 164.825 204.736 164.701C204.898 164.577 205.017 164.407 205.079 164.213L209.092 150.439L209.27 150.333L242.93 130.903C244.25 130.144 244.435 129.543 244.435 129.055V79.3698C244.434 79.3282 244.425 79.2872 244.408 79.2493C244.391 79.2114 244.366 79.1775 244.335 79.1496C244.304 79.1218 244.267 79.1006 244.228 79.0874C244.188 79.0742 244.147 79.0692 244.105 79.0728L244.125 79.0992Z" fill="#96B562"/>
<path d="M161.995 146.52C162.053 144.928 162.274 143.347 162.655 141.801C163.03 140.251 163.577 138.748 164.285 137.32C164.979 135.93 165.842 134.631 166.853 133.452C167.844 132.298 169.022 131.318 170.338 130.555C171.38 129.886 172.579 129.502 173.816 129.439C174.755 129.412 175.671 129.731 176.39 130.337C177.162 131.035 177.726 131.932 178.02 132.931C178.43 134.212 178.652 135.546 178.68 136.891C178.72 138.052 178.739 139.273 178.739 140.567C178.739 141.86 178.739 143.068 178.68 144.217C178.621 145.808 178.4 147.389 178.02 148.936C177.647 150.49 177.1 151.998 176.39 153.43C175.704 154.83 174.839 156.135 173.816 157.311C172.824 158.453 171.648 159.421 170.338 160.175C169.295 160.854 168.094 161.25 166.853 161.324C165.914 161.353 164.998 161.031 164.285 160.42C163.514 159.702 162.951 158.79 162.655 157.78C162.247 156.498 162.024 155.164 161.995 153.82C161.962 152.717 161.942 151.523 161.942 150.236C161.942 148.949 161.962 147.708 161.995 146.52ZM173.723 146.863C173.723 146.362 173.763 145.801 173.783 145.187C173.803 144.573 173.783 143.953 173.783 143.319C173.783 142.685 173.783 142.085 173.783 141.504C173.783 140.923 173.743 140.408 173.723 139.953C173.703 139.367 173.61 138.786 173.446 138.224C173.325 137.796 173.098 137.405 172.786 137.089C172.508 136.824 172.14 136.676 171.757 136.673C171.241 136.696 170.742 136.858 170.311 137.141C169.766 137.456 169.279 137.862 168.872 138.343C168.46 138.83 168.114 139.369 167.843 139.946C167.555 140.543 167.334 141.169 167.183 141.814C167.031 142.491 166.936 143.18 166.899 143.873C166.866 144.355 166.84 144.896 166.833 145.49C166.826 146.084 166.833 146.698 166.833 147.332C166.833 147.965 166.833 148.579 166.833 149.173C166.833 149.767 166.833 150.308 166.899 150.784C166.872 151.82 167.198 152.834 167.823 153.661C168.364 154.255 169.187 154.233 170.291 153.595C171.393 152.962 172.258 151.987 172.753 150.817C173.312 149.563 173.641 148.22 173.723 146.85V146.863Z" fill="#455A64"/>
<path d="M195.424 133.01C195.424 133.406 195.424 133.934 195.424 134.574C195.424 135.214 195.424 135.755 195.424 136.178C195.382 137.542 195.185 138.897 194.836 140.217C194.487 141.558 193.994 142.857 193.364 144.091C192.756 145.295 191.998 146.417 191.107 147.431C190.263 148.399 189.267 149.224 188.157 149.873C187.268 150.438 186.251 150.769 185.2 150.836C184.384 150.876 183.581 150.615 182.943 150.104C182.267 149.526 181.761 148.775 181.478 147.932C181.097 146.85 180.897 145.713 180.884 144.566C180.884 144.164 180.884 143.642 180.884 142.995C180.884 142.349 180.884 141.821 180.884 141.398C180.911 140.039 181.099 138.687 181.445 137.372C181.796 136.028 182.294 134.727 182.93 133.491C183.551 132.284 184.313 131.154 185.2 130.125C186.041 129.143 187.04 128.309 188.157 127.657C189.043 127.095 190.059 126.772 191.107 126.72C191.927 126.7 192.729 126.964 193.378 127.466C194.061 128.041 194.57 128.795 194.849 129.644C195.216 130.729 195.41 131.864 195.424 133.01ZM185.695 141.59C185.748 142.606 185.992 143.279 186.428 143.616C186.863 143.952 187.444 143.913 188.157 143.504C188.903 143.059 189.502 142.405 189.88 141.623C190.329 140.73 190.579 139.75 190.612 138.752C190.645 138.323 190.665 137.847 190.665 137.326C190.665 136.805 190.665 136.349 190.612 135.953C190.559 134.946 190.315 134.272 189.88 133.934C189.444 133.597 188.87 133.63 188.157 134.046C187.412 134.491 186.812 135.142 186.428 135.92C185.979 136.815 185.729 137.797 185.695 138.798C185.662 139.227 185.642 139.702 185.642 140.223C185.642 140.745 185.662 141.194 185.695 141.583V141.59Z" fill="#455A64"/>
<path d="M206.328 139.384C205.908 139.643 205.445 139.827 204.961 139.925C204.626 139.996 204.28 139.996 203.945 139.925C203.679 139.851 203.433 139.718 203.226 139.536C203.044 139.382 202.882 139.207 202.744 139.014V147.779C202.739 148.092 202.667 148.401 202.533 148.683C202.432 148.938 202.254 149.155 202.024 149.304L198.658 151.284C198.583 151.339 198.49 151.366 198.397 151.359C198.304 151.351 198.216 151.311 198.15 151.244C198.071 151.155 198.01 151.05 197.973 150.937C197.935 150.823 197.921 150.703 197.932 150.584V123.531C197.936 123.217 198.011 122.908 198.15 122.627C198.251 122.372 198.429 122.155 198.658 122.006L201.892 120.138C201.968 120.083 202.061 120.056 202.154 120.064C202.247 120.071 202.335 120.111 202.401 120.178C202.478 120.268 202.537 120.373 202.573 120.487C202.609 120.6 202.622 120.719 202.612 120.838V121.788C202.77 121.419 202.948 121.029 203.133 120.62C203.325 120.198 203.557 119.796 203.826 119.419C204.127 119 204.467 118.611 204.843 118.257C205.293 117.839 205.791 117.475 206.328 117.175C207.016 116.752 207.793 116.492 208.598 116.416C208.938 116.393 209.279 116.439 209.6 116.553C209.921 116.666 210.216 116.844 210.466 117.076C211.089 117.679 211.544 118.435 211.786 119.267C212.154 120.528 212.338 121.835 212.334 123.148C212.334 123.544 212.334 124.098 212.334 124.798C212.334 125.498 212.334 126.059 212.334 126.481C212.311 127.999 212.127 129.51 211.786 130.989C211.48 132.263 211.037 133.5 210.466 134.678C209.977 135.704 209.348 136.656 208.598 137.51C207.944 138.249 207.177 138.881 206.328 139.384ZM207.529 128.732C207.582 127.965 207.582 127.195 207.529 126.428C207.526 125.668 207.314 124.924 206.915 124.277C206.559 123.768 205.958 123.755 205.12 124.237C204.732 124.465 204.39 124.763 204.11 125.115C203.825 125.473 203.585 125.866 203.397 126.283C203.213 126.709 203.067 127.151 202.962 127.603C202.852 128.036 202.779 128.478 202.744 128.923C202.711 129.352 202.691 129.847 202.691 130.395C202.691 130.943 202.691 131.411 202.744 131.801C202.772 132.165 202.845 132.524 202.962 132.87C203.051 133.163 203.199 133.435 203.397 133.668C203.582 133.871 203.837 133.996 204.11 134.018C204.469 134.024 204.821 133.92 205.12 133.721C205.947 133.252 206.582 132.507 206.915 131.616C207.273 130.693 207.48 129.72 207.529 128.732Z" fill="#455A64"/>
<path d="M222.728 123.084C222.728 122.78 222.662 122.589 222.53 122.496C222.318 122.414 222.082 122.414 221.87 122.496C221.438 122.605 221.013 122.74 220.596 122.899C220.075 123.09 219.421 123.308 218.616 123.559C217.261 123.955 216.218 123.788 215.488 123.057C214.755 122.331 214.392 121.031 214.392 119.17C214.398 118.2 214.551 117.236 214.848 116.312C215.16 115.323 215.585 114.373 216.115 113.481C216.672 112.554 217.337 111.697 218.095 110.926C218.857 110.153 219.721 109.487 220.662 108.946C221.445 108.462 222.315 108.135 223.223 107.983C223.902 107.861 224.601 107.911 225.256 108.128C225.802 108.329 226.266 108.705 226.576 109.197C226.913 109.725 227.102 110.333 227.124 110.959C227.139 111.271 227.07 111.581 226.926 111.857C226.823 112.125 226.641 112.355 226.404 112.517L223.223 114.352C223.025 114.464 222.873 114.49 222.754 114.418C222.623 114.338 222.486 114.267 222.345 114.207C222.146 114.127 221.932 114.095 221.718 114.114C221.331 114.173 220.961 114.317 220.636 114.537C220.243 114.756 219.893 115.047 219.606 115.395C219.339 115.707 219.191 116.105 219.19 116.517C219.165 116.745 219.211 116.976 219.322 117.177C219.415 117.287 219.593 117.313 219.857 117.256C220.237 117.163 220.611 117.051 220.979 116.919C221.461 116.748 222.094 116.536 222.88 116.259C224.497 115.738 225.678 115.896 226.417 116.748C227.229 117.819 227.624 119.149 227.526 120.49C227.519 121.464 227.366 122.432 227.071 123.361C226.755 124.383 226.311 125.36 225.751 126.271C225.145 127.251 224.427 128.157 223.612 128.971C222.759 129.82 221.798 130.555 220.755 131.155C219.894 131.692 218.936 132.055 217.936 132.225C217.246 132.339 216.537 132.256 215.89 131.987C215.355 131.745 214.91 131.338 214.623 130.825C214.322 130.297 214.152 129.704 214.128 129.096C214.112 128.785 214.181 128.475 214.326 128.199C214.429 127.931 214.611 127.701 214.848 127.539L218.148 125.625C218.346 125.512 218.484 125.506 218.577 125.625C218.678 125.736 218.793 125.834 218.92 125.915C219.105 126.024 219.32 126.072 219.534 126.054C219.967 125.994 220.381 125.833 220.741 125.585C221.262 125.287 221.73 124.905 222.127 124.456C222.5 124.095 222.715 123.602 222.728 123.084Z" fill="#455A64"/>
<path d="M234.8 112.587C234.795 112.9 234.723 113.209 234.589 113.491C234.488 113.746 234.31 113.963 234.08 114.112L230.714 116.059C230.639 116.114 230.546 116.141 230.453 116.134C230.36 116.126 230.272 116.086 230.206 116.019C230.127 115.93 230.068 115.825 230.032 115.711C229.995 115.598 229.983 115.478 229.995 115.359V97.6315C229.996 97.3179 230.068 97.0087 230.206 96.7273C230.307 96.4728 230.485 96.256 230.714 96.1069L234.08 94.1269C234.156 94.0713 234.249 94.0447 234.342 94.052C234.435 94.0592 234.523 94.0999 234.589 94.1665C234.666 94.2566 234.725 94.3615 234.762 94.4749C234.798 94.5883 234.811 94.7079 234.8 94.8265V112.587ZM234.8 121.431C234.796 121.744 234.724 122.053 234.589 122.335C234.488 122.59 234.31 122.807 234.08 122.956L230.714 124.903C230.639 124.958 230.546 124.985 230.453 124.978C230.36 124.97 230.272 124.93 230.206 124.863C230.127 124.774 230.067 124.669 230.031 124.555C229.995 124.442 229.982 124.322 229.995 124.203V120.045C229.996 119.732 230.068 119.422 230.206 119.141C230.307 118.886 230.485 118.67 230.714 118.52L234.08 116.54C234.156 116.485 234.249 116.458 234.342 116.466C234.435 116.473 234.523 116.513 234.589 116.58C234.666 116.67 234.725 116.775 234.761 116.889C234.797 117.002 234.811 117.122 234.8 117.24V121.431Z" fill="#455A64"/>
<path d="M105.188 142.746C105.68 143.702 106.044 144.718 106.271 145.769C106.759 148.37 105.822 150.99 105.3 153.577C105.129 154.455 105.069 155.26 105.696 155.946C105.752 156.022 105.826 156.083 105.911 156.124C105.997 156.164 106.091 156.182 106.185 156.177C106.343 156.138 106.449 155.979 106.535 155.841C107.157 154.776 107.654 153.642 108.013 152.462C108.085 153.578 108.047 154.699 107.901 155.808C107.708 156.677 107.708 157.578 107.901 158.448C108.178 159.293 109.128 159.972 109.881 159.557C110.344 159.205 110.658 158.691 110.759 158.118L111.372 156.138C111.673 155.217 111.922 154.281 112.118 153.333C112.432 151.623 112.405 149.869 112.04 148.17C111.674 146.471 110.976 144.861 109.986 143.433C109.509 142.665 108.822 142.049 108.006 141.657C107.622 141.505 107.209 141.438 106.797 141.462C106.384 141.486 105.981 141.6 105.617 141.796C105.109 142.073 104.944 142.251 105.188 142.746Z" fill="#F28F8F"/>
<path d="M113.637 147.286C113.353 143.821 113.234 140.191 112.587 136.911C111.941 133.631 110.568 121.018 109.947 117.514C109.136 112.894 108.033 110.003 107.36 107.145C106.601 103.951 105.968 99.5814 104.628 92.625C103.288 85.6686 101.645 81.7746 98.2059 79.5306C95.6741 77.8128 92.6855 76.8933 89.6259 76.8906C88.8471 79.029 89.5665 86.5134 89.5665 86.5134C89.5665 86.5134 92.8665 102.472 93.2229 104.432C93.5793 106.393 97.1103 115.362 99.4731 122.662C100.826 126.853 102.872 132.746 102.872 132.746C103.493 135.353 103.71 136.185 103.189 138.251C102.971 139.122 102.621 139.954 102.404 140.825C102.166 141.775 102.02 142.745 101.968 143.722C101.935 144.382 101.968 145.042 101.909 145.702C101.849 146.923 101.651 148.138 101.506 149.352C101.407 150.243 101.922 150.791 102.826 150.514C103.479 150.263 104.01 149.772 104.311 149.141C104.69 148.247 104.954 147.309 105.096 146.349C105.202 145.894 105.756 143.155 106.621 143.9C107.36 144.527 108.146 146.666 109.116 148.118C109.641 148.756 110.029 149.496 110.256 150.291C110.483 151.085 110.544 151.918 110.436 152.738C110.271 154.949 109.215 157.906 109.571 159.773C109.928 161.641 110.97 162.044 111.347 161.272C111.723 160.499 112.865 155.992 113.247 154.427C113.767 152.084 113.899 149.672 113.637 147.286Z" fill="#FFA8A7"/>
<path d="M105.077 144.833C109.096 146.601 114.105 147.565 116.297 156.145C118.488 164.725 121.082 196.253 121.082 196.253C120.037 197.571 118.701 198.629 117.18 199.346C115.658 200.063 113.992 200.418 112.31 200.385L112.667 209.381C112.667 209.381 106.793 212.205 98.041 209.994C93.7972 208.925 91.1836 205.044 91.1836 205.044C91.1836 205.044 92.1802 179.588 92.8732 169.866C93.5662 160.145 94.4506 140.087 105.077 144.833Z" fill="#455A64"/>
<path d="M110.891 165.758C110.891 165.758 111.96 191.498 112.31 200.381C113.286 200.382 114.26 200.262 115.207 200.025L110.891 165.758Z" fill="#37474F"/>
<path d="M101.895 145.68C101.836 146.901 101.638 148.116 101.493 149.33C101.394 150.221 101.908 150.769 102.813 150.492C103.465 150.242 103.997 149.75 104.298 149.119C104.676 148.225 104.94 147.287 105.083 146.327C105.162 145.977 105.499 144.294 106.047 143.859L101.961 143.707C101.922 144.36 101.928 145.02 101.895 145.68ZM106.04 143.859H106.601C106.563 143.822 106.519 143.794 106.47 143.775C106.421 143.756 106.369 143.747 106.316 143.749C106.264 143.751 106.212 143.764 106.165 143.786C106.117 143.808 106.075 143.84 106.04 143.879V143.859Z" fill="#FFA8A7"/>
<path d="M93.322 76.4219C99.8362 79.1015 101.902 81.2597 103.163 85.2065C104.423 89.1533 106.41 99.1325 107.063 103.469C107.717 107.805 109.353 111.705 110.264 117.375C111.175 123.044 112.073 131.34 112.073 131.34C112.073 131.34 110.891 132.858 107.327 133.07C103.763 133.281 101.909 131.994 101.909 131.994C101.909 131.994 98.1202 120.675 96.688 116.893C95.2558 113.111 91.9756 103.693 91.9756 103.693L93.322 76.4219Z" fill="#E6E6E6"/>
<path d="M37.5918 233.939L41.9412 235.272L42.5946 232.137L39.0306 232.473L37.5918 233.939Z" fill="black"/>
<path d="M38.78 225.172C38.78 225.172 36.9584 227.264 36.3974 227.931C35.8364 228.597 37.13 233.019 37.5854 233.937L39.0242 232.471C39.1694 233.587 38.9318 234.682 38.7008 236.392C38.5094 237.811 37.7966 240.233 38.3774 242.708C39.242 246.384 42.113 250.12 45.6968 253.09C49.2806 256.06 52.079 256.773 53.7422 256.786C55.4054 256.799 56.4548 256.126 56.9102 254.977C57.3656 253.829 38.78 225.172 38.78 225.172Z" fill="#263238"/>
<path d="M54.4085 225.263L55.4381 224.022C56.1311 224.524 54.7782 226.431 54.5339 228.814C54.107 232.343 54.1358 235.912 54.6197 239.433C55.7351 245.71 57.4181 250.416 57.9197 253.227C58.5797 256.996 52.1447 257.24 46.3961 252.277C43.5384 249.809 39.3935 244.232 39.2615 241.321C39.1295 238.41 40.3307 234.959 40.1195 232.741C39.9083 230.523 38.3507 227.276 38.7995 225.151C39.0503 223.983 40.7795 222.155 42.3503 220.643C43.7693 219.264 44.9904 216.274 45.6966 217.139L45.1685 218.168C45.0035 219.125 45.6306 221.349 47.7228 223.607C48.7524 224.755 52.2569 227.619 54.4085 225.263Z" fill="#455A64"/>
<path opacity="0.15" d="M49.5906 225.178C50.8182 225.964 52.3428 226.531 53.6232 225.871C53.6232 225.871 53.6562 225.871 53.6694 225.871C53.2644 226.262 52.954 226.739 52.7618 227.268C52.5696 227.796 52.5008 228.362 52.5606 228.921C52.6662 231.006 52.6266 245.104 52.6266 245.104C52.6266 245.104 51.9666 232.92 51.7884 230.584C51.564 227.165 51.1812 226.492 49.584 225.172L49.5906 225.178Z" fill="black"/>
<path d="M57.9204 253.227C57.5112 250.851 56.244 247.122 55.188 242.238C55.0428 243.749 55.3662 245.254 55.188 245.663C54.7854 246.679 51.4194 245.934 49.6044 245.175C47.7894 244.416 47.7498 240.944 47.0304 237.255C46.311 233.565 42.6018 234.364 39.7704 236.522C39.4381 238.088 39.2722 239.686 39.2754 241.287C39.4074 244.198 43.5522 249.775 46.41 252.243C52.1322 257.239 58.5804 256.995 57.9204 253.227Z" fill="#37474F"/>
<path opacity="0.15" d="M49.2805 228.683C49.2155 228.746 49.1331 228.789 49.0438 228.806C48.9544 228.823 48.862 228.814 48.7781 228.779C48.6943 228.743 48.6227 228.684 48.5723 228.608C48.522 228.533 48.4951 228.444 48.4951 228.353C48.4951 228.262 48.522 228.173 48.5723 228.097C48.6227 228.021 48.6943 227.962 48.7781 227.927C48.862 227.891 48.9544 227.882 49.0438 227.899C49.1331 227.916 49.2155 227.959 49.2805 228.023C49.3244 228.066 49.3592 228.117 49.383 228.174C49.4069 228.23 49.4191 228.291 49.4191 228.353C49.4191 228.414 49.4069 228.475 49.383 228.532C49.3592 228.588 49.3244 228.64 49.2805 228.683Z" fill="black"/>
<path opacity="0.15" d="M49.5441 232.011C49.4791 232.074 49.3968 232.117 49.3075 232.135C49.2181 232.152 49.1257 232.142 49.0418 232.107C48.9579 232.071 48.8863 232.012 48.836 231.936C48.7856 231.861 48.7588 231.772 48.7588 231.681C48.7588 231.59 48.7856 231.501 48.836 231.425C48.8863 231.349 48.9579 231.29 49.0418 231.255C49.1257 231.22 49.2181 231.21 49.3075 231.227C49.3968 231.244 49.4791 231.287 49.5441 231.351C49.588 231.394 49.6229 231.445 49.6467 231.502C49.6705 231.558 49.6828 231.619 49.6828 231.681C49.6828 231.742 49.6705 231.803 49.6467 231.86C49.6229 231.916 49.588 231.968 49.5441 232.011Z" fill="black"/>
<path opacity="0.15" d="M49.8084 235.335C49.7651 235.378 49.7136 235.413 49.657 235.436C49.6004 235.46 49.5397 235.472 49.4784 235.472C49.4171 235.472 49.3564 235.46 49.2998 235.436C49.2432 235.413 49.1917 235.378 49.1484 235.335C49.1051 235.292 49.0707 235.24 49.0472 235.184C49.0238 235.127 49.0117 235.066 49.0117 235.005C49.0117 234.944 49.0238 234.883 49.0472 234.826C49.0707 234.77 49.1051 234.718 49.1484 234.675C49.2362 234.588 49.3548 234.539 49.4784 234.539C49.602 234.539 49.7206 234.588 49.8084 234.675C49.8523 234.718 49.8872 234.769 49.911 234.826C49.9348 234.883 49.9471 234.944 49.9471 235.005C49.9471 235.066 49.9348 235.127 49.911 235.184C49.8872 235.241 49.8523 235.292 49.8084 235.335Z" fill="black"/>
<path opacity="0.15" d="M50.0789 238.664C49.9912 238.751 49.8726 238.8 49.7489 238.8C49.6253 238.8 49.5067 238.751 49.4189 238.664C49.375 238.621 49.3402 238.57 49.3163 238.513C49.2925 238.456 49.2803 238.395 49.2803 238.334C49.2803 238.272 49.2925 238.212 49.3163 238.155C49.3402 238.098 49.375 238.047 49.4189 238.004C49.5065 237.916 49.6252 237.867 49.7489 237.867C49.8727 237.867 49.9914 237.916 50.0789 238.004C50.1665 238.091 50.2156 238.21 50.2156 238.334C50.2156 238.458 50.1665 238.576 50.0789 238.664Z" fill="black"/>
<path opacity="0.15" d="M50.3436 241.995C50.2558 242.082 50.1372 242.131 50.0136 242.131C49.89 242.131 49.7714 242.082 49.6836 241.995C49.6397 241.952 49.6048 241.901 49.581 241.844C49.5572 241.788 49.5449 241.727 49.5449 241.665C49.5449 241.604 49.5572 241.543 49.581 241.486C49.6048 241.43 49.6397 241.378 49.6836 241.335C49.7734 241.26 49.888 241.222 50.0049 241.227C50.1217 241.232 50.2323 241.281 50.3151 241.364C50.3978 241.447 50.4465 241.557 50.4518 241.674C50.4571 241.791 50.4185 241.905 50.3436 241.995Z" fill="black"/>
<path d="M48.8252 228.498C48.8075 228.485 48.7929 228.468 48.7826 228.449C48.7723 228.429 48.7666 228.408 48.7658 228.386C48.7621 228.362 48.7632 228.337 48.7692 228.313C48.7752 228.289 48.7859 228.267 48.8006 228.247C48.8154 228.227 48.8339 228.211 48.8551 228.198C48.8764 228.186 48.8998 228.178 48.9242 228.175C49.0562 228.175 52.1384 227.818 54.3494 229.732C54.387 229.765 54.4103 229.811 54.414 229.86C54.4177 229.91 54.4016 229.959 54.3692 229.996C54.3368 230.034 54.2908 230.057 54.2413 230.061C54.1918 230.065 54.1428 230.048 54.1052 230.016C52.0196 228.208 49.0034 228.544 48.9704 228.544C48.9443 228.551 48.9169 228.55 48.8913 228.542C48.8656 228.534 48.8428 228.518 48.8252 228.498Z" fill="#263238"/>
<path d="M49.0957 231.824C49.0784 231.809 49.0642 231.79 49.054 231.77C49.0438 231.75 49.0378 231.727 49.0363 231.705C49.0326 231.681 49.0338 231.656 49.0398 231.633C49.0459 231.609 49.0566 231.587 49.0715 231.568C49.0863 231.549 49.1049 231.533 49.1261 231.522C49.1472 231.51 49.1706 231.503 49.1947 231.5C49.3267 231.5 52.4089 231.137 54.6199 233.051C54.6575 233.083 54.6807 233.129 54.6845 233.179C54.6882 233.229 54.6721 233.277 54.6397 233.315C54.6073 233.353 54.5613 233.376 54.5118 233.38C54.4623 233.383 54.4133 233.367 54.3757 233.335C52.2901 231.527 49.2739 231.863 49.2409 231.87C49.2148 231.873 49.1883 231.87 49.1633 231.862C49.1383 231.854 49.1152 231.841 49.0957 231.824Z" fill="#263238"/>
<path d="M49.3398 235.159C49.3074 235.128 49.2865 235.086 49.2804 235.041C49.2767 235.017 49.2779 234.992 49.284 234.969C49.29 234.945 49.3008 234.923 49.3156 234.904C49.3304 234.885 49.349 234.869 49.3702 234.857C49.3914 234.846 49.4147 234.838 49.4388 234.836C49.5708 234.836 52.653 234.473 54.864 236.387C54.9017 236.419 54.9249 236.465 54.9286 236.515C54.9323 236.564 54.9162 236.613 54.8838 236.651C54.8514 236.689 54.8054 236.712 54.7559 236.716C54.7064 236.719 54.6575 236.703 54.6198 236.671C52.5342 234.862 49.518 235.199 49.485 235.206C49.4589 235.208 49.4326 235.206 49.4076 235.198C49.3826 235.19 49.3596 235.177 49.3398 235.159Z" fill="#263238"/>
<path d="M49.6173 238.484C49.5848 238.452 49.5639 238.41 49.5579 238.365C49.5523 238.317 49.5657 238.268 49.5953 238.23C49.6249 238.192 49.6684 238.167 49.7163 238.16C49.8483 238.16 52.9305 237.797 55.1415 239.711C55.1754 239.747 55.1943 239.794 55.1943 239.843C55.1943 239.892 55.1754 239.94 55.1415 239.975C55.1243 239.993 55.1038 240.007 55.0811 240.016C55.0584 240.026 55.0341 240.031 55.0095 240.031C54.9849 240.031 54.9606 240.026 54.9379 240.016C54.9152 240.007 54.8947 239.993 54.8775 239.975C52.7919 238.167 49.7757 238.503 49.7427 238.51C49.6991 238.516 49.6548 238.507 49.6173 238.484Z" fill="#263238"/>
<path d="M49.8808 241.812C49.8483 241.78 49.8274 241.738 49.8214 241.693C49.8176 241.669 49.8191 241.644 49.8255 241.62C49.832 241.596 49.8433 241.574 49.8588 241.554C49.8743 241.535 49.8937 241.519 49.9156 241.508C49.9376 241.497 49.9617 241.49 49.9864 241.488C50.1118 241.488 53.194 241.125 55.405 243.039C55.4384 243.074 55.4571 243.12 55.4571 243.168C55.4571 243.216 55.4384 243.262 55.405 243.297C55.3877 243.314 55.3672 243.328 55.3445 243.338C55.3219 243.347 55.2975 243.352 55.273 243.352C55.2484 243.352 55.224 243.347 55.2014 243.338C55.1787 243.328 55.1582 243.314 55.141 243.297C53.062 241.495 50.0392 241.825 50.0062 241.832C49.9633 241.839 49.9191 241.832 49.8808 241.812Z" fill="#263238"/>
<path d="M98.6812 129.023C98.6812 129.023 99.1564 137.267 98.7472 154.407C98.404 168.749 99.988 176.187 94.2328 185.321C89.0914 193.472 57.0022 224.611 54.6856 227.436C54.6856 227.436 44.5282 228.36 44.0332 217.952C44.0332 217.952 53.491 201.062 57.9526 191.486C62.4142 181.909 68.5126 177.316 68.5126 177.316L60.1768 135.564L98.6812 129.023Z" fill="#263238"/>
<path d="M63.721 134.965L60.1966 135.559V135.711L68.2288 175.971L68.4994 176.98H68.4334L68.4994 177.291C68.4994 177.291 64.1632 180.591 60.124 187.349C61.5496 190.992 64.348 197.341 64.348 197.341C64.5988 198.325 61.7608 202.351 63.3778 214.468C63.4966 215.34 63.7078 216.607 63.952 217.973C71.1724 210.673 81.0196 200.74 87.6196 193.381C87.943 191.487 88.9396 185.25 88.3588 180.485C87.778 175.72 85.6396 152.343 85.6396 152.343C87.7048 151.051 89.5129 149.389 90.9724 147.439C92.2074 145.855 93.059 144.007 93.4606 142.04C94.5698 138.912 95.4845 135.718 96.1996 132.477L63.721 134.965Z" fill="black"/>
<path d="M76.3867 268.165L80.7097 266.746L79.4425 263.809L76.7167 266.132L76.3867 268.165Z" fill="black"/>
<path d="M72.3211 260.297C72.3211 260.297 72.0307 263.062 71.9581 263.933C71.8855 264.805 75.4825 267.676 76.3867 268.164L76.7167 266.131C77.4823 266.963 77.9113 267.992 78.6967 269.524C79.3567 270.797 80.1685 273.193 82.0693 274.876C84.8875 277.384 89.3887 278.79 94.0219 279.16C98.6551 279.529 101.368 278.5 102.734 277.549C104.1 276.599 104.562 275.437 104.285 274.249C104.008 273.061 72.3211 260.297 72.3211 260.297Z" fill="#263238"/>
<path d="M85.1518 251.388L85.2772 249.785C86.1352 249.785 86.1352 252.128 87.2968 254.22C88.861 257.038 91.1776 260.582 93.4744 262.859C97.9954 267.354 102.054 270.231 104.1 272.251C106.806 274.957 101.685 278.851 94.1278 278.105C90.3724 277.729 83.7724 275.551 81.9904 273.248C80.2084 270.944 79.1986 267.426 77.7664 265.75C76.3342 264.074 73.1464 262.305 72.3214 260.298C71.8528 259.203 72.2356 256.701 72.6316 254.576C73.0012 252.596 72.2554 249.494 73.351 249.785L73.516 250.926C73.9318 251.804 75.7138 253.263 78.73 253.91C80.2348 254.226 84.7426 254.556 85.1518 251.388Z" fill="#455A64"/>
<path opacity="0.15" d="M81.159 254.1C82.611 254.034 84.195 253.625 84.855 252.344V252.305C84.7469 252.856 84.7669 253.425 84.9134 253.967C85.0598 254.51 85.3289 255.011 85.6998 255.433C87.0198 257.076 95.0718 268.633 95.0718 268.633C95.0718 268.633 87.5016 259.07 86.043 257.268C83.898 254.628 83.1918 254.271 81.126 254.106L81.159 254.1Z" fill="black"/>
<path d="M104.12 272.249C102.417 270.54 99.2363 268.223 95.5403 264.837C96.2993 266.157 97.4279 267.2 97.5203 267.629C97.7711 268.692 94.5899 270.018 92.6693 270.441C90.7487 270.863 88.7093 268.052 86.0231 265.471C83.3369 262.89 80.7431 265.656 79.6475 269.061C80.2768 270.535 81.06 271.937 81.9839 273.246C83.7659 275.549 90.3659 277.727 94.1213 278.103C101.685 278.849 106.806 274.955 104.12 272.249Z" fill="#37474F"/>
<path opacity="0.15" d="M82.9275 257.136C82.9091 257.258 82.8432 257.367 82.7441 257.44C82.6451 257.513 82.5211 257.544 82.3995 257.525C82.2778 257.507 82.1685 257.441 82.0954 257.342C82.0224 257.243 81.9917 257.119 82.0101 256.997C82.0181 256.937 82.0383 256.878 82.0694 256.825C82.1005 256.773 82.142 256.727 82.1913 256.69C82.2406 256.654 82.2967 256.628 82.3563 256.614C82.4159 256.6 82.4777 256.598 82.5381 256.608C82.6592 256.628 82.7678 256.694 82.8406 256.793C82.9134 256.891 82.9446 257.015 82.9275 257.136Z" fill="black"/>
<path opacity="0.15" d="M85.0529 259.705C85.0449 259.766 85.0247 259.824 84.9936 259.877C84.9624 259.93 84.921 259.976 84.8717 260.012C84.8224 260.048 84.7663 260.074 84.7067 260.088C84.6471 260.103 84.5853 260.105 84.5249 260.094C84.4348 260.08 84.3508 260.04 84.2836 259.978C84.2163 259.917 84.1688 259.836 84.1471 259.748C84.1254 259.659 84.1303 259.566 84.1614 259.481C84.1924 259.395 84.2482 259.32 84.3216 259.266C84.395 259.212 84.4828 259.181 84.5739 259.176C84.665 259.172 84.7553 259.195 84.8335 259.242C84.9118 259.289 84.9743 259.358 85.0133 259.44C85.0524 259.523 85.0661 259.615 85.0529 259.705Z" fill="black"/>
<path opacity="0.15" d="M87.1848 262.278C87.1656 262.399 87.0988 262.508 86.9991 262.581C86.8995 262.653 86.7752 262.683 86.6535 262.664C86.5319 262.644 86.4229 262.578 86.3504 262.478C86.278 262.378 86.2482 262.254 86.2674 262.132C86.2885 262.011 86.3561 261.902 86.4559 261.829C86.5557 261.757 86.6798 261.726 86.802 261.743C86.8624 261.753 86.9203 261.774 86.9724 261.806C87.0244 261.838 87.0695 261.881 87.1051 261.93C87.1408 261.98 87.1661 262.036 87.1798 262.096C87.1935 262.156 87.1952 262.217 87.1848 262.278Z" fill="black"/>
<path opacity="0.15" d="M89.3157 264.846C89.2964 264.967 89.2296 265.076 89.13 265.149C89.0304 265.221 88.906 265.251 88.7844 265.232C88.6627 265.212 88.5537 265.146 88.4813 265.046C88.4089 264.946 88.379 264.822 88.3983 264.7C88.4078 264.64 88.4291 264.582 88.461 264.53C88.4928 264.478 88.5346 264.433 88.584 264.397C88.6333 264.361 88.6892 264.336 88.7485 264.321C88.8078 264.307 88.8694 264.305 88.9296 264.314C88.9898 264.324 89.0476 264.345 89.0996 264.377C89.1516 264.409 89.1968 264.451 89.2327 264.5C89.2685 264.549 89.2943 264.605 89.3086 264.665C89.3228 264.724 89.3252 264.785 89.3157 264.846Z" fill="black"/>
<path opacity="0.15" d="M91.4478 267.412C91.4338 267.502 91.3935 267.586 91.3318 267.653C91.2702 267.72 91.19 267.768 91.1014 267.79C91.0128 267.811 90.9198 267.806 90.834 267.775C90.7483 267.744 90.6736 267.689 90.6195 267.615C90.5653 267.542 90.5341 267.454 90.5298 267.363C90.5255 267.272 90.5482 267.181 90.5952 267.103C90.6421 267.025 90.7112 266.962 90.7936 266.923C90.876 266.884 90.9682 266.871 91.0584 266.884C91.1188 266.893 91.1768 266.913 91.2291 266.945C91.2814 266.976 91.3269 267.018 91.3631 267.067C91.3993 267.116 91.4254 267.172 91.44 267.231C91.4545 267.29 91.4572 267.352 91.4478 267.412Z" fill="black"/>
<path d="M82.446 257.253C82.3993 257.248 82.3565 257.224 82.3272 257.187C82.2933 257.151 82.2744 257.104 82.2744 257.055C82.2744 257.006 82.2933 256.959 82.3272 256.923C82.4262 256.837 84.7494 254.785 87.66 255.075C87.6843 255.077 87.7079 255.085 87.7294 255.096C87.7509 255.108 87.7699 255.124 87.7852 255.143C87.8006 255.162 87.812 255.184 87.8188 255.207C87.8257 255.231 87.8278 255.255 87.825 255.28C87.82 255.329 87.7958 255.375 87.7576 255.407C87.7194 255.439 87.6702 255.455 87.6204 255.451C84.8748 255.174 82.5978 257.18 82.578 257.2C82.5414 257.233 82.4948 257.251 82.446 257.253Z" fill="#263238"/>
<path d="M84.5779 259.809C84.5548 259.809 84.5322 259.803 84.5116 259.793C84.491 259.783 84.4731 259.768 84.4591 259.75C84.4252 259.714 84.4062 259.667 84.4062 259.617C84.4062 259.568 84.4252 259.521 84.4591 259.486C84.5581 259.4 86.8812 257.347 89.7918 257.637C89.8162 257.64 89.8398 257.647 89.8613 257.659C89.8827 257.671 89.9017 257.686 89.9171 257.705C89.9324 257.724 89.9438 257.746 89.9507 257.77C89.9575 257.793 89.9596 257.818 89.9568 257.842C89.9518 257.892 89.9276 257.937 89.8894 257.969C89.8512 258.002 89.802 258.017 89.7522 258.014C87.0132 257.736 84.7296 259.743 84.7098 259.763C84.6923 259.779 84.6715 259.792 84.6488 259.8C84.626 259.808 84.6019 259.811 84.5779 259.809Z" fill="#263238"/>
<path d="M86.7029 262.388C86.6597 262.382 86.6199 262.361 86.5907 262.329C86.5723 262.312 86.5576 262.292 86.5475 262.269C86.5374 262.246 86.5322 262.222 86.5322 262.197C86.5322 262.172 86.5374 262.147 86.5475 262.125C86.5576 262.102 86.5723 262.081 86.5907 262.065C86.6897 261.979 89.0063 259.92 91.9169 260.217C91.9659 260.222 92.0108 260.247 92.0418 260.285C92.0727 260.323 92.0872 260.372 92.0819 260.421C92.0767 260.47 92.0522 260.515 92.0138 260.546C91.9754 260.577 91.9263 260.592 91.8773 260.586C89.1317 260.309 86.8547 262.322 86.8349 262.342C86.7983 262.373 86.7512 262.39 86.7029 262.388Z" fill="#263238"/>
<path d="M88.8347 264.958C88.7914 264.953 88.7517 264.931 88.7225 264.899C88.7049 264.882 88.6909 264.861 88.6814 264.839C88.6719 264.816 88.667 264.792 88.667 264.767C88.667 264.742 88.6719 264.718 88.6814 264.695C88.6909 264.673 88.7049 264.652 88.7225 264.635C88.8149 264.549 91.1381 262.49 94.0487 262.787C94.0966 262.794 94.14 262.819 94.1696 262.857C94.1993 262.895 94.2127 262.944 94.2071 262.992C94.2055 263.016 94.1988 263.04 94.1875 263.062C94.1761 263.084 94.1603 263.104 94.1411 263.119C94.1218 263.135 94.0996 263.146 94.0757 263.153C94.0519 263.159 94.0269 263.16 94.0025 263.157C91.2635 262.879 88.9865 264.892 88.9601 264.912C88.9433 264.928 88.9236 264.94 88.902 264.948C88.8805 264.956 88.8576 264.96 88.8347 264.958Z" fill="#263238"/>
<path d="M90.9665 267.524C90.9435 267.523 90.9209 267.518 90.9003 267.508C90.8797 267.497 90.8617 267.483 90.8477 267.464C90.8138 267.429 90.7949 267.381 90.7949 267.332C90.7949 267.283 90.8138 267.236 90.8477 267.2C90.9401 267.115 93.2633 265.062 96.1739 265.352C96.2219 265.359 96.2653 265.384 96.2949 265.422C96.3245 265.461 96.338 265.509 96.3323 265.557C96.3307 265.582 96.324 265.606 96.3128 265.628C96.3015 265.651 96.2858 265.67 96.2667 265.686C96.2476 265.702 96.2254 265.714 96.2015 265.722C96.1776 265.729 96.1525 265.731 96.1277 265.729C93.3887 265.451 91.1117 267.458 91.0853 267.478C91.0531 267.508 91.0106 267.524 90.9665 267.524Z" fill="#263238"/>
<path d="M52.4751 126.363C52.4751 126.363 52.2441 136.923 52.2903 141.662C52.3827 151.39 54.2703 155.397 56.6727 163.581C58.6527 170.22 66.6189 194.601 67.2327 196.957C66.3879 202.105 65.4969 206.659 67.2327 217.899C69.7209 234.121 72.5127 253.387 72.5127 253.387C73.9977 255.446 84.1221 256.192 87.0657 253.209C87.0657 253.209 87.9369 201.306 87.6201 190.7C87.3495 181.46 83.0463 151.252 83.0463 151.252C83.0463 151.252 96.8403 145.45 98.0283 129.221L52.4751 126.363Z" fill="#263238"/>
<path d="M69.6682 71.4492C69.6682 71.4492 84.7822 72.4722 93.3226 76.419C95.23 77.2968 100.906 84.735 100.233 94.9848C98.53 120.804 99.2098 135.166 99.2098 135.166C98.7412 136.486 93.844 143.614 80.3272 144.894C66.4012 146.214 58.5472 144.775 52 139.027C52.0462 128.064 52.2376 114.065 52.3564 104.66C52.4488 97.4004 52.561 92.7804 53.4058 87.6456C53.9668 84.2334 55.3858 79.1316 57.7288 77.8182C60.3681 76.3137 63.1069 74.9906 65.926 73.8582C67.3269 73.3233 68.6013 72.5029 69.6682 71.4492Z" fill="#FAFAFA"/>
<path d="M69.9186 72.1314C72.0504 72.2964 85.3626 73.4514 93.0186 77.0154C94.761 77.8206 100.199 84.9816 99.5394 94.941C97.9488 119.13 98.4504 133.459 98.5164 135.056C98.2458 135.643 97.0314 137.531 94.2462 139.504C91.7184 141.299 87.237 143.576 80.2344 144.243C77.0268 144.547 74.2548 144.698 71.76 144.698C63.2328 144.698 57.4842 142.91 52.62 138.758C52.6596 129.05 52.818 116.866 52.9302 107.95L52.9698 104.696C53.0622 97.5546 53.181 92.8158 54.0126 87.78C54.6726 83.886 56.1444 79.4772 58.0122 78.4212C60.6267 76.9171 63.3413 75.594 66.1368 74.4612C67.521 73.9268 68.791 73.1339 69.879 72.1248M69.6282 71.4648C68.5612 72.5185 67.2868 73.3389 65.886 73.8738C63.0668 75.0063 60.3281 76.3293 57.6888 77.8338C55.3722 79.1538 53.9268 84.249 53.3658 87.6612C52.521 92.7762 52.4088 97.449 52.3164 104.676C52.1976 114.081 52.0062 128.08 51.96 139.042C57.0222 143.497 62.8896 145.365 71.76 145.365C74.334 145.365 77.1588 145.207 80.2938 144.91C93.8106 143.629 98.7078 136.495 99.1764 135.181C99.1764 135.181 98.5164 120.82 100.199 95.0004C100.859 84.7506 95.1966 77.3124 93.2892 76.4346C84.7488 72.4746 69.6348 71.4648 69.6348 71.4648H69.6282Z" fill="#E0E0E0"/>
<path d="M69.9651 42.3848C65.8665 47.0048 67.1931 52.4564 68.6451 57.9212C70.3611 64.145 70.4667 66.158 74.0439 67.7156C73.2387 48.173 79.4823 72.1178 95.1639 56.9246C97.9953 54.179 98.1735 45.7046 94.7415 41.8238C89.8905 36.3722 77.9775 33.6596 69.9651 42.3848Z" fill="#37474F"/>
<path d="M69.1401 64.061C71.9913 65.249 73.2849 63.2888 73.2849 63.2888L70.7637 70.5488C70.7637 70.5488 69.1401 75.05 72.8097 77.2214C82.9605 83.3198 80.6637 85.8872 84.0957 88.8506C85.2573 87.392 85.1055 80.858 85.2903 79.1354L87.5145 72.146C88.6741 72.1865 89.835 72.1335 90.9861 71.9876C93.7053 71.6048 95.2431 69.671 96.1011 66.7538C97.4673 62.0546 97.2627 54.9662 95.5797 45.7856C92.5767 43.4162 82.6239 42.9014 76.1889 46.8614C76.4199 52.2602 74.9547 53.138 74.9547 55.4414C74.9547 58.0484 74.7765 58.649 73.9779 58.9988C73.1793 59.3486 72.4665 58.1276 72.1431 57.362C71.6019 56.042 71.1399 55.2368 69.8661 54.92C68.5923 54.6032 67.1667 54.8078 65.9985 56.5238C64.1901 59.1902 67.0413 63.203 69.1401 64.061Z" fill="#FFA8A7"/>
<path d="M87.5149 72.1723C84.3007 72.0139 79.7863 70.3243 77.9647 68.6215C76.1431 66.9187 74.9551 63.6055 74.9551 63.6055C75.0393 65.8581 75.8548 68.022 77.2783 69.7699C79.6543 72.6607 86.8417 74.2909 86.8417 74.2909L87.5149 72.1723Z" fill="#F28F8F"/>
<path d="M85.8048 48.3829C85.719 48.3829 85.6134 48.4357 85.6068 48.5215C85.6002 48.6073 85.6926 48.6337 85.7586 48.6733C85.8691 48.736 85.975 48.8066 86.0754 48.8845C86.1807 48.9566 86.2687 49.0513 86.3328 49.1617C86.3691 49.2465 86.3956 49.335 86.412 49.4257C86.4328 49.5744 86.4438 49.7244 86.445 49.8745C86.445 49.9999 86.5506 50.0857 86.6694 49.9801C86.7134 49.9402 86.7473 49.8905 86.7684 49.8349C86.8389 49.6683 86.8683 49.4873 86.8542 49.3069C86.841 49.207 86.8144 49.1093 86.775 49.0165C86.6913 48.8288 86.5552 48.6693 86.3832 48.5569C86.2111 48.4445 86.0103 48.3841 85.8048 48.3829ZM90.7152 48.5809C90.7264 48.5326 90.7248 48.4822 90.7105 48.4347C90.6962 48.3873 90.6697 48.3444 90.6336 48.3103C90.5976 48.2762 90.5532 48.2522 90.505 48.2407C90.4568 48.2291 90.4064 48.2303 90.3588 48.2443C90.196 48.323 90.0526 48.4366 89.9385 48.5768C89.8245 48.7171 89.7426 48.8807 89.6988 49.0561C89.6003 49.2927 89.5728 49.5529 89.6197 49.8049C89.6665 50.0569 89.7858 50.2898 89.9628 50.4751C90.0222 50.5279 90.108 50.5741 90.1674 50.5345C90.2268 50.4949 90.1674 49.8745 90.2136 49.7359C90.2212 49.5034 90.2871 49.2765 90.405 49.0759C90.4842 48.9241 90.6624 48.7789 90.7152 48.5809ZM88.0422 47.4259C88.031 47.418 88.0181 47.4129 88.0046 47.411C87.991 47.4091 87.9772 47.4104 87.9643 47.415C87.9513 47.4195 87.9397 47.427 87.9303 47.437C87.9209 47.4469 87.914 47.459 87.9102 47.4721C87.896 47.5322 87.8951 47.5946 87.9077 47.6551C87.9202 47.7155 87.9459 47.7725 87.9828 47.8219C88.043 47.9478 88.0938 48.0779 88.1346 48.2113C88.2218 48.4781 88.2707 48.7558 88.2798 49.0363C88.2854 49.2992 88.2678 49.562 88.227 49.8217C88.1874 50.0659 88.1148 50.3035 88.0752 50.5477C88.0752 50.5477 88.0752 50.6401 88.128 50.6137C88.3204 50.4207 88.4676 50.1874 88.5589 49.9306C88.6502 49.6738 88.6834 49.3999 88.656 49.1287C88.653 48.8244 88.6063 48.5222 88.5174 48.2311C88.4476 47.9194 88.2814 47.6376 88.0422 47.4259Z" fill="#F28F8F"/>
<path d="M82.2539 50.6545L85.1579 49.5391C85.2993 49.9352 85.2821 50.3707 85.1099 50.7544C84.9377 51.1382 84.6238 51.4405 84.2339 51.5983C84.0423 51.671 83.8379 51.7041 83.6331 51.6957C83.4283 51.6872 83.2274 51.6374 83.0423 51.5492C82.8573 51.461 82.6921 51.3363 82.5566 51.1825C82.4211 51.0287 82.3181 50.8491 82.2539 50.6545Z" fill="#37474F"/>
<path d="M91.4813 49.0977L94.2929 50.4837C94.2121 50.6716 94.0937 50.8411 93.9451 50.9817C93.7965 51.1224 93.6207 51.2313 93.4286 51.3017C93.2365 51.3721 93.032 51.4026 92.8277 51.3913C92.6234 51.38 92.4235 51.3272 92.2403 51.2361C91.8632 51.0455 91.5739 50.7171 91.4326 50.3189C91.2912 49.9207 91.3087 49.4833 91.4813 49.0977Z" fill="#37474F"/>
<path d="M85.1582 53.6529C84.8876 52.9929 84.4982 53.9235 83.7062 54.2535C82.9142 54.5835 82.0496 54.1743 82.3202 54.8277C82.5203 55.1309 82.8198 55.355 83.1672 55.4615C83.5146 55.568 83.8882 55.5502 84.2239 55.4113C84.5596 55.2723 84.8365 55.0208 85.007 54.6999C85.1774 54.3791 85.2309 54.0089 85.1582 53.6529Z" fill="#263238"/>
<path d="M94.313 54.2973C94.478 53.6373 93.653 54.1323 92.7884 53.9409C91.9238 53.7495 91.4684 52.9113 91.3232 53.5977C91.301 53.9646 91.4093 54.3275 91.6288 54.6222C91.8484 54.917 92.1651 55.1246 92.523 55.2083C92.8809 55.292 93.2569 55.2465 93.5844 55.0798C93.912 54.9131 94.17 54.6359 94.313 54.2973Z" fill="#263238"/>
<path d="M87.4092 52.0742L88.584 60.6542L92.8608 59.6642C91.917 57.176 89.2638 53.2094 87.4092 52.0742Z" fill="#F28F8F"/>
<path d="M85.4491 62.6519C85.2506 62.7746 85.0834 62.9418 84.9607 63.1403C84.5845 63.7607 85.1191 64.0775 85.6867 64.1303C86.3119 64.1889 86.9206 64.3635 87.4819 64.6451C87.7218 64.8185 88.0108 64.911 88.3069 64.9091C88.4009 64.8955 88.4913 64.8634 88.5729 64.8147C88.6544 64.766 88.7255 64.7016 88.7821 64.6253C88.868 64.4635 88.9004 64.2786 88.8745 64.0973C88.8177 63.7293 88.6662 63.3825 88.4347 63.0909C88.2033 62.7993 87.8999 62.5729 87.5545 62.4341C87.2103 62.3067 86.8415 62.2601 86.4764 62.2979C86.1114 62.3356 85.7599 62.4568 85.4491 62.6519Z" fill="#B16668"/>
<path d="M87.4819 64.6803C87.6142 64.7563 87.7509 64.8246 87.8911 64.8849C87.7522 64.2982 87.4205 63.7751 86.949 63.3994C86.4775 63.0236 85.8936 62.817 85.2907 62.8125C85.159 62.9118 85.047 63.0349 84.9607 63.1755C84.5845 63.7959 85.1191 64.1127 85.6867 64.1655C86.3119 64.2241 86.9206 64.3987 87.4819 64.6803Z" fill="#F28F8F"/>
<path d="M82.9073 93.1181C79.8119 90.9665 74.0171 86.2211 69.2123 72.1367L67.3115 73.4567C67.3115 73.4567 70.3607 87.9305 82.4453 95.2829L82.9073 93.1181Z" fill="#96B562"/>
<path d="M85.8643 92.8405C86.7553 91.6261 88.8079 83.3563 86.7553 74.4727L88.4383 76.0897C90.1675 84.7687 88.2931 92.8471 86.6761 95.2693L85.8643 92.8405Z" fill="#96B562"/>
<path d="M85.7256 97.3308C85.7256 97.3308 89.3622 122.886 89.5074 125.394C89.6526 127.902 85.7124 133.974 85.1778 134.311C84.6432 134.647 81.1122 128.701 81.066 126.721C81.0198 124.741 83.6202 97.3242 83.6202 97.3242L85.7256 97.3308Z" fill="#96B562"/>
<path d="M85.8645 92.8432C84.8721 92.6619 83.849 92.7578 82.9077 93.1204C82.3533 94.117 82.1553 95.6614 82.5909 96.3874C83.0265 97.1134 83.8449 98.2354 84.8481 98.1892C85.8513 98.143 86.6961 96.8692 86.8281 95.6482C86.9601 94.3282 85.8645 92.8432 85.8645 92.8432Z" fill="#96B562"/>
<path opacity="0.2" d="M85.8645 92.8432C84.8721 92.6619 83.849 92.7578 82.9077 93.1204C82.3533 94.117 82.1553 95.6614 82.5909 96.3874C83.0265 97.1134 83.8449 98.2354 84.8481 98.1892C85.8513 98.143 86.6961 96.8692 86.8281 95.6482C86.9601 94.3282 85.8645 92.8432 85.8645 92.8432Z" fill="white"/>
<path d="M84.0496 88.8755C82.2742 86.8493 81.6538 80.7574 80.3404 79.7344C79.027 78.7114 71.404 74.0518 70.6846 70.7056L71.5294 68.2703C70.6186 67.8545 69.391 70.7651 65.926 73.8605C65.926 73.8605 65.497 77.3981 68.1502 81.4175C71.272 86.1629 74.011 87.7535 74.011 87.7535C74.011 87.7535 77.8258 82.8299 78.4528 82.6385C79.0798 82.4471 81.9244 88.1495 84.0496 88.8755Z" fill="#F0F0F0"/>
<path d="M84.0488 88.8751C84.9992 87.2119 84.8474 80.3743 85.118 79.4701C85.6856 77.5693 87.3554 72.6523 87.3554 72.6523C87.6353 72.8673 87.888 73.1155 88.1078 73.3915C91.2626 77.4703 91.1636 83.3575 90.299 85.1725C89.3882 83.2387 87.2234 80.7439 86.834 81.2125C86.4446 81.6811 85.679 88.0633 84.0488 88.8751Z" fill="#F0F0F0"/>
<path d="M72.2616 172.393L73.806 203.836C73.8786 205.36 72.849 206.291 71.5686 207.136L68.3544 209.221C67.9994 209.508 67.5872 209.715 67.1455 209.829C66.7038 209.942 66.2428 209.96 65.7936 209.881C65.1657 209.744 64.5594 209.522 63.9918 209.221C63.9702 209.227 63.9474 209.227 63.9258 209.221L63.741 209.122L28.9854 191.302C27.7372 190.663 26.6796 189.706 25.9194 188.527C25.1593 187.349 24.7234 185.991 24.6558 184.59L23.25 155.959C23.2523 155.602 23.3389 155.25 23.5029 154.932C23.6669 154.614 23.9036 154.34 24.1938 154.131L29.6718 150.6C29.9805 150.422 30.3271 150.321 30.6828 150.303C31.0386 150.286 31.3934 150.354 31.7178 150.501L71.1198 170.671C71.4323 170.844 71.6957 171.094 71.8854 171.397C72.0929 171.692 72.2223 172.035 72.2616 172.393Z" fill="#37474F"/>
<path d="M72.262 172.393L73.8064 203.836C73.879 205.36 72.8494 206.291 71.569 207.136L68.3548 209.221C67.9998 209.508 67.5876 209.715 67.1459 209.829C66.7042 209.943 66.2432 209.96 65.794 209.881C65.1661 209.745 64.5598 209.523 63.9922 209.221C65.3122 209.776 66.3484 209.036 66.2692 207.479L64.8172 177.858C64.7712 177.317 64.5872 176.796 64.2826 176.347L71.9122 171.43C72.1052 171.718 72.2252 172.048 72.262 172.393Z" fill="#263238"/>
<path d="M64.8168 177.826C64.7642 177.284 64.5843 176.763 64.2918 176.304C63.9994 175.845 63.6026 175.462 63.1338 175.186L25.8702 156.046C24.3984 155.287 23.2302 156.046 23.3424 157.676L24.6624 184.478C24.7302 185.88 25.1661 187.239 25.9262 188.418C26.6862 189.598 27.7437 190.556 28.992 191.197L63.7476 209.017C65.2194 209.776 66.3876 209.017 66.2754 207.387L64.8168 177.826Z" fill="#455A64"/>
<path d="M27.8967 151.664L67.4043 172.17C67.9608 172.462 68.4318 172.893 68.7709 173.422C69.11 173.951 69.3055 174.559 69.3381 175.186L70.9287 207.526L70.3611 207.896L68.7507 175.193C68.7228 174.669 68.5591 174.161 68.2756 173.719C67.9921 173.277 67.5986 172.916 67.1337 172.672L27.3291 152.014L27.8967 151.664Z" fill="#96B562"/>
<path opacity="0.2" d="M68.7704 173.422C69.1104 173.95 69.3061 174.557 69.338 175.184L70.9286 207.524L70.361 207.894L68.7506 175.191C68.725 174.667 68.561 174.159 68.2754 173.719L68.7704 173.422Z" fill="black"/>
<path opacity="0.2" d="M68.2755 173.741C67.9946 173.296 67.6005 172.934 67.1337 172.692L27.3291 152.034L27.8967 151.664L67.4043 172.17C67.9594 172.465 68.4297 172.896 68.7705 173.424" fill="black"/>
<path d="M41.7368 155.015L41.9744 159.88L40.1 161.074L39.7832 154.606C39.7832 154.276 39.9878 154.131 40.2848 154.283L41.7368 155.015Z" fill="#96B562"/>
<path opacity="0.4" d="M41.7368 155.015L41.9744 159.88L40.1 161.074L39.7832 154.606C39.7832 154.276 39.9878 154.131 40.2848 154.283L41.7368 155.015Z" fill="black"/>
<path d="M55.3525 159.168L55.7419 167.049L53.9599 168.191L52.7059 167.531L52.3825 161.063C52.3638 160.883 52.3033 160.71 52.2059 160.557C52.1086 160.405 51.9769 160.277 51.8215 160.185L42.2977 155.301L40.3177 154.284C40.0207 154.133 39.7963 154.284 39.8161 154.608L40.1329 161.076L38.8723 160.416L38.4829 152.535C38.4796 152.5 38.4796 152.465 38.4829 152.43C38.4985 152.266 38.549 152.108 38.631 151.966C38.713 151.823 38.8245 151.7 38.9581 151.605L39.7105 151.116C39.8706 151.029 40.0485 150.98 40.2306 150.973C40.4126 150.967 40.5938 151.002 40.7599 151.077L54.7915 158.291C54.9483 158.381 55.0811 158.509 55.1787 158.661C55.2763 158.814 55.3359 158.988 55.3525 159.168Z" fill="#96B562"/>
<path opacity="0.2" d="M53.5903 160.308L53.9599 168.188L52.7059 167.528L52.3825 161.06C52.3638 160.88 52.3033 160.707 52.2059 160.555C52.1086 160.402 51.9769 160.275 51.8215 160.182L42.2977 155.298L40.3177 154.282C40.0207 154.13 39.7963 154.282 39.8161 154.605L40.1329 161.073L38.8723 160.413L38.4829 152.533C38.4796 152.498 38.4796 152.462 38.4829 152.427C38.5159 152.17 38.7205 152.071 38.9845 152.203L53.0227 159.417C53.1807 159.51 53.3144 159.64 53.413 159.794C53.5116 159.949 53.5724 160.125 53.5903 160.308Z" fill="black"/>
<path d="M46.9766 154.269L52.9562 157.345C52.9328 156.41 52.6593 155.498 52.1642 154.705C51.5042 154.045 48.8642 151.405 47.9798 151.676C47.564 151.801 47.1746 152.949 46.9766 154.269Z" fill="#F28F8F"/>
<path d="M46.9766 157.738C47.0221 157.924 47.0839 158.105 47.1614 158.279C47.789 159.442 48.6576 160.457 49.709 161.256C50.4412 161.066 51.1047 160.672 51.623 160.121L46.9766 157.738Z" fill="#F28F8F"/>
<path d="M56.1843 80.6836C51.8415 82.591 48.6933 85.924 46.4493 93.0058C44.2053 100.088 41.4597 108.496 40.3641 115.868C39.2685 123.24 38.3115 138.638 38.0409 143.41C37.8585 145.334 37.8078 147.268 37.8891 149.198C38.0863 151.383 38.4369 153.551 38.9385 155.686C39.0166 156.19 39.2201 156.666 39.5303 157.071C39.8405 157.476 40.2475 157.796 40.7139 158.003C40.9785 158.073 41.235 158.17 41.4795 158.293C41.9217 158.564 42.1395 159.105 42.4893 159.474C42.9388 159.877 43.5229 160.096 44.1261 160.088C44.3967 160.088 44.6673 160.088 44.9313 160.121C45.9147 160.266 46.6341 161.138 47.5713 161.441C48.2628 161.741 49.0441 161.76 49.7493 161.494C50.112 161.306 50.4566 161.085 50.7789 160.834C50.9571 160.702 51.4389 160.22 51.5907 160.082C50.2707 160.2 49.3005 159.105 48.7989 158.102C48.2293 156.898 47.9105 155.591 47.8617 154.26C47.8386 153.946 47.8837 153.631 47.9937 153.336C48.0193 153.264 48.0642 153.2 48.1235 153.151C48.1828 153.102 48.2543 153.07 48.3303 153.059C48.5019 153.059 48.6141 153.224 48.7065 153.369C49.2308 154.414 49.9473 155.35 50.8185 156.128C51.1796 156.462 51.6475 156.656 52.1385 156.676C52.3796 156.678 52.6126 156.589 52.7903 156.426C52.968 156.263 53.0771 156.039 53.0955 155.798C53.0738 155.606 53.0156 155.42 52.9239 155.25C52.2593 153.856 51.7225 152.405 51.3201 150.914C51.0187 149.516 50.5373 148.163 49.8879 146.888C49.1553 145.568 47.4393 143.773 47.6241 142.268C47.9277 139.688 52.6995 119.551 52.6995 119.551C52.6995 119.551 58.4547 101.929 59.8341 97.2694C61.5633 91.4812 60.3555 84.0496 56.1843 80.6836Z" fill="#FFA8A7"/>
<path d="M57.7282 77.8203C50.785 81.3579 49.102 84.1497 47.2012 89.4099C45.4918 94.1157 41.6968 107.019 40.7464 111.612C39.0568 119.829 38.1064 135.544 38.1064 135.544C38.1064 135.544 38.9248 137.801 43.0366 138.791C47.1484 139.781 48.7918 138.521 48.7918 138.521L53.4118 118.562C53.4118 118.562 60.5596 101.996 61.1404 99.6597C62.3482 94.9671 63.3448 80.9817 57.7282 77.8203Z" fill="#E6E6E6"/>
<path d="M110.581 64.6323C110.753 65.0745 110.838 65.5431 111.036 65.9523C111.231 66.3686 111.487 66.7534 111.795 67.0941C112.434 67.8025 113.315 68.2472 114.264 68.3415C116.29 68.5197 118.541 66.8301 118.079 64.6323C118.072 64.5815 118.076 64.5298 118.091 64.4808C118.106 64.4317 118.131 64.3863 118.165 64.3477C118.199 64.309 118.24 64.2779 118.287 64.2565C118.333 64.235 118.384 64.2236 118.435 64.2231C119.755 64.0911 120.488 62.7579 120.474 61.5171C120.522 60.8553 120.324 60.1992 119.917 59.6752C119.51 59.1512 118.923 58.7964 118.27 58.6791C117.989 58.6342 117.703 58.6187 117.419 58.6329C117.146 58.6767 116.87 58.701 116.594 58.7055C116.066 58.6593 116.013 57.9927 115.788 57.6231C115.556 57.2147 115.227 56.8701 114.829 56.6201C114.431 56.3701 113.978 56.2225 113.509 56.1905C113.041 56.1585 112.571 56.243 112.143 56.4366C111.715 56.6301 111.342 56.9267 111.056 57.2997C110.653 57.8865 110.411 58.5696 110.357 59.2797C110.357 59.3589 110.152 59.5899 110.106 59.4117C109.98 58.7556 110.067 58.0765 110.355 57.4734C110.642 56.8702 111.114 56.3747 111.703 56.0589C112.331 55.7057 113.052 55.553 113.769 55.6214C114.487 55.6899 115.166 55.9761 115.716 56.4417C115.97 56.6502 116.192 56.8948 116.376 57.1677C116.474 57.3136 116.558 57.4683 116.627 57.6297C116.666 57.7089 116.745 58.0785 116.811 58.1181C116.94 58.1207 117.069 58.1074 117.194 58.0785C117.359 58.0785 117.531 58.0785 117.696 58.0785C118.076 58.0759 118.455 58.1202 118.824 58.2105C119.528 58.3997 120.147 58.8218 120.58 59.408C121.012 59.9942 121.234 60.7098 121.207 61.4379C121.249 62.1822 121.037 62.9188 120.607 63.5276C120.177 64.1365 119.553 64.5817 118.838 64.7907C119.115 67.2195 116.706 69.0543 114.409 68.9949C113.267 68.9622 112.181 68.4893 111.38 67.6749C110.68 66.9753 109.901 65.7873 110.093 64.7577C110.112 64.5267 110.489 64.3881 110.581 64.6323Z" fill="#455A64"/>
<path d="M102.318 61.379C103.369 61.049 104.45 60.8278 105.546 60.719L106.958 60.4946C107.451 60.3923 107.953 60.3326 108.456 60.3164C108.687 60.3164 108.555 60.6332 108.417 60.686C107.901 60.8578 107.371 60.9837 106.833 61.0622L105.334 61.3262L103.902 61.5572C103.373 61.6658 102.832 61.7058 102.292 61.676C102.14 61.6826 102.219 61.4252 102.318 61.379Z" fill="#455A64"/>
<path d="M103.17 64.4024C103.358 64.3401 103.553 64.3002 103.751 64.2836C103.975 64.2506 104.193 64.2308 104.411 64.211L105.566 64.145C105.955 64.145 106.338 64.145 106.727 64.1054C107.187 64.0601 107.65 64.0712 108.107 64.1384C108.324 64.1846 108.107 64.4948 107.994 64.5278C107.615 64.5905 107.231 64.6236 106.846 64.6268L105.645 64.6928L104.457 64.7654L103.902 64.7984C103.638 64.8348 103.369 64.8348 103.104 64.7984C102.926 64.7192 103.058 64.4486 103.17 64.4024Z" fill="#455A64"/>
</svg>
