<svg width="91" height="99" viewBox="0 0 91 99" fill="none" xmlns="http://www.w3.org/2000/svg">
<path fill-rule="evenodd" clip-rule="evenodd" d="M31.5175 0.0451116C28.7006 0.344549 26.6282 0.773147 24.3183 1.53403C10.2938 6.15397 1.50053 20.1515 3.40155 34.8302C3.93931 38.9824 5.36485 43.0622 7.55953 46.7299C11.9256 54.0262 19.5016 59.3573 27.8889 61.0353C30.3529 61.5282 31.0827 61.5938 34.0846 61.5926C36.3128 61.5916 37.2846 61.5449 38.2702 61.3916C42.9072 60.6704 47.1688 59.0684 50.8826 56.6504C53.1203 55.1936 54.0344 54.3717 59.8118 48.6224C67.4563 41.0152 70.6382 37.9072 70.7819 37.9072C70.9538 37.9072 72.1243 40.1721 72.6463 41.5151C73.1754 42.8761 73.6835 44.7368 73.9491 46.287C74.213 47.8264 74.2118 51.5406 73.947 53.1025C72.8599 59.5156 69.4626 64.8539 64.2298 68.3716C60.984 70.5537 57.3459 71.8149 53.3219 72.153C48.2894 72.5759 42.7959 71.0356 38.5959 68.0238C38.0791 67.6533 37.5558 67.3512 37.4331 67.3526C37.3103 67.3541 36.7076 67.4297 36.0937 67.5207C34.3497 67.7791 31.4246 67.8492 29.62 67.6757C26.4843 67.3742 26.3779 67.4263 27.3937 68.7637C28.2649 69.9106 30.5752 72.287 31.9081 73.4072C36.4293 77.2069 42.404 79.746 48.4271 80.4271C49.9452 80.5988 53.5159 80.5995 55.0124 80.4286C60.877 79.7583 66.5004 77.4252 71.0848 73.7603C72.3057 72.7843 74.7325 70.3544 75.7036 69.1359C79.2497 64.6856 81.4803 59.5066 82.3203 53.7729C82.5953 51.8956 82.5953 47.4936 82.3202 45.6166C81.3104 38.7253 78.3486 32.7419 73.5888 27.9772C63.452 17.8298 47.8646 15.9487 35.5766 23.3897C32.6885 25.1387 31.6657 26.0635 22.8677 34.8813C18.5399 39.2187 14.9645 42.7675 14.9222 42.7675C14.7865 42.7675 13.7417 40.8171 13.2077 39.5664C12.5502 38.0265 11.9862 36.0695 11.6844 34.2802C11.3809 32.4809 11.3591 29.3298 11.638 27.5802C12.9685 19.2332 18.3707 12.5595 26.16 9.64054C30.3498 8.07051 35.1094 7.82682 39.514 8.95686C42.5056 9.72434 45.0914 10.9739 47.7105 12.9177L48.0543 13.1729L49.2731 12.9908C51.2136 12.7008 54.7531 12.646 56.7845 12.8744C57.7205 12.9796 58.5585 13.038 58.6467 13.0041C58.9702 12.8798 58.801 12.4188 58.1284 11.5916C53.1207 5.43275 46.2725 1.49448 38.4934 0.300192C37.0366 0.076508 32.7104 -0.0817024 31.5175 0.0451116ZM49.3687 27.2906C44.7522 27.8187 40.7854 29.4937 37.1647 32.4435C36.5756 32.9235 32.583 36.8183 28.2922 41.0986L20.4907 48.881L21.5345 49.5694C25.6495 52.2831 30.7739 53.6441 35.4728 53.2711C39.1198 52.9817 42.6595 51.8684 45.6925 50.0568C47.8205 48.7857 48.7155 47.9662 56.9999 39.7017L65.0704 31.6506L64.7571 31.3947C64.3154 31.0338 62.8022 30.1214 61.7569 29.5856C58.0978 27.7106 53.3635 26.8335 49.3687 27.2906ZM54.4823 89.0815C52.6428 89.4816 51.2667 90.8695 50.869 92.7258C50.7104 93.4664 50.8026 95.0612 51.0426 95.7277C51.8377 97.936 54.3782 99.2301 56.8836 98.7029C57.7586 98.5188 58.8595 97.9913 59.2604 97.5641L59.5099 97.2983L58.8649 96.5631L58.2202 95.8278L57.9835 96.044C57.348 96.6247 56.1869 96.9193 55.2781 96.7305C54.4227 96.5527 53.7864 96.097 53.4003 95.3855C53.115 94.8598 53.0716 94.6626 53.0704 93.8853C53.069 93.1271 53.1154 92.9006 53.3733 92.4027C53.7518 91.6723 54.3808 91.201 55.2063 91.0295C56.0312 90.858 56.9098 91.0301 57.5687 91.492L58.0601 91.8366L58.7365 91.1595L59.4129 90.4824L59.0983 90.1538C58.7028 89.7405 57.5947 89.1964 56.8206 89.0353C56.0623 88.8774 55.3568 88.8914 54.4823 89.0815ZM76.3587 89.0815C74.5192 89.4816 73.1431 90.8695 72.7455 92.7258C72.5661 93.5628 72.6799 95.0904 72.9771 95.8347C73.6693 97.5687 75.1115 98.5747 77.2236 98.7971C78.5224 98.9339 80.4094 98.3393 81.1369 97.5641L81.3863 97.2983L80.7414 96.5631L80.0966 95.8278L79.8585 96.0516C79.4017 96.4813 78.5627 96.7661 77.7539 96.7661C76.2332 96.7661 75.1137 95.7967 74.9294 94.3204C74.8363 93.5744 74.9309 93.0465 75.2819 92.353C75.9985 90.9375 78.0493 90.5134 79.4451 91.492L79.9366 91.8366L80.6122 91.1603L81.2878 90.484L81.0161 90.1945C80.3497 89.4844 78.8059 88.9072 77.6143 88.9226C77.3074 88.9267 76.7424 88.9982 76.3587 89.0815ZM2.30059 89.1395C1.26871 89.3975 0.436957 90.0969 0.216295 90.8923C0.0704597 91.4181 0.0704597 91.5457 0.216295 92.0715C0.492318 93.0666 1.40108 93.6154 3.57266 94.0987C5.66644 94.5645 6.19337 94.7974 6.57654 95.4265C7.01552 96.1472 6.74307 97.035 5.91031 97.5967C5.33773 97.983 4.72385 98.1022 3.55804 98.0533C2.3324 98.0019 1.55299 97.7096 0.781735 97.012C0.399678 96.6665 0.291746 96.6186 0.153344 96.7336C-0.111584 96.9538 -0.0464009 97.1347 0.452248 97.562C1.98025 98.8712 4.59181 99.1336 6.27384 98.1468C7.13897 97.6393 7.54781 96.7697 7.40081 95.7496C7.33909 95.3205 7.22993 95.1318 6.80223 94.7143C6.22629 94.1521 5.39834 93.8336 3.33481 93.381C1.56984 92.9938 0.767672 92.411 0.767672 91.5157C0.767672 89.5791 4.29704 88.9102 6.25196 90.4765L6.65768 90.8015L6.86584 90.5708C7.07099 90.3433 7.06776 90.3347 6.63893 89.9632C5.94938 89.3656 5.13336 89.1046 3.83707 89.067C3.22319 89.0491 2.53185 89.0817 2.30059 89.1395ZM9.38867 93.8562L9.4178 98.5768L9.7234 98.612L10.029 98.6473L10.0582 94.4508L10.0875 90.2544L12.0407 92.9542C13.115 94.4391 14.0497 95.6725 14.1179 95.695C14.186 95.7174 15.1403 94.492 16.2386 92.9717L18.2354 90.2075L18.2646 94.4274L18.2938 98.6473L18.5994 98.612L18.905 98.5768V93.8841V89.1915L18.5652 89.1582C18.239 89.1262 18.1438 89.2383 16.2213 91.9171C15.1191 93.453 14.1903 94.7123 14.1574 94.7157C14.1246 94.7193 13.1954 93.4663 12.0925 91.9314C10.1816 89.2717 10.0704 89.1406 9.72351 89.1382L9.35954 89.1356L9.38867 93.8562ZM22.7576 93.6886C21.634 96.1928 20.691 98.3297 20.6619 98.4371C20.6203 98.5909 20.6788 98.6327 20.9354 98.6327C21.2418 98.6327 21.2929 98.5626 21.7711 97.4874L22.2804 96.3422H25.1655H28.0507L28.5564 97.4841C29.0192 98.5293 29.0879 98.6262 29.3689 98.6293C29.5377 98.6311 29.6758 98.5814 29.6758 98.5187C29.6758 98.4186 28.0976 94.8528 26.1533 90.5602C25.524 89.1708 25.4993 89.1356 25.1543 89.1356H24.8006L22.7576 93.6886ZM31.4617 93.8822V98.6475L31.7686 98.6121L32.0756 98.5768L32.1063 96.7612L32.1369 94.9456H33.4056H34.6743L35.3964 95.6998C35.7936 96.1145 36.565 96.9439 37.1107 97.5427C37.9854 98.5027 38.1467 98.6316 38.4748 98.6321C38.6795 98.6325 38.8301 98.5888 38.8096 98.535C38.7892 98.4813 38.0944 97.6987 37.2656 96.7959C36.4369 95.8932 35.7421 95.1076 35.7217 95.05C35.7011 94.9926 35.8518 94.9445 36.0565 94.9431C36.8707 94.9378 37.8632 94.2723 38.3024 93.4372C38.6242 92.8255 38.6428 91.3933 38.337 90.7758C38.0511 90.1983 37.5386 89.7058 36.932 89.4253C36.4792 89.216 36.1784 89.1888 33.9451 89.1548L31.4617 89.1171V93.8822ZM39.3863 89.4708V89.806H41.1163H42.8464V94.2267V98.6475L43.1533 98.6121L43.4602 98.5768L43.4895 94.1914L43.5186 89.806H45.2474H46.9761V89.4708V89.1356H43.1812H39.3863V89.4708ZM60.7573 89.2714C60.7269 89.3505 60.7153 91.4766 60.7314 93.996L60.7605 98.5768L64.2527 98.6063L67.7448 98.6359L67.7127 97.6007L67.6806 96.5657L65.3662 96.5355L63.0516 96.5053L63.0223 92.8484L62.9928 89.1915L61.9026 89.1595C61.0928 89.1357 60.7982 89.1644 60.7573 89.2714ZM68.9642 93.8882V98.6407L70.0524 98.6088L71.1407 98.5768L71.1698 93.8562L71.1989 89.1356H70.0815H68.9642V93.8882ZM82.6322 89.2754C82.6027 89.3522 82.5918 91.4766 82.6078 93.996L82.637 98.5768L83.7225 98.6088L84.808 98.6407L84.8387 96.7902L84.8692 94.9399L86.4908 96.7583L88.1123 98.5768L89.5323 98.6081C90.3132 98.6253 90.9516 98.6002 90.9508 98.5522C90.95 98.5043 89.9969 97.4112 88.8328 96.1231C86.7491 93.8177 86.7193 93.7777 86.9187 93.5533C87.919 92.4283 90.6174 89.2498 90.6174 89.1965C90.6174 89.1593 90.0034 89.1429 89.253 89.1601L87.8886 89.1915L86.3789 90.9734L84.8692 92.7553L84.8386 90.9455L84.8079 89.1356H83.7468C83.0005 89.1356 82.6699 89.177 82.6322 89.2754ZM32.1314 92.0965V94.3869L34.0009 94.3863C36.0228 94.3856 36.56 94.2952 37.1383 93.8582C38.0949 93.1352 38.1996 91.4227 37.344 90.4911C36.8039 89.903 36.3766 89.8111 34.1683 89.8084L32.1314 89.806V92.0965ZM23.9552 92.576C23.3002 94.0329 22.7319 95.313 22.6922 95.4204C22.625 95.603 22.7874 95.616 25.1435 95.616C26.5313 95.616 27.6668 95.5719 27.6668 95.5182C27.6668 95.4312 27.5206 95.0962 26.6362 93.1579C26.5101 92.8814 26.1342 92.0523 25.801 91.3156C25.4678 90.5788 25.184 89.965 25.1706 89.9515C25.1571 89.938 24.6102 91.119 23.9552 92.576Z" fill="#263238"/>
<path fill-rule="evenodd" clip-rule="evenodd" d="M31.5174 0.0451116C28.7005 0.344549 26.6281 0.773147 24.3183 1.53403C10.2937 6.15397 1.50044 20.1515 3.40146 34.8302C3.93922 38.9824 5.36476 43.0622 7.55944 46.7299C11.9255 54.0262 19.5015 59.3573 27.8888 61.0353C30.3528 61.5282 31.0827 61.5938 34.0845 61.5926C36.3127 61.5916 37.2845 61.5449 38.2701 61.3916C42.9071 60.6704 47.1687 59.0684 50.8825 56.6504C53.1202 55.1936 54.0343 54.3717 59.8117 48.6224C67.4562 41.0152 70.6381 37.9072 70.7818 37.9072C70.9537 37.9072 72.1242 40.1721 72.6463 41.5151C73.1753 42.8761 73.6834 44.7368 73.949 46.287C74.2129 47.8264 74.2118 51.5406 73.9469 53.1025C72.8598 59.5156 69.4626 64.8539 64.2297 68.3716C60.9839 70.5537 57.3458 71.8149 53.3219 72.153C48.2893 72.5759 42.7958 71.0356 38.5958 68.0238C38.079 67.6533 37.5557 67.3512 37.433 67.3526C37.3102 67.3541 36.7075 67.4297 36.0936 67.5207C34.3496 67.7791 31.4245 67.8492 29.62 67.6756C26.4843 67.3742 26.3778 67.4263 27.3936 68.7637C28.2648 69.9106 30.5751 72.287 31.908 73.4072C36.4292 77.2069 42.4039 79.746 48.427 80.4271C49.9451 80.5988 53.5159 80.5995 55.0123 80.4285C60.8769 79.7583 66.5003 77.4252 71.0848 73.7603C72.3056 72.7843 74.7324 70.3544 75.7035 69.1358C79.2496 64.6856 81.4802 59.5066 82.3202 53.7729C82.5952 51.8956 82.5952 47.4936 82.3201 45.6166C81.3103 38.7253 78.3485 32.7419 73.5887 27.9772C63.4519 17.8298 47.8645 15.9487 35.5765 23.3897C32.6885 25.1387 31.6656 26.0635 22.8676 34.8813C18.5399 39.2187 14.9644 42.7675 14.9221 42.7675C14.7864 42.7675 13.7417 40.8171 13.2076 39.5664C12.5501 38.0265 11.9861 36.0695 11.6843 34.2802C11.3808 32.4809 11.359 29.3298 11.6379 27.5802C12.9684 19.2332 18.3707 12.5595 26.1599 9.64054C30.3497 8.0705 35.1093 7.82682 39.5139 8.95686C42.5055 9.72434 45.0913 10.9739 47.7104 12.9177L48.0542 13.1729L49.273 12.9908C51.2135 12.7008 54.753 12.646 56.7844 12.8744C57.7204 12.9796 58.5584 13.038 58.6467 13.0041C58.9701 12.8798 58.8009 12.4188 58.1283 11.5916C53.1206 5.43275 46.2724 1.49448 38.4933 0.300192C37.0365 0.0765079 32.7103 -0.0817024 31.5174 0.0451116ZM49.3686 27.2906C44.7521 27.8187 40.7853 29.4937 37.1646 32.4435C36.5755 32.9235 32.5829 36.8183 28.2921 41.0986L20.4907 48.881L21.5344 49.5694C25.6494 52.2831 30.7738 53.6441 35.4727 53.2711C39.1197 52.9816 42.6594 51.8684 45.6925 50.0568C47.8204 48.7857 48.7154 47.9662 56.9998 39.7017L65.0703 31.6506L64.757 31.3947C64.3153 31.0338 62.8021 30.1214 61.7568 29.5856C58.0977 27.7106 53.3634 26.8335 49.3686 27.2906Z" fill="url(#paint0_linear_174_3899)"/>
<defs>
<linearGradient id="paint0_linear_174_3899" x1="10.6833" y1="9.48579" x2="71.9699" y2="73.2203" gradientUnits="userSpaceOnUse">
<stop stop-color="#F1B357"/>
<stop offset="0.468219" stop-color="#5AB479"/>
<stop offset="1" stop-color="#30438E"/>
</linearGradient>
</defs>
</svg>
