<svg width="330" height="341" viewBox="0 0 330 341" fill="none" xmlns="http://www.w3.org/2000/svg">
<g clip-path="url(#clip0_497_5662)">
<path d="M176.955 341.466C271.384 341.466 347.934 297.175 347.934 242.541C347.934 187.906 271.384 143.615 176.955 143.615C82.5253 143.615 5.97534 187.906 5.97534 242.541C5.97534 297.175 82.5253 341.466 176.955 341.466Z" fill="#FAFAFA"/>
<path d="M270.615 306.193C289.533 306.193 304.869 297.322 304.869 286.378C304.869 275.435 289.533 266.563 270.615 266.563C251.697 266.563 236.361 275.435 236.361 286.378C236.361 297.322 251.697 306.193 270.615 306.193Z" fill="#E0E0E0"/>
<path d="M47.9316 277.499L19.8448 261.252C18.2604 260.333 18.2604 258.852 19.8448 257.934L183.221 163.409C184.111 162.961 185.093 162.729 186.088 162.729C187.084 162.729 188.066 162.961 188.955 163.409L217.049 179.664C218.634 180.575 218.634 182.063 217.049 182.981L53.6726 277.499C52.7832 277.952 51.7997 278.188 50.8021 278.188C49.8045 278.188 48.821 277.952 47.9316 277.499Z" fill="#E0E0E0"/>
<path d="M66.7886 37.1427L60.4579 40.8166C60.4579 40.5318 60.5076 40.2541 60.5076 39.9764V38.1324C60.5076 34.85 58.2127 33.5186 55.3706 35.1633C54.1526 35.9144 53.1105 36.9198 52.3154 38.111C51.8464 33.9814 48.6207 32.415 44.6915 34.7148C40.4284 37.1712 37.0108 43.1377 37.0108 48.0505V50.806C36.9799 51.9071 37.201 53.0007 37.6574 54.0028L32.3782 57.0573C31.5513 57.6002 30.8633 58.3303 30.3696 59.1886C29.8759 60.0469 29.5904 61.0094 29.5361 61.9986C29.5361 63.8213 30.8151 64.5618 32.3782 63.6504L66.7886 43.7358C67.6159 43.1933 68.3043 42.4633 68.798 41.605C69.2917 40.7466 69.577 39.7838 69.6307 38.7945C69.6307 36.9718 68.3802 36.2313 66.7886 37.1427Z" fill="#EBEBEB"/>
<path d="M99.6999 52.3938L94.9039 55.1706C94.932 54.9581 94.9463 54.7441 94.9465 54.5298V53.1058C94.9465 50.628 93.2129 49.6241 91.0742 50.863C90.1525 51.4264 89.3644 52.1845 88.765 53.0844C88.4098 49.973 85.9727 48.8124 83.0098 50.5284C79.8125 52.3796 77.212 56.8865 77.212 60.5889V62.6751C77.1917 63.5041 77.3593 64.3269 77.7023 65.0816L73.7234 67.3885C73.1011 67.7994 72.5839 68.3512 72.2137 68.9993C71.8434 69.6474 71.6304 70.3736 71.5918 71.1194C71.5918 72.4936 72.5581 73.0489 73.7234 72.3654L99.6999 57.3351C100.322 56.9238 100.839 56.3719 101.209 55.7239C101.579 55.0759 101.792 54.3499 101.831 53.6042C101.853 52.2799 100.894 51.7103 99.6999 52.3938Z" fill="#EBEBEB"/>
<path d="M148.896 248.543L173.054 234.552C175.548 233.128 176.791 231.22 176.791 229.333C176.791 227.446 176.791 225.972 176.791 225.972L151.738 211.811C151.039 211.353 150.457 210.737 150.04 210.012C149.623 209.287 149.382 208.474 149.337 207.638V177.805L107.16 202.227V232.06C107.207 232.895 107.448 233.708 107.865 234.433C108.282 235.157 108.863 235.774 109.562 236.232L130.878 248.543C135.844 251.419 143.916 251.419 148.896 248.543Z" fill="#263238"/>
<path d="M117.278 237.343V240.696L109.548 236.232C108.85 235.774 108.269 235.157 107.853 234.432C107.437 233.708 107.198 232.895 107.153 232.06V202.234L115.182 197.585C115.353 199.628 115.53 201.743 115.701 203.8L110.066 207.069V230.379C110.109 231.216 110.348 232.03 110.766 232.755C111.183 233.481 111.767 234.096 112.468 234.552L117.278 237.343Z" fill="black"/>
<path d="M110.066 230.387C110.111 231.222 110.352 232.035 110.77 232.76C111.187 233.485 111.769 234.101 112.468 234.559L130.863 245.175C135.837 248.058 143.916 248.058 148.896 245.175L173.054 231.191C178.027 228.343 178.027 223.644 173.054 220.76L154.644 210.13C153.944 209.674 153.361 209.058 152.944 208.333C152.526 207.608 152.286 206.794 152.243 205.958V182.654L110.074 207.076L110.066 230.387Z" fill="#37474F"/>
<path d="M159.54 212.971L154.644 210.123C153.944 209.667 153.361 209.051 152.944 208.326C152.526 207.601 152.286 206.787 152.243 205.951V182.654L110.066 207.076V230.387C110.111 231.222 110.352 232.035 110.77 232.76C111.187 233.485 111.769 234.101 112.468 234.559L117.278 237.336L159.54 212.971Z" fill="#263238"/>
<path d="M176.784 226.008V229.376C176.784 231.262 175.534 233.142 173.047 234.587L148.889 248.571C146.242 249.986 143.285 250.72 140.285 250.707V247.354C143.286 247.37 146.243 246.636 148.889 245.218L173.047 231.22C175.534 229.753 176.784 227.866 176.784 226.008Z" fill="#455A64"/>
<path d="M42.3471 259.358C43.2574 259.799 44.2585 260.019 45.2694 260C46.2803 259.982 47.2727 259.725 48.1663 259.251L211.273 164.883C212.149 164.313 212.878 163.544 213.4 162.638C213.922 161.732 214.223 160.716 214.278 159.671V27.018C214.238 26.0033 213.959 25.0125 213.465 24.1257C212.972 23.2388 212.277 22.4808 211.436 21.913C210.526 21.4721 209.525 21.2521 208.514 21.2706C207.503 21.2892 206.511 21.5458 205.617 22.0198L42.5319 116.36C41.6572 116.93 40.9292 117.7 40.407 118.605C39.8847 119.511 39.583 120.527 39.5264 121.572V254.253C39.5648 255.266 39.8401 256.255 40.33 257.142C40.82 258.029 41.5109 258.788 42.3471 259.358Z" fill="#455A64"/>
<path d="M48.1661 259.244L211.273 164.883C212.147 164.312 212.875 163.543 213.398 162.637C213.92 161.731 214.222 160.715 214.278 159.671V27.018C214.278 25.0956 212.935 24.3196 211.273 25.2808L48.1732 119.642C47.2985 120.213 46.5705 120.982 46.0483 121.888C45.5261 122.793 45.2244 123.81 45.1677 124.854V257.507C45.1677 259.429 46.5106 260.184 48.1661 259.244Z" fill="url(#paint0_linear_497_5662)"/>
<path d="M48.1661 259.244L211.273 164.883C212.147 164.312 212.875 163.543 213.398 162.637C213.92 161.731 214.222 160.715 214.278 159.671V27.018C214.278 25.0956 212.935 24.3196 211.273 25.2808L48.1732 119.642C47.2985 120.213 46.5705 120.982 46.0483 121.888C45.5261 122.793 45.2244 123.81 45.1677 124.854V257.507C45.1677 259.429 46.5106 260.184 48.1661 259.244Z" fill="#37474F"/>
<path d="M47.7256 262.683C46.8721 263.052 45.9496 263.232 45.0204 263.213C44.0912 263.193 43.177 262.974 42.3399 262.569C41.4987 262.001 40.8031 261.241 40.3093 260.353C39.8156 259.465 39.5375 258.473 39.4978 257.457V245.417L45.1322 248.685V260.725C45.1606 262.477 46.269 263.267 47.7256 262.683Z" fill="#263238"/>
<path d="M45.1606 248.685V260.718C45.1606 262.64 46.5035 263.416 48.159 262.455L211.273 168.094C212.148 167.522 212.877 166.752 213.399 165.845C213.922 164.938 214.223 163.92 214.278 162.875V150.821L45.1606 248.685Z" fill="#37474F"/>
<path opacity="0.2" d="M45.1677 248.656V260.718C45.1677 262.64 46.5106 263.416 48.1661 262.455L211.273 168.094C212.148 167.522 212.877 166.752 213.399 165.845C213.921 164.938 214.223 163.92 214.278 162.875V150.821L45.1677 248.656Z" fill="black"/>
<path d="M50.8022 233.576V126.734C50.8364 126.106 51.0176 125.495 51.3312 124.951C51.6447 124.407 52.0818 123.944 52.607 123.601L206.832 34.3729C207.834 33.7962 208.637 34.2661 208.637 35.4125V142.262C208.603 142.89 208.421 143.5 208.108 144.045C207.794 144.589 207.357 145.052 206.832 145.395L52.5785 234.623C51.6051 235.2 50.8022 234.73 50.8022 233.576Z" fill="url(#paint1_linear_497_5662)"/>
<path opacity="0.3" d="M50.8022 233.576V126.734C50.8364 126.106 51.0176 125.495 51.3312 124.951C51.6447 124.407 52.0818 123.944 52.607 123.601L206.832 34.3729C207.834 33.7962 208.637 34.2661 208.637 35.4125V142.262C208.603 142.89 208.421 143.5 208.108 144.045C207.794 144.589 207.357 145.052 206.832 145.395L52.5785 234.623C51.6051 235.2 50.8022 234.73 50.8022 233.576Z" fill="black"/>
<path d="M129.72 203.58C128.895 204.114 128.208 204.835 127.714 205.685C127.221 206.535 126.934 207.489 126.877 208.471C126.877 210.273 128.142 211.006 129.72 210.102C130.545 209.569 131.232 208.848 131.726 207.998C132.22 207.148 132.506 206.192 132.562 205.21C132.54 203.409 131.276 202.676 129.72 203.58Z" fill="#455A64"/>
<path d="M46.0487 121.878C45.5135 122.782 45.2085 123.804 45.1605 124.854V248.685L39.5261 245.417V121.6C39.5673 120.549 39.8728 119.525 40.4143 118.624L46.0487 121.878Z" fill="#263238"/>
<path d="M236.993 26.3918C236.751 26.2695 236.48 26.2162 236.209 26.2375C235.938 26.2588 235.679 26.3541 235.459 26.5129L72.8991 120.589C72.2815 120.987 71.7666 121.525 71.3961 122.16C71.0257 122.794 70.8103 123.508 70.7675 124.242V234.068C70.7424 234.424 70.8113 234.781 70.9671 235.102C71.123 235.423 71.3605 235.698 71.6556 235.898C71.9967 236.083 73.7872 237.137 74.3414 237.429C74.533 237.527 74.7473 237.572 74.9621 237.56C75.177 237.547 75.3846 237.477 75.5635 237.357L238.144 143.245C238.762 142.848 239.278 142.311 239.648 141.676C240.019 141.041 240.234 140.327 240.276 139.593V29.2327C240.312 28.9578 240.269 28.6783 240.154 28.4264C240.038 28.1745 239.854 27.9604 239.622 27.8087C239.224 27.6734 237.377 26.6481 236.993 26.3918Z" fill="url(#paint2_linear_497_5662)"/>
<path d="M75.592 122.12L238.144 28.072C239.31 27.4027 240.276 27.9509 240.276 29.2966V139.657C240.234 140.391 240.019 141.105 239.648 141.74C239.278 142.374 238.762 142.912 238.144 143.309L75.592 237.357C74.4268 238.027 73.4604 236.937 73.4604 235.591V125.773C73.5026 125.038 73.7178 124.325 74.0883 123.69C74.4588 123.055 74.9741 122.517 75.592 122.12Z" fill="#FAFAFA"/>
<path d="M239.089 28.4634C239.48 28.4634 239.544 28.9618 239.544 29.2608V139.621C239.506 140.228 239.327 140.818 239.023 141.344C238.718 141.871 238.296 142.319 237.789 142.654L75.2367 236.738C75.1361 236.807 75.0178 236.847 74.8957 236.852C74.5262 236.852 74.1852 236.261 74.1852 235.591V125.772C74.2235 125.164 74.4019 124.573 74.7064 124.046C75.0108 123.518 75.4332 123.069 75.9402 122.732L238.5 28.6556C238.677 28.5429 238.88 28.4768 239.089 28.4634ZM239.089 27.7514C238.755 27.764 238.43 27.8621 238.144 28.0362L75.592 122.12C74.9741 122.517 74.4588 123.055 74.0883 123.69C73.7178 124.324 73.5026 125.038 73.4604 125.772V235.591C73.4604 236.659 74.0502 237.564 74.8815 237.564C75.1327 237.561 75.3785 237.49 75.592 237.357L238.144 143.245C238.762 142.848 239.278 142.31 239.648 141.675C240.019 141.04 240.234 140.327 240.276 139.592V29.2323C240.276 28.2711 239.8 27.7229 239.111 27.7229L239.089 27.7514Z" fill="#E0E0E0"/>
<path d="M71.6768 235.897C71.9042 236.019 73.5455 236.958 74.2631 237.364C74.0039 237.151 73.7986 236.879 73.664 236.571C73.5295 236.263 73.4694 235.927 73.4887 235.591V132.672L70.7887 131.091V234.068C70.7665 234.424 70.8366 234.779 70.9922 235.1C71.1479 235.42 71.3837 235.695 71.6768 235.897Z" fill="#F0F0F0"/>
<path d="M240.255 29.2394C240.255 27.908 239.303 27.3669 238.123 28.0362L75.592 122.12C74.9741 122.517 74.4588 123.055 74.0883 123.689C73.7178 124.324 73.5026 125.038 73.4604 125.772V132.672L240.255 36.1672V29.2394Z" fill="url(#paint3_linear_497_5662)"/>
<g opacity="0.4">
<path d="M238.144 28.0719L75.5918 122.12C74.9711 122.506 74.4597 123.045 74.1069 123.686L71.4353 122.134C71.7829 121.502 72.2869 120.97 72.899 120.589L235.459 26.5126C235.678 26.3548 235.936 26.2595 236.205 26.2369C236.474 26.2143 236.744 26.2653 236.986 26.3844C237.363 26.6194 239.118 27.6162 239.558 27.8512C239.322 27.7713 239.07 27.7497 238.824 27.7881C238.578 27.8265 238.345 27.9239 238.144 28.0719Z" fill="white"/>
</g>
<path opacity="0.15" d="M70.7888 131.098V124.242C70.8153 123.485 71.0382 122.749 71.4354 122.106L74.114 123.651C73.7281 124.282 73.5126 125.004 73.4888 125.744V132.643L70.7888 131.098Z" fill="black"/>
<path d="M73.4888 132.672L73.4817 145.103L240.247 48.613V36.1672L73.4888 132.672Z" fill="#EBEBEB"/>
<path d="M80.4304 131.753L91.2161 125.545V131.732L80.4233 137.976L80.4304 131.753Z" fill="#E0E0E0"/>
<path d="M93.8806 123.971V126.42L99.2592 123.302V120.86L93.8806 123.971Z" fill="#E0E0E0"/>
<path d="M93.8806 127.752V130.201L99.2592 127.083V124.64L93.8806 127.752Z" fill="#E0E0E0"/>
<path d="M101.952 119.3V121.75L107.331 118.638V116.189L101.952 119.3Z" fill="#E0E0E0"/>
<path d="M101.952 123.081V125.53L107.331 122.419V119.97L101.952 123.081Z" fill="#E0E0E0"/>
<path d="M110.017 114.63V117.079L115.395 113.968V111.518L110.017 114.63Z" fill="#E0E0E0"/>
<path d="M110.017 118.411V120.86L115.395 117.748V115.299L110.017 118.411Z" fill="#E0E0E0"/>
<path d="M134.224 100.625V103.074L139.602 99.9625V97.5132L134.224 100.625Z" fill="#E0E0E0"/>
<path d="M134.224 104.413V106.855L139.602 103.743V101.294L134.224 104.413Z" fill="#E0E0E0"/>
<path d="M142.295 95.9611V98.4032L147.674 95.2918V92.8425L142.295 95.9611Z" fill="#E0E0E0"/>
<path d="M142.295 99.7419V102.184L147.674 99.0726V96.6233L142.295 99.7419Z" fill="#E0E0E0"/>
<path d="M150.36 91.2904L150.367 93.7397L155.746 90.6282V88.179L150.36 91.2904Z" fill="#E0E0E0"/>
<path d="M150.36 95.0712L150.367 97.5204L155.746 94.4019V91.9597L150.36 95.0712Z" fill="#E0E0E0"/>
<path d="M118.088 109.966L131.538 102.184V108.407L118.088 116.189V109.966Z" fill="#E0E0E0"/>
<path d="M158.439 86.6195L169.224 80.4109V86.6053L158.431 92.8495L158.439 86.6195Z" fill="#E0E0E0"/>
<path d="M171.881 78.8375L171.888 81.2868L177.267 78.1754V75.7261L171.881 78.8375Z" fill="#E0E0E0"/>
<path d="M171.881 82.6183L171.888 85.0676L177.267 81.9561V79.5068L171.881 82.6183Z" fill="#E0E0E0"/>
<path d="M179.953 74.174V76.6233L185.332 73.5047V71.0554L179.953 74.174Z" fill="#E0E0E0"/>
<path d="M179.953 77.9545V80.4038L185.332 77.2852V74.8359L179.953 77.9545Z" fill="#E0E0E0"/>
<path d="M188.024 69.5031V71.9524L193.403 68.8338V66.3845L188.024 69.5031Z" fill="#E0E0E0"/>
<path d="M188.024 73.284V75.7333L193.403 72.6148V70.1726L188.024 73.284Z" fill="#E0E0E0"/>
<path d="M212.232 55.4982V57.9475L217.61 54.8289V52.3796L212.232 55.4982Z" fill="#E0E0E0"/>
<path d="M212.232 59.2789V61.7282L217.61 58.6096V56.1675L212.232 59.2789Z" fill="#E0E0E0"/>
<path d="M220.303 50.8275V53.2768L225.682 50.1653V47.7161L220.303 50.8275Z" fill="#E0E0E0"/>
<path d="M220.303 54.608V57.0573L225.682 53.9459V51.4966L220.303 54.608Z" fill="#E0E0E0"/>
<path d="M228.368 46.1566V48.6059L233.753 45.4944V43.0452L228.368 46.1566Z" fill="#E0E0E0"/>
<path d="M228.368 49.9374V52.3867L233.753 49.2752V46.8259L228.368 49.9374Z" fill="#E0E0E0"/>
<path d="M196.096 64.8325L209.546 57.0503V63.2803L196.096 71.0553V64.8325Z" fill="#E0E0E0"/>
<path d="M73.4888 132.672L70.7888 131.091V143.544L73.4817 145.103L73.4888 132.672Z" fill="#E0E0E0"/>
<path d="M197.219 56.1673V56.6301C197.219 57.3421 197.73 57.6554 198.362 57.2923L231.046 38.3887C231.38 38.1695 231.657 37.8748 231.855 37.5285C232.054 37.1822 232.169 36.794 232.19 36.3951V35.9394C232.19 35.2274 231.679 34.907 231.046 35.2773L198.362 54.1809C198.029 54.3981 197.751 54.6914 197.553 55.0366C197.354 55.3818 197.239 55.7693 197.219 56.1673Z" fill="#F5F5F5"/>
<path d="M232.183 36.3951V35.9394C232.183 35.2274 231.672 34.907 231.039 35.2773L226.776 37.7265V40.838L231.039 38.3887C231.372 38.1695 231.65 37.8748 231.848 37.5285C232.047 37.1822 232.162 36.794 232.183 36.3951Z" fill="#455A64"/>
<path d="M76.1746 146.648L237.569 53.2908V59.4994L89.6176 145.103V226.022L76.1746 233.797V146.648Z" fill="#F0F0F0"/>
<path d="M89.6174 145.103L103.06 137.328V143.537L89.6174 151.326V145.103Z" fill="url(#paint4_linear_497_5662)"/>
<path d="M89.6174 194.893L103.06 187.118V193.327L89.6174 201.116V194.893Z" fill="url(#paint5_linear_497_5662)"/>
<path d="M89.6174 201.116L103.06 193.341V199.55L89.6174 207.339V201.116Z" fill="url(#paint6_linear_497_5662)"/>
<path opacity="0.8" d="M89.6174 201.116L103.06 193.341V199.55L89.6174 207.339V201.116Z" fill="white"/>
<path d="M170.304 148.208L183.747 140.433V146.641L170.304 154.431V148.208Z" fill="url(#paint7_linear_497_5662)"/>
<path opacity="0.3" d="M170.304 148.208L183.747 140.433V146.641L170.304 154.431V148.208Z" fill="black"/>
<path d="M170.304 154.43L183.747 146.655V152.864L170.304 160.653V154.43Z" fill="url(#paint8_linear_497_5662)"/>
<path opacity="0.4" d="M170.304 154.43L183.747 146.655V152.864L170.304 160.653V154.43Z" fill="black"/>
<path d="M170.304 160.661L183.747 152.885V159.094L170.304 166.883V160.661Z" fill="url(#paint9_linear_497_5662)"/>
<path opacity="0.5" d="M170.304 160.661L183.747 152.885V159.094L170.304 166.883V160.661Z" fill="black"/>
<path d="M170.304 166.883L183.747 159.108V165.317L170.304 173.106V166.883Z" fill="url(#paint10_linear_497_5662)"/>
<path opacity="0.3" d="M170.304 166.883L183.747 159.108V165.317L170.304 173.106V166.883Z" fill="black"/>
<path d="M156.868 106.193L170.304 98.4175V129.539L156.868 137.328V106.193Z" fill="url(#paint11_linear_497_5662)"/>
<path d="M156.868 143.544L170.304 135.769V179.336L156.868 187.126V143.544Z" fill="url(#paint12_linear_497_5662)"/>
<path d="M103.061 174.665L116.496 166.89V173.099L103.061 180.888V174.665Z" fill="url(#paint13_linear_497_5662)"/>
<path opacity="0.3" d="M103.061 174.665L116.496 166.89V173.099L103.061 180.888V174.665Z" fill="black"/>
<path d="M129.968 127.98L143.411 120.205V126.413L129.968 134.203V127.98Z" fill="url(#paint14_linear_497_5662)"/>
<path opacity="0.6" d="M129.968 127.98L143.411 120.205V126.413L129.968 134.203V127.98Z" fill="white"/>
<path d="M197.219 126.42L210.654 118.645V124.854L197.219 132.643V126.42Z" fill="url(#paint15_linear_497_5662)"/>
<path opacity="0.8" d="M197.219 126.42L210.654 118.645V124.854L197.219 132.643V126.42Z" fill="white"/>
<path d="M197.219 138.873L210.654 131.098V137.307L197.219 145.096V138.873Z" fill="url(#paint16_linear_497_5662)"/>
<path d="M76.0252 146.371L75.8618 146.463V234.381L237.725 140.717L237.896 140.625V52.707L76.0252 146.371ZM237.249 134.032L224.46 141.429V135.968L237.249 128.578V134.032ZM76.5084 153.071L89.2977 145.673V151.134L76.5084 158.532V153.071ZM156.541 144.128V149.589L143.752 156.987V151.526L156.541 144.128ZM143.752 150.757V145.296L156.541 137.898V143.359L143.752 150.757ZM157.202 143.743L169.991 136.346V141.807L157.202 149.204V143.743ZM157.202 142.974V137.52L169.991 130.116V135.584L157.202 142.974ZM157.202 136.752V131.312L169.991 123.914V129.375L157.202 136.752ZM157.202 130.522V125.068L169.991 117.663V123.124L157.202 130.522ZM156.541 130.906L143.752 138.304V132.843L156.541 125.445V130.906ZM156.541 131.675V137.136L143.752 144.534V139.073L156.541 131.675ZM143.091 144.918L130.302 152.316V146.855L143.091 139.457V144.918ZM143.091 145.68V151.141L130.302 158.539V153.078L143.091 145.68ZM143.091 151.91V157.371L130.302 164.769V159.308L143.091 151.91ZM143.091 158.133V163.594L130.302 170.992V165.531L143.091 158.133ZM143.752 157.748L156.541 150.351V155.812L143.752 163.209V157.748ZM156.541 156.581V162.042L143.752 169.439V163.978L156.541 156.581ZM157.202 156.196L169.991 148.799V154.26L157.202 161.657V156.196ZM157.202 155.427V149.966L169.991 142.569V148.03L157.202 155.427ZM170.652 142.191L183.441 134.794V140.255L170.652 147.652V142.191ZM170.652 141.422V135.961L183.441 128.564V134.025L170.652 141.422ZM170.652 135.199V129.738L183.441 122.341V127.802L170.652 135.199ZM170.652 128.969V123.48L183.441 116.082V121.543L170.652 128.969ZM170.652 122.746V117.285L183.441 109.888V115.342L170.652 122.746ZM170.652 116.516V111.055L183.441 103.658V109.119L170.652 116.516ZM169.991 116.901L157.202 124.299V118.838L169.991 111.44V116.901ZM156.541 124.683L143.752 132.081V126.62L156.541 119.222V124.683ZM143.091 132.465L130.302 139.863V134.402L143.091 127.004V132.465ZM143.091 133.227V138.688L130.302 146.086V140.625L143.091 133.227ZM129.641 146.47L116.852 153.868V148.4L129.641 141.002V146.47ZM129.641 147.239V152.672L116.852 160.077V154.616L129.641 147.239ZM129.641 153.462V158.923L116.852 166.321V160.86L129.641 153.462ZM129.641 159.692V165.146L116.852 172.551V167.09L129.641 159.692ZM129.641 165.915V171.376L116.852 178.774V173.32L129.641 165.915ZM129.641 172.145V177.592L116.852 184.997V179.536L129.641 172.145ZM130.302 171.761L143.091 164.363V169.824L130.302 177.222V171.761ZM143.091 170.586V176.047L130.302 183.444V177.983L143.091 170.586ZM143.752 170.201L156.541 162.804V168.265L143.752 175.662V170.201ZM157.202 162.419L169.991 155.021V160.504L157.202 167.902V162.419ZM170.652 154.644L183.441 147.246V152.707L170.652 160.105V154.644ZM170.652 153.875V148.4L183.441 141.002V146.463L170.652 153.875ZM184.102 140.632L196.892 133.234V138.695L184.102 146.093V140.632ZM184.102 139.87V134.409L196.892 127.011V132.472L184.102 139.87ZM184.102 133.64V128.179L196.892 120.781V126.242L184.102 133.64ZM184.102 127.417V121.956L196.892 114.558V120.02L184.102 127.417ZM184.102 121.187V115.726L196.892 108.328V113.79L184.102 121.187ZM184.102 114.964V109.503L196.892 102.106V107.567L184.102 114.964ZM184.102 108.734V103.273L196.892 95.8756V101.337L184.102 108.734ZM184.102 102.511V97.0504L196.892 89.6527V95.1138L184.102 102.511ZM183.441 102.889L170.652 110.294V104.833L183.441 97.4349V102.889ZM169.991 110.664L157.202 118.062V112.608L169.991 105.203V110.664ZM156.541 118.446L143.752 125.844V120.383L156.541 112.985V118.446ZM143.091 126.228L130.302 133.626V128.165L143.091 120.767V126.228ZM129.641 134.017L116.852 141.415V135.954L129.641 128.556V134.017ZM129.641 134.786V140.24L116.852 147.645V142.184L129.641 134.786ZM116.191 148.022L103.402 155.42V149.966L116.191 142.561V148.022ZM116.191 148.791V154.252L103.402 161.65V156.189L116.191 148.791ZM116.191 155.014V160.504L103.402 167.902V162.44L116.191 155.014ZM116.191 161.244V166.705L103.402 174.103V168.642L116.191 161.244ZM116.191 167.467V172.928L103.402 180.326V174.872L116.191 167.467ZM116.191 173.697V179.158L103.402 186.556V181.095L116.191 173.697ZM116.191 179.92V185.381L103.402 192.779V187.325L116.191 179.92ZM116.191 186.15V191.611L103.402 199.009V193.548L116.191 186.15ZM116.852 185.766L129.641 178.368V183.829L116.852 191.227V185.766ZM129.641 184.598V190.059L116.852 197.457V191.996L129.641 184.598ZM130.302 184.213L143.091 176.816V182.277L130.302 189.674V184.213ZM143.752 176.431L156.541 169.034V174.495L143.752 181.892V176.431ZM157.202 168.649L169.991 161.251V166.712L157.202 174.11V168.649ZM170.652 160.867L183.441 153.469V158.93L170.652 166.328V160.867ZM184.102 153.085L196.892 145.687V151.148L184.102 158.546V153.085ZM184.102 152.323V146.862L196.892 139.464V144.925L184.102 152.323ZM197.524 139.08L210.313 131.682V137.143L197.524 144.541V139.08ZM197.524 138.311V132.85L210.313 125.452V130.913L197.524 138.311ZM197.524 132.088V126.627L210.313 119.208V124.669L197.524 132.088ZM197.524 125.858V120.397L210.313 112.999V118.496L197.524 125.858ZM197.524 119.635V114.174L210.313 106.776V112.237L197.524 119.635ZM197.524 113.405V107.944L210.313 100.546V106.007L197.524 113.405ZM197.524 107.182V101.721L210.313 94.3234V99.7845L197.524 107.182ZM197.524 100.952V95.4911L210.313 88.0934V93.5758L197.524 100.952ZM197.524 94.7293V89.3038L210.313 81.9062V87.3672L197.524 94.7293ZM197.524 88.4993V83.0382L210.313 75.6406V81.1016L197.524 88.4993ZM196.863 88.8838L184.074 96.2814V90.8204L196.863 83.4227V88.8838ZM183.413 96.6659L170.624 104.064V98.6026L183.413 91.2049V96.6659ZM169.963 104.448L157.174 111.846V106.392L169.963 98.9942V104.448ZM156.541 112.23L143.752 119.628V114.167L156.541 106.769V112.23ZM143.091 120.012L130.302 127.41V121.949L143.091 114.551V120.012ZM129.641 127.787L116.852 135.192V129.731L129.641 122.334V127.787ZM116.191 135.584L103.402 142.982V137.528L116.191 130.123V135.584ZM116.191 136.353V141.814L103.402 149.212V143.75L116.191 136.353ZM102.741 149.596L89.9514 156.994V151.533L102.741 144.135V149.596ZM102.741 150.358V155.819L89.9514 163.217V157.756L102.741 150.358ZM102.741 156.588V162.049L89.9514 169.447V163.986L102.741 156.588ZM102.741 162.811V168.272L89.9514 175.669V170.208L102.741 162.811ZM102.741 169.041V174.502L89.9514 181.864V176.403L102.741 169.041ZM102.741 175.264V180.725L89.9514 188.122V182.647L102.741 175.264ZM102.741 181.494V186.955L89.9514 194.352V188.891L102.741 181.494ZM102.741 187.716V193.178L89.9514 200.575V195.114L102.741 187.716ZM102.741 193.946V199.408L89.9514 206.784V201.323L102.741 193.946ZM102.741 200.169V205.63L89.9514 213.028V207.567L102.741 200.169ZM103.402 199.792L116.191 192.387V197.848L103.402 205.246V199.792ZM116.191 198.617V204.078L103.402 211.476V206.001L116.191 198.617ZM116.852 198.233L129.641 190.835V196.296L116.852 203.694V198.233ZM130.302 190.408L143.091 183.01V188.471L130.302 195.869V190.408ZM143.752 182.626L156.541 175.228V180.689L143.752 188.087V182.626ZM157.202 174.851L169.991 167.446V172.907L157.202 180.305V174.851ZM170.652 167.068L183.441 159.671V165.132L170.652 172.53V167.068ZM184.102 159.286L196.892 151.889V157.35L184.102 164.747V159.286ZM197.524 151.533L210.313 144.128V149.589L197.524 156.987V151.533ZM197.524 150.764V145.303L210.313 137.905V143.366L197.524 150.764ZM211.024 137.528L223.813 130.123V135.584L211.024 142.982V137.528ZM211.024 136.759V131.312L223.813 123.914V129.375L211.024 136.759ZM211.024 130.529V125.075L223.813 117.67V123.131L211.024 130.529ZM211.024 124.306V118.845L223.813 111.447V116.908L211.024 124.306ZM211.024 118.076V112.622L223.813 105.217V110.664L211.024 118.076ZM211.024 111.853V106.392L223.813 98.9942V104.455L211.024 111.853ZM211.024 105.623V100.169L223.813 92.7642V98.2252L211.024 105.623ZM211.024 99.4V93.939L223.813 86.5413V92.0023L211.024 99.4ZM211.024 93.17V87.7161L223.813 80.3113V85.7438L211.024 93.17ZM211.024 86.9471V81.4718L223.813 74.0742V79.5352L211.024 86.9471ZM211.024 80.7171V75.2632L223.813 67.8584V73.3194L211.024 80.7171ZM211.024 74.4942V69.0332L223.813 61.6355V67.0966L211.024 74.4942ZM210.356 74.8787L197.567 82.2764V76.8154L210.356 69.4177V74.8787ZM196.913 82.6609L184.124 90.0586V84.5975L196.913 77.1998V82.6609ZM183.463 90.4359L170.673 97.8407V92.3797L183.463 84.982V90.4359ZM170.013 98.2181L157.223 105.616V100.162L170.013 92.7642V98.2181ZM156.563 106L143.773 113.398V107.944L156.563 100.546V106ZM143.112 113.782L130.323 121.18V115.726L143.112 108.328V113.782ZM129.662 121.565L116.873 128.962V123.48L129.662 116.082V121.565ZM116.212 129.347L103.423 136.744V131.312L116.212 123.907V129.347ZM102.741 137.129L89.9514 144.527V139.066L102.741 131.668V137.129ZM102.741 137.891V143.352L89.9514 150.749V145.288L102.741 137.891ZM76.5084 159.301L89.2977 151.903V157.364L76.5084 164.762V159.301ZM76.5084 165.523L89.2977 158.126V163.587L76.5084 170.984V165.523ZM76.5084 171.753L89.2977 164.356V169.817L76.5084 177.214V171.753ZM76.5084 177.976L89.2977 170.579V176.04L76.5084 183.437V177.976ZM76.5084 184.206L89.2977 176.809V182.27L76.5084 189.667V184.206ZM76.5084 190.429L89.2977 183.032V188.493L76.5084 195.89V190.429ZM76.5084 196.659L89.2977 189.262V194.723L76.5084 202.12V196.659ZM76.5084 202.882L89.2977 195.484V200.945L76.5084 208.343V202.882ZM76.5084 209.112L89.2977 201.714V207.175L76.5084 214.573V209.112ZM76.5084 215.335L89.2977 207.937V213.398L76.5084 220.796V215.335ZM76.5084 221.565L89.2977 214.167V219.6L76.5084 226.998V221.565ZM89.9514 213.783L102.741 206.385V211.846L89.9514 219.244V213.783ZM102.741 212.608V218.048L89.9514 225.452V220.006L102.741 212.608ZM103.402 212.224L116.191 204.826V210.273L103.402 217.67V212.224ZM116.852 204.448L129.641 197.051V202.512L116.852 209.91V204.448ZM130.302 196.666L143.091 189.269V194.68L130.302 202.078V196.666ZM143.752 188.884L156.541 181.486V186.926L143.752 194.324V188.884ZM157.202 181.102L169.991 173.704V179.144L157.202 186.542V181.102ZM170.652 173.32L183.441 165.922V171.362L170.652 178.76V173.32ZM184.102 165.538L196.892 158.14V163.58L184.102 170.977V165.538ZM197.524 157.756L210.313 150.358V155.798L197.524 163.195V157.756ZM211.024 149.98L223.813 142.576V148.015L211.024 155.413V149.98ZM211.024 149.212V143.75L223.813 136.353V141.814L211.024 149.212ZM237.256 127.809L224.467 135.206V129.745L237.256 122.348V127.809ZM237.256 121.579L224.467 128.976V123.515L237.256 116.125V121.579ZM237.256 115.356L224.453 122.768V117.307L237.242 109.909L237.256 115.356ZM237.256 109.126L224.467 116.524V111.063L237.256 103.665V109.126ZM237.256 102.903L224.467 110.301V104.84L237.256 97.442V102.903ZM237.256 96.673L224.467 104.071V98.6097L237.256 91.212V96.673ZM237.256 90.4502L224.453 97.8478V92.3868L237.242 84.9891L237.256 90.4502ZM237.256 84.2202L224.467 91.6178V86.1568L237.256 78.7591V84.2202ZM237.256 77.9973L224.467 85.395V79.9339L237.256 72.5362V77.9973ZM237.256 71.7673L224.467 79.165V73.7039L237.256 66.3062V71.7673ZM237.256 65.5444L224.453 72.9278V67.481L237.242 60.0834L237.256 65.5444ZM237.256 59.3144L224.467 66.7121V61.2582L237.256 53.8605V59.3144ZM89.2906 139.45V144.911L76.5013 152.302V146.848L89.2906 139.45ZM76.5013 227.788L89.2906 220.39V225.83L76.5013 233.228V227.788ZM224.453 147.638V142.198L237.242 134.801V140.24L224.453 147.638Z" fill="#E0E0E0"/>
<path d="M183.747 90.621L237.569 59.5066V90.6423L183.747 121.743V90.621Z" fill="#FAFAFA"/>
<path d="M183.385 122.362V90.4145L183.562 90.3148L237.917 58.8943V90.8488L183.385 122.362ZM184.095 90.8275V121.13L237.206 90.4359V60.1118L184.095 90.8275Z" fill="#E0E0E0"/>
<path d="M186.461 114.224H186.376C186.309 114.198 186.255 114.147 186.224 114.082C186.194 114.017 186.189 113.943 186.213 113.875L193.488 93.9389C193.503 93.9031 193.524 93.8707 193.552 93.844C193.58 93.8172 193.613 93.7968 193.649 93.784C193.686 93.7711 193.724 93.7663 193.763 93.7697C193.801 93.7731 193.838 93.7847 193.872 93.8037L201.737 98.5598L209.674 90.4573C209.722 90.4179 209.782 90.3965 209.844 90.3965C209.907 90.3965 209.967 90.4179 210.015 90.4573L217.831 95.605L225.767 76.0108C225.782 75.9768 225.803 75.9462 225.83 75.9208C225.856 75.8954 225.888 75.8758 225.923 75.8631C225.957 75.8504 225.994 75.845 226.031 75.8471C226.068 75.8493 226.104 75.8589 226.137 75.8755L234.201 80.0193C234.232 80.0352 234.259 80.0571 234.281 80.0835C234.304 80.11 234.321 80.1407 234.331 80.1737C234.342 80.2068 234.346 80.2416 234.343 80.2762C234.34 80.3108 234.331 80.3445 234.315 80.3753C234.299 80.4062 234.277 80.4336 234.251 80.456C234.224 80.4785 234.194 80.4955 234.161 80.506C234.128 80.5166 234.093 80.5206 234.058 80.5177C234.024 80.5148 233.99 80.5052 233.959 80.4893L226.144 76.4807L218.186 96.1105C218.171 96.1469 218.148 96.1793 218.118 96.2053C218.088 96.2312 218.053 96.2499 218.015 96.2601C217.981 96.2776 217.944 96.2867 217.905 96.2867C217.867 96.2867 217.829 96.2776 217.795 96.2601L209.908 91.0553L201.979 99.1508C201.937 99.1931 201.882 99.2202 201.823 99.2279C201.764 99.2356 201.704 99.2235 201.652 99.1935L193.886 94.537L186.724 114.138C186.692 114.174 186.65 114.201 186.604 114.216C186.558 114.231 186.509 114.234 186.461 114.224Z" fill="#455A64"/>
<path d="M193.737 93.1344C193.499 93.2903 193.301 93.5007 193.16 93.7483C193.019 93.996 192.939 94.2737 192.927 94.5584C192.927 95.0782 193.289 95.2704 193.737 95.0284C193.975 94.8721 194.172 94.6616 194.313 94.414C194.454 94.1665 194.534 93.889 194.547 93.6044C194.547 93.0846 194.184 92.8639 193.737 93.1344Z" fill="url(#paint17_linear_497_5662)"/>
<path d="M201.787 97.9475C201.55 98.1046 201.353 98.3153 201.213 98.5627C201.072 98.81 200.991 99.0871 200.977 99.3715C200.977 99.8912 201.339 100.083 201.787 99.8414C202.024 99.6843 202.221 99.4736 202.362 99.2262C202.502 98.9788 202.583 98.7018 202.597 98.4174C202.611 97.9048 202.249 97.6912 201.787 97.9475Z" fill="url(#paint18_linear_497_5662)"/>
<path d="M209.866 89.6955C209.629 89.8526 209.432 90.0633 209.291 90.3107C209.15 90.5581 209.07 90.8351 209.056 91.1195C209.056 91.6393 209.418 91.8315 209.866 91.5894C210.103 91.4332 210.301 91.2227 210.442 90.9751C210.582 90.7276 210.663 90.4501 210.676 90.1654C210.676 89.6528 210.313 89.4392 209.866 89.6955Z" fill="url(#paint19_linear_497_5662)"/>
<path d="M217.93 94.9999C217.692 95.1557 217.494 95.3662 217.353 95.6138C217.213 95.8614 217.133 96.1391 217.12 96.4239C217.12 96.9437 217.482 97.1359 217.93 96.8938C218.168 96.738 218.366 96.5276 218.507 96.2799C218.648 96.0323 218.728 95.7546 218.74 95.4698C218.74 94.9999 218.378 94.7649 217.93 94.9999Z" fill="url(#paint20_linear_497_5662)"/>
<path d="M225.994 75.1278C225.756 75.2836 225.558 75.4941 225.418 75.7417C225.277 75.9894 225.197 76.2671 225.184 76.5518C225.184 77.0716 225.547 77.2638 225.994 77.0217C226.232 76.8655 226.429 76.655 226.57 76.4074C226.711 76.1599 226.791 75.8824 226.804 75.5977C226.804 75.0637 226.442 74.8644 225.994 75.1278Z" fill="url(#paint21_linear_497_5662)"/>
<path d="M234.059 79.2717C233.821 79.4275 233.623 79.638 233.482 79.8856C233.341 80.1332 233.261 80.4109 233.249 80.6957C233.249 81.2155 233.611 81.4077 234.059 81.1656C234.297 81.0098 234.495 80.7994 234.636 80.5517C234.776 80.3041 234.856 80.0264 234.869 79.7416C234.869 79.2219 234.506 79.0083 234.059 79.2717Z" fill="url(#paint22_linear_497_5662)"/>
<path d="M259.957 174.167L245.647 182.448L259.957 190.728L274.267 182.448L259.957 174.167Z" fill="#455A64"/>
<path d="M274.267 182.433V215.363L259.958 223.644V190.735L274.267 182.433Z" fill="#37474F"/>
<path d="M259.957 190.735V223.644L245.647 215.363V182.433L259.957 190.735Z" fill="#263238"/>
<path d="M241.129 199.343L226.819 207.624L241.129 215.904L255.439 207.624L241.129 199.343Z" fill="url(#paint23_linear_497_5662)"/>
<path opacity="0.3" d="M241.129 199.343L226.819 207.624L241.129 215.904L255.439 207.624L241.129 199.343Z" fill="white"/>
<path d="M255.439 207.603V226.257L241.129 234.538V215.904L255.439 207.603Z" fill="url(#paint24_linear_497_5662)"/>
<path d="M241.129 215.904V234.537L226.819 226.257V207.61L241.129 215.904Z" fill="url(#paint25_linear_497_5662)"/>
<path opacity="0.1" d="M241.129 215.904V234.537L226.819 226.257V207.61L241.129 215.904Z" fill="black"/>
<path d="M222.3 202.49L207.99 210.771L222.3 219.051L236.61 210.771L222.3 202.49Z" fill="url(#paint26_linear_497_5662)"/>
<path opacity="0.88" d="M222.3 202.49L207.99 210.771L222.3 219.051L236.61 210.771L222.3 202.49Z" fill="white"/>
<path d="M236.61 210.757V237.15L222.3 245.431V219.051L236.61 210.757Z" fill="url(#paint27_linear_497_5662)"/>
<path opacity="0.75" d="M236.61 210.757V237.15L222.3 245.431V219.051L236.61 210.757Z" fill="white"/>
<path d="M222.3 219.051V245.431L207.99 237.15V210.757L222.3 219.051Z" fill="url(#paint28_linear_497_5662)"/>
<path opacity="0.6" d="M222.3 219.051V245.431L207.99 237.15V210.757L222.3 219.051Z" fill="white"/>
<path d="M203.471 230.458L189.161 238.738L203.471 247.019L217.781 238.738L203.471 230.458Z" fill="url(#paint29_linear_497_5662)"/>
<path opacity="0.3" d="M203.471 230.458L189.161 238.738L203.471 247.019L217.781 238.738L203.471 230.458Z" fill="black"/>
<path d="M217.781 238.717V248.044L203.471 256.325V247.019L217.781 238.717Z" fill="url(#paint30_linear_497_5662)"/>
<path opacity="0.4" d="M217.781 238.717V248.044L203.471 256.325V247.019L217.781 238.717Z" fill="black"/>
<path d="M203.471 247.019V256.325L189.161 248.044V238.717L203.471 247.019Z" fill="url(#paint31_linear_497_5662)"/>
<path opacity="0.55" d="M203.471 247.019V256.325L189.161 248.044V238.717L203.471 247.019Z" fill="black"/>
<path d="M125.513 288.379V293.812L120.163 279.237V273.819L125.513 288.379Z" fill="#263238"/>
<path d="M125.52 288.386V293.812L147.589 286.136V280.711L125.52 288.386Z" fill="#37474F"/>
<path d="M120.163 273.812L125.52 288.386L147.589 280.711C141.528 275.414 130.991 272.765 120.163 273.812Z" fill="#455A64"/>
<path d="M97.1067 289.376C97.1031 289.431 97.1031 289.485 97.1067 289.54V289.376Z" fill="url(#paint32_linear_497_5662)"/>
<path d="M123.318 295.229L120.078 310.679C106.699 309.369 97.0284 302.591 97.1421 294.837V289.554C97.1421 297.244 106.784 303.958 120.085 305.254L122.33 294.638L123.318 295.229Z" fill="url(#paint33_linear_497_5662)"/>
<path opacity="0.4" d="M123.318 295.229L120.078 310.679C106.699 309.369 97.0284 302.591 97.1421 294.837V289.554C97.1421 297.244 106.784 303.958 120.085 305.254L122.33 294.638L123.318 295.229Z" fill="black"/>
<path d="M122.55 305.432V310.857C128.073 311.169 133.604 310.402 138.835 308.6C145.145 306.407 149.6 302.904 151.383 298.796C151.906 297.601 152.186 296.313 152.207 295.008C152.207 294.488 152.207 289.397 152.207 289.397C152.207 289.397 150.68 289.276 148.889 287.368L144.754 288.792L125.833 295.371L122.55 305.432Z" fill="url(#paint34_linear_497_5662)"/>
<path opacity="0.6" d="M122.55 305.432V310.857C128.073 311.169 133.604 310.402 138.835 308.6C145.145 306.407 149.6 302.904 151.383 298.796C151.906 297.601 152.186 296.313 152.207 295.008C152.207 294.488 152.207 289.397 152.207 289.397C152.207 289.397 150.68 289.276 148.889 287.368L144.754 288.792L125.833 295.371L122.55 305.432Z" fill="white"/>
<path d="M106.081 283.189L122.522 292.701V287.275L106.081 277.763V283.189Z" fill="url(#paint35_linear_497_5662)"/>
<path opacity="0.1" d="M106.081 283.189L122.522 292.701V287.275L106.081 277.763V283.189Z" fill="black"/>
<path d="M97.3411 287.596C95.5435 296.076 105.661 303.844 120.078 305.254L123.353 289.803L104.325 278.796C100.318 281.295 98.0516 284.178 97.3411 287.596Z" fill="url(#paint36_linear_497_5662)"/>
<path opacity="0.3" d="M97.3411 287.596C95.5435 296.076 105.661 303.844 120.078 305.254L123.353 289.803L104.325 278.796C100.318 281.295 98.0516 284.178 97.3411 287.596Z" fill="black"/>
<path d="M122.643 304.983L122.55 305.432C128.071 305.752 133.602 304.996 138.835 303.203C145.145 301.01 149.6 297.507 151.383 293.399C153.06 289.504 152.172 285.474 148.889 282.007L144.754 283.431L125.833 290.01L122.643 304.983Z" fill="url(#paint37_linear_497_5662)"/>
<path opacity="0.75" d="M122.643 304.983L122.55 305.432C128.071 305.752 133.602 304.996 138.835 303.203C145.145 301.01 149.6 297.507 151.383 293.399C153.06 289.504 152.172 285.474 148.889 282.007L144.754 283.431L125.833 290.01L122.643 304.983Z" fill="white"/>
<path d="M106.081 277.763L122.522 287.275L117.69 274.118C113.632 274.616 109.698 275.852 106.081 277.763Z" fill="url(#paint38_linear_497_5662)"/>
<path d="M123.318 295.229V289.803L120.035 305.254V310.679L123.318 295.229Z" fill="url(#paint39_linear_497_5662)"/>
<path opacity="0.55" d="M123.318 295.229V289.803L120.035 305.254V310.679L123.318 295.229Z" fill="black"/>
<path d="M144.292 265.674L140.711 267.746L144.292 269.817L147.873 267.746L144.292 265.674Z" fill="url(#paint40_linear_497_5662)"/>
<path opacity="0.3" d="M144.292 265.674L140.711 267.746L144.292 269.817L147.873 267.746L144.292 265.674Z" fill="black"/>
<path d="M147.873 267.745V269.824L144.292 271.896V269.817L147.873 267.745Z" fill="url(#paint41_linear_497_5662)"/>
<path opacity="0.4" d="M147.873 267.745V269.824L144.292 271.896V269.817L147.873 267.745Z" fill="black"/>
<path d="M144.292 269.817V271.896L140.711 269.824V267.745L144.292 269.817Z" fill="url(#paint42_linear_497_5662)"/>
<path opacity="0.55" d="M144.292 269.817V271.896L140.711 269.824V267.745L144.292 269.817Z" fill="black"/>
<path d="M149.763 264.064L163.036 256.389C163.462 256.162 163.936 256.04 164.419 256.031C164.901 256.022 165.379 256.128 165.814 256.339C166.524 256.766 166.524 257.485 165.721 257.948L152.449 265.624C152.022 265.849 151.548 265.97 151.066 265.979C150.583 265.988 150.106 265.883 149.671 265.673C148.932 265.246 148.967 264.527 149.763 264.064Z" fill="#E0E0E0"/>
<path d="M152.364 270.344L148.783 272.416L152.364 274.488L155.945 272.416L152.364 270.344Z" fill="url(#paint43_linear_497_5662)"/>
<path opacity="0.88" d="M152.364 270.344L148.783 272.416L152.364 274.488L155.945 272.416L152.364 270.344Z" fill="white"/>
<path d="M155.945 272.409V274.488L152.364 276.56V274.488L155.945 272.409Z" fill="url(#paint44_linear_497_5662)"/>
<path opacity="0.75" d="M155.945 272.409V274.488L152.364 276.56V274.488L155.945 272.409Z" fill="white"/>
<path d="M152.364 274.488V276.56L148.783 274.488V272.409L152.364 274.488Z" fill="url(#paint45_linear_497_5662)"/>
<path opacity="0.6" d="M152.364 274.488V276.56L148.783 274.488V272.409L152.364 274.488Z" fill="white"/>
<path d="M157.835 268.728L171.1 261.053C171.526 260.825 172 260.701 172.482 260.691C172.965 260.681 173.443 260.786 173.878 260.996C174.624 261.43 174.589 262.149 173.793 262.605L160.52 270.294C160.093 270.519 159.62 270.641 159.137 270.65C158.655 270.658 158.177 270.554 157.742 270.344C157.025 269.91 157.025 269.191 157.835 268.728Z" fill="#E0E0E0"/>
<path d="M160.428 275.015L156.847 277.087L160.435 279.159L164.016 277.087L160.428 275.015Z" fill="url(#paint46_linear_497_5662)"/>
<path opacity="0.3" d="M160.428 275.015L156.847 277.087L160.435 279.159L164.016 277.087L160.428 275.015Z" fill="white"/>
<path d="M164.016 277.08V279.159L160.435 281.231V279.159L164.016 277.08Z" fill="url(#paint47_linear_497_5662)"/>
<path d="M160.435 279.159V281.231L156.847 279.159V277.08L160.435 279.159Z" fill="url(#paint48_linear_497_5662)"/>
<path opacity="0.1" d="M160.435 279.159V281.231L156.847 279.159V277.08L160.435 279.159Z" fill="black"/>
<path d="M165.899 273.406L179.171 265.723C179.598 265.498 180.072 265.377 180.555 265.368C181.037 265.359 181.515 265.464 181.95 265.673C182.696 266.108 182.66 266.827 181.864 267.283L168.592 274.958C168.166 275.186 167.692 275.31 167.21 275.32C166.727 275.329 166.249 275.225 165.814 275.015C165.068 274.581 165.11 273.861 165.899 273.406Z" fill="#E0E0E0"/>
<path d="M168.499 279.678L164.918 281.75L168.499 283.822L172.08 281.75L168.499 279.678Z" fill="#455A64"/>
<path d="M172.081 281.75V283.83L168.5 285.901V283.822L172.081 281.75Z" fill="#37474F"/>
<path d="M168.499 283.822V285.901L164.918 283.83V281.75L168.499 283.822Z" fill="#263238"/>
<path d="M173.97 278.076L187.243 270.394C187.67 270.169 188.144 270.047 188.626 270.039C189.109 270.03 189.586 270.135 190.021 270.344C190.767 270.771 190.732 271.49 189.929 271.953L176.663 279.629C176.237 279.855 175.763 279.978 175.28 279.987C174.798 279.995 174.32 279.89 173.885 279.678C173.139 279.251 173.182 278.532 173.97 278.076Z" fill="#E0E0E0"/>
<path d="M280.818 167.254C285.742 167.254 288.08 168.678 289.856 173.363C291.632 178.048 296.329 188.92 296.421 192.138C296.521 195.477 285.763 205.602 286.175 205.431C286.289 205.374 282.9 199.294 282.9 199.294L288.939 191.882L285.479 181.821L280.818 167.254Z" fill="#FFA8A7"/>
<path d="M286.914 277.877C287.22 278.169 287.277 278.447 287.263 279.501C287.248 280.554 287.696 281.729 287.156 282.712C286.758 283.424 284.698 283.951 283.653 283.424C282.743 282.826 281.928 282.094 281.237 281.252C280.588 280.51 279.875 279.826 279.106 279.209C278.218 278.546 277.187 278.105 276.264 277.5C275.54 277.03 274.932 276.401 274.486 275.661C274.041 274.921 273.769 274.089 273.692 273.228C273.632 272.666 273.746 272.099 274.019 271.604C274.24 271.339 274.531 271.141 274.858 271.033C275.186 270.924 275.538 270.91 275.873 270.992C276.875 271.156 280.271 273.057 281.053 273.598C282.076 274.267 286.602 277.578 286.914 277.877Z" fill="#263238"/>
<path d="M281.927 273.52C281.891 274.274 278.715 272.509 277.415 272.679H277.379C276.164 273.263 277.173 274.965 278.296 275.834C279.418 276.702 283.099 279.394 283.099 279.394L283.852 275.029L281.927 273.52Z" fill="#FFA8A7"/>
<path d="M268.143 285.816C268.732 285.816 268.995 287.753 269.109 289.241C269.187 290.394 269.627 292.281 269.215 293.128C268.803 293.975 267.261 294.502 264.867 294.452C263.311 294.452 260.881 295.442 259.218 296.346C257.545 297.154 255.653 297.391 253.833 297.023C251.701 296.745 249.513 295.478 249.179 294.595C248.845 293.712 249.3 293.285 254.344 291.206C254.394 291.206 259.673 288.878 262.16 286.222L268.143 285.816Z" fill="#263238"/>
<path d="M254.365 291.206C253.655 291.49 253.065 291.747 252.532 291.975C252.397 292.452 252.582 293.213 254.813 293.584C258.209 294.153 268.199 286.613 268.199 286.613C268.199 286.613 266.778 287.012 266.501 286.193H262.16C259.673 288.877 254.365 291.184 254.365 291.206Z" fill="#FFA8A7"/>
<path d="M288.939 253.114C288.992 249.795 288.663 246.481 287.959 243.238C287.959 243.238 288.556 230.522 288.62 222.533C288.755 206.727 288.456 204.406 284.968 197.613C284.968 197.613 264.597 195.228 263.737 205.175C262.672 217.563 261.428 238.29 261.457 244.192C261.457 248.585 261.982 253.349 262.224 263.309C262.38 269.717 263.048 278.703 262.139 286.25C263.29 288.187 266.402 288.151 268.178 286.642C268.69 279.251 272.356 265.097 272.924 260.162C273.232 256.598 273.084 253.009 272.484 249.482C272.484 249.482 275.184 228.379 275.66 225.168C276.351 228.563 276.746 232.013 276.839 235.477C276.839 236.901 277.322 241.579 278.125 249.482C278.616 254.295 282.012 273.107 282.751 279.151C284.456 280.803 286.659 279.664 286.758 278.952C287.327 271.576 288.939 257.72 288.939 253.114Z" fill="#FFA8A7"/>
<path opacity="0.15" d="M275.681 225.146L277.479 214.901C280.545 214.426 283.367 212.943 285.501 210.686C285.501 210.686 284.421 214.78 279.106 216.175L276.974 225.431L276.619 233.882L275.681 225.146Z" fill="black"/>
<path d="M270.551 163.815L271.397 173.099L279.539 172.608L278.914 162.305L270.551 163.815Z" fill="#FFA8A7"/>
<path d="M286.893 200.084C285.96 197.613 284.769 195.248 283.341 193.028C286.822 181.793 287.938 178.012 287.263 173.206C286.829 170.151 284.421 167.097 281.465 167.261H279.234C279.106 169.397 273.202 169.489 270.963 168.023L268.896 168.079C267.439 168.599 262.501 175.911 261.933 180.717C261.485 184.641 264.562 188.044 264.562 188.044C264.573 189.71 264.475 191.375 264.27 193.028C264.27 193.028 264.27 202.533 264.27 207.268C264.27 207.268 265.414 210.913 277.365 209.774C288.023 208.763 288.25 205.125 288.25 205.125C287.996 203.397 287.54 201.705 286.893 200.084Z" fill="url(#paint49_linear_497_5662)"/>
<g opacity="0.3">
<path d="M286.893 200.084C285.96 197.613 284.769 195.248 283.341 193.028C286.822 181.793 287.938 178.012 287.263 173.206C286.829 170.151 284.421 167.097 281.465 167.261H279.234C279.106 169.397 273.202 169.489 270.963 168.023L268.896 168.079C267.439 168.599 262.501 175.911 261.933 180.717C261.485 184.641 264.562 188.044 264.562 188.044C264.573 189.71 264.475 191.375 264.27 193.028C264.27 193.028 264.27 202.533 264.27 207.268C264.27 207.268 265.414 210.913 277.365 209.774C288.023 208.763 288.25 205.125 288.25 205.125C287.996 203.397 287.54 201.705 286.893 200.084Z" fill="black"/>
</g>
<path d="M271.78 142.084C270.579 141.926 269.358 142.06 268.219 142.474C267.08 142.888 266.057 143.57 265.236 144.463C261.073 149.162 265.641 152.622 265.641 152.622L271.78 142.084Z" fill="#263238"/>
<path d="M264.54 153.604C264.54 153.604 262.728 156.331 262.963 156.623C263.383 156.903 263.85 157.105 264.341 157.221L264.54 153.604Z" fill="#F28F8F"/>
<path d="M270.068 144.968C268.313 145.872 265.279 147.538 264.483 154.003C263.666 160.646 265.137 162.953 266.039 163.829C266.643 164.42 269.791 164.641 271.432 164.135C273.493 163.501 277.948 161.287 280.037 157.884C282.502 153.861 283.028 148.485 280.2 146.371C276.221 143.416 271.553 144.206 270.068 144.968Z" fill="#FFA8A7"/>
<path d="M269.194 152.608C265.521 150.735 266.458 145.851 266.458 145.851C266.458 145.851 271.702 138.339 281.379 143.195C284.726 144.875 286.737 148.692 286.659 153.163C286.659 155.954 285.552 158.631 283.583 160.604C281.613 162.578 278.942 163.686 276.157 163.686C274.533 163.686 272.975 163.04 271.826 161.889C270.678 160.738 270.032 159.177 270.032 157.549V157.143L270.345 157.243C270.845 157.361 271.366 157.354 271.862 157.221C272.358 157.088 272.813 156.834 273.187 156.481C274.8 155.057 274.992 152.359 272.953 151.675C270.913 150.992 269.855 153.384 269.855 153.384L269.066 155.52C268.876 155.451 268.701 155.345 268.551 155.208C268.402 155.071 268.281 154.906 268.195 154.722C268.109 154.538 268.061 154.339 268.052 154.136C268.042 153.934 268.073 153.731 268.142 153.54C268.228 153.311 268.369 153.106 268.552 152.943C268.736 152.781 268.956 152.665 269.194 152.608Z" fill="#263238"/>
<path d="M246.99 154.103L229.526 162.868L237.739 186.584L254.053 177.784L246.99 154.103Z" fill="url(#paint50_linear_497_5662)"/>
<path d="M246.159 156.396L231.508 163.75L238.784 184.149L252.468 176.766L246.159 156.396Z" fill="#F5F5F5"/>
<path opacity="0.15" d="M243.061 158.532L242.791 157.82C242.642 157.421 241.427 157.642 240.077 158.311L237.498 159.585C236.155 160.255 235.182 161.123 235.331 161.529L235.601 162.241L243.061 158.532Z" fill="black"/>
<path d="M242.827 155.648C242.734 155.392 242.209 155.427 241.647 155.719L240.638 156.239C240.638 156.239 240.049 154.673 237.725 155.712C235.402 156.752 235.899 158.56 235.899 158.56L234.826 159.13C234.237 159.443 233.81 159.906 233.874 160.155L233.995 160.618L242.997 156.111L242.827 155.648Z" fill="#37474F"/>
<path d="M241.846 156.673C241.008 157.072 240.681 157.264 240.908 157.884C241.136 158.503 241.413 159.094 241.413 159.094L237.434 161.095C237.434 161.095 237.121 160.198 236.979 159.856C236.837 159.514 236.56 159.336 235.928 159.657L235.693 159.4L241.974 156.332L241.846 156.673Z" fill="#263238"/>
<path d="M243.225 158.574L242.962 157.862C242.813 157.464 241.598 157.677 240.248 158.347L237.668 159.628C236.318 160.297 235.352 161.166 235.501 161.565L235.764 162.277L243.225 158.574Z" fill="#37474F"/>
<path d="M268.874 168.08C266.125 168.037 264.462 168.279 260.71 173.861C256.959 179.443 249.996 189.696 249.186 191.056C248.049 192.907 247.765 195.748 248.717 197.464C249.577 199.08 251.097 199.643 255.424 195.036C258.622 191.625 265.371 182.569 265.371 182.569C265.371 182.569 270.594 172.807 268.874 168.08Z" fill="#FFA8A7"/>
<path d="M250.422 198.653C248.156 199.365 239.835 189.44 237.526 186.456C235.668 183.971 233.484 181.748 231.032 179.849C227.828 177.393 228.361 173.712 229.831 170.358C230.343 169.19 231.963 169.981 231.963 169.981L232.524 171.597L233.49 174.395C234.165 175.043 234.556 175.257 234.599 175.064C234.691 174.708 234.13 173.206 234.165 171.647C234.215 169.774 235.508 171.027 235.885 171.689C236.403 172.698 236.847 173.742 237.214 174.815C237.839 176.503 237.54 178.19 238.322 179.351C239.104 180.511 250.401 189.91 250.401 189.91L250.422 198.653Z" fill="#FFA8A7"/>
<path d="M283.369 193.028C283.369 193.028 275.404 197.742 264.249 193.028C263.254 198.892 262.578 204.805 262.224 210.743C261.826 218.304 260.952 234.531 260.952 234.531C260.952 234.531 264.242 238.382 275.994 237.599C287.291 236.887 289.281 233.897 289.281 233.897C289.281 233.897 289.281 219.322 289.366 212.95C289.444 204.805 288.307 200.376 283.369 193.028Z" fill="url(#paint51_linear_497_5662)"/>
<path opacity="0.5" d="M283.369 193.028C283.369 193.028 275.404 197.742 264.249 193.028C263.254 198.892 262.578 204.805 262.224 210.743C261.826 218.304 260.952 234.531 260.952 234.531C260.952 234.531 264.242 238.382 275.994 237.599C287.291 236.887 289.281 233.897 289.281 233.897C289.281 233.897 289.281 219.322 289.366 212.95C289.444 204.805 288.307 200.376 283.369 193.028Z" fill="black"/>
<path d="M287.049 150.03L288.918 148.321C288.667 148.051 288.332 147.873 287.968 147.817C287.603 147.761 287.231 147.831 286.911 148.014C286.591 148.197 286.342 148.483 286.204 148.826C286.067 149.169 286.049 149.548 286.154 149.902C285.927 149.902 285.692 149.866 285.444 149.866V164.875C285.444 166.946 286.262 168.933 287.72 170.401C289.178 171.869 291.157 172.698 293.224 172.707V157.656C293.217 155.87 292.6 154.14 291.477 152.753C290.354 151.366 288.792 150.405 287.049 150.03Z" fill="#263238"/>
</g>
<defs>
<linearGradient id="paint0_linear_497_5662" x1="214.278" y1="81.0917" x2="-105.681" y2="250.379" gradientUnits="userSpaceOnUse">
<stop stop-color="#F6B042"/>
<stop offset="0.486216" stop-color="#96B562"/>
<stop offset="1" stop-color="#1C5790"/>
</linearGradient>
<linearGradient id="paint1_linear_497_5662" x1="208.637" y1="82.199" x2="-77.9831" y2="247.732" gradientUnits="userSpaceOnUse">
<stop stop-color="#F6B042"/>
<stop offset="0.486216" stop-color="#96B562"/>
<stop offset="1" stop-color="#1C5790"/>
</linearGradient>
<linearGradient id="paint2_linear_497_5662" x1="240.288" y1="76.8406" x2="-64.4408" y2="256.4" gradientUnits="userSpaceOnUse">
<stop stop-color="#F6B042"/>
<stop offset="0.486216" stop-color="#96B562"/>
<stop offset="1" stop-color="#1C5790"/>
</linearGradient>
<linearGradient id="paint3_linear_497_5662" x1="240.255" y1="52.8752" x2="69.3571" y2="252.431" gradientUnits="userSpaceOnUse">
<stop stop-color="#F6B042"/>
<stop offset="0.486216" stop-color="#96B562"/>
<stop offset="1" stop-color="#1C5790"/>
</linearGradient>
<linearGradient id="paint4_linear_497_5662" x1="103.06" y1="140.68" x2="81.3231" y2="156.014" gradientUnits="userSpaceOnUse">
<stop stop-color="#F6B042"/>
<stop offset="0.486216" stop-color="#96B562"/>
<stop offset="1" stop-color="#1C5790"/>
</linearGradient>
<linearGradient id="paint5_linear_497_5662" x1="103.06" y1="190.471" x2="81.3231" y2="205.805" gradientUnits="userSpaceOnUse">
<stop stop-color="#F6B042"/>
<stop offset="0.486216" stop-color="#96B562"/>
<stop offset="1" stop-color="#1C5790"/>
</linearGradient>
<linearGradient id="paint6_linear_497_5662" x1="103.06" y1="196.693" x2="81.3231" y2="212.028" gradientUnits="userSpaceOnUse">
<stop stop-color="#F6B042"/>
<stop offset="0.486216" stop-color="#96B562"/>
<stop offset="1" stop-color="#1C5790"/>
</linearGradient>
<linearGradient id="paint7_linear_497_5662" x1="183.747" y1="143.785" x2="162.01" y2="159.119" gradientUnits="userSpaceOnUse">
<stop stop-color="#F6B042"/>
<stop offset="0.486216" stop-color="#96B562"/>
<stop offset="1" stop-color="#1C5790"/>
</linearGradient>
<linearGradient id="paint8_linear_497_5662" x1="183.747" y1="150.007" x2="162.01" y2="165.341" gradientUnits="userSpaceOnUse">
<stop stop-color="#F6B042"/>
<stop offset="0.486216" stop-color="#96B562"/>
<stop offset="1" stop-color="#1C5790"/>
</linearGradient>
<linearGradient id="paint9_linear_497_5662" x1="183.747" y1="156.238" x2="162.01" y2="171.572" gradientUnits="userSpaceOnUse">
<stop stop-color="#F6B042"/>
<stop offset="0.486216" stop-color="#96B562"/>
<stop offset="1" stop-color="#1C5790"/>
</linearGradient>
<linearGradient id="paint10_linear_497_5662" x1="183.747" y1="162.461" x2="162.01" y2="177.795" gradientUnits="userSpaceOnUse">
<stop stop-color="#F6B042"/>
<stop offset="0.486216" stop-color="#96B562"/>
<stop offset="1" stop-color="#1C5790"/>
</linearGradient>
<linearGradient id="paint11_linear_497_5662" x1="170.304" y1="107.736" x2="139.733" y2="115.489" gradientUnits="userSpaceOnUse">
<stop stop-color="#F6B042"/>
<stop offset="0.486216" stop-color="#96B562"/>
<stop offset="1" stop-color="#1C5790"/>
</linearGradient>
<linearGradient id="paint12_linear_497_5662" x1="170.304" y1="148.068" x2="138.925" y2="154.098" gradientUnits="userSpaceOnUse">
<stop stop-color="#F6B042"/>
<stop offset="0.486216" stop-color="#96B562"/>
<stop offset="1" stop-color="#1C5790"/>
</linearGradient>
<linearGradient id="paint13_linear_497_5662" x1="116.496" y1="170.243" x2="94.763" y2="185.566" gradientUnits="userSpaceOnUse">
<stop stop-color="#F6B042"/>
<stop offset="0.486216" stop-color="#96B562"/>
<stop offset="1" stop-color="#1C5790"/>
</linearGradient>
<linearGradient id="paint14_linear_497_5662" x1="143.411" y1="123.557" x2="121.673" y2="138.891" gradientUnits="userSpaceOnUse">
<stop stop-color="#F6B042"/>
<stop offset="0.486216" stop-color="#96B562"/>
<stop offset="1" stop-color="#1C5790"/>
</linearGradient>
<linearGradient id="paint15_linear_497_5662" x1="210.654" y1="121.997" x2="188.921" y2="137.321" gradientUnits="userSpaceOnUse">
<stop stop-color="#F6B042"/>
<stop offset="0.486216" stop-color="#96B562"/>
<stop offset="1" stop-color="#1C5790"/>
</linearGradient>
<linearGradient id="paint16_linear_497_5662" x1="210.654" y1="134.45" x2="188.921" y2="149.774" gradientUnits="userSpaceOnUse">
<stop stop-color="#F6B042"/>
<stop offset="0.486216" stop-color="#96B562"/>
<stop offset="1" stop-color="#1C5790"/>
</linearGradient>
<linearGradient id="paint17_linear_497_5662" x1="194.547" y1="93.5245" x2="191.568" y2="95.2015" gradientUnits="userSpaceOnUse">
<stop stop-color="#F6B042"/>
<stop offset="0.486216" stop-color="#96B562"/>
<stop offset="1" stop-color="#1C5790"/>
</linearGradient>
<linearGradient id="paint18_linear_497_5662" x1="202.597" y1="98.3432" x2="199.623" y2="100.024" gradientUnits="userSpaceOnUse">
<stop stop-color="#F6B042"/>
<stop offset="0.486216" stop-color="#96B562"/>
<stop offset="1" stop-color="#1C5790"/>
</linearGradient>
<linearGradient id="paint19_linear_497_5662" x1="210.676" y1="90.0913" x2="207.702" y2="91.7714" gradientUnits="userSpaceOnUse">
<stop stop-color="#F6B042"/>
<stop offset="0.486216" stop-color="#96B562"/>
<stop offset="1" stop-color="#1C5790"/>
</linearGradient>
<linearGradient id="paint20_linear_497_5662" x1="218.74" y1="95.4082" x2="215.778" y2="97.0951" gradientUnits="userSpaceOnUse">
<stop stop-color="#F6B042"/>
<stop offset="0.486216" stop-color="#96B562"/>
<stop offset="1" stop-color="#1C5790"/>
</linearGradient>
<linearGradient id="paint21_linear_497_5662" x1="226.804" y1="75.5183" x2="223.826" y2="77.1955" gradientUnits="userSpaceOnUse">
<stop stop-color="#F6B042"/>
<stop offset="0.486216" stop-color="#96B562"/>
<stop offset="1" stop-color="#1C5790"/>
</linearGradient>
<linearGradient id="paint22_linear_497_5662" x1="234.869" y1="79.6641" x2="231.892" y2="81.3424" gradientUnits="userSpaceOnUse">
<stop stop-color="#F6B042"/>
<stop offset="0.486216" stop-color="#96B562"/>
<stop offset="1" stop-color="#1C5790"/>
</linearGradient>
<linearGradient id="paint23_linear_497_5662" x1="255.439" y1="203.309" x2="228.898" y2="237" gradientUnits="userSpaceOnUse">
<stop stop-color="#F6B042"/>
<stop offset="0.486216" stop-color="#96B562"/>
<stop offset="1" stop-color="#1C5790"/>
</linearGradient>
<linearGradient id="paint24_linear_497_5662" x1="255.439" y1="214.053" x2="225.365" y2="225.789" gradientUnits="userSpaceOnUse">
<stop stop-color="#F6B042"/>
<stop offset="0.486216" stop-color="#96B562"/>
<stop offset="1" stop-color="#1C5790"/>
</linearGradient>
<linearGradient id="paint25_linear_497_5662" x1="241.129" y1="214.058" x2="211.057" y2="225.796" gradientUnits="userSpaceOnUse">
<stop stop-color="#F6B042"/>
<stop offset="0.486216" stop-color="#96B562"/>
<stop offset="1" stop-color="#1C5790"/>
</linearGradient>
<linearGradient id="paint26_linear_497_5662" x1="236.61" y1="206.456" x2="210.069" y2="240.147" gradientUnits="userSpaceOnUse">
<stop stop-color="#F6B042"/>
<stop offset="0.486216" stop-color="#96B562"/>
<stop offset="1" stop-color="#1C5790"/>
</linearGradient>
<linearGradient id="paint27_linear_497_5662" x1="236.61" y1="219.06" x2="204.873" y2="228.681" gradientUnits="userSpaceOnUse">
<stop stop-color="#F6B042"/>
<stop offset="0.486216" stop-color="#96B562"/>
<stop offset="1" stop-color="#1C5790"/>
</linearGradient>
<linearGradient id="paint28_linear_497_5662" x1="222.3" y1="219.06" x2="190.563" y2="228.681" gradientUnits="userSpaceOnUse">
<stop stop-color="#F6B042"/>
<stop offset="0.486216" stop-color="#96B562"/>
<stop offset="1" stop-color="#1C5790"/>
</linearGradient>
<linearGradient id="paint29_linear_497_5662" x1="217.781" y1="234.424" x2="191.24" y2="268.114" gradientUnits="userSpaceOnUse">
<stop stop-color="#F6B042"/>
<stop offset="0.486216" stop-color="#96B562"/>
<stop offset="1" stop-color="#1C5790"/>
</linearGradient>
<linearGradient id="paint30_linear_497_5662" x1="217.781" y1="242.933" x2="192.232" y2="258.185" gradientUnits="userSpaceOnUse">
<stop stop-color="#F6B042"/>
<stop offset="0.486216" stop-color="#96B562"/>
<stop offset="1" stop-color="#1C5790"/>
</linearGradient>
<linearGradient id="paint31_linear_497_5662" x1="203.471" y1="242.933" x2="177.922" y2="258.185" gradientUnits="userSpaceOnUse">
<stop stop-color="#F6B042"/>
<stop offset="0.486216" stop-color="#96B562"/>
<stop offset="1" stop-color="#1C5790"/>
</linearGradient>
<linearGradient id="paint32_linear_497_5662" x1="97.1067" y1="289.415" x2="97.1002" y2="289.415" gradientUnits="userSpaceOnUse">
<stop stop-color="#F6B042"/>
<stop offset="0.486216" stop-color="#96B562"/>
<stop offset="1" stop-color="#1C5790"/>
</linearGradient>
<linearGradient id="paint33_linear_497_5662" x1="123.318" y1="294.613" x2="88.6485" y2="326.168" gradientUnits="userSpaceOnUse">
<stop stop-color="#F6B042"/>
<stop offset="0.486216" stop-color="#96B562"/>
<stop offset="1" stop-color="#1C5790"/>
</linearGradient>
<linearGradient id="paint34_linear_497_5662" x1="152.207" y1="293.009" x2="113.495" y2="328.809" gradientUnits="userSpaceOnUse">
<stop stop-color="#F6B042"/>
<stop offset="0.486216" stop-color="#96B562"/>
<stop offset="1" stop-color="#1C5790"/>
</linearGradient>
<linearGradient id="paint35_linear_497_5662" x1="122.522" y1="281.34" x2="98.4446" y2="300.807" gradientUnits="userSpaceOnUse">
<stop stop-color="#F6B042"/>
<stop offset="0.486216" stop-color="#96B562"/>
<stop offset="1" stop-color="#1C5790"/>
</linearGradient>
<linearGradient id="paint36_linear_497_5662" x1="123.353" y1="285.132" x2="81.8503" y2="315.342" gradientUnits="userSpaceOnUse">
<stop stop-color="#F6B042"/>
<stop offset="0.486216" stop-color="#96B562"/>
<stop offset="1" stop-color="#1C5790"/>
</linearGradient>
<linearGradient id="paint37_linear_497_5662" x1="152.211" y1="287.634" x2="113.59" y2="323.446" gradientUnits="userSpaceOnUse">
<stop stop-color="#F6B042"/>
<stop offset="0.486216" stop-color="#96B562"/>
<stop offset="1" stop-color="#1C5790"/>
</linearGradient>
<linearGradient id="paint38_linear_497_5662" x1="122.522" y1="277.269" x2="100.912" y2="297.103" gradientUnits="userSpaceOnUse">
<stop stop-color="#F6B042"/>
<stop offset="0.486216" stop-color="#96B562"/>
<stop offset="1" stop-color="#1C5790"/>
</linearGradient>
<linearGradient id="paint39_linear_497_5662" x1="123.318" y1="294.802" x2="115.473" y2="295.709" gradientUnits="userSpaceOnUse">
<stop stop-color="#F6B042"/>
<stop offset="0.486216" stop-color="#96B562"/>
<stop offset="1" stop-color="#1C5790"/>
</linearGradient>
<linearGradient id="paint40_linear_497_5662" x1="147.873" y1="266.666" x2="141.232" y2="275.097" gradientUnits="userSpaceOnUse">
<stop stop-color="#F6B042"/>
<stop offset="0.486216" stop-color="#96B562"/>
<stop offset="1" stop-color="#1C5790"/>
</linearGradient>
<linearGradient id="paint41_linear_497_5662" x1="147.873" y1="268.739" x2="141.686" y2="272.66" gradientUnits="userSpaceOnUse">
<stop stop-color="#F6B042"/>
<stop offset="0.486216" stop-color="#96B562"/>
<stop offset="1" stop-color="#1C5790"/>
</linearGradient>
<linearGradient id="paint42_linear_497_5662" x1="144.292" y1="268.739" x2="138.105" y2="272.66" gradientUnits="userSpaceOnUse">
<stop stop-color="#F6B042"/>
<stop offset="0.486216" stop-color="#96B562"/>
<stop offset="1" stop-color="#1C5790"/>
</linearGradient>
<linearGradient id="paint43_linear_497_5662" x1="155.945" y1="271.337" x2="149.304" y2="279.767" gradientUnits="userSpaceOnUse">
<stop stop-color="#F6B042"/>
<stop offset="0.486216" stop-color="#96B562"/>
<stop offset="1" stop-color="#1C5790"/>
</linearGradient>
<linearGradient id="paint44_linear_497_5662" x1="155.945" y1="273.403" x2="149.757" y2="277.324" gradientUnits="userSpaceOnUse">
<stop stop-color="#F6B042"/>
<stop offset="0.486216" stop-color="#96B562"/>
<stop offset="1" stop-color="#1C5790"/>
</linearGradient>
<linearGradient id="paint45_linear_497_5662" x1="152.364" y1="273.403" x2="146.176" y2="277.324" gradientUnits="userSpaceOnUse">
<stop stop-color="#F6B042"/>
<stop offset="0.486216" stop-color="#96B562"/>
<stop offset="1" stop-color="#1C5790"/>
</linearGradient>
<linearGradient id="paint46_linear_497_5662" x1="164.016" y1="276.007" x2="157.377" y2="284.444" gradientUnits="userSpaceOnUse">
<stop stop-color="#F6B042"/>
<stop offset="0.486216" stop-color="#96B562"/>
<stop offset="1" stop-color="#1C5790"/>
</linearGradient>
<linearGradient id="paint47_linear_497_5662" x1="164.016" y1="278.074" x2="157.829" y2="281.995" gradientUnits="userSpaceOnUse">
<stop stop-color="#F6B042"/>
<stop offset="0.486216" stop-color="#96B562"/>
<stop offset="1" stop-color="#1C5790"/>
</linearGradient>
<linearGradient id="paint48_linear_497_5662" x1="160.435" y1="278.074" x2="154.243" y2="282.006" gradientUnits="userSpaceOnUse">
<stop stop-color="#F6B042"/>
<stop offset="0.486216" stop-color="#96B562"/>
<stop offset="1" stop-color="#1C5790"/>
</linearGradient>
<linearGradient id="paint49_linear_497_5662" x1="288.25" y1="177.49" x2="235.283" y2="201.487" gradientUnits="userSpaceOnUse">
<stop stop-color="#F6B042"/>
<stop offset="0.486216" stop-color="#96B562"/>
<stop offset="1" stop-color="#1C5790"/>
</linearGradient>
<linearGradient id="paint50_linear_497_5662" x1="254.053" y1="161.881" x2="208.631" y2="187.075" gradientUnits="userSpaceOnUse">
<stop stop-color="#F6B042"/>
<stop offset="0.486216" stop-color="#96B562"/>
<stop offset="1" stop-color="#1C5790"/>
</linearGradient>
<linearGradient id="paint51_linear_497_5662" x1="289.369" y1="203.727" x2="232.883" y2="230.119" gradientUnits="userSpaceOnUse">
<stop stop-color="#F6B042"/>
<stop offset="0.486216" stop-color="#96B562"/>
<stop offset="1" stop-color="#1C5790"/>
</linearGradient>
<clipPath id="clip0_497_5662">
<rect width="330" height="341" fill="white"/>
</clipPath>
</defs>
</svg>
