<svg width="330" height="330" viewBox="0 0 330 330" fill="none" xmlns="http://www.w3.org/2000/svg">
<path d="M165 315.17C241.116 315.17 302.821 279.546 302.821 235.601C302.821 191.656 241.116 156.031 165 156.031C88.8834 156.031 27.1787 191.656 27.1787 235.601C27.1787 279.546 88.8834 315.17 165 315.17Z" fill="#F5F5F5"/>
<path d="M186.628 291.324C203.09 291.324 216.434 283.621 216.434 274.118C216.434 264.616 203.09 256.912 186.628 256.912C170.167 256.912 156.823 264.616 156.823 274.118C156.823 283.621 170.167 291.324 186.628 291.324Z" fill="#E0E0E0"/>
<path d="M171.138 215.854L91.4166 261.889C89.1726 263.209 85.2588 263.024 82.665 261.526L54.3642 245.184C51.777 243.693 51.4932 241.429 53.7042 240.135L133.426 194.1C135.67 192.78 139.583 192.965 142.177 194.463L170.478 210.805C173.098 212.296 173.382 214.56 171.138 215.854Z" fill="#E0E0E0"/>
<path d="M256.978 231.924L263.261 235.573C263.261 235.573 260.093 225.462 261.848 215.285C262.272 212.889 263.139 210.593 264.403 208.513C264.898 207.484 268.686 201.141 265.353 198.211C262.02 195.28 254.199 201.108 254.549 216.777C254.716 221.908 255.532 226.997 256.978 231.924Z" fill="#96B562"/>
<path opacity="0.5" d="M256.978 231.924L263.261 235.573C263.261 235.573 260.093 225.462 261.848 215.285C262.272 212.889 263.139 210.593 264.403 208.513C264.898 207.484 268.686 201.141 265.353 198.211C262.02 195.28 254.199 201.108 254.549 216.777C254.716 221.908 255.532 226.997 256.978 231.924Z" fill="black"/>
<path d="M259.901 233.91C259.842 233.91 259.785 233.891 259.736 233.857C259.688 233.823 259.651 233.775 259.631 233.719C259.631 233.653 257.235 227.06 257.36 216.486C257.486 205.913 263.076 200.171 263.135 200.118C263.161 200.092 263.192 200.071 263.226 200.057C263.26 200.043 263.297 200.035 263.333 200.035C263.37 200.035 263.407 200.043 263.441 200.057C263.475 200.071 263.506 200.092 263.531 200.118C263.558 200.145 263.579 200.176 263.593 200.211C263.608 200.245 263.615 200.282 263.615 200.32C263.615 200.357 263.608 200.394 263.593 200.429C263.579 200.463 263.558 200.495 263.531 200.521C263.479 200.574 258.053 206.098 257.928 216.493C257.803 226.888 260.146 233.462 260.165 233.528C260.179 233.562 260.186 233.599 260.185 233.636C260.184 233.674 260.175 233.71 260.16 233.744C260.145 233.778 260.123 233.808 260.095 233.834C260.068 233.859 260.036 233.878 260 233.891L259.901 233.91Z" fill="white"/>
<path d="M261.848 234.775L272.224 240.899C272.224 240.899 276.976 240.2 276.619 235.725C276.263 231.25 274.329 230.201 276.731 228.234C279.134 226.267 279.754 226.142 279.635 224.215C279.517 222.287 278.23 221.449 277.616 220.69C277.002 219.931 275.312 218.321 276.507 216.004C277.702 213.688 279.319 211.437 276.916 210.368C275.477 209.708 273.062 210.533 271.465 212.229C269.867 213.925 268.541 215.153 267.029 215.529C265.518 215.905 262.35 215.951 262.456 218.565C262.561 221.179 263.241 222.083 262.607 223.238C261.413 225.422 256.311 226.604 261.848 234.775Z" fill="#96B562"/>
<path opacity="0.2" d="M261.848 234.775L272.224 240.899C272.224 240.899 276.976 240.2 276.619 235.725C276.263 231.25 274.329 230.201 276.731 228.234C279.134 226.267 279.754 226.142 279.635 224.215C279.517 222.287 278.23 221.449 277.616 220.69C277.002 219.931 275.312 218.321 276.507 216.004C277.702 213.688 279.319 211.437 276.916 210.368C275.477 209.708 273.062 210.533 271.465 212.229C269.867 213.925 268.541 215.153 267.029 215.529C265.518 215.905 262.35 215.951 262.456 218.565C262.561 221.179 263.241 222.083 262.607 223.238C261.413 225.422 256.311 226.604 261.848 234.775Z" fill="black"/>
<path d="M266.073 237.546C266.001 237.547 265.931 237.519 265.879 237.47C265.826 237.421 265.794 237.354 265.789 237.282C265.789 237.131 264.653 221.66 275.398 211.503C275.453 211.451 275.527 211.423 275.602 211.426C275.678 211.428 275.749 211.461 275.801 211.516C275.853 211.571 275.88 211.644 275.878 211.72C275.875 211.795 275.843 211.867 275.788 211.919C265.228 221.885 266.35 237.084 266.363 237.236C266.368 237.312 266.344 237.387 266.294 237.445C266.245 237.503 266.175 237.54 266.099 237.546H266.073Z" fill="white"/>
<path d="M267.96 224.287C267.888 224.287 267.819 224.26 267.766 224.211C267.713 224.162 267.681 224.095 267.676 224.023C267.596 222.835 267.275 221.676 266.732 220.617C266.19 219.557 265.438 218.618 264.521 217.859C264.491 217.837 264.465 217.809 264.446 217.777C264.426 217.745 264.413 217.709 264.407 217.672C264.401 217.635 264.403 217.597 264.412 217.561C264.421 217.524 264.437 217.49 264.459 217.459C264.481 217.429 264.509 217.403 264.541 217.384C264.573 217.364 264.608 217.351 264.645 217.345C264.682 217.339 264.72 217.341 264.757 217.35C264.793 217.359 264.828 217.375 264.858 217.397C265.848 218.203 266.659 219.206 267.242 220.342C267.825 221.478 268.166 222.722 268.244 223.997C268.249 224.071 268.225 224.144 268.177 224.201C268.129 224.258 268.06 224.293 267.986 224.3L267.96 224.287Z" fill="white"/>
<path d="M267.168 226.927C267.097 226.928 267.029 226.902 266.977 226.855C266.925 226.801 266.896 226.728 266.896 226.653C266.896 226.578 266.925 226.506 266.977 226.452C267.089 226.327 269.795 223.403 276.052 224.261C276.126 224.274 276.192 224.314 276.237 224.374C276.283 224.435 276.304 224.509 276.296 224.584C276.284 224.659 276.244 224.727 276.184 224.772C276.123 224.818 276.047 224.838 275.972 224.828C270.032 224.017 267.425 226.808 267.392 226.808C267.368 226.846 267.335 226.876 267.295 226.897C267.256 226.917 267.212 226.928 267.168 226.927Z" fill="white"/>
<path d="M66.7392 223.04L63.6438 229.607C63.6438 229.607 60.5088 219.483 53.2884 212.098C51.5846 210.362 49.5696 208.963 47.3484 207.973C46.365 207.405 39.6462 204.329 40.7484 200.053C41.8506 195.776 51.5724 196.093 60.1788 209.207C62.9401 213.523 65.1444 218.171 66.7392 223.04Z" fill="#96B562"/>
<path opacity="0.5" d="M66.7392 223.04L63.6438 229.607C63.6438 229.607 60.5088 219.483 53.2884 212.098C51.5846 210.362 49.5696 208.963 47.3484 207.973C46.365 207.405 39.6462 204.329 40.7484 200.053C41.8506 195.776 51.5724 196.093 60.1788 209.207C62.9401 213.523 65.1444 218.171 66.7392 223.04Z" fill="black"/>
<path d="M65.3004 226.379C65.2375 226.379 65.1765 226.358 65.1266 226.32C65.0766 226.282 65.0403 226.228 65.0232 226.168C65.0232 226.102 63.2412 219.416 57.2022 210.869C51.1632 202.322 43.6062 200.91 43.56 200.897C43.5231 200.89 43.4878 200.877 43.4562 200.856C43.4246 200.836 43.3972 200.81 43.3758 200.78C43.3543 200.749 43.3391 200.714 43.3311 200.678C43.323 200.641 43.3223 200.603 43.329 200.567C43.3434 200.493 43.3859 200.428 43.4474 200.385C43.5089 200.341 43.5848 200.324 43.659 200.336C43.7382 200.336 51.579 201.854 57.7038 210.539C63.8286 219.225 65.6238 225.957 65.6238 226.023C65.642 226.096 65.6308 226.174 65.5926 226.239C65.5543 226.305 65.4921 226.352 65.4192 226.373L65.3004 226.379Z" fill="white"/>
<path d="M64.35 228.155L59.268 239.065C59.268 239.065 54.9582 241.183 52.7208 237.296C50.4834 233.409 51.4668 231.448 48.378 231.191C45.2892 230.934 44.6952 231.191 43.6986 229.534C42.702 227.878 43.2894 226.452 43.362 225.482C43.4346 224.512 43.923 222.222 41.6196 220.987C39.3162 219.753 36.7092 218.829 38.0886 216.585C38.907 215.265 41.349 214.533 43.6326 215.028C45.9162 215.523 47.6916 215.773 49.1634 215.239C50.6352 214.704 53.2554 212.935 54.6546 215.146C56.0538 217.357 55.9746 218.486 57.1824 219.106C59.4 220.202 64.2708 218.275 64.35 228.155Z" fill="#96B562"/>
<path opacity="0.2" d="M64.35 228.155L59.268 239.065C59.268 239.065 54.9582 241.183 52.7208 237.296C50.4834 233.409 51.4668 231.448 48.378 231.191C45.2892 230.934 44.6952 231.191 43.6986 229.534C42.702 227.878 43.2894 226.452 43.362 225.482C43.4346 224.512 43.923 222.222 41.6196 220.987C39.3162 219.753 36.7092 218.829 38.0886 216.585C38.907 215.265 41.349 214.533 43.6326 215.028C45.9162 215.523 47.6916 215.773 49.1634 215.239C50.6352 214.704 53.2554 212.935 54.6546 215.146C56.0538 217.357 55.9746 218.486 57.1824 219.106C59.4 220.202 64.2708 218.275 64.35 228.155Z" fill="black"/>
<path d="M62.2775 232.88C62.2275 232.88 62.1784 232.867 62.1354 232.841C62.0924 232.815 62.0572 232.779 62.0333 232.735C61.9541 232.603 54.2387 219.462 39.9035 217.238C39.866 217.232 39.8301 217.219 39.7977 217.2C39.7653 217.18 39.7373 217.154 39.7151 217.123C39.693 217.092 39.6772 217.057 39.6688 217.02C39.6603 216.983 39.6594 216.945 39.6659 216.908C39.6707 216.871 39.683 216.835 39.7021 216.802C39.7211 216.77 39.7465 216.742 39.7768 216.72C39.807 216.698 39.8414 216.682 39.878 216.673C39.9145 216.665 39.9524 216.664 39.9893 216.67C54.6017 218.941 62.4293 232.319 62.5283 232.451C62.5522 232.495 62.5643 232.544 62.5635 232.594C62.5627 232.644 62.5491 232.693 62.5239 232.736C62.4986 232.779 62.4627 232.815 62.4196 232.84C62.3764 232.865 62.3275 232.879 62.2775 232.88Z" fill="white"/>
<path d="M53.2291 223.021C53.1782 223.021 53.1283 223.007 53.0843 222.982C53.0402 222.956 53.0037 222.92 52.9783 222.876C52.3228 221.783 51.9006 220.566 51.7382 219.302C51.5758 218.037 51.6766 216.753 52.0345 215.53C52.047 215.495 52.0664 215.463 52.0914 215.435C52.1165 215.407 52.1467 215.385 52.1804 215.369C52.2141 215.353 52.2506 215.344 52.2879 215.342C52.3251 215.34 52.3624 215.346 52.3975 215.358C52.4326 215.371 52.4648 215.39 52.4925 215.415C52.5201 215.44 52.5425 215.471 52.5584 215.504C52.5744 215.538 52.5835 215.575 52.5853 215.612C52.5872 215.649 52.5816 215.686 52.5691 215.721C52.2464 216.868 52.159 218.067 52.3121 219.248C52.4652 220.429 52.8557 221.566 53.4601 222.592C53.4789 222.624 53.4911 222.66 53.496 222.698C53.5009 222.735 53.4983 222.773 53.4885 222.809C53.4787 222.845 53.4618 222.879 53.4388 222.909C53.4158 222.938 53.3871 222.963 53.3545 222.981C53.3168 223.005 53.2736 223.019 53.2291 223.021Z" fill="white"/>
<path d="M46.8997 228.036C46.8601 228.036 46.821 228.027 46.7848 228.011C46.7485 227.995 46.7158 227.972 46.6885 227.944C46.6619 227.917 46.6409 227.886 46.6265 227.851C46.6121 227.817 46.6047 227.78 46.6047 227.742C46.6047 227.705 46.6121 227.668 46.6265 227.633C46.6409 227.599 46.6619 227.568 46.6885 227.541C51.3481 223.284 55.2685 224.155 55.4005 224.195C55.437 224.203 55.4714 224.219 55.5018 224.241C55.5322 224.263 55.5579 224.291 55.5776 224.323C55.5972 224.354 55.6103 224.39 55.6162 224.427C55.622 224.464 55.6205 224.502 55.6117 224.538C55.604 224.575 55.5888 224.61 55.5672 224.641C55.5455 224.672 55.5177 224.698 55.4856 224.718C55.4535 224.737 55.4176 224.75 55.3803 224.756C55.343 224.761 55.3049 224.759 55.2685 224.749C55.2289 224.749 51.4933 223.924 47.0713 227.964C47.0231 228.005 46.9631 228.031 46.8997 228.036Z" fill="white"/>
<path d="M64.4226 90.0909C64.4233 88.1692 64.9291 86.2814 65.8894 84.6168C66.8497 82.9522 68.2307 81.5693 69.894 80.6067L139.537 40.3995C140.002 40.1316 140.521 39.9712 141.055 39.9301C141.59 39.889 142.127 39.9682 142.627 40.1619C143.127 40.3556 143.578 40.6589 143.945 41.0495C144.313 41.4401 144.588 41.9081 144.751 42.4191C144.564 41.6005 144.214 40.8279 143.722 40.1475C143.23 39.4671 142.606 38.8929 141.887 38.4591L141.636 38.3139C139.903 37.2828 137.924 36.7379 135.907 36.7365C135.263 36.7304 134.629 36.8992 134.072 37.2249L64.4292 77.4519C62.7633 78.4121 61.3799 79.7943 60.4182 81.4593C59.4565 83.1243 58.9505 85.0133 58.9512 86.9361V237.542C58.952 238.171 59.1181 238.789 59.433 239.333C59.7478 239.878 60.2003 240.331 60.7451 240.646C61.2898 240.96 61.9078 241.127 62.537 241.127C63.1662 241.128 63.7846 240.964 64.3302 240.65L64.4226 240.597V90.0909Z" fill="#37474F"/>
<path d="M139.445 203.597L69.8016 243.805C69.2568 244.12 68.6386 244.286 68.0092 244.287C67.3798 244.287 66.7613 244.122 66.2161 243.807C65.6708 243.493 65.218 243.04 64.9031 242.495C64.5883 241.95 64.4226 241.332 64.4226 240.703V90.0905C64.4233 88.1688 64.9292 86.281 65.8894 84.6164C66.8497 82.9518 68.2307 81.5689 69.894 80.6063L139.537 40.3991C140.083 40.0856 140.701 39.9211 141.33 39.9219C141.96 39.9227 142.578 40.0888 143.122 40.4037C143.667 40.7185 144.12 41.171 144.434 41.7158C144.749 42.2605 144.915 42.8785 144.916 43.5077V194.113C144.917 196.035 144.412 197.923 143.451 199.588C142.491 201.253 141.109 202.636 139.445 203.597Z" fill="#455A64"/>
<path d="M64.4226 240.704V90.0915C64.4233 88.4507 64.7933 86.8311 65.505 85.3527L60.1194 82.0527C59.3523 83.5784 58.9523 85.2621 58.9512 86.9697V238.836C58.9513 239.433 59.1065 240.02 59.4015 240.54C59.6965 241.059 60.1212 241.493 60.6342 241.799L63.4128 243.449C64.3745 244.024 65.4738 244.327 66.594 244.327H67.98C67.5085 244.323 67.0424 244.225 66.6085 244.041C66.1745 243.857 65.7811 243.589 65.4508 243.252C65.1205 242.916 64.8596 242.517 64.6832 242.08C64.5068 241.643 64.4182 241.175 64.4226 240.704Z" fill="#263238"/>
<path d="M137.049 54.8809V181.502C137.048 183.199 136.6 184.867 135.751 186.337C134.902 187.807 133.681 189.028 132.211 189.877L70.7123 225.379C70.2487 225.648 69.7237 225.793 69.1877 225.801C69.3652 226.211 69.6274 226.58 69.9573 226.882C70.2872 227.183 70.6773 227.412 71.1018 227.552C71.5264 227.692 71.9758 227.741 72.4206 227.695C72.8653 227.649 73.2953 227.51 73.6823 227.286L135.181 191.778C136.651 190.929 137.871 189.708 138.719 188.238C139.567 186.767 140.013 185.1 140.012 183.403V58.0357C140.014 57.2311 139.708 56.4563 139.157 55.8699C138.606 55.2835 137.852 54.9297 137.049 54.8809Z" fill="#37474F"/>
<path d="M69.1878 225.768C69.7238 225.76 70.2488 225.615 70.7124 225.346L132.211 189.844C133.676 188.998 134.894 187.782 135.743 186.318C136.591 184.854 137.042 183.194 137.049 181.502V54.8809C136.432 54.8861 135.823 55.0281 135.267 55.2967L73.7682 90.7981C72.2975 91.6464 71.076 92.8671 70.2268 94.3374C69.3776 95.8076 68.9304 97.4756 68.9304 99.1735V224.507C68.9298 224.948 69.0196 225.384 69.1944 225.788L69.1878 225.768Z" fill="#96B562"/>
<g opacity="0.5">
<path d="M69.1878 225.768C69.7238 225.76 70.2488 225.615 70.7124 225.346L132.211 189.844C133.676 188.998 134.894 187.782 135.743 186.318C136.591 184.854 137.042 183.194 137.049 181.502V54.8809C136.432 54.8861 135.823 55.0281 135.267 55.2967L73.7682 90.7981C72.2975 91.6464 71.076 92.8671 70.2268 94.3374C69.3776 95.8076 68.9304 97.4756 68.9304 99.1735V224.507C68.9298 224.948 69.0196 225.384 69.1944 225.788L69.1878 225.768Z" fill="white"/>
</g>
<path d="M94.9212 72.2445C94.9003 72.6285 94.7896 73.0022 94.5982 73.3358C94.4068 73.6693 94.14 73.9533 93.819 74.1651C93.2052 74.5149 92.7102 74.2311 92.7102 73.5051C92.7314 73.1205 92.8428 72.7462 93.0354 72.4125C93.228 72.0789 93.4965 71.7952 93.819 71.5845C94.4262 71.2809 94.9212 71.5383 94.9212 72.2445Z" fill="#263238"/>
<path d="M99.0462 69.8693C99.024 70.2537 98.9122 70.6276 98.7196 70.9611C98.5271 71.2946 98.2592 71.5784 97.9374 71.7899C97.3236 72.1397 96.8286 71.8559 96.8286 71.1299C96.8498 70.7452 96.9612 70.3709 97.1538 70.0373C97.3464 69.7036 97.6149 69.42 97.9374 69.2093C98.5446 68.8793 99.0462 69.1631 99.0462 69.8693Z" fill="#263238"/>
<path d="M115.672 61.5468L102.3 69.3018C101.765 69.6054 101.336 69.3018 101.336 68.5758C101.342 68.2159 101.432 67.8623 101.6 67.5436C101.767 67.2249 102.007 66.95 102.3 66.741L115.691 59.0124C116.219 58.7022 116.648 59.0124 116.648 59.7318C116.638 60.0894 116.544 60.4396 116.374 60.7547C116.205 61.0697 115.964 61.3409 115.672 61.5468Z" fill="#263238"/>
<path d="M113.408 208.351C114.206 208.351 114.728 209.202 114.728 210.515C114.728 212.575 113.441 215.063 111.91 215.947L105.501 219.65C105.215 219.828 104.888 219.93 104.551 219.947C103.752 219.947 103.231 219.095 103.231 217.782C103.231 215.716 104.551 213.228 106.049 212.35L112.457 208.648C112.746 208.468 113.075 208.366 113.414 208.351M113.414 207.803C112.979 207.816 112.555 207.946 112.187 208.179L105.778 211.875C104.069 212.858 102.683 215.505 102.683 217.815C102.683 219.511 103.455 220.528 104.551 220.528C104.986 220.515 105.41 220.385 105.778 220.151L112.187 216.455C113.89 215.472 115.276 212.825 115.276 210.515C115.276 208.819 114.51 207.803 113.414 207.803Z" fill="#263238"/>
<path d="M78.0054 108.049V249.949C78.0054 252.523 78.9492 254.245 80.388 254.813H80.4276L86.5656 258.173L86.526 252.721L85.866 105.587L79.3914 102.287C78.5225 104.086 78.0499 106.051 78.0054 108.049Z" fill="#E6E6E6"/>
<path d="M86.9021 258.72L80.2625 255.084C78.6191 254.424 77.6753 252.49 77.6753 249.916V108.016C77.7104 105.958 78.1899 103.931 79.0811 102.076L79.2263 101.766L86.1827 105.323V105.521L86.8427 252.655L86.9021 258.72ZM80.5991 254.516L86.2355 257.605V252.708L85.5755 105.772L79.5893 102.709C78.832 104.383 78.4233 106.193 78.3881 108.029V249.929C78.3881 252.252 79.1999 253.955 80.5661 254.49L80.6453 254.529L80.5991 254.516Z" fill="#E6E6E6"/>
<path d="M79.3782 102.3L85.8528 105.6L155.153 65.2802L159.773 62.5874L153.377 58.9838L153.199 58.8782C152.176 58.2644 150.843 58.304 149.371 59.1554L83.7804 97.0196C81.8212 98.3034 80.2887 100.142 79.3782 102.3Z" fill="#E0E0E0"/>
<path d="M85.8526 105.923C85.7995 105.923 85.7474 105.909 85.7008 105.884L79.2262 102.584C79.1882 102.565 79.1542 102.54 79.1262 102.508C79.0982 102.477 79.0769 102.44 79.0634 102.4C79.0498 102.36 79.0444 102.318 79.0474 102.275C79.0505 102.233 79.0619 102.192 79.081 102.155C80.0244 99.9423 81.6022 98.059 83.6152 96.7427L149.219 58.8653C150.737 57.9941 152.216 57.8951 153.377 58.5947H153.43L153.562 58.6739L159.951 62.2709C160.001 62.3013 160.042 62.3439 160.071 62.3947C160.1 62.4455 160.115 62.5029 160.116 62.5613C160.117 62.6192 160.102 62.6762 160.073 62.7262C160.044 62.7763 160.002 62.8174 159.951 62.8451L86.0308 105.857C85.9788 105.896 85.917 105.919 85.8526 105.923ZM79.8136 102.128L85.846 105.217L159.106 62.5877L153.027 59.1557L152.981 59.1161C152.037 58.5749 150.816 58.6871 149.536 59.4263L83.932 97.3037C82.1289 98.4882 80.7004 100.162 79.8136 102.128Z" fill="#E0E0E0"/>
<path d="M84.3545 111.612V252.852C84.3545 255.076 85.0673 256.673 86.1959 257.426L86.5721 257.63C87.5555 258.092 88.7897 257.993 90.1295 257.215L121.842 238.919L155.76 218.525C157.497 217.439 158.935 215.936 159.945 214.153C160.954 212.37 161.503 210.364 161.541 208.315V67.0751C161.541 64.9235 160.881 63.3659 159.812 62.5805C159.632 62.4453 159.434 62.3343 159.225 62.2505C158.653 62.0482 158.041 61.9834 157.439 62.0613C156.837 62.1393 156.262 62.3579 155.76 62.6993L90.1559 101.217C88.305 102.186 86.808 103.715 85.8791 105.586C84.9268 107.455 84.4058 109.515 84.3545 111.612Z" fill="#FAFAFA"/>
<path d="M155.76 218.526C142.263 226.578 107.144 247.533 89.7598 258.007C89.2412 258.318 88.6496 258.485 88.0452 258.492C87.4409 258.499 86.8454 258.346 86.3195 258.049C85.7936 257.751 85.356 257.319 85.0514 256.797C84.7468 256.275 84.586 255.681 84.5854 255.077V109.837C84.5854 108.184 85.0179 106.559 85.8399 105.125C86.6619 103.69 87.845 102.496 89.2714 101.66L156.05 62.5087C156.569 62.206 157.158 62.0454 157.759 62.043C158.36 62.0406 158.95 62.1964 159.472 62.4948C159.993 62.7932 160.426 63.2237 160.728 63.7429C161.03 64.2621 161.19 64.8517 161.192 65.4523V208.91C161.192 210.845 160.693 212.748 159.741 214.433C158.789 216.118 157.418 217.528 155.76 218.526Z" fill="#FAFAFA"/>
<path d="M155.569 218.236C144.969 224.545 134.374 230.873 123.783 237.217L104.973 248.47L96.393 253.618L92.6376 255.876C91.4826 256.568 90.255 257.559 88.9746 258.001C86.856 258.74 84.9486 257.044 84.8958 254.952C84.8958 254.615 84.8958 254.292 84.8958 253.942V120.78C84.8958 117.236 84.8958 113.685 84.8958 110.141C84.8715 108.463 85.2955 106.809 86.1238 105.349C86.9522 103.89 88.155 102.678 89.6082 101.838C91.1394 100.934 92.6772 100.043 94.2282 99.1453L115.784 86.4601L141.359 71.4715C146.21 68.6335 151.048 65.7691 155.879 62.9443C157.384 62.0731 159.278 62.1589 160.327 63.7363C160.698 64.366 160.873 65.0923 160.829 65.8219V208.355C160.895 210.324 160.442 212.275 159.515 214.013C158.588 215.751 157.22 217.214 155.549 218.255C155.186 218.48 155.516 219.054 155.879 218.83C157.637 217.741 159.08 216.213 160.066 214.395C161.053 212.578 161.547 210.535 161.502 208.468V75.9727C161.502 72.5275 161.535 69.0757 161.502 65.6239C161.519 64.9329 161.347 64.2503 161.006 63.6493C160.664 63.0483 160.166 62.5517 159.563 62.2125C158.961 61.8734 158.278 61.7046 157.587 61.7242C156.896 61.7438 156.223 61.9511 155.641 62.3239C154.031 63.2545 152.434 64.2049 150.836 65.1421L128.7 78.1639L102.894 93.2911C98.34 95.9641 93.72 98.6173 89.1858 101.31C87.6593 102.208 86.3971 103.494 85.5268 105.036C84.6564 106.579 84.2088 108.324 84.2292 110.095C84.2292 111.283 84.2292 112.471 84.2292 113.659V254.391C84.2292 254.615 84.2292 254.846 84.2292 255.051C84.2363 255.641 84.3812 256.221 84.6525 256.745C84.9237 257.27 85.3136 257.723 85.7913 258.07C86.2689 258.417 86.821 258.647 87.4035 258.743C87.9859 258.839 88.5827 258.797 89.1462 258.621C90.3936 258.205 91.5684 257.268 92.6904 256.595L96.5184 254.292L105.098 249.157C117.577 241.677 130.066 234.21 142.567 226.756L155.918 218.79C156.262 218.592 155.932 218.018 155.569 218.236Z" fill="#EBEBEB"/>
<path d="M89.2451 101.64L156.05 62.5087C156.569 62.206 157.158 62.0454 157.759 62.043C158.36 62.0406 158.95 62.1964 159.472 62.4948C159.993 62.7932 160.426 63.2237 160.728 63.7429C161.03 64.2621 161.19 64.8517 161.192 65.4523V71.7553L84.5789 115.975V109.824C84.5757 108.172 85.0046 106.547 85.8231 105.111C86.6416 103.676 87.8213 102.479 89.2451 101.64Z" fill="#EBEBEB"/>
<path d="M135.142 135.998C141.916 124.265 141.916 111.582 135.142 107.671C128.368 103.76 117.384 110.101 110.61 121.835C103.835 133.568 103.835 146.251 110.61 150.162C117.384 154.073 128.368 147.732 135.142 135.998Z" fill="#96B562"/>
<path opacity="0.5" d="M135.142 135.998C141.916 124.265 141.916 111.582 135.142 107.671C128.368 103.76 117.384 110.101 110.61 121.835C103.835 133.568 103.835 146.251 110.61 150.162C117.384 154.073 128.368 147.732 135.142 135.998Z" fill="white"/>
<path d="M119.763 128.991C119.661 128.991 119.56 128.971 119.465 128.932C119.371 128.893 119.285 128.835 119.213 128.763C119.14 128.691 119.083 128.605 119.044 128.51C119.005 128.416 118.985 128.314 118.985 128.212V123.084C119.042 121.867 119.389 120.682 119.997 119.627C120.606 118.572 121.458 117.677 122.483 117.019C122.897 116.677 123.407 116.47 123.942 116.425C124.478 116.38 125.014 116.5 125.48 116.769C125.945 117.037 126.318 117.441 126.548 117.927C126.778 118.412 126.854 118.957 126.766 119.487V124.622C126.766 124.828 126.684 125.026 126.538 125.172C126.392 125.319 126.194 125.401 125.987 125.401C125.781 125.401 125.583 125.319 125.437 125.172C125.29 125.026 125.208 124.828 125.208 124.622V119.461C125.312 119.203 125.318 118.916 125.226 118.654C125.134 118.392 124.95 118.172 124.708 118.035C124.467 117.898 124.184 117.854 123.911 117.909C123.639 117.965 123.397 118.118 123.228 118.339C122.443 118.863 121.789 119.562 121.317 120.38C120.846 121.199 120.569 122.115 120.509 123.058V128.186C120.516 128.391 120.442 128.591 120.302 128.742C120.163 128.893 119.969 128.982 119.763 128.991Z" fill="#37474F"/>
<path d="M129.162 121.314C128.98 121.238 128.781 121.21 128.585 121.232C128.389 121.254 128.201 121.325 128.04 121.439L117.665 127.432C117.21 127.718 116.833 128.112 116.569 128.58C116.154 129.254 115.926 130.026 115.909 130.818V139.8C115.886 140.052 115.92 140.306 116.009 140.543C116.099 140.779 116.24 140.993 116.424 141.166C116.48 141.21 116.542 141.246 116.609 141.272C116.785 141.338 116.973 141.36 117.16 141.337C117.346 141.314 117.523 141.246 117.678 141.14L128.04 135.141C128.581 134.755 129.023 134.248 129.331 133.659C129.64 133.071 129.805 132.419 129.815 131.755V122.759C129.852 122.481 129.81 122.199 129.695 121.943C129.579 121.688 129.395 121.47 129.162 121.314Z" fill="#96B562"/>
<path d="M124.08 130.68L125.083 133.557L121.565 135.583L122.443 132.033L122.568 131.531C121.974 131.531 121.565 131.089 121.565 130.284C121.57 129.956 121.625 129.631 121.73 129.32C122.004 128.462 122.566 127.725 123.321 127.234C124.291 126.673 125.083 127.129 125.083 128.251C125.035 129.151 124.681 130.008 124.08 130.68Z" fill="#455A64"/>
<path d="M122.417 132L122.542 131.498C121.948 131.498 121.539 131.056 121.539 130.251C121.543 129.923 121.599 129.598 121.704 129.287L124.08 130.68L125.083 133.557L122.417 132Z" fill="#37474F"/>
<path d="M148.5 162.136L97.2838 191.684C95.1652 192.905 93.4492 191.605 93.4492 188.786V181.031C93.4492 178.207 95.1652 174.926 97.2838 173.705L148.5 144.157C150.618 142.936 152.334 144.23 152.334 147.055V154.81C152.301 157.634 150.585 160.908 148.5 162.136Z" fill="#96B562"/>
<path d="M106.491 173.006H105.501V181.21H106.491V173.006Z" fill="#FAFAFA"/>
<path d="M109.734 175.349L102.596 179.451L103.091 180.312L110.229 176.211L109.734 175.349Z" fill="#FAFAFA"/>
<path d="M103.727 175.238L103.232 176.096L108.256 178.996L108.751 178.139L103.727 175.238Z" fill="#FAFAFA"/>
<path d="M108.782 172.054L103.757 180.799L104.618 181.294L109.644 172.549L108.782 172.054Z" fill="#FAFAFA"/>
<path d="M123.367 163.818H122.377V172.022H123.367V163.818Z" fill="#FAFAFA"/>
<path d="M126.172 165.455L119.067 169.557L119.562 170.414L126.667 166.312L126.172 165.455Z" fill="#FAFAFA"/>
<path d="M120.61 166.047L120.115 166.904L125.139 169.805L125.634 168.948L120.61 166.047Z" fill="#FAFAFA"/>
<path d="M125.623 162.794L120.597 171.539L121.458 172.034L126.484 163.289L125.623 162.794Z" fill="#FAFAFA"/>
<path d="M140.243 154.625H139.253V162.829H140.243V154.625Z" fill="#FAFAFA"/>
<path d="M143.623 156.89L136.485 160.992L136.98 161.853L144.118 157.752L143.623 156.89Z" fill="#FAFAFA"/>
<path d="M137.487 156.854L136.992 157.711L142.016 160.612L142.511 159.754L137.487 156.854Z" fill="#FAFAFA"/>
<path d="M141.834 154.119L136.808 162.824L137.665 163.319L142.691 154.614L141.834 154.119Z" fill="#FAFAFA"/>
<path d="M149.985 172.814C150.645 172.814 150.981 173.837 150.981 174.854V182.609C150.981 184.965 149.523 187.796 147.807 188.793L96.6238 218.341C96.364 218.507 96.0667 218.604 95.7592 218.625C95.0992 218.625 94.7692 217.602 94.7692 216.585V208.83C94.7692 206.474 96.2212 203.643 97.9438 202.646L149.16 173.098C149.417 172.933 149.712 172.835 150.018 172.814M150.018 171.494C149.48 171.514 148.957 171.673 148.5 171.956L97.2838 201.504C95.1652 202.725 93.4492 206.006 93.4492 208.83V216.585C93.4492 218.684 94.3996 219.945 95.7592 219.945C96.299 219.926 96.8245 219.767 97.2838 219.483L148.5 189.935C150.618 188.714 152.334 185.433 152.334 182.609V174.854C152.334 172.755 151.377 171.494 150.018 171.494Z" fill="#96B562"/>
<path d="M113.434 206.898C112.868 207.223 112.381 207.371 111.973 207.341C111.567 207.307 111.254 207.11 111.035 206.749C110.815 206.385 110.706 205.869 110.706 205.2C110.706 204.547 110.815 203.912 111.035 203.293C111.254 202.674 111.564 202.112 111.962 201.608C112.363 201.102 112.833 200.694 113.373 200.384C113.736 200.175 114.073 200.049 114.386 200.004C114.701 199.955 114.976 199.997 115.21 200.129C115.446 200.261 115.63 200.491 115.761 200.82C115.892 201.147 115.958 201.58 115.958 202.119V202.602L111.314 205.271V204.181L114.522 202.337C114.522 202.084 114.474 201.887 114.379 201.747C114.283 201.606 114.151 201.529 113.981 201.517C113.814 201.5 113.62 201.555 113.398 201.683C113.166 201.816 112.961 201.996 112.782 202.222C112.605 202.445 112.467 202.688 112.367 202.952C112.267 203.214 112.215 203.47 112.213 203.722V204.759C112.213 205.073 112.263 205.315 112.363 205.486C112.466 205.655 112.61 205.749 112.796 205.765C112.983 205.782 113.203 205.717 113.459 205.571C113.628 205.473 113.783 205.357 113.924 205.221C114.065 205.085 114.186 204.933 114.286 204.765C114.386 204.597 114.462 204.418 114.515 204.229L115.926 203.525C115.854 203.957 115.707 204.383 115.485 204.802C115.266 205.218 114.982 205.607 114.633 205.969C114.287 206.328 113.887 206.638 113.434 206.898ZM118.478 200.208V203.875L116.953 204.752V198.409L118.407 197.573V198.692L118.471 198.655C118.593 198.217 118.797 197.807 119.083 197.428C119.37 197.046 119.717 196.738 120.125 196.503C120.507 196.284 120.84 196.189 121.124 196.218C121.408 196.248 121.629 196.396 121.787 196.663C121.944 196.928 122.023 197.307 122.023 197.799V201.838L120.498 202.715V198.99C120.5 198.6 120.414 198.347 120.24 198.229C120.066 198.109 119.826 198.137 119.52 198.313C119.315 198.431 119.134 198.586 118.976 198.778C118.821 198.969 118.699 199.188 118.611 199.434C118.525 199.676 118.481 199.934 118.478 200.208ZM126.144 193.138V194.457L122.838 196.357V195.038L126.144 193.138ZM123.588 193.089L125.111 192.214V198.117C125.111 198.28 125.132 198.394 125.175 198.46C125.218 198.523 125.278 198.551 125.354 198.543C125.433 198.533 125.523 198.499 125.626 198.44C125.697 198.399 125.769 198.351 125.84 198.296C125.912 198.239 125.966 198.195 126.005 198.165L126.244 199.334C126.168 199.405 126.061 199.498 125.922 199.613C125.784 199.731 125.616 199.851 125.418 199.973C125.051 200.201 124.73 200.329 124.453 200.359C124.179 200.387 123.966 200.309 123.814 200.125C123.661 199.94 123.586 199.64 123.588 199.223V193.089ZM113.428 220.901C112.864 221.226 112.378 221.373 111.97 221.343C111.565 221.31 111.253 221.112 111.034 220.752C110.814 220.389 110.705 219.873 110.705 219.205C110.705 218.554 110.814 217.92 111.034 217.302C111.253 216.684 111.561 216.123 111.959 215.619C112.36 215.115 112.829 214.707 113.368 214.398C113.73 214.19 114.067 214.063 114.379 214.019C114.694 213.97 114.968 214.012 115.201 214.144C115.437 214.275 115.62 214.505 115.752 214.833C115.883 215.159 115.948 215.592 115.948 216.13V216.613L111.312 219.277V218.188L114.515 216.348C114.515 216.095 114.467 215.899 114.372 215.758C114.277 215.618 114.144 215.541 113.975 215.529C113.808 215.512 113.614 215.567 113.393 215.694C113.161 215.827 112.957 216.007 112.778 216.233C112.602 216.456 112.463 216.698 112.363 216.962C112.263 217.223 112.212 217.479 112.21 217.731V218.765C112.21 219.079 112.26 219.321 112.36 219.491C112.462 219.66 112.606 219.753 112.792 219.77C112.978 219.787 113.198 219.722 113.453 219.576C113.623 219.479 113.777 219.362 113.918 219.226C114.059 219.091 114.179 218.939 114.279 218.771C114.379 218.604 114.455 218.426 114.508 218.236L115.916 217.534C115.844 217.965 115.698 218.39 115.476 218.809C115.257 219.223 114.974 219.612 114.626 219.974C114.28 220.332 113.881 220.641 113.428 220.901ZM116.942 218.758V212.426L118.418 211.578V212.683L118.475 212.65C118.575 212.199 118.743 211.806 118.979 211.47C119.215 211.131 119.487 210.873 119.794 210.696C119.87 210.653 119.952 210.611 120.041 210.571C120.129 210.531 120.206 210.502 120.273 210.483V212.041C120.201 212.058 120.102 212.092 119.976 212.146C119.85 212.199 119.734 212.256 119.629 212.316C119.406 212.445 119.205 212.616 119.029 212.83C118.855 213.04 118.717 213.273 118.614 213.53C118.514 213.786 118.464 214.042 118.464 214.301V217.883L116.942 218.758Z" fill="#96B562"/>
<path d="M225.317 84.6857C225.348 85.2079 225.502 85.7154 225.767 86.1664C226.032 86.6174 226.4 86.9989 226.842 87.2795C227.687 87.7547 228.367 87.3653 228.367 86.4149C228.336 85.8926 228.182 85.3851 227.917 84.9341C227.652 84.4831 227.284 84.1016 226.842 83.8211C226.004 83.3459 225.317 83.7287 225.317 84.6857Z" fill="#455A64"/>
<path d="M204.877 90.8296C203.535 90.7849 202.228 90.3939 201.082 89.6944L196.244 86.9554C196.204 86.9356 196.168 86.9078 196.139 86.8736C196.11 86.8395 196.088 86.7998 196.075 86.7569C196.062 86.7141 196.057 86.669 196.062 86.6244C196.067 86.5798 196.081 86.5366 196.103 86.4975C196.125 86.4584 196.155 86.4242 196.19 86.397C196.226 86.3698 196.267 86.3502 196.31 86.3393C196.354 86.3284 196.399 86.3265 196.443 86.3338C196.488 86.341 196.53 86.3571 196.568 86.3812L201.406 89.1202C203.498 90.3016 205.432 90.493 206.864 89.6614C208.296 88.8298 209.042 87.1204 209.042 84.8038C209.042 82.2496 209.933 80.3224 211.543 79.3786C213.154 78.4348 215.365 78.613 217.661 79.9132L225.482 84.3418C225.557 84.386 225.612 84.4574 225.635 84.541C225.659 84.6247 225.649 84.7141 225.608 84.7906C225.565 84.8667 225.493 84.9226 225.409 84.9461C225.325 84.9696 225.235 84.9588 225.159 84.916L217.338 80.5204C215.252 79.339 213.312 79.1476 211.88 79.9858C210.448 80.824 209.702 82.5268 209.702 84.8368C209.702 87.3976 208.811 89.3248 207.2 90.262C206.49 90.6542 205.688 90.8501 204.877 90.8296Z" fill="#455A64"/>
<path d="M194.245 85.4776C194.268 85.8997 194.392 86.31 194.607 86.6741C194.822 87.0382 195.121 87.3454 195.479 87.5698C196.139 87.9592 196.713 87.6424 196.713 86.8702C196.69 86.4482 196.566 86.0378 196.351 85.6738C196.136 85.3097 195.837 85.0025 195.479 84.778C194.799 84.3886 194.245 84.7054 194.245 85.4776Z" fill="#455A64"/>
<path d="M272.31 78.4617L239.97 60.1533C239.63 59.904 239.219 59.7695 238.798 59.7695C238.377 59.7695 237.966 59.904 237.627 60.1533L234.828 62.0805L236.736 64.4367V98.5125C236.736 100.895 238.188 103.66 239.97 104.697L271.498 122.517L271.643 125.051L274.587 123.031C274.926 122.715 275.188 122.325 275.353 121.891C275.518 121.458 275.581 120.992 275.537 120.53V84.6459C275.55 82.2633 274.098 79.4979 272.31 78.4617Z" fill="#96B562"/>
<path opacity="0.3" d="M272.31 78.4617L239.97 60.1533C239.63 59.904 239.219 59.7695 238.798 59.7695C238.377 59.7695 237.966 59.904 237.627 60.1533L234.828 62.0805L236.736 64.4367V98.5125C236.736 100.895 238.188 103.66 239.97 104.697L271.498 122.517L271.643 125.051L274.587 123.031C274.926 122.715 275.188 122.325 275.353 121.891C275.518 121.458 275.581 120.992 275.537 120.53V84.6459C275.55 82.2633 274.098 79.4979 272.31 78.4617Z" fill="black"/>
<path d="M269.564 124.892L237.224 106.584C235.435 105.554 233.99 102.782 233.99 100.4V64.4956C233.99 62.1064 235.435 61.0108 237.224 62.047L269.564 80.3554C271.352 81.385 272.798 84.157 272.798 86.5396V122.45C272.798 124.833 271.352 125.928 269.564 124.892Z" fill="#96B562"/>
<path d="M262.773 93.819C262.699 93.8201 262.628 93.7967 262.569 93.7524C262.51 93.7082 262.468 93.6457 262.449 93.5748C261.76 91.0285 260.694 88.5993 259.288 86.3677C259.241 86.2941 259.225 86.2049 259.243 86.1195C259.262 86.0341 259.313 85.9596 259.387 85.9122C259.423 85.8883 259.464 85.872 259.507 85.8644C259.55 85.8567 259.594 85.8579 259.637 85.8677C259.68 85.8776 259.72 85.896 259.755 85.9218C259.79 85.9476 259.82 85.9803 259.842 86.0179C261.287 88.3041 262.381 90.7934 263.089 93.4033C263.11 93.488 263.098 93.5776 263.055 93.6536C263.012 93.7296 262.942 93.7864 262.858 93.8124L262.773 93.819Z" fill="white"/>
<path d="M263.512 100.533C263.423 100.526 263.341 100.485 263.283 100.418C263.225 100.352 263.196 100.265 263.201 100.177C263.201 99.8269 263.241 99.4573 263.241 99.0811C263.238 97.9527 263.138 96.8266 262.944 95.7151C262.929 95.6275 262.95 95.5377 263.001 95.4653C263.052 95.3929 263.13 95.3438 263.218 95.329C263.305 95.3141 263.395 95.3346 263.468 95.3859C263.54 95.4373 263.589 95.5153 263.604 95.6029C263.806 96.7514 263.91 97.915 263.914 99.0811C263.914 99.4705 263.914 99.8533 263.875 100.223C263.871 100.267 263.859 100.31 263.839 100.35C263.819 100.389 263.791 100.425 263.758 100.453C263.724 100.482 263.685 100.504 263.643 100.518C263.6 100.531 263.556 100.537 263.512 100.533Z" fill="white"/>
<path d="M243.322 89.5768C243.241 89.5771 243.162 89.5467 243.102 89.4916C243.042 89.4366 243.006 89.3609 242.999 89.2798C242.946 88.7056 242.92 88.1314 242.92 87.577C242.92 84.376 243.784 81.736 245.355 80.1322C245.385 80.1015 245.421 80.0771 245.461 80.0604C245.5 80.0437 245.543 80.0352 245.586 80.0352C245.629 80.0352 245.672 80.0437 245.711 80.0604C245.751 80.0771 245.787 80.1015 245.817 80.1322C245.848 80.1629 245.873 80.1994 245.889 80.2396C245.906 80.2798 245.915 80.323 245.915 80.3665C245.915 80.4101 245.906 80.4532 245.889 80.4934C245.873 80.5336 245.848 80.5701 245.817 80.6008C244.372 82.0792 243.573 84.5608 243.573 87.5836C243.573 88.1182 243.573 88.6726 243.646 89.227C243.65 89.27 243.646 89.3135 243.634 89.3549C243.621 89.3963 243.6 89.4348 243.573 89.468C243.545 89.5012 243.511 89.5286 243.472 89.5484C243.434 89.5682 243.392 89.5801 243.349 89.5834L243.322 89.5768Z" fill="white"/>
<path d="M257.922 84.2366C257.873 84.2372 257.824 84.2268 257.779 84.2063C257.735 84.1857 257.696 84.1555 257.664 84.1178C256.441 82.5607 254.94 81.2447 253.236 80.237C251.044 78.9962 248.985 78.7586 247.296 79.577C247.217 79.6132 247.127 79.6168 247.045 79.5872C246.964 79.5575 246.897 79.497 246.86 79.4186C246.841 79.3792 246.83 79.3365 246.828 79.2929C246.826 79.2492 246.832 79.2056 246.847 79.1644C246.861 79.1233 246.884 79.0855 246.914 79.0532C246.943 79.0209 246.979 78.9948 247.018 78.9764C248.919 78.0986 251.183 78.3164 253.572 79.6958C255.348 80.7464 256.914 82.1157 258.192 83.735C258.247 83.8026 258.273 83.889 258.264 83.9755C258.255 84.062 258.213 84.1416 258.146 84.197C258.078 84.2365 257.999 84.2505 257.922 84.2366Z" fill="white"/>
<path d="M245.599 89.8339C245.514 89.8339 245.432 89.801 245.37 89.7419C245.309 89.6829 245.273 89.6023 245.269 89.5171C245.269 89.3125 245.269 89.1079 245.269 88.9033C245.269 86.5603 245.843 84.6463 246.932 83.3725C246.96 83.339 246.994 83.3114 247.032 83.2912C247.07 83.2711 247.112 83.2588 247.155 83.2551C247.198 83.2514 247.242 83.2564 247.283 83.2697C247.324 83.2831 247.362 83.3046 247.394 83.3329C247.461 83.3903 247.502 83.4715 247.51 83.5591C247.517 83.6467 247.49 83.7336 247.434 83.8015C246.451 84.9565 245.929 86.7187 245.929 88.9033C245.929 89.0947 245.929 89.2927 245.929 89.4841C245.931 89.5274 245.924 89.5707 245.909 89.6114C245.894 89.6521 245.871 89.6895 245.842 89.7214C245.813 89.7532 245.777 89.779 245.738 89.7972C245.698 89.8153 245.656 89.8256 245.612 89.8273L245.599 89.8339Z" fill="white"/>
<path d="M248.16 83.0358C248.088 83.0365 248.017 83.0133 247.959 82.9697C247.901 82.9261 247.859 82.8646 247.839 82.7947C247.82 82.7248 247.824 82.6504 247.851 82.583C247.878 82.5156 247.926 82.459 247.989 82.422C248.834 81.9192 249.824 81.7147 250.8 81.8412C250.887 81.8496 250.966 81.8917 251.022 81.9584C251.077 82.0251 251.104 82.1111 251.097 82.1976C251.087 82.2846 251.044 82.3643 250.976 82.4197C250.908 82.4752 250.821 82.502 250.734 82.4946C249.903 82.3955 249.062 82.5767 248.345 83.0094C248.287 83.0339 248.223 83.043 248.16 83.0358Z" fill="white"/>
<path d="M262.772 104.777C262.706 104.777 262.642 104.757 262.587 104.721C262.531 104.685 262.488 104.633 262.462 104.572L262.079 103.615C261.312 101.764 260.907 99.7839 260.885 97.7807C260.885 92.1839 257.453 85.7093 253.235 83.3201C253.198 83.2989 253.165 83.2703 253.138 83.2361C253.112 83.2019 253.092 83.1627 253.081 83.1208C253.07 83.0789 253.067 83.0353 253.074 82.9924C253.08 82.9496 253.094 82.9084 253.117 82.8713C253.137 82.833 253.165 82.7992 253.199 82.772C253.233 82.7448 253.272 82.7248 253.314 82.7131C253.356 82.7014 253.4 82.6983 253.443 82.7039C253.486 82.7095 253.528 82.7238 253.565 82.7459C257.961 85.2407 261.545 91.9859 261.545 97.7543C261.562 99.6809 261.952 101.586 262.693 103.364L263.076 104.321C263.093 104.361 263.102 104.404 263.103 104.447C263.103 104.491 263.094 104.533 263.078 104.573C263.061 104.614 263.037 104.65 263.006 104.68C262.975 104.711 262.938 104.734 262.898 104.75C262.858 104.768 262.816 104.777 262.772 104.777Z" fill="white"/>
<path d="M247.619 100.982C247.551 100.982 247.485 100.961 247.429 100.922C247.374 100.883 247.332 100.828 247.309 100.764C246.242 97.6453 245.553 94.4104 245.256 91.128C245.252 91.0841 245.258 91.0399 245.271 90.9981C245.285 90.9563 245.307 90.9176 245.336 90.8844C245.365 90.8512 245.4 90.8241 245.44 90.8047C245.479 90.7853 245.522 90.7741 245.566 90.7716C245.653 90.7695 245.737 90.8004 245.802 90.8579C245.867 90.9155 245.908 90.9954 245.916 91.0818C246.197 94.3019 246.862 97.477 247.896 100.54C247.912 100.58 247.919 100.624 247.917 100.667C247.916 100.711 247.905 100.754 247.887 100.793C247.868 100.832 247.842 100.868 247.81 100.897C247.777 100.926 247.739 100.948 247.698 100.962C247.673 100.972 247.646 100.979 247.619 100.982Z" fill="white"/>
<path d="M260.832 107C260.765 107.002 260.699 106.982 260.643 106.944C260.588 106.907 260.545 106.852 260.522 106.789L259.637 104.413C258.746 102.094 258.266 99.6373 258.218 97.1532V94.5594C258.218 91.4772 256.007 87.7218 253.288 86.184C252.021 85.4646 250.846 85.3392 249.988 85.8408C249.13 86.3424 248.668 87.3786 248.668 88.7844V91.0812C248.741 94.8123 249.487 98.4995 250.873 101.965L251.962 104.803C251.978 104.843 251.985 104.887 251.984 104.93C251.983 104.974 251.973 105.017 251.956 105.057C251.938 105.097 251.912 105.133 251.88 105.163C251.849 105.193 251.811 105.216 251.77 105.232C251.689 105.262 251.599 105.258 251.52 105.223C251.441 105.187 251.379 105.121 251.348 105.04L250.259 102.202C248.852 98.6596 248.097 94.8922 248.028 91.0812V88.791C248.028 87.141 248.602 85.8936 249.658 85.2798C250.714 84.666 252.133 84.7782 253.618 85.6164C256.516 87.2598 258.898 91.2726 258.898 94.566V97.1598C258.944 99.5654 259.411 101.944 260.278 104.189L261.155 106.558C261.171 106.598 261.179 106.641 261.178 106.685C261.177 106.728 261.167 106.77 261.149 106.81C261.131 106.849 261.106 106.885 261.074 106.914C261.042 106.943 261.005 106.966 260.964 106.981L260.832 107Z" fill="white"/>
<path d="M257.921 107.944C257.851 107.944 257.782 107.922 257.725 107.881C257.668 107.839 257.626 107.78 257.605 107.713L257.142 106.155C256.301 103.421 255.856 100.581 255.822 97.7205V93.7209C255.771 92.8149 255.505 91.9341 255.046 91.1514C254.587 90.3687 253.948 89.7065 253.182 89.2197C252.944 89.0447 252.663 88.9356 252.369 88.9031C252.075 88.8707 251.777 88.9161 251.506 89.0349C251.274 89.2032 251.091 89.4298 250.975 89.6918C250.859 89.9537 250.815 90.2417 250.846 90.5265C250.846 94.9881 252.206 100.129 254.667 105.007L255.598 106.848C255.618 106.887 255.629 106.93 255.632 106.973C255.635 107.017 255.63 107.06 255.616 107.102C255.602 107.143 255.581 107.181 255.552 107.214C255.523 107.247 255.489 107.274 255.45 107.294C255.411 107.313 255.368 107.325 255.325 107.328C255.281 107.331 255.237 107.326 255.196 107.312C255.155 107.298 255.116 107.276 255.084 107.248C255.051 107.219 255.024 107.184 255.004 107.145L254.08 105.304C251.566 100.334 250.186 95.0871 250.186 90.5265C250.149 90.1262 250.22 89.7233 250.392 89.3599C250.564 88.9965 250.83 88.6859 251.163 88.4607C251.533 88.2822 251.943 88.2053 252.353 88.2377C252.762 88.2702 253.156 88.4109 253.493 88.6455C254.358 89.1935 255.08 89.9397 255.6 90.8222C256.12 91.7048 256.423 92.6983 256.482 93.7209V97.7337C256.512 100.531 256.946 103.31 257.77 105.984L258.232 107.535C258.245 107.576 258.249 107.62 258.245 107.663C258.241 107.707 258.227 107.749 258.207 107.787C258.186 107.825 258.157 107.859 258.123 107.886C258.089 107.913 258.049 107.933 258.007 107.944C257.979 107.949 257.95 107.949 257.921 107.944Z" fill="white"/>
<path d="M254.219 100.98C254.144 100.979 254.072 100.953 254.013 100.907C253.954 100.86 253.913 100.795 253.895 100.723L253.592 99.3102C253.302 97.9522 253.156 96.5673 253.156 95.1786V91.4628C253.156 91.3753 253.191 91.2913 253.253 91.2295C253.315 91.1676 253.399 91.1328 253.486 91.1328C253.574 91.1328 253.658 91.1676 253.72 91.2295C253.781 91.2913 253.816 91.3753 253.816 91.4628V95.1786C253.82 96.5096 253.962 97.8367 254.239 99.1386L254.542 100.551C254.552 100.593 254.553 100.637 254.546 100.679C254.538 100.722 254.522 100.762 254.499 100.799C254.476 100.835 254.445 100.866 254.41 100.89C254.374 100.915 254.334 100.932 254.291 100.94L254.219 100.98Z" fill="white"/>
<path d="M244.042 93.8202C243.96 93.8192 243.881 93.7885 243.821 93.7338C243.76 93.6792 243.721 93.6043 243.712 93.5232L243.52 91.596C243.513 91.5088 243.54 91.422 243.595 91.3543C243.651 91.2865 243.73 91.243 243.817 91.233C243.861 91.2275 243.905 91.2309 243.947 91.2431C243.989 91.2552 244.029 91.2758 244.063 91.3036C244.096 91.3314 244.124 91.3658 244.145 91.4047C244.165 91.4436 244.177 91.4863 244.18 91.53L244.372 93.4572C244.376 93.5006 244.372 93.5444 244.36 93.5862C244.347 93.628 244.326 93.6669 244.299 93.7007C244.271 93.7344 244.237 93.7624 244.199 93.7829C244.16 93.8034 244.118 93.8161 244.075 93.8202H244.042Z" fill="white"/>
<path d="M272.31 139.617L239.97 121.302C239.63 121.052 239.219 120.918 238.798 120.918C238.377 120.918 237.966 121.052 237.627 121.302L234.828 123.229L236.736 125.585V159.661C236.736 162.044 238.188 164.809 239.97 165.845L271.498 183.665L271.643 186.2L274.587 184.187C274.926 183.869 275.188 183.478 275.353 183.043C275.518 182.608 275.581 182.141 275.537 181.679V145.775C275.55 143.412 274.098 140.646 272.31 139.617Z" fill="#96B562"/>
<path opacity="0.3" d="M272.31 139.617L239.97 121.302C239.63 121.052 239.219 120.918 238.798 120.918C238.377 120.918 237.966 121.052 237.627 121.302L234.828 123.229L236.736 125.585V159.661C236.736 162.044 238.188 164.809 239.97 165.845L271.498 183.665L271.643 186.2L274.587 184.187C274.926 183.869 275.188 183.478 275.353 183.043C275.518 182.608 275.581 182.141 275.537 181.679V145.775C275.55 143.412 274.098 140.646 272.31 139.617Z" fill="black"/>
<path d="M269.564 186.041L237.224 167.732C235.435 166.703 233.99 163.937 233.99 161.548V125.644C233.99 123.262 235.435 122.166 237.224 123.196L269.564 141.504C271.352 142.54 272.798 145.306 272.798 147.688V183.599C272.798 185.981 271.352 187.077 269.564 186.041Z" fill="#96B562"/>
<path d="M241.197 135.664C241.109 135.664 241.026 135.63 240.964 135.568C240.902 135.506 240.867 135.422 240.867 135.334V133.11C240.865 132.889 240.922 132.672 241.032 132.48C241.143 132.289 241.302 132.13 241.494 132.021C241.693 131.901 241.921 131.838 242.154 131.838C242.387 131.838 242.615 131.901 242.814 132.021L245.144 133.341C245.221 133.384 245.278 133.456 245.302 133.54C245.326 133.625 245.315 133.716 245.272 133.793C245.23 133.87 245.158 133.927 245.073 133.951C244.988 133.975 244.897 133.965 244.82 133.922L242.484 132.602C242.384 132.544 242.27 132.513 242.154 132.513C242.038 132.513 241.924 132.544 241.824 132.602C241.733 132.653 241.657 132.728 241.605 132.818C241.552 132.909 241.526 133.012 241.527 133.117V135.341C241.525 135.427 241.49 135.51 241.428 135.57C241.366 135.63 241.283 135.664 241.197 135.664Z" fill="white"/>
<path d="M244.946 166.268C244.891 166.268 244.836 166.254 244.788 166.229L242.61 164.994C242.089 164.695 241.657 164.263 241.357 163.742C241.056 163.222 240.899 162.632 240.9 162.031V159.978C240.9 159.891 240.935 159.807 240.997 159.745C241.059 159.683 241.143 159.648 241.23 159.648C241.318 159.648 241.402 159.683 241.463 159.745C241.525 159.807 241.56 159.891 241.56 159.978V162.031C241.562 162.518 241.693 162.996 241.94 163.416C242.187 163.835 242.541 164.182 242.966 164.42L245.144 165.654C245.206 165.691 245.254 165.747 245.281 165.814C245.308 165.881 245.313 165.954 245.294 166.024C245.276 166.093 245.235 166.155 245.178 166.199C245.121 166.243 245.051 166.268 244.979 166.268H244.946Z" fill="white"/>
<path d="M264.66 177.297C264.429 177.302 264.2 177.242 264 177.126L261.67 175.806C261.594 175.763 261.538 175.691 261.515 175.607C261.491 175.523 261.502 175.433 261.545 175.357C261.589 175.282 261.66 175.227 261.744 175.204C261.828 175.181 261.917 175.19 261.994 175.231L264.33 176.551C264.43 176.609 264.544 176.64 264.66 176.64C264.776 176.64 264.89 176.609 264.99 176.551C265.081 176.5 265.157 176.425 265.209 176.335C265.262 176.244 265.289 176.141 265.287 176.037V173.812C265.287 173.725 265.322 173.641 265.384 173.579C265.446 173.517 265.53 173.482 265.617 173.482C265.705 173.482 265.789 173.517 265.85 173.579C265.912 173.641 265.947 173.725 265.947 173.812V176.037C265.949 176.257 265.891 176.473 265.781 176.663C265.671 176.853 265.512 177.011 265.32 177.119C265.12 177.237 264.892 177.299 264.66 177.297Z" fill="white"/>
<path d="M265.604 149.491C265.516 149.491 265.432 149.456 265.371 149.394C265.309 149.332 265.274 149.249 265.274 149.161V147.108C265.272 146.622 265.141 146.145 264.894 145.727C264.647 145.308 264.293 144.962 263.868 144.726L261.69 143.492C261.614 143.447 261.558 143.375 261.534 143.29C261.511 143.204 261.522 143.113 261.565 143.036C261.586 142.998 261.614 142.965 261.649 142.939C261.683 142.912 261.722 142.893 261.764 142.882C261.806 142.871 261.849 142.868 261.892 142.874C261.935 142.88 261.976 142.895 262.013 142.917L264.191 144.152C264.717 144.447 265.155 144.876 265.461 145.395C265.768 145.914 265.93 146.506 265.934 147.108V149.161C265.934 149.249 265.899 149.332 265.837 149.394C265.775 149.456 265.691 149.491 265.604 149.491Z" fill="white"/>
<path d="M244.121 146.765C244.194 150.513 244.731 154.237 245.718 157.853C248.226 167.318 258.119 173.132 260.839 166.724C262.116 163.571 262.742 160.192 262.68 156.791C262.68 150.983 258.522 143.921 253.4 141.017C248.16 138.053 244.048 140.805 244.121 146.765Z" fill="white"/>
<path d="M253.07 152.051V158.268L250.371 156.248L253.07 152.051Z" fill="#E0E0E0"/>
<path d="M248.048 148.335C248.065 148.64 248.155 148.936 248.308 149.2C248.462 149.464 248.676 149.688 248.932 149.853C249.427 150.13 249.823 149.906 249.823 149.345C249.806 149.04 249.716 148.744 249.561 148.481C249.406 148.218 249.191 147.996 248.932 147.834C248.444 147.556 248.048 147.781 248.048 148.335Z" fill="#E0E0E0"/>
<path d="M256.311 153.074C256.33 153.378 256.42 153.674 256.575 153.937C256.73 154.199 256.945 154.422 257.202 154.586C257.697 154.863 258.093 154.638 258.093 154.084C258.076 153.778 257.986 153.481 257.831 153.217C257.676 152.953 257.46 152.73 257.202 152.566C256.74 152.289 256.311 152.513 256.311 153.074Z" fill="#E0E0E0"/>
<path d="M252.179 161.311L255.196 160.803C255.196 160.803 254.555 164.024 252.179 161.311Z" fill="#E0E0E0"/>
<path d="M225.317 142.376C225.349 142.897 225.503 143.403 225.768 143.853C226.033 144.303 226.401 144.683 226.842 144.963C227.687 145.445 228.367 145.056 228.367 144.105C228.336 143.583 228.182 143.075 227.917 142.624C227.652 142.174 227.284 141.792 226.842 141.511C226.004 141.03 225.317 141.419 225.317 142.376Z" fill="#455A64"/>
<path d="M225.377 143.095C225.32 143.095 225.263 143.081 225.212 143.056L217.398 138.601C212.824 136.013 209.101 129.684 209.101 124.503C209.101 119.527 205.531 113.461 201.142 110.973L196.245 108.201C196.168 108.158 196.113 108.087 196.089 108.002C196.066 107.918 196.076 107.828 196.119 107.752C196.14 107.714 196.168 107.68 196.202 107.653C196.236 107.626 196.275 107.606 196.317 107.594C196.359 107.582 196.403 107.579 196.446 107.585C196.489 107.59 196.53 107.605 196.568 107.627L201.465 110.399C206.039 112.993 209.761 119.315 209.761 124.503C209.761 129.473 213.332 135.538 217.721 138.026L225.542 142.462C225.618 142.505 225.674 142.576 225.697 142.66C225.721 142.744 225.71 142.834 225.667 142.91C225.639 142.964 225.598 143.009 225.547 143.042C225.496 143.074 225.437 143.093 225.377 143.095Z" fill="#455A64"/>
<path d="M194.245 106.617C194.27 107.04 194.395 107.45 194.61 107.815C194.824 108.18 195.122 108.489 195.479 108.716C196.139 109.099 196.713 108.789 196.713 108.017C196.688 107.594 196.563 107.184 196.348 106.819C196.134 106.454 195.836 106.145 195.479 105.918C194.799 105.535 194.245 105.845 194.245 106.617Z" fill="#455A64"/>
<path d="M203.531 167.112C203.531 167.112 208.342 166.788 211.068 173.474C212.764 177.632 214.83 184.034 216.15 188.324C216.551 189.62 216.56 191.005 216.177 192.305C215.795 193.606 215.037 194.765 213.998 195.637L205.61 202.679L202.62 197.221C204.363 194.895 206.281 192.704 208.355 190.667L202.62 173.474L203.531 167.112Z" fill="#FFA8A7"/>
<path d="M205.748 187.532C205.748 187.532 213.391 188.542 215.299 182.648C215.299 182.648 211.999 174.022 210.52 171.158C209.042 168.293 205.953 166.208 203.531 167.112C201.109 168.016 205.748 187.532 205.748 187.532Z" fill="#96B562"/>
<path opacity="0.4" d="M205.748 187.532C205.748 187.532 213.391 188.542 215.299 182.648C215.299 182.648 211.999 174.022 210.52 171.158C209.042 168.293 205.953 166.208 203.531 167.112C201.109 168.016 205.748 187.532 205.748 187.532Z" fill="white"/>
<path d="M200.64 264.924C200.64 264.924 197.01 261.815 195.598 261.67C194.185 261.525 191.743 263.941 193.809 268.132C194.383 269.3 196.72 270.56 198.178 272.798C199.637 275.035 200.944 276.718 203.181 276.408C205.418 276.098 205.709 274.844 205.564 273.385C205.374 272.051 205.108 270.729 204.765 269.425L200.64 264.924Z" fill="#37474F"/>
<path d="M203.28 275.741C200.976 276.058 199.623 274.322 198.119 272.019C196.614 269.715 194.211 268.408 193.617 267.207C193.38 266.726 193.185 266.225 193.037 265.709C193.147 266.554 193.401 267.373 193.789 268.131C194.363 269.299 196.7 270.56 198.158 272.797C199.617 275.035 200.924 276.718 203.161 276.408C204.877 276.177 205.445 275.378 205.55 274.362C205.26 275.048 204.633 275.563 203.28 275.741Z" fill="#263238"/>
<path d="M198.713 268.924C198.654 268.925 198.597 268.909 198.548 268.878C198.507 268.856 198.471 268.827 198.441 268.791C198.412 268.756 198.39 268.714 198.376 268.67C198.363 268.626 198.358 268.58 198.363 268.534C198.367 268.488 198.381 268.443 198.403 268.402C199.141 267.094 200.368 266.13 201.815 265.723C201.904 265.709 201.995 265.73 202.069 265.78C202.143 265.831 202.196 265.908 202.216 265.996C202.236 266.083 202.222 266.176 202.177 266.253C202.132 266.331 202.059 266.389 201.973 266.416C200.728 266.779 199.671 267.609 199.023 268.732C198.993 268.789 198.949 268.837 198.894 268.871C198.84 268.904 198.777 268.923 198.713 268.924Z" fill="#EBEBEB"/>
<path d="M197.34 267.669C197.283 267.669 197.226 267.655 197.175 267.63C197.134 267.608 197.098 267.579 197.068 267.543C197.039 267.508 197.017 267.467 197.003 267.422C196.99 267.378 196.985 267.332 196.99 267.286C196.994 267.24 197.008 267.195 197.03 267.155C197.395 266.505 197.885 265.934 198.472 265.474C199.059 265.014 199.73 264.675 200.449 264.475C200.496 264.45 200.548 264.437 200.602 264.436C200.655 264.434 200.708 264.445 200.757 264.468C200.805 264.49 200.848 264.523 200.881 264.565C200.915 264.606 200.939 264.655 200.951 264.707C200.963 264.759 200.963 264.813 200.951 264.865C200.938 264.917 200.914 264.966 200.881 265.007C200.847 265.048 200.804 265.081 200.755 265.104C200.707 265.126 200.654 265.136 200.6 265.135C199.355 265.503 198.299 266.334 197.65 267.458C197.625 267.52 197.582 267.572 197.526 267.61C197.471 267.647 197.407 267.668 197.34 267.669Z" fill="#EBEBEB"/>
<path d="M195.802 266.423C195.745 266.422 195.688 266.409 195.637 266.383C195.554 266.338 195.492 266.262 195.465 266.172C195.438 266.082 195.447 265.984 195.492 265.901C196.233 264.593 197.462 263.632 198.911 263.228C198.956 263.218 199.002 263.216 199.048 263.223C199.094 263.231 199.138 263.247 199.177 263.272C199.216 263.296 199.25 263.329 199.277 263.366C199.304 263.404 199.323 263.447 199.333 263.492C199.353 263.584 199.335 263.68 199.285 263.759C199.234 263.838 199.154 263.894 199.062 263.915C197.818 264.282 196.761 265.114 196.112 266.238C196.083 266.294 196.038 266.342 195.983 266.374C195.929 266.407 195.866 266.424 195.802 266.423Z" fill="#EBEBEB"/>
<path d="M181.322 275.122C181.322 275.122 176.457 273.545 175.005 273.98C173.553 274.416 172.134 277.808 175.896 281.102C176.939 282.013 179.764 282.303 182.127 283.913C184.49 285.524 186.47 286.639 188.555 285.418C190.641 284.197 190.469 282.778 190.093 281.273C189.624 279.333 189.242 277.921 189.242 277.921L181.322 275.122Z" fill="#37474F"/>
<path d="M188.397 284.712C186.252 285.973 184.199 284.818 181.797 283.155C179.394 281.491 176.451 281.175 175.375 280.257C174.94 279.879 174.54 279.461 174.18 279.01C174.636 279.803 175.226 280.51 175.923 281.102C176.966 282.013 179.79 282.303 182.153 283.914C184.516 285.524 186.496 286.639 188.582 285.418C190.172 284.488 190.41 283.438 190.1 282.415C190.08 283.214 189.631 283.986 188.397 284.712Z" fill="#263238"/>
<path d="M180.18 279.616H180.147C180.053 279.606 179.968 279.56 179.908 279.487C179.849 279.414 179.821 279.32 179.83 279.227C180.021 277.638 180.836 276.19 182.094 275.201C182.131 275.174 182.173 275.155 182.218 275.144C182.263 275.134 182.309 275.132 182.355 275.139C182.4 275.147 182.443 275.163 182.482 275.187C182.521 275.211 182.555 275.243 182.582 275.28C182.637 275.356 182.659 275.451 182.644 275.544C182.63 275.637 182.579 275.72 182.503 275.775C181.415 276.652 180.706 277.914 180.523 279.299C180.515 279.385 180.475 279.465 180.412 279.524C180.349 279.582 180.266 279.615 180.18 279.616Z" fill="#EBEBEB"/>
<path d="M182.16 280.269C182.068 280.259 181.983 280.213 181.924 280.142C181.865 280.07 181.836 279.979 181.843 279.886C182.037 278.296 182.851 276.847 184.107 275.853C184.184 275.799 184.279 275.778 184.372 275.794C184.465 275.81 184.548 275.862 184.602 275.939C184.629 275.977 184.647 276.019 184.657 276.064C184.667 276.109 184.669 276.156 184.661 276.201C184.653 276.247 184.636 276.29 184.611 276.329C184.586 276.368 184.554 276.401 184.516 276.428C183.426 277.303 182.716 278.566 182.536 279.952C182.528 280.044 182.484 280.128 182.413 280.188C182.343 280.247 182.252 280.276 182.16 280.269Z" fill="#EBEBEB"/>
<path d="M178.306 278.936H178.273C178.18 278.926 178.096 278.88 178.036 278.809C177.977 278.737 177.948 278.646 177.956 278.553C178.146 276.962 178.96 275.512 180.22 274.521C180.296 274.466 180.39 274.444 180.482 274.46C180.575 274.475 180.657 274.527 180.711 274.603C180.765 274.679 180.787 274.774 180.772 274.866C180.756 274.958 180.705 275.04 180.629 275.095C179.538 275.97 178.829 277.233 178.649 278.619C178.641 278.705 178.601 278.785 178.538 278.843C178.474 278.902 178.392 278.935 178.306 278.936Z" fill="#EBEBEB"/>
<path d="M204.996 265.848C205.431 261.03 206.375 253.48 206.771 249.949C207.305 245.486 207.176 240.969 206.388 236.544C206.186 235.501 206.135 234.434 206.237 233.376C207.194 223.78 207.814 208.223 207.286 204.805L193.815 207.656C193.815 207.656 195.465 229.482 196.191 236.742C196.917 244.002 199.623 265.914 199.623 265.914C200.428 266.429 201.365 266.697 202.319 266.685C203.274 266.673 204.205 266.382 204.996 265.848Z" fill="#455A64"/>
<path d="M203.056 270.804C203.428 270.717 203.775 270.548 204.072 270.308C204.369 270.068 204.608 269.764 204.772 269.418C204.772 268.659 204.857 267.392 204.996 265.848C204.205 266.382 203.274 266.673 202.32 266.684C201.365 266.696 200.428 266.428 199.624 265.914L200.099 269.966C200.495 270.323 200.967 270.583 201.48 270.729C201.992 270.874 202.531 270.9 203.056 270.804Z" fill="#FFA8A7"/>
<path d="M189.842 274.323C190.39 267.023 191.453 252.892 191.591 250.668C191.695 248.215 191.54 245.757 191.129 243.336C190.891 242.026 190.891 240.685 191.129 239.376L197.069 206.521L180.787 206.283L179.724 240.702C179.713 241.143 179.73 241.584 179.777 242.022L183.229 274.105C183.229 274.105 186.595 276.936 189.842 274.323Z" fill="#455A64"/>
<path d="M187.123 280.343C187.629 280.284 188.113 280.1 188.53 279.808C188.948 279.515 189.285 279.123 189.512 278.667L189.842 274.324C186.595 276.964 183.242 274.119 183.242 274.119L183.757 278.924C183.757 278.924 184.51 280.587 187.123 280.343Z" fill="#FFA8A7"/>
<path d="M188.311 169.304L184.47 170.624L180.338 190.166L180.543 207.491C180.543 207.491 183.493 209.848 195.017 209.848C201.485 209.848 205.702 207.406 207.286 204.812L206.25 194.344C206.25 194.344 207.286 184.028 207.286 178.927C207.286 173.825 207.517 169.647 203.531 167.119L199.98 167.416L188.311 169.304Z" fill="#96B562"/>
<path opacity="0.2" d="M188.311 169.304L184.47 170.624L180.338 190.166L180.543 207.491C180.543 207.491 183.493 209.848 195.017 209.848C201.485 209.848 205.702 207.406 207.286 204.812L206.25 194.344C206.25 194.344 207.286 184.028 207.286 178.927C207.286 173.825 207.517 169.647 203.531 167.119L199.98 167.416L188.311 169.304Z" fill="white"/>
<path d="M184.14 152.506L182.219 156.314C182.191 156.369 182.176 156.43 182.174 156.492C182.172 156.553 182.183 156.615 182.207 156.672C182.231 156.729 182.266 156.78 182.312 156.822C182.357 156.864 182.411 156.896 182.47 156.915L184.747 157.68L184.14 152.506Z" fill="#F28F8F"/>
<path d="M186.78 146.125C186.78 146.125 183.863 147.696 183.863 156.685C183.863 161.642 184.206 164.803 186.78 164.605C189.354 164.407 196.772 163.437 196.772 163.437V146.125H186.78Z" fill="#FFA8A7"/>
<path d="M186.78 164.637C187.684 164.564 189.189 164.399 190.74 164.214V163.297C189.324 163.901 187.845 164.344 186.331 164.617C186.48 164.634 186.63 164.641 186.78 164.637Z" fill="#F28F8F"/>
<path d="M190.344 162.915V168.571H198.086V160.625L190.344 162.915Z" fill="#FFA8A7"/>
<path d="M190.344 166.42C190.344 166.42 193.129 167.41 195.36 167.021C197.591 166.631 198.086 165.272 198.086 165.272C198.086 165.272 198.812 165.212 199.98 167.41C199.525 168.231 198.874 168.927 198.085 169.436C197.297 169.945 196.394 170.251 195.459 170.327C193.031 170.483 190.598 170.134 188.311 169.304C188.311 169.304 189.42 166.136 190.344 166.42Z" fill="#96B562"/>
<path opacity="0.4" d="M190.344 166.42C190.344 166.42 193.129 167.41 195.36 167.021C197.591 166.631 198.086 165.272 198.086 165.272C198.086 165.272 198.812 165.212 199.98 167.41C199.525 168.231 198.874 168.927 198.085 169.436C197.297 169.945 196.394 170.251 195.459 170.327C193.031 170.483 190.598 170.134 188.311 169.304C188.311 169.304 189.42 166.136 190.344 166.42Z" fill="white"/>
<path d="M173.072 183.21L170.993 186.405C170.993 186.405 165.944 184.154 162.413 182.788C160.357 182.024 158.443 180.922 156.75 179.527C156.876 178.152 157.097 176.787 157.41 175.442C157.819 174.056 157.958 172.901 156.75 173.515C155.542 174.129 154.704 176.511 154.631 176.815C154.631 176.815 147.536 169.68 146.652 169.839C145.768 169.997 145.992 171.066 147.88 173.264L149.787 175.468C149.787 175.468 145.438 177.97 146.144 180.702C146.85 183.435 152.585 184.662 152.585 184.662C152.585 184.662 169.369 197.559 173.085 195.222C176.801 192.886 182.061 186.213 182.061 186.213L173.072 183.21Z" fill="#FFA8A7"/>
<path d="M185.994 170.115C185.994 170.115 189.096 172.663 187.077 177.93C185.057 183.196 179.903 189.559 179.903 189.559C179.903 189.559 174.504 187.876 172.418 183.513L179.229 172.854C179.713 172.095 180.368 171.461 181.142 171.002C181.916 170.543 182.787 170.274 183.684 170.214C184.331 170.175 185.097 170.142 185.994 170.115Z" fill="#96B562"/>
<path opacity="0.4" d="M185.994 170.115C185.994 170.115 189.096 172.663 187.077 177.93C185.057 183.196 179.903 189.559 179.903 189.559C179.903 189.559 174.504 187.876 172.418 183.513L179.229 172.854C179.713 172.095 180.368 171.461 181.142 171.002C181.916 170.543 182.787 170.274 183.684 170.214C184.331 170.175 185.097 170.142 185.994 170.115Z" fill="white"/>
<path d="M185.691 140.818C185.691 140.818 182.628 140.409 181.85 142.514C181.361 143.834 182.919 144.851 182.919 144.851C182.919 144.851 180.939 146.705 183.889 147.279C183.838 147.596 183.867 147.92 183.972 148.223C184.077 148.526 184.255 148.798 184.491 149.015C184.727 149.233 185.014 149.388 185.324 149.467C185.635 149.547 185.96 149.548 186.272 149.471C186.272 149.471 185.928 151.451 188.509 152.17C188.509 152.17 187.189 155.642 189.657 155.688H191.948L191.024 158.367C191.024 158.367 192.74 162.499 198.086 162.499C198.672 161.244 199.333 160.025 200.066 158.849C200.726 158.024 204.026 153.794 204.026 150.441C204.026 147.088 202.739 145.101 200.95 144.659C200.384 143.427 199.5 142.368 198.389 141.59C196.587 140.376 192.799 139.293 190.661 140.785C190.661 140.785 188.766 138.297 187.453 138.297C186.14 138.297 185.691 139.65 185.691 140.818Z" fill="#263238"/>
<path d="M189.657 155.688C189.657 155.688 189.433 152.17 192.396 152.17C195.36 152.17 194.66 158.367 191.024 158.367L189.657 155.688Z" fill="#FFA8A7"/>
</svg>
