<svg width="353" height="354" viewBox="0 0 353 354" fill="none" xmlns="http://www.w3.org/2000/svg">
<path d="M53.2957 220.588C53.2957 220.588 54.2276 208.29 51.6931 196.5C49.1585 184.709 43.0022 175.63 35.4551 172.086C27.9079 168.542 18.8641 173.371 25.3804 181.441C31.8968 189.51 45.4097 203.899 45.332 224.93L53.2957 220.588Z" fill="#E0E0E0"/>
<path d="M49.4199 220.158H49.5117C49.6303 220.154 49.7427 220.104 49.8246 220.018C49.9065 219.932 49.9513 219.818 49.9494 219.699C49.2434 193.944 40.6585 181.046 30.7462 174.515C30.6478 174.451 30.528 174.428 30.4129 174.452C30.2978 174.476 30.1968 174.544 30.132 174.642C30.0989 174.69 30.0758 174.744 30.0639 174.801C30.052 174.858 30.0516 174.917 30.0628 174.974C30.074 175.032 30.0965 175.086 30.129 175.134C30.1615 175.183 30.2033 175.224 30.252 175.256C40.0301 181.73 48.3539 194.361 49.0528 219.734C49.0561 219.836 49.0944 219.934 49.1612 220.011C49.2281 220.088 49.3194 220.14 49.4199 220.158Z" fill="white"/>
<path d="M14.9392 197.474C15.0804 198.886 16.2312 199.987 17.3325 200.912C18.4339 201.837 19.627 202.825 19.9235 204.223C20.5307 207.047 17.1772 209.659 17.9044 212.455C18.0973 213.032 18.406 213.562 18.8115 214.015C19.217 214.468 19.7107 214.833 20.2624 215.089C21.1655 215.533 22.0917 215.929 23.037 216.275C23.5009 216.414 23.9723 216.527 24.449 216.613C25.8619 216.741 27.1939 217.329 28.2402 218.287C29.7793 219.96 29.5887 222.523 30.1323 224.754C30.7959 227.401 32.3703 228.99 35.978 230.218L48.333 223.215C51.4111 220.08 52.4984 214.743 49.6603 211.064C47.9588 208.876 44.7747 208.6 43.1651 206.405C41.7531 204.442 42.5579 201.604 41.6754 199.345C40.7929 197.086 38.4419 196.295 36.2251 195.907C34.0082 195.518 31.6502 196.436 29.4898 195.645C27.3295 194.855 25.3174 193.577 23.0723 193.019C21.9828 192.695 20.8337 192.625 19.7129 192.813C18.592 193.002 17.5291 193.444 16.6053 194.106C16.0696 194.485 15.6367 194.991 15.3458 195.579C15.0549 196.167 14.9151 196.818 14.9392 197.474Z" fill="#EBEBEB"/>
<path d="M37.9694 208.593C37.9469 208.544 37.913 208.5 37.8705 208.466C32.0672 200.234 22.9598 196.323 19.8887 195.638C19.8453 195.622 19.799 195.616 19.7529 195.619C19.7068 195.623 19.662 195.636 19.6214 195.658C19.5809 195.68 19.5455 195.711 19.5177 195.748C19.4898 195.784 19.4702 195.827 19.4601 195.872C19.4499 195.917 19.4495 195.964 19.4589 196.009C19.4683 196.054 19.4872 196.097 19.5144 196.134C19.5416 196.172 19.5765 196.203 19.6167 196.226C19.6569 196.248 19.7015 196.262 19.7475 196.267C22.6633 196.916 31.1141 200.503 36.8045 208.085C34.4854 207.303 32.0297 207.008 29.5914 207.219C27.1531 207.431 24.7848 208.144 22.635 209.313C22.5635 209.36 22.513 209.432 22.4945 209.516C22.476 209.599 22.491 209.686 22.5362 209.758C22.5658 209.801 22.6046 209.837 22.6499 209.862C22.6951 209.888 22.7455 209.903 22.7974 209.907C22.8632 209.909 22.9277 209.889 22.981 209.85C25.1842 208.659 27.6213 207.964 30.1214 207.814C32.6215 207.664 35.1241 208.062 37.454 208.982C40.8447 213.836 42.5441 219.671 42.2901 225.587C42.286 225.668 42.3129 225.747 42.3654 225.809C42.4179 225.87 42.492 225.91 42.5725 225.919C42.6574 225.921 42.7398 225.889 42.8018 225.831C42.8638 225.773 42.9006 225.693 42.9043 225.608C43.1744 219.548 41.44 213.568 37.9694 208.593Z" fill="white"/>
<path d="M306.82 228.87C306.7 219.692 306.87 211.22 311.529 198.187C315.434 187.237 325.473 176.195 332.251 176.661C338.569 177.099 339.967 184.858 334.284 191.762C328.601 198.667 316.224 211.876 315.462 221.414L313.04 232.237L306.82 228.87Z" fill="#E0E0E0"/>
<path d="M309.624 226.554C309.709 226.532 309.785 226.483 309.841 226.414C309.897 226.346 309.93 226.261 309.934 226.173C310.923 204.823 322.847 187.032 332.795 181.561C332.888 181.508 332.957 181.421 332.986 181.317C333.015 181.214 333.002 181.103 332.95 181.01C332.897 180.916 332.81 180.847 332.707 180.818C332.603 180.789 332.493 180.802 332.399 180.855C322.289 186.411 310.125 204.491 309.101 226.137C309.098 226.19 309.106 226.243 309.124 226.293C309.141 226.343 309.168 226.389 309.204 226.428C309.239 226.468 309.282 226.5 309.33 226.522C309.378 226.545 309.43 226.558 309.482 226.561L309.624 226.554Z" fill="white"/>
<path d="M315.37 233.529C315.758 230.31 318.71 224.627 324.118 219.452C330.104 213.733 338.28 210.238 339.65 206.306C341.316 201.59 337.143 199.069 330.246 200.545C321.95 202.317 312.758 211.806 311.184 231.192L315.37 233.529Z" fill="#EBEBEB"/>
<path d="M313.513 230.515C313.589 230.497 313.658 230.457 313.712 230.401C313.766 230.344 313.803 230.274 313.817 230.197C316.987 213.253 328.311 205.678 333.86 204.033C333.962 204.002 334.048 203.931 334.098 203.837C334.148 203.743 334.159 203.633 334.129 203.531C334.115 203.48 334.091 203.431 334.058 203.389C334.025 203.347 333.984 203.312 333.937 203.286C333.89 203.261 333.838 203.245 333.785 203.239C333.732 203.234 333.678 203.24 333.627 203.256C327.499 205.07 316.26 212.752 313.019 230.042C313.009 230.094 313.009 230.148 313.02 230.2C313.031 230.253 313.052 230.302 313.082 230.346C313.113 230.39 313.151 230.428 313.196 230.457C313.241 230.486 313.291 230.505 313.344 230.515C313.399 230.529 313.458 230.529 313.513 230.515Z" fill="white"/>
<path d="M66.1589 322.987C6.14887 288.343 6.14887 232.167 66.1589 197.516C126.169 162.866 223.47 162.873 283.48 197.516C343.49 232.16 343.49 288.343 283.48 322.987C223.47 357.63 126.169 357.637 66.1589 322.987Z" fill="#FAFAFA"/>
<path d="M184.265 297.43L200.694 287.941C200.8 287.905 200.893 287.837 200.958 287.745C201.024 287.654 201.059 287.545 201.059 287.433C201.059 287.32 201.024 287.211 200.958 287.12C200.893 287.029 200.8 286.96 200.694 286.924L196.67 284.602C196.397 284.462 196.094 284.389 195.787 284.389C195.481 284.389 195.178 284.462 194.905 284.602L178.476 294.09C178.37 294.126 178.277 294.194 178.212 294.286C178.147 294.377 178.111 294.486 178.111 294.599C178.111 294.711 178.147 294.82 178.212 294.911C178.277 295.003 178.37 295.071 178.476 295.107L180.488 296.265L159.859 308.175C159.372 308.457 159.577 308.549 159.803 308.683C160.028 308.817 160.198 308.93 160.685 308.683L181.307 296.78L182.493 297.486C182.772 297.618 183.078 297.682 183.386 297.672C183.694 297.662 183.996 297.579 184.265 297.43Z" fill="#E0E0E0"/>
<path d="M178.06 279.222C176.777 279.248 175.51 278.942 174.382 278.332L174.05 278.121L173.443 277.69L178.618 276.934L179.083 275.96L177.671 275.141L172.729 275.847L172.892 275.381C173.188 274.676 173.726 274.1 174.41 273.757C175.522 273.167 176.766 272.871 178.024 272.896C178.581 272.894 179.137 272.946 179.684 273.051L196.543 263.323C196.339 262.899 196.289 262.417 196.402 261.96C196.527 261.568 196.73 261.206 196.999 260.895C197.269 260.584 197.599 260.332 197.969 260.153C199.084 259.565 200.33 259.269 201.591 259.291C202.874 259.264 204.142 259.573 205.269 260.188C205.383 260.253 205.494 260.324 205.601 260.4L206.208 260.824L201.033 261.579L200.567 262.56L201.979 263.379L206.921 262.673L206.759 263.132C206.463 263.839 205.925 264.417 205.241 264.763C204.128 265.35 202.884 265.646 201.626 265.624C201.069 265.624 200.513 265.57 199.967 265.462L183.108 275.198C183.311 275.619 183.361 276.099 183.249 276.553C183.125 276.945 182.922 277.308 182.652 277.619C182.383 277.93 182.052 278.182 181.682 278.361C180.567 278.951 179.321 279.248 178.06 279.222Z" fill="#E0E0E0"/>
<path d="M107.015 315.955C136.762 315.955 160.876 302.031 160.876 284.856C160.876 267.68 136.762 253.756 107.015 253.756C77.2686 253.756 53.1543 267.68 53.1543 284.856C53.1543 302.031 77.2686 315.955 107.015 315.955Z" fill="#E0E0E0"/>
<path d="M195.159 286.642L266.635 245.376L306.566 268.427L235.091 309.693L195.159 286.642Z" fill="#E0E0E0"/>
<path d="M176.718 262.596L148.838 246.499C147.829 245.92 147.829 244.967 148.838 244.381L193.923 218.358C194.492 218.069 195.121 217.918 195.759 217.918C196.397 217.918 197.026 218.069 197.595 218.358L225.475 234.447C226.484 235.033 226.484 235.986 225.475 236.565L180.389 262.596C179.821 262.884 179.192 263.035 178.554 263.035C177.916 263.035 177.287 262.884 176.718 262.596Z" fill="#E0E0E0"/>
<path d="M178.555 259.912V236.734L149.877 220.172L152.743 245.009L178.555 259.912Z" fill="#263238"/>
<path d="M178.555 259.912L221.571 235.075L224.438 210.238L178.555 236.734V259.912Z" fill="#37474F"/>
<path d="M148.084 215.208C148.105 214.981 148.186 214.763 148.319 214.577C148.451 214.391 148.631 214.243 148.839 214.149L193.925 188.119C194.493 187.83 195.122 187.68 195.76 187.68C196.398 187.68 197.027 187.83 197.596 188.119L225.476 204.216C225.684 204.309 225.865 204.457 225.997 204.643C226.13 204.829 226.211 205.047 226.231 205.275V211.897C226.212 212.126 226.132 212.346 225.999 212.534C225.866 212.721 225.685 212.869 225.476 212.963L180.391 238.987C179.822 239.276 179.193 239.426 178.555 239.426C177.917 239.426 177.288 239.276 176.719 238.987L148.839 222.89C148.632 222.795 148.452 222.648 148.32 222.462C148.187 222.276 148.106 222.058 148.084 221.831V215.208Z" fill="url(#paint0_linear_691_6834)"/>
<path opacity="0.2" d="M148.839 214.149L178.555 196.994V239.431C177.915 239.443 177.283 239.29 176.719 238.987L148.839 222.89C148.632 222.795 148.452 222.648 148.32 222.462C148.187 222.276 148.106 222.058 148.084 221.831V215.201C148.106 214.975 148.188 214.759 148.32 214.574C148.453 214.389 148.632 214.243 148.839 214.149Z" fill="black"/>
<path opacity="0.1" d="M178.555 196.994L193.924 188.119C194.493 187.83 195.122 187.68 195.76 187.68C196.398 187.68 197.027 187.83 197.596 188.119L225.475 204.216C225.684 204.309 225.864 204.457 225.997 204.643C226.13 204.829 226.211 205.047 226.231 205.275V211.897C226.212 212.126 226.132 212.346 225.999 212.534C225.866 212.721 225.685 212.869 225.475 212.963L180.39 238.987C179.827 239.29 179.195 239.443 178.555 239.431V196.994Z" fill="black"/>
<path d="M176.719 232.364L148.839 216.267C147.83 215.681 147.83 214.735 148.839 214.149L193.924 188.119C194.493 187.83 195.122 187.68 195.76 187.68C196.398 187.68 197.027 187.83 197.596 188.119L225.476 204.216C226.485 204.802 226.485 205.748 225.476 206.334L180.39 232.364C179.822 232.653 179.193 232.804 178.555 232.804C177.917 232.804 177.288 232.653 176.719 232.364Z" fill="url(#paint1_linear_691_6834)"/>
<path opacity="0.2" d="M217.272 206.101C218.062 206.56 218.02 207.322 217.173 207.81L185.819 225.918C185.364 226.159 184.858 226.289 184.343 226.298C183.827 226.307 183.317 226.193 182.854 225.968C182.063 225.516 182.106 224.747 182.953 224.259L214.306 206.158C214.761 205.916 215.267 205.784 215.782 205.775C216.297 205.765 216.808 205.877 217.272 206.101Z" fill="black"/>
<path opacity="0.2" d="M185.82 225.919C185.364 226.159 184.858 226.289 184.343 226.298C183.828 226.307 183.318 226.194 182.855 225.968L182.699 225.862C182.779 225.796 182.864 225.737 182.953 225.686L214.307 207.584C214.762 207.342 215.267 207.211 215.783 207.201C216.298 207.191 216.808 207.303 217.272 207.527L217.427 207.64C217.348 207.704 217.263 207.761 217.173 207.81L185.82 225.919Z" fill="black"/>
<path opacity="0.2" d="M194.327 192.857C195.125 193.308 195.082 194.078 194.235 194.565L162.874 212.667C162.421 212.909 161.916 213.04 161.402 213.05C160.888 213.06 160.379 212.948 159.916 212.723C159.126 212.264 159.168 211.502 160.008 211.015L191.369 192.906C191.823 192.665 192.328 192.535 192.842 192.527C193.356 192.518 193.865 192.631 194.327 192.857Z" fill="black"/>
<path opacity="0.2" d="M162.874 212.667C162.42 212.909 161.916 213.04 161.402 213.05C160.888 213.06 160.379 212.948 159.916 212.724C159.86 212.692 159.808 212.654 159.761 212.611C159.839 212.548 159.922 212.492 160.008 212.441L191.368 194.339C191.822 194.096 192.326 193.964 192.841 193.954C193.355 193.944 193.864 194.057 194.327 194.283C194.38 194.315 194.432 194.35 194.482 194.389C194.405 194.455 194.322 194.514 194.235 194.565L162.874 212.667Z" fill="black"/>
<path opacity="0.2" d="M165.642 214.418C164.851 214.877 164.894 215.639 165.741 216.126L177.037 222.636C177.491 222.877 177.995 223.009 178.509 223.018C179.023 223.028 179.532 222.916 179.995 222.692C180.786 222.233 180.743 221.471 179.903 220.984L168.607 214.474C168.152 214.232 167.647 214.101 167.131 214.091C166.616 214.081 166.106 214.193 165.642 214.418Z" fill="black"/>
<path opacity="0.2" d="M177.029 222.6C177.483 222.842 177.988 222.973 178.502 222.983C179.016 222.993 179.525 222.881 179.988 222.657C180.042 222.625 180.093 222.589 180.143 222.551C180.066 222.485 179.983 222.426 179.896 222.374L168.6 215.865C168.145 215.623 167.639 215.492 167.124 215.482C166.609 215.472 166.098 215.584 165.635 215.809C165.582 215.842 165.533 215.88 165.486 215.922C165.562 215.987 165.645 216.043 165.733 216.091L177.029 222.6Z" fill="black"/>
<path opacity="0.2" d="M159.916 217.694C159.126 218.146 159.168 218.915 160.008 219.402L171.304 225.912C171.759 226.154 172.265 226.285 172.78 226.295C173.295 226.304 173.805 226.193 174.269 225.968C175.06 225.509 175.018 224.74 174.17 224.252L162.874 217.743C162.42 217.502 161.915 217.372 161.401 217.364C160.887 217.355 160.378 217.468 159.916 217.694Z" fill="black"/>
<path opacity="0.2" d="M171.297 225.911C171.752 226.153 172.258 226.285 172.773 226.294C173.288 226.304 173.798 226.192 174.262 225.968C174.319 225.933 174.361 225.89 174.41 225.855C174.334 225.789 174.251 225.73 174.163 225.678L162.867 219.169C162.413 218.928 161.908 218.798 161.394 218.79C160.88 218.781 160.371 218.894 159.909 219.12C159.854 219.149 159.802 219.185 159.754 219.226C159.831 219.292 159.914 219.351 160.001 219.402L171.297 225.911Z" fill="black"/>
<path opacity="0.2" d="M200.059 194.516C199.269 194.974 199.304 195.737 200.151 196.224L211.447 202.733C211.901 202.975 212.405 203.106 212.92 203.116C213.434 203.126 213.943 203.014 214.405 202.79C215.203 202.331 215.161 201.568 214.314 201.081L203.018 194.572C202.564 194.33 202.059 194.199 201.545 194.189C201.031 194.179 200.522 194.291 200.059 194.516Z" fill="black"/>
<path opacity="0.2" d="M211.441 202.734C211.896 202.976 212.401 203.107 212.916 203.117C213.432 203.126 213.942 203.014 214.406 202.79C214.458 202.756 214.508 202.719 214.554 202.677C214.477 202.613 214.394 202.557 214.307 202.508L203.011 195.998C202.557 195.756 202.053 195.625 201.539 195.615C201.025 195.606 200.515 195.717 200.053 195.942C199.999 195.974 199.947 196.009 199.897 196.048C199.974 196.114 200.057 196.173 200.145 196.224L211.441 202.734Z" fill="black"/>
<path opacity="0.2" d="M194.326 197.82C193.536 198.278 193.578 199.048 194.418 199.535L205.714 206.044C206.17 206.284 206.675 206.414 207.19 206.424C207.705 206.434 208.215 206.323 208.679 206.101C209.47 205.642 209.428 204.872 208.581 204.385L197.285 197.876C196.83 197.637 196.326 197.508 195.812 197.498C195.299 197.488 194.79 197.598 194.326 197.82Z" fill="black"/>
<path opacity="0.2" d="M205.707 206.045C206.163 206.284 206.668 206.414 207.183 206.424C207.698 206.434 208.208 206.323 208.673 206.101L208.828 205.988C208.748 205.922 208.663 205.863 208.574 205.812L197.278 199.302C196.822 199.063 196.317 198.933 195.802 198.923C195.287 198.913 194.777 199.024 194.313 199.246L194.157 199.359C194.235 199.423 194.318 199.482 194.404 199.535L205.707 206.045Z" fill="black"/>
<path d="M175.688 208.805V215.208L178.555 216.868L181.421 215.208V210.351C181.45 209.821 181.603 209.306 181.868 208.846C182.133 208.386 182.502 207.995 182.946 207.704L190.006 203.616L191.348 202.846C192.188 202.359 192.873 202.755 192.873 203.729V208.586L195.739 206.927V200.524C195.746 200.397 195.746 200.269 195.739 200.142C195.733 200.045 195.719 199.948 195.697 199.853C195.677 199.743 195.648 199.634 195.612 199.528C195.583 199.444 195.55 199.362 195.513 199.281C195.474 199.2 195.429 199.122 195.379 199.048C195.333 198.976 195.281 198.907 195.223 198.843C195.17 198.782 195.111 198.725 195.047 198.674C194.985 198.625 194.919 198.583 194.849 198.547L194.758 198.497L191.997 196.902C191.652 196.74 191.27 196.675 190.891 196.712C190.512 196.749 190.151 196.888 189.844 197.114L178.753 203.517C177.861 204.095 177.119 204.875 176.587 205.794C176.054 206.713 175.747 207.745 175.688 208.805Z" fill="#455A64"/>
<path d="M190.021 203.616V206.92L192.887 208.579V203.722C192.887 202.748 192.181 202.352 191.362 202.839L190.021 203.616Z" fill="#263238"/>
<path d="M178.555 210.457V216.868L181.421 215.208V210.351C181.45 209.821 181.603 209.306 181.868 208.846C182.133 208.386 182.502 207.995 182.946 207.704L190.006 203.623L191.347 202.854C192.188 202.366 192.872 202.762 192.872 203.736V208.593L195.739 206.941V200.531C195.746 200.404 195.746 200.277 195.739 200.15C195.733 200.052 195.718 199.955 195.696 199.86C195.677 199.75 195.648 199.641 195.612 199.535C195.583 199.451 195.55 199.369 195.513 199.288C195.474 199.207 195.429 199.129 195.379 199.055C195.333 198.983 195.281 198.914 195.223 198.85C195.17 198.789 195.111 198.732 195.047 198.681C194.985 198.632 194.919 198.59 194.849 198.554L194.757 198.505C194.42 198.379 194.057 198.337 193.7 198.384C193.343 198.431 193.003 198.564 192.71 198.773L181.619 205.176C180.73 205.755 179.99 206.534 179.458 207.452C178.925 208.369 178.616 209.398 178.555 210.457Z" fill="#37474F"/>
<path d="M192.893 238.386L191.834 237.779L188.961 239.431L190.027 240.046L192.893 238.386Z" fill="#455A64"/>
<path d="M190.027 240.045L188.968 253.904L188.961 239.431L190.027 240.045Z" fill="#263238"/>
<path d="M192.894 238.387L191.835 252.245L192.181 252.083L192.894 238.387Z" fill="#37474F"/>
<path d="M168.89 241.091L169.949 240.476L172.815 242.128L171.756 242.743L168.89 241.091Z" fill="#455A64"/>
<path d="M168.89 241.09L169.949 254.942L169.603 254.78L168.89 241.09Z" fill="black"/>
<path d="M157.417 234.461L158.483 233.854L161.349 235.506L160.283 236.12L157.417 234.461Z" fill="#455A64"/>
<path d="M172.815 256.601L171.756 242.742L172.815 242.128V256.601Z" fill="#37474F"/>
<path d="M161.349 235.506V249.979L160.283 236.12L161.349 235.506Z" fill="#37474F"/>
<path d="M157.417 234.461L158.476 248.32L158.13 248.158L157.417 234.461Z" fill="black"/>
<path d="M212.965 226.801L211.906 226.187L209.04 227.839L210.099 228.453L212.965 226.801Z" fill="#455A64"/>
<path d="M210.099 228.453L209.04 242.312V227.839L210.099 228.453Z" fill="#263238"/>
<path d="M212.965 226.801L211.906 240.66L212.259 240.49L212.965 226.801Z" fill="#37474F"/>
<path d="M187.422 236.035L187.429 232.724L193.162 229.413L194.122 229.964L194.115 233.275L188.375 236.586L187.422 236.035Z" fill="#37474F"/>
<path d="M194.122 229.964L194.115 233.275L188.375 236.586L188.389 233.275L194.122 229.964Z" fill="#455A64"/>
<path d="M188.389 233.275L187.429 232.724L187.422 236.036L188.375 236.586L188.389 233.275Z" fill="#263238"/>
<path d="M207.649 224.365L207.664 221.054L213.396 217.743L214.356 218.294L214.342 221.605L208.61 224.916L207.649 224.365Z" fill="#37474F"/>
<path d="M214.356 218.294L214.342 221.605L208.609 224.916L208.616 221.605L214.356 218.294Z" fill="#455A64"/>
<path d="M208.617 221.605L207.664 221.054L207.649 224.365L208.61 224.916L208.617 221.605Z" fill="#263238"/>
<path d="M174.657 273.553C174.269 273.772 173.542 273.764 173.309 274.026V274.979L177.742 274.336L179.416 275.318L178.78 276.652L174.304 276.348V277.302C174.399 277.373 174.498 277.439 174.601 277.499C175.66 278.035 176.83 278.315 178.018 278.315C179.205 278.315 180.375 278.035 181.435 277.499C181.825 277.324 182.162 277.048 182.41 276.699C182.658 276.35 182.809 275.942 182.847 275.515V274.562L182.585 274.605C182.583 274.588 182.583 274.572 182.585 274.555L199.36 264.869C201.065 265.247 202.849 265.023 204.408 264.233C205.011 263.938 205.489 263.438 205.756 262.821V261.861L201.323 263.464L199.649 262.483L200.285 261.148L204.761 260.499V259.539C204.761 259.539 199.529 259.193 197.623 260.245C197.14 260.498 196.733 260.876 196.444 261.339L196.19 261.247V262.193C196.187 262.546 196.288 262.892 196.48 263.189L179.705 272.875C177.995 272.51 176.211 272.749 174.657 273.553Z" fill="#37474F"/>
<path d="M199.36 264.897V263.944L182.585 273.63V274.583L199.36 264.897Z" fill="#37474F"/>
<path d="M196.48 262.278L179.705 271.964C178 271.587 176.217 271.809 174.657 272.593C174.054 272.888 173.576 273.389 173.309 274.005L177.742 273.362L179.416 274.343L178.78 275.671L174.304 276.327C174.399 276.399 174.498 276.465 174.601 276.525C175.66 277.061 176.83 277.34 178.018 277.34C179.205 277.34 180.375 277.061 181.435 276.525C182.847 275.734 183.214 274.576 182.585 273.581L199.36 263.895C201.066 264.269 202.848 264.045 204.408 263.259C205.011 262.964 205.489 262.463 205.756 261.847L201.323 262.497L199.649 261.515L200.285 260.181L204.761 259.524L204.464 259.334C203.405 258.798 202.235 258.519 201.047 258.519C199.86 258.519 198.69 258.798 197.63 259.334C196.268 260.125 195.851 261.282 196.48 262.278Z" fill="#455A64"/>
<path d="M200.002 261.748L199.649 261.544L200.285 260.209L204.761 259.553V260.513L200.285 261.162L200.002 261.748Z" fill="#263238"/>
<path d="M179.063 275.106L179.416 274.365L177.742 273.376L173.309 274.026V274.986L177.742 274.336L179.063 275.106Z" fill="#263238"/>
<path d="M184.922 287.644L188.452 293.716L200.284 286.889C200.558 286.719 200.778 286.475 200.918 286.185C201.058 285.895 201.113 285.571 201.075 285.251C201.029 284.389 200.78 283.551 200.348 282.804C199.916 282.056 199.314 281.422 198.59 280.952C198.34 280.769 198.046 280.657 197.738 280.628C197.43 280.598 197.119 280.651 196.839 280.782L184.922 287.644Z" fill="url(#paint2_linear_691_6834)"/>
<path d="M184.216 288.901C184.166 289.826 182.86 290.024 182.86 290.024L185.338 294.323C185.338 294.323 186.164 293.307 186.99 293.709C188.212 294.238 189.165 293.582 189.165 292.12C189.118 291.26 188.868 290.423 188.436 289.677C188.004 288.931 187.402 288.298 186.68 287.828C185.409 287.087 184.364 287.581 184.216 288.901Z" fill="url(#paint3_linear_691_6834)"/>
<path opacity="0.05" d="M184.216 288.901C184.166 289.826 182.86 290.024 182.86 290.024L185.338 294.323C185.338 294.323 186.164 293.307 186.99 293.709C188.212 294.238 189.165 293.582 189.165 292.12C189.118 291.26 188.868 290.423 188.436 289.677C188.004 288.931 187.402 288.298 186.68 287.828C185.409 287.087 184.364 287.581 184.216 288.901Z" fill="black"/>
<path opacity="0.05" d="M183.447 289.84C183.257 289.926 183.058 289.987 182.854 290.024L185.332 294.323C185.468 294.168 185.622 294.028 185.79 293.907C185.72 293.099 185.473 292.317 185.068 291.614C184.664 290.912 184.11 290.306 183.447 289.84Z" fill="black"/>
<path d="M180.27 290.327L180.474 290.687C180.404 290.938 180.368 291.197 180.368 291.457C180.416 292.318 180.666 293.157 181.097 293.904C181.529 294.65 182.131 295.285 182.853 295.756C183.073 295.888 183.311 295.986 183.559 296.046L183.764 296.406L184.59 295.933C184.84 295.751 185.037 295.506 185.161 295.223C185.285 294.941 185.332 294.63 185.296 294.323C185.25 293.462 185.002 292.624 184.571 291.877C184.141 291.13 183.54 290.495 182.818 290.024C182.567 289.841 182.271 289.73 181.962 289.7C181.653 289.67 181.342 289.723 181.06 289.854L180.27 290.327Z" fill="url(#paint4_linear_691_6834)"/>
<path d="M184.506 294.803C184.46 293.942 184.212 293.105 183.781 292.357C183.351 291.61 182.75 290.975 182.028 290.504C180.658 289.713 179.543 290.356 179.543 291.916C179.592 292.777 179.842 293.615 180.273 294.362C180.705 295.109 181.306 295.744 182.028 296.215C183.398 297.02 184.506 296.385 184.506 294.803Z" fill="url(#paint5_linear_691_6834)"/>
<path opacity="0.15" d="M184.506 294.803C184.46 293.942 184.212 293.105 183.781 292.357C183.351 291.61 182.75 290.975 182.028 290.504C180.658 289.713 179.543 290.356 179.543 291.916C179.592 292.777 179.842 293.615 180.273 294.362C180.705 295.109 181.306 295.744 182.028 296.215C183.398 297.02 184.506 296.385 184.506 294.803Z" fill="black"/>
<path opacity="0.15" d="M181.061 295.446C181.244 295.652 181.45 295.836 181.675 295.997L182.254 294.344L181.548 293.829L181.061 295.446Z" fill="black"/>
<path opacity="0.2" d="M199.029 283.55C199.112 283.708 199.133 283.893 199.086 284.066C199.039 284.239 198.927 284.388 198.774 284.482L190.302 289.36C190.144 289.447 189.958 289.469 189.784 289.424C189.609 289.378 189.459 289.266 189.363 289.113C189.279 288.954 189.259 288.77 189.306 288.597C189.353 288.424 189.465 288.275 189.618 288.181L198.09 283.303C198.248 283.216 198.434 283.193 198.608 283.239C198.783 283.285 198.933 283.396 199.029 283.55Z" fill="black"/>
<path opacity="0.2" d="M197.503 281.735C197.568 281.768 197.623 281.819 197.661 281.881C197.7 281.943 197.72 282.015 197.72 282.088C197.72 282.162 197.7 282.233 197.661 282.296C197.623 282.358 197.568 282.408 197.503 282.441L188.89 287.383C188.73 287.46 188.552 287.491 188.375 287.471C188.199 287.451 188.032 287.381 187.894 287.27C187.829 287.237 187.774 287.187 187.735 287.125C187.697 287.062 187.677 286.991 187.677 286.917C187.677 286.844 187.697 286.772 187.735 286.71C187.774 286.648 187.829 286.597 187.894 286.564L196.5 281.622C196.661 281.544 196.84 281.513 197.018 281.533C197.196 281.553 197.364 281.623 197.503 281.735Z" fill="black"/>
<path opacity="0.2" d="M199.84 285.781C199.838 285.709 199.817 285.64 199.779 285.58C199.741 285.519 199.688 285.47 199.624 285.437C199.561 285.404 199.49 285.388 199.419 285.392C199.348 285.395 199.279 285.417 199.219 285.456L190.606 290.398C190.459 290.498 190.344 290.637 190.273 290.799C190.202 290.961 190.178 291.14 190.203 291.316C190.206 291.387 190.227 291.456 190.265 291.517C190.303 291.577 190.356 291.627 190.419 291.66C190.482 291.693 190.553 291.708 190.624 291.705C190.696 291.702 190.765 291.679 190.825 291.641L199.438 286.699C199.583 286.598 199.698 286.459 199.769 286.297C199.84 286.135 199.865 285.956 199.84 285.781Z" fill="black"/>
<path d="M160.262 304.821V306.473L164.399 305.132C164.807 304.36 165.369 303.68 166.051 303.134L181.766 294.062L182.247 292.685L181.766 292.41L166.051 301.482C165.792 301.613 165.503 301.674 165.213 301.658C164.923 301.642 164.642 301.549 164.399 301.39L160.262 304.821Z" fill="#455A64"/>
<path d="M160.749 305.104V306.756L164.886 305.415C165.293 304.641 165.855 303.961 166.538 303.417L182.254 294.344V292.685L166.538 301.757C166.28 301.89 165.991 301.953 165.701 301.938C165.411 301.923 165.13 301.831 164.886 301.673L160.749 305.104Z" fill="#37474F"/>
<path d="M160.749 306.756L160.269 306.474V304.822L160.749 305.104V306.756Z" fill="#263238"/>
<path d="M160.269 304.822L160.749 305.104L164.886 301.673L164.406 301.39L160.269 304.822Z" fill="#455A64"/>
<path d="M219.164 92.2375H182.777C182.636 92.2375 182.501 92.1817 182.402 92.0824C182.303 91.9831 182.247 91.8484 182.247 91.708C182.247 91.5675 182.303 91.4329 182.402 91.3336C182.501 91.2343 182.636 91.1785 182.777 91.1785H219.164C219.304 91.1785 219.439 91.2343 219.538 91.3336C219.638 91.4329 219.693 91.5675 219.693 91.708C219.693 91.8484 219.638 91.9831 219.538 92.0824C219.439 92.1817 219.304 92.2375 219.164 92.2375Z" fill="#37474F"/>
<path d="M135.553 115.769C132.058 109.097 126.417 94.6803 126.417 94.6803L126.537 75.3289C126.396 75.3289 129.149 76.1619 129.989 76.3596C135.44 78.3717 136.943 79.3319 139.28 84.1256C141.137 87.9451 147.392 105.362 149.616 111.257L162.924 101.79C166.278 98.9657 167.061 94.9415 169.109 92.4352C171.156 89.9289 173.479 89.2371 175.795 87.112C178.11 84.9869 178.986 83.4055 179.875 85.107C180.765 86.8084 178.237 89.936 177.8 90.6914C177.496 91.228 176.727 91.6233 176.55 92.2234C176.261 93.2542 177.793 93.0918 178.449 92.9294C181.697 92.2234 184.648 89.4842 186.653 86.9779C187.437 85.9965 190.296 82.1841 191.023 85.2623C191.616 87.7686 189.555 89.3712 189.406 91.6798C189.334 92.9588 188.998 94.2089 188.418 95.351C187.931 96.3959 188.157 97.6102 187.811 98.7045C186.745 102.107 184.041 103.272 180.899 104.353C177.757 105.433 174.361 106.174 171.756 108.179C168.593 110.622 160.947 118.854 156.295 123.803C150.386 130.093 146.489 131.569 143.029 127.862C139.57 124.156 136.873 118.24 135.553 115.769Z" fill="#FFA8A7"/>
<path d="M191.044 85.2975C190.338 82.2193 187.457 86.0035 186.674 87.013C184.669 89.5193 181.732 92.2586 178.47 92.9646C177.813 93.1058 176.281 93.2682 176.571 92.2586C176.747 91.6585 177.517 91.2632 177.82 90.7266C178.258 89.9712 180.786 86.8365 179.896 85.1421C179.006 83.4477 178.138 85.0151 175.815 87.1472C173.493 89.2793 171.177 89.9712 169.129 92.4704C167.082 94.9697 166.305 99.008 162.945 101.825L162.034 102.474C162.585 106.195 164.858 109.838 168.155 111.511C169.61 110.099 170.88 108.92 171.777 108.221C174.382 106.216 177.863 105.397 180.92 104.395C183.977 103.392 186.765 102.164 187.831 98.7468C188.177 97.6525 187.951 96.4381 188.439 95.3933C189.019 94.2511 189.355 93.001 189.427 91.7221C189.575 89.4064 191.637 87.8038 191.044 85.2975Z" fill="#455A64"/>
<path d="M163.629 101.175C163.566 102.404 164.251 105.68 165.811 107.424C166.872 108.547 168.153 109.441 169.574 110.05L170.139 109.612C170.139 109.612 170.675 109.669 169.235 111.116C167.795 112.563 167.456 113.1 166.651 112.98C165.846 112.86 163.573 111.568 162.034 109.174C160.914 107.49 160.25 105.544 160.106 103.526C160.149 102.82 161.137 102.312 162.034 101.663C162.93 101.013 163.862 99.9329 164.364 100.364L163.629 101.175Z" fill="url(#paint6_linear_691_6834)"/>
<path opacity="0.2" d="M163.629 101.175C163.566 102.404 164.251 105.68 165.811 107.424C166.872 108.547 168.153 109.441 169.574 110.05L170.139 109.612C170.139 109.612 170.675 109.669 169.235 111.116C167.795 112.563 167.456 113.1 166.651 112.98C165.846 112.86 163.573 111.568 162.034 109.174C160.914 107.49 160.25 105.544 160.106 103.526C160.149 102.82 161.137 102.312 162.034 101.663C162.93 101.013 163.862 99.9329 164.364 100.364L163.629 101.175Z" fill="black"/>
<path d="M128.252 75.6465C131.817 76.4725 134.606 77.821 136.301 79.2612C138.913 81.5204 140.106 85.0433 141.885 89.8512C143.664 94.6591 148.239 106.372 148.239 106.372C142.943 108.057 138.432 111.593 135.531 116.333L123.416 91.122L128.252 75.6465Z" fill="#E0E0E0"/>
<path d="M149.672 111.271C147.322 112.455 145.418 114.367 144.243 116.722C144.243 116.722 144.243 112.832 149.185 109.923L149.672 111.271Z" fill="#F28F8F"/>
<path d="M87.2756 77.68C87.2756 77.68 83.1314 81.323 82.0724 85.2625C81.557 87.1969 81.0769 88.7925 82.7148 99.5519C84.2751 109.81 85.3835 109.81 86.1813 117.633L85.0376 137.21C91.1727 144.397 119.822 148.054 134.154 138.375C134.154 138.375 134.775 108.652 133.766 96.4102C133.06 88.0865 129.565 79.5509 128.252 75.6468C124.355 74.9408 120.606 74.5172 120.606 74.5172L106.274 73.6841L87.2756 77.68Z" fill="#FAFAFA"/>
<path d="M127.355 48.3386C129.233 44.0179 127.39 38.2852 125.138 35.5953C121.883 31.7053 116.821 30.025 109.183 30.498C103.379 30.8581 97.6677 33.2726 96.5804 39.2312C91.9208 40.6432 92.4503 48.2822 93.6082 51.6639C95.9662 58.5262 100.598 64.4919 100.668 68.0007L127.355 48.3386Z" fill="#37474F"/>
<path d="M127.348 64.4707C126.43 67.7819 124.524 70.2105 121.453 70.6906C119.844 70.8421 118.225 70.8421 116.617 70.6906L116.737 74.9266C123.091 82.9679 108.222 84.5988 100.88 75.7879L100.442 61.5479C100.442 61.5479 98.5714 63.6659 95.5003 61.6609C94.2511 60.7393 93.3582 59.4149 92.9724 57.9113C92.5865 56.4076 92.7313 54.8169 93.3823 53.4077C94.9143 50.1813 97.9784 51.5156 98.9244 52.497C99.8704 53.4783 100.965 55.321 101.748 55.0668C102.201 54.926 102.612 54.6748 102.943 54.3359C103.275 53.997 103.517 53.581 103.648 53.1253C104.36 51.1166 104.698 48.9939 104.643 46.8631C105.55 46.3995 106.364 45.7725 107.043 45.0134C108.284 43.7091 109.032 42.0147 109.161 40.2196C115.777 38.1511 123.387 39.1253 126.105 41.2575C127.687 44.0462 127.75 50.5272 128.012 54.262C128.301 58.3215 128.118 61.7032 127.348 64.4707Z" fill="#FFA8A7"/>
<path d="M116.617 70.7117C113.228 70.5211 106.416 68.9397 104.615 67.0547C102.815 65.1696 102.031 61.2937 102.031 61.2937C102.031 61.2937 102.3 66.1792 103.704 68.3537C105.109 70.5282 108.646 71.453 110.764 71.9896C112.712 72.3943 114.68 72.6912 116.66 72.8792L116.617 70.7117Z" fill="#F28F8F"/>
<path d="M114.47 52.1016C114.471 52.4676 114.329 52.8195 114.075 53.0829C113.82 53.3463 113.474 53.5007 113.108 53.5136C112.827 53.5234 112.549 53.449 112.31 53.3C112.072 53.151 111.883 52.934 111.769 52.677C111.654 52.42 111.619 52.1347 111.668 51.8576C111.717 51.5806 111.847 51.3244 112.042 51.1219C112.238 50.9195 112.489 50.78 112.764 50.7214C113.039 50.6628 113.326 50.6877 113.587 50.793C113.848 50.8983 114.071 51.0791 114.229 51.3122C114.386 51.5454 114.47 51.8202 114.47 52.1016Z" fill="#263238"/>
<path d="M112.557 47.7246L109.782 49.5955C109.538 49.2135 109.451 48.752 109.539 48.3073C109.628 47.8627 109.884 47.4692 110.255 47.2092C110.439 47.0869 110.645 47.0031 110.862 46.9628C111.079 46.9225 111.301 46.9265 111.516 46.9747C111.731 47.0229 111.935 47.1142 112.113 47.2431C112.292 47.3719 112.443 47.5357 112.557 47.7246Z" fill="#263238"/>
<path d="M126.02 48.5997L122.978 47.1453C123.062 46.9425 123.187 46.759 123.345 46.6062C123.503 46.4533 123.691 46.3342 123.896 46.2563C124.102 46.1783 124.321 46.143 124.54 46.1527C124.76 46.1623 124.975 46.2166 125.173 46.3122C125.579 46.5138 125.893 46.8628 126.051 47.2879C126.208 47.713 126.197 48.1822 126.02 48.5997Z" fill="#263238"/>
<path d="M124.961 51.6144C124.953 51.8833 124.866 52.1438 124.71 52.3634C124.555 52.583 124.338 52.752 124.087 52.8492C123.836 52.9464 123.562 52.9675 123.299 52.91C123.037 52.8525 122.797 52.7188 122.609 52.5257C122.422 52.3325 122.296 52.0885 122.246 51.824C122.197 51.5596 122.226 51.2864 122.331 51.0386C122.436 50.7908 122.611 50.5793 122.835 50.4306C123.06 50.2819 123.323 50.2025 123.592 50.2024C123.959 50.2134 124.307 50.367 124.563 50.6306C124.819 50.8943 124.961 51.2471 124.961 51.6144Z" fill="#263238"/>
<path d="M117.619 49.1577L118.608 58.9994L123.895 57.4038L117.619 49.1577Z" fill="#F28F8F"/>
<path d="M114.463 61.2937L120.111 62.5504C120.049 62.93 119.91 63.2931 119.703 63.6171C119.496 63.9412 119.225 64.2196 118.906 64.4351C118.587 64.6506 118.228 64.7987 117.85 64.8704C117.472 64.9421 117.084 64.9358 116.708 64.8519C115.949 64.6606 115.292 64.1843 114.874 63.5219C114.456 62.8595 114.309 62.0616 114.463 61.2937Z" fill="#B16668"/>
<path d="M116.73 64.852C116.846 64.8726 116.964 64.8868 117.083 64.8943C117.068 64.2064 116.784 63.5517 116.291 63.0712C115.799 62.5906 115.137 62.3225 114.449 62.3245C114.529 62.9272 114.789 63.4916 115.196 63.9429C115.604 64.3943 116.138 64.7113 116.73 64.852Z" fill="#F28F8F"/>
<path d="M92.4857 47.7244C92.6607 49.4494 93.0839 51.1401 93.7424 52.7441C94.1165 52.2711 94.5472 51.8051 94.9849 51.3321C97.5401 48.8266 100.518 46.7926 103.782 45.324C111.329 41.794 120.57 40.6079 127.969 42.6624C127.698 41.1962 127.235 39.772 126.593 38.4264C124.821 34.5713 121.738 31.4701 117.894 29.6748C114.049 27.8795 109.693 27.5066 105.599 28.6226C101.506 29.7385 97.9409 32.2709 95.5395 35.7688C93.1382 39.2668 92.056 43.5033 92.4857 47.7244Z" fill="url(#paint7_linear_691_6834)"/>
<path d="M100.252 29.8908C101.148 29.4531 105.659 28.1046 106.027 27.9916C108.363 27.2856 112.126 27.328 115.988 30.505C119.004 33.0219 121.124 36.4473 122.032 40.269L117.231 41.7728L115.699 41.921C115.134 38.391 110.481 30.7874 103.944 30.505C103.638 30.4839 103.332 30.4839 103.026 30.505C102.16 30.5484 101.306 30.7221 100.492 31.0204C99.603 31.6418 98.7564 32.321 97.957 33.0537C98.0374 32.3743 98.2905 31.7269 98.6921 31.1732C99.0938 30.6195 99.6307 30.178 100.252 29.8908Z" fill="url(#paint8_linear_691_6834)"/>
<path opacity="0.45" d="M100.252 29.8908C101.148 29.4531 105.659 28.1046 106.027 27.9916C108.363 27.2856 112.126 27.328 115.988 30.505C119.004 33.0219 121.124 36.4473 122.032 40.269L117.231 41.7728L115.699 41.921C115.134 38.391 110.481 30.7874 103.944 30.505C103.638 30.4839 103.332 30.4839 103.026 30.505C102.16 30.5484 101.306 30.7221 100.492 31.0204C99.603 31.6418 98.7564 32.321 97.957 33.0537C98.0374 32.3743 98.2905 31.7269 98.6921 31.1732C99.0938 30.6195 99.6307 30.178 100.252 29.8908Z" fill="white"/>
<path d="M115.713 41.9283C115.007 37.8194 108.78 28.0978 100.505 31.0277C99.6146 31.649 98.7656 32.3282 97.9639 33.061C98.0443 32.3817 98.2966 31.7342 98.6968 31.1796C99.0971 30.6249 99.6321 30.1815 100.251 29.891C102.405 28.8532 106.725 28.3449 111.194 32.009C114.207 34.5242 116.325 37.9471 117.231 41.7659L115.713 41.9283Z" fill="url(#paint9_linear_691_6834)"/>
<path opacity="0.3" d="M115.713 41.9283C115.007 37.8194 108.78 28.0978 100.505 31.0277C99.6146 31.649 98.7656 32.3282 97.9639 33.061C98.0443 32.3817 98.2966 31.7342 98.6968 31.1796C99.0971 30.6249 99.6321 30.1815 100.251 29.891C102.405 28.8532 106.725 28.3449 111.194 32.009C114.207 34.5242 116.325 37.9471 117.231 41.7659L115.713 41.9283Z" fill="black"/>
<path d="M103.647 43.912C103.993 43.6084 105.667 40.0078 111.625 36.852C115.304 34.8893 122.844 34.7904 126.225 34.8469C132.149 34.9458 133.561 36.2024 133.638 37.0779C133.638 37.2826 133.737 38.2428 133.765 38.4546C133.793 38.652 133.747 38.8526 133.638 39.0194C132.756 40.3608 127.99 42.6906 127.99 42.6906C120.591 40.6361 111.35 41.8222 103.803 45.3522L103.647 43.912Z" fill="url(#paint10_linear_691_6834)"/>
<path opacity="0.15" d="M103.647 43.912C103.993 43.6084 105.667 40.0078 111.625 36.852C115.304 34.8893 122.844 34.7904 126.225 34.8469C132.149 34.9458 133.561 36.2024 133.638 37.0779C133.638 37.2826 133.737 38.2428 133.765 38.4546C133.793 38.652 133.747 38.8526 133.638 39.0194C132.756 40.3608 127.99 42.6906 127.99 42.6906C120.591 40.6361 111.35 41.8222 103.803 45.3522L103.647 43.912Z" fill="black"/>
<path d="M103.781 45.324C111.328 41.794 120.57 40.6079 127.969 42.6624C127.969 42.6624 132.755 40.3326 133.617 38.9912C134.097 38.2499 133.666 36.3507 126.345 36.2307C122.956 36.1742 115.416 36.2731 111.738 38.2357C105.8 41.448 104.127 45.0204 103.781 45.324Z" fill="url(#paint11_linear_691_6834)"/>
<path opacity="0.3" d="M103.781 45.324C111.328 41.794 120.57 40.6079 127.969 42.6624C127.969 42.6624 132.755 40.3326 133.617 38.9912C134.097 38.2499 133.666 36.3507 126.345 36.2307C122.956 36.1742 115.416 36.2731 111.738 38.2357C105.8 41.448 104.127 45.0204 103.781 45.324Z" fill="black"/>
<path d="M126.578 261.678C126.804 257.929 128.816 220.165 128.816 220.165L110.46 233.106C113.658 254.695 114.364 261.205 114.498 264.805C114.423 265.107 114.394 265.419 114.414 265.73C114.512 270.009 119.638 272.24 123.655 275.035C127.08 277.503 130.707 279.676 134.499 281.531C137.401 282.865 143.247 282.907 143.938 281.135C139.053 277.704 133.398 273.962 129.487 270.023C127.644 268.138 126.303 266.168 126.578 261.678Z" fill="#FFA8A7"/>
<path d="M152.27 285.625C152.517 285.625 152.941 288.202 151.613 289.325C150.088 290.617 145.577 292.77 139.555 292.113C133.533 291.457 130.243 289.741 127.8 287.877C125.357 286.013 121.933 283.345 119.201 282.815C116.666 282.321 113.906 281.269 113.08 280.542C112.254 279.815 112.31 276.504 112.31 276.504L152.27 285.625Z" fill="#263238"/>
<path d="M133.49 271.442C133.095 271.075 132.714 270.736 132.34 270.326C131.078 268.953 130.102 267.343 129.466 265.589C129.076 264.752 128.773 263.876 128.562 262.977C128.372 261.939 128.252 260.859 128.075 259.849C128.012 259.461 128.075 258.607 127.595 258.437C127.036 258.374 126.47 258.48 125.971 258.741C124.75 259.263 123.472 259.666 122.216 260.111C121.51 260.358 120.062 260.739 119.85 261.523C119.639 262.306 119.992 263.281 119.85 264.128C119.787 264.46 119.646 264.834 119.257 264.791C118.551 264.791 118.375 263.775 118.191 263.281C117.796 262.243 117.485 261.756 116.363 261.452C115.777 261.29 114.633 261.212 114.245 260.69L114.097 259.278C113.776 259.342 113.474 259.481 113.216 259.681C112.957 259.882 112.749 260.14 112.607 260.435C112.12 261.445 112.444 262.85 112.607 263.923C112.806 264.989 112.896 266.072 112.875 267.156C112.79 268.083 112.641 269.003 112.43 269.91C112.131 271.492 111.982 273.1 111.986 274.711C111.971 275.458 112.028 276.205 112.155 276.942C112.266 277.551 112.604 278.096 113.101 278.467C113.858 279.134 114.732 279.655 115.678 280.006C116.97 280.521 118.304 280.916 119.617 281.375C122.321 282.307 125.47 284.27 128.238 286.367C131.005 288.464 137.07 290.666 140.988 290.666C146.975 290.666 151.154 288.689 152.284 286.628C152.39 285.216 152.475 283.804 151.832 282.801C149.714 279.568 145.076 278.523 141.341 276.744C139.716 275.924 138.145 274.999 136.639 273.976C135.521 273.221 134.467 272.373 133.49 271.442Z" fill="#37474F"/>
<path d="M143.657 277.718C136.321 279.794 133.773 284.743 132.692 288.746C135.323 289.869 138.131 290.519 140.988 290.666C146.975 290.666 151.154 288.689 152.284 286.628C152.39 285.216 152.475 283.804 151.832 282.801C150.173 280.189 146.848 279.003 143.657 277.718Z" fill="#455A64"/>
<path d="M119.596 281.347L119.907 281.467C119.617 275.819 117.287 272.077 112.183 271.322C112.036 272.436 111.962 273.559 111.964 274.682C111.95 275.43 112.006 276.177 112.134 276.913C112.245 277.523 112.583 278.068 113.08 278.438C113.837 279.105 114.71 279.627 115.656 279.977C116.948 280.493 118.283 280.888 119.596 281.347Z" fill="#455A64"/>
<path d="M96.3335 231.285L77.2009 227.126C76.6996 238.966 77.0032 254.985 76.6008 266.097C76.5231 268.215 75.4429 282.335 76.043 286.67C76.9467 293.201 85.694 292.777 86.4142 288.937C87.1343 285.096 87.7697 268.674 87.9179 266.973C88.3204 259.856 92.3869 247.911 95.2321 235.203C95.3733 234.617 96.1993 231.892 96.3335 231.285Z" fill="#FFA8A7"/>
<path d="M89.5064 291.817C89.4358 295.622 88.878 298.171 87.4519 300.444C86.0258 302.718 83.1806 303.537 80.2366 302.993C77.2926 302.449 73.4731 300.875 72.4706 297.599C71.4681 294.323 71.5528 292.106 72.054 288.562L89.5064 291.817Z" fill="#263238"/>
<path d="M76.756 259.553C75.5628 259.68 75.344 270.009 74.8639 275.134C74.3697 280.627 72.6259 282.957 72.167 287.468C71.6445 292.622 72.054 294.895 74.2285 297.917C76.403 300.938 83.7524 303.713 87.0989 299.145C89.824 295.418 89.7605 291.379 89.2663 286.296C88.7509 281.022 88.7297 272.564 88.7933 268.54C88.8498 264.699 90.0147 260.64 88.9486 260.252C88.7227 261.282 88.5815 262.165 88.4615 262.716C88.2002 263.93 87.9108 265.398 87.5437 265.123C87.5437 265.123 87.6496 264.043 87.6637 263.549C87.6778 263.054 87.7837 262.73 87.4519 262.412C87.1201 262.094 85.6798 261.897 85.1856 261.833C83.9925 261.664 82.7993 261.53 81.5921 261.473C80.992 261.473 80.3848 261.473 79.7847 261.473C79.2723 261.487 78.764 261.57 78.2739 261.72C78.1363 261.763 78.0092 261.834 77.901 261.928C77.7927 262.023 77.7057 262.14 77.6455 262.271C77.6066 262.464 77.6066 262.663 77.6455 262.857C77.662 263.21 77.6288 263.564 77.5467 263.909C77.5043 264.064 77.3984 264.255 77.2219 264.226C77.0454 264.198 76.9395 264.099 76.8901 263.753C76.8065 263.051 76.7687 262.343 76.7772 261.635C76.7772 261.304 76.7772 260.845 76.7772 260.513C76.7772 260.181 76.7489 259.877 76.756 259.553Z" fill="#37474F"/>
<path d="M71.9695 290.447C71.9059 293.638 72.2166 295.806 73.918 298.171C76.0925 301.193 84.0209 303.953 87.332 299.385C88.9982 297.112 89.3512 294.486 89.45 291.817C87.2191 288.478 75.1959 287.412 71.9695 290.447Z" fill="#455A64"/>
<path d="M134.931 104.833C134.931 104.833 120.408 108.102 98.6351 106.605C98.6351 120.993 100.153 137.499 93.2625 137.408L85.0376 137.21C84.5787 158.757 80.9357 203.68 80.9357 203.68C80.6109 206.327 76.7774 217.581 76.6362 227.154C76.4173 242.171 76.0996 253.552 76.0996 253.552C76.0996 253.552 84.4869 256.87 90.6503 254.568C90.6503 254.568 98.6634 222.65 100.916 212.688C103.591 200.821 109.119 178.892 109.119 178.892L109.79 210.119C109.006 216.411 108.921 222.771 109.536 229.082C110.242 235.436 112.819 253.022 112.819 253.022C112.819 253.022 120.535 254.575 127.228 252.592C127.228 252.592 131.259 214.771 131.591 208.947C131.951 202.593 133.956 144.228 134.14 138.784C135.975 111.342 134.931 104.833 134.931 104.833Z" fill="#455A64"/>
<path d="M98.6347 106.605C97.618 93.5723 97.6463 82.8623 92.7607 76.5295L99.0018 75.2163C99.0018 75.2163 104.403 87.1759 104.403 107.05L98.6347 106.605Z" fill="#455A64"/>
<path d="M129.198 106.266C129.198 92.0682 126.07 79.8967 121.114 74.5806L128.252 75.6466C128.252 75.6466 134.931 86.3919 134.931 106.266H129.198Z" fill="#455A64"/>
<path d="M106.479 109.584C106.479 109.584 117.951 110.29 127.588 108.462L128.026 118.226L118.41 124.255L106.479 120.358V109.584Z" fill="#37474F"/>
<path d="M88.0026 137.923C93.5305 140.218 106.952 141.594 117.725 141.453C128.499 141.312 134.14 138.777 134.14 138.777L133.963 145.343C133.963 145.343 114.845 153.363 87.1836 143.931L88.0026 137.923Z" fill="url(#paint12_linear_691_6834)"/>
<path opacity="0.3" d="M88.0026 137.923C93.5305 140.218 106.952 141.594 117.725 141.453C128.499 141.312 134.14 138.777 134.14 138.777L133.963 145.343C133.963 145.343 114.845 153.363 87.1836 143.931L88.0026 137.923Z" fill="black"/>
<path d="M109.119 178.892L114.245 158.178C114.245 158.178 121.926 158.277 126.953 153.582C126.953 153.582 126.247 158.87 117.118 161.694L112.374 178.151L109.684 209.533L109.119 178.892Z" fill="#37474F"/>
<path d="M100.957 74.3335L101 75.7455C102.105 78.8784 102.906 82.1103 103.393 85.3965C104.875 94.3415 105.13 106.068 105.13 119.285V155.7C105.13 155.7 88.574 156.759 83.3143 144.122L85.4323 117.632C85.4323 117.632 82.3965 103.936 81.5704 96.1065C80.7444 88.277 79.2689 82.7914 86.5901 76.8045L100.957 74.3335Z" fill="url(#paint13_linear_691_6834)"/>
<path d="M83.9082 110.227C84.7342 114.42 85.4473 117.633 85.4473 117.633L85.3696 118.67C90.4881 122.017 98.0776 124.163 105.138 123.838V116.439C97.4281 116.792 88.9561 114.166 83.9082 110.227Z" fill="#F0F0F0"/>
<path d="M105.123 138.537V131.11C97.8652 131.442 89.951 129.133 84.8325 125.582L84.2959 132.593C89.3791 136.384 97.604 138.876 105.123 138.537Z" fill="#F0F0F0"/>
<path d="M116.998 74.1642C121.63 76.9534 124.98 81.4517 126.324 86.6886C128.555 95.4571 128.887 102.376 129.198 113.637C129.508 124.897 129.049 156.314 129.049 156.314C129.049 156.314 133.991 154.147 135.079 151.796C135.079 151.796 136.491 111.9 134.93 97.7587C133.37 83.6175 128.252 75.6468 128.252 75.6468C128.252 75.6468 124.595 74.15 116.998 74.1642Z" fill="url(#paint14_linear_691_6834)"/>
<path d="M129.317 122.419C131.454 122.358 133.581 122.102 135.671 121.657C135.671 119.186 135.671 116.715 135.671 114.265C133.541 114.713 131.374 114.963 129.197 115.013C129.275 117.146 129.303 119.68 129.317 122.419Z" fill="#F0F0F0"/>
<path d="M135.552 136.391C135.594 134.118 135.644 131.604 135.672 128.964C133.594 129.388 131.481 129.625 129.36 129.67C129.36 132.176 129.36 134.682 129.36 137.076C131.44 137.025 133.512 136.796 135.552 136.391Z" fill="#F0F0F0"/>
<path d="M90.2898 76.9529C86.0538 76.9529 81.1118 76.7693 78.3372 82.8833C77.4335 84.8742 74.6448 96.5797 71.5455 107.374C65.9963 100.314 61.2591 93.0779 60.6449 91.793C58.9999 88.3548 58.9787 86.0321 57.2984 82.4809C56.3307 80.5367 55.5825 78.4908 55.0675 76.381C54.665 74.969 53.4084 76.0068 52.9495 76.6422C52.2145 77.7145 51.8096 78.9784 51.7846 80.2781C51.7846 81.1959 51.7846 82.1349 51.714 83.0386C51.6434 83.9423 51.3398 83.907 50.6055 83.4975C49.0947 82.6503 47.7816 81.1889 46.5531 80.0169C45.3247 78.845 43.6444 77.7436 42.3171 76.4869C40.9898 75.2302 40.3191 73.9524 39.239 72.6816C38.4271 71.7285 37.0433 70.493 35.9772 71.8556C35.3418 72.6816 35.9278 73.6417 36.2102 74.4678C36.535 75.4067 36.2102 76.0986 36.0337 77.0235C35.7216 78.0284 35.7514 79.1084 36.1184 80.0946C36.6267 81.09 37.0786 81.7043 36.9445 82.8762C36.8386 83.8434 36.4926 84.7683 36.6338 85.7638C36.7468 86.5827 37.3398 87.1758 37.7493 87.8818C38.4723 89.1354 39.3683 90.281 40.4109 91.2847C41.6396 92.529 42.969 93.6695 44.3857 94.6947C47.7815 97.3351 49.0453 98.1611 50.1819 99.0436C51.8834 100.357 53.6413 103.724 54.6297 105.581C56.5571 109.224 60.7155 119.376 66.2646 126.641C69.4769 130.828 73.8471 132.162 77.7018 127.432C79.721 124.947 81.4366 121.007 82.552 118.028C86.8375 106.612 89.9368 97.2221 89.9368 97.2221C89.9368 97.2221 93.3962 86.5545 90.2898 76.9529Z" fill="#FFA8A7"/>
<path d="M62.6993 95.1041C61.598 93.438 60.8637 92.2307 60.6449 91.7789C58.9999 88.3407 58.9787 86.0179 57.2984 82.4667C56.3317 80.527 55.5835 78.486 55.0675 76.381C54.665 74.969 53.4084 76.0068 52.9495 76.6422C52.2145 77.7145 51.8096 78.9784 51.7846 80.2781C51.7846 81.1959 51.7846 82.1349 51.714 83.0386C51.6434 83.9423 51.3398 83.907 50.6055 83.4975C49.0947 82.6503 47.7816 81.1889 46.5531 80.0169C45.3247 78.845 43.6444 77.7436 42.3171 76.4869C40.9898 75.2302 40.3191 73.9524 39.239 72.6816C38.4271 71.7285 37.0433 70.493 35.9772 71.8556C35.3418 72.6816 35.9278 73.6417 36.2102 74.4678C36.535 75.4067 36.2102 76.0986 36.0337 77.0235C35.7216 78.0284 35.7514 79.1084 36.1184 80.0946C36.6267 81.09 37.0786 81.7043 36.9445 82.8762C36.8386 83.8434 36.4926 84.7683 36.6338 85.7638C36.7468 86.5827 37.3398 87.1758 37.7493 87.8818C38.4723 89.1354 39.3683 90.281 40.4109 91.2847C41.6396 92.529 42.969 93.6695 44.3857 94.6947C47.7815 97.3351 49.0453 98.1611 50.182 99.0436C51.7987 100.293 53.4649 103.393 54.4744 105.285C57.8491 103.124 60.9061 98.973 62.6993 95.1041Z" fill="#455A64"/>
<path d="M61.6268 93.4591L61.0973 92.6684C61.0973 92.6684 61.3091 91.7436 62.1704 93.0638C62.9449 94.1632 63.6139 95.3333 64.1684 96.5585C64.2743 97.0597 63.42 101.38 60.7372 103.527C58.0544 105.673 55.6964 106.315 54.948 106.224C54.1996 106.132 53.9878 105.454 53.536 104.557C53.0842 103.661 52.0393 102.559 52.357 101.733L52.9641 102.588C55.3731 101.97 57.5329 100.624 59.1487 98.733C61.5279 95.7042 61.6268 93.4591 61.6268 93.4591Z" fill="url(#paint15_linear_691_6834)"/>
<path opacity="0.2" d="M61.6268 93.4591L61.0973 92.6684C61.0973 92.6684 61.3091 91.7436 62.1704 93.0638C62.9449 94.1632 63.6139 95.3333 64.1684 96.5585C64.2743 97.0597 63.42 101.38 60.7372 103.527C58.0544 105.673 55.6964 106.315 54.948 106.224C54.1996 106.132 53.9878 105.454 53.536 104.557C53.0842 103.661 52.0393 102.559 52.357 101.733L52.9641 102.588C55.3731 101.97 57.5329 100.624 59.1487 98.733C61.5279 95.7042 61.6268 93.4591 61.6268 93.4591Z" fill="black"/>
<path d="M71.5459 107.374C73.5768 111.217 74.8042 115.432 75.1536 119.765C75.8596 113.333 73.9039 107.452 72.0966 105.468L71.5459 107.374Z" fill="#F28F8F"/>
<path d="M90.9891 76.042C86.9507 76.6774 86.0894 76.748 83.5125 77.6376C80.9356 78.5271 79.0859 79.4096 76.7067 87.1686C74.4192 94.6522 72.2871 103.167 72.2871 103.167C72.2871 103.167 74.5463 109.083 85.7011 110.227L91.6103 93.7485C91.6103 93.7485 93.4318 83.808 90.9891 76.042Z" fill="#EBEBEB"/>
<path d="M51.3056 85.1281C51.3595 85.5714 51.2807 86.0208 51.0793 86.4194C50.8778 86.818 50.5628 87.1479 50.1739 87.3675C49.7851 87.5872 49.3399 87.6866 48.8945 87.6533C48.4491 87.62 48.0236 87.4555 47.6718 87.1805C47.3199 86.9055 47.0574 86.5324 46.9175 86.1082C46.7775 85.6841 46.7665 85.2281 46.8856 84.7977C47.0048 84.3673 47.2488 83.9818 47.5869 83.69C47.925 83.3983 48.342 83.2132 48.7852 83.1583C49.0802 83.1209 49.3798 83.1422 49.6665 83.2211C49.9533 83.3 50.2216 83.4349 50.4559 83.618C50.6902 83.8011 50.886 84.0289 51.0318 84.288C51.1776 84.5472 51.2707 84.8327 51.3056 85.1281Z" fill="#263238"/>
<path d="M180.539 92.2376H178.04C177.395 92.2376 176.778 92.4935 176.322 92.9489C175.867 93.4044 175.611 94.0221 175.611 94.6662V121.085C175.611 124.268 174.346 127.321 172.096 129.571C169.845 131.822 166.792 133.087 163.609 133.087H60.5118C57.3286 133.087 54.2759 131.822 52.0251 129.571C49.7743 127.321 48.5098 124.268 48.5098 121.085V86.6884C48.5098 86.548 48.5656 86.4133 48.6649 86.314C48.7642 86.2147 48.8988 86.1589 49.0393 86.1589C49.1797 86.1589 49.3144 86.2147 49.4137 86.314C49.513 86.4133 49.5688 86.548 49.5688 86.6884V120.838C49.5688 122.304 49.8577 123.756 50.4191 125.111C50.9805 126.465 51.8033 127.696 52.8405 128.733C53.8777 129.769 55.109 130.591 56.4641 131.152C57.8191 131.712 59.2713 132 60.7377 132H163.383C164.849 132 166.302 131.712 167.657 131.152C169.012 130.591 170.243 129.769 171.28 128.733C172.317 127.696 173.14 126.465 173.702 125.111C174.263 123.756 174.552 122.304 174.552 120.838V94.6662C174.552 93.7413 174.919 92.8542 175.573 92.2001C176.228 91.546 177.115 91.1786 178.04 91.1786H182.339C181.769 91.5801 181.167 91.9342 180.539 92.2376Z" fill="#37474F"/>
<path d="M46.3842 85.8766C44.7957 85.1706 44.6263 83.808 46.0101 82.7702C46.7926 82.2437 47.6885 81.9098 48.6247 81.7956C49.5609 81.6815 50.5108 81.7905 51.3968 82.1136C52.9853 82.8196 53.1548 84.1822 51.771 85.22C50.9885 85.7465 50.0926 86.0804 49.1564 86.1945C48.2202 86.3086 47.2703 86.1997 46.3842 85.8766Z" fill="#37474F"/>
<path d="M46.2006 85.079C44.5626 84.373 44.3861 82.961 45.8123 81.8738C46.6175 81.3272 47.5404 80.9784 48.5059 80.8557C49.4713 80.7331 50.4521 80.84 51.3685 81.1678C53.0064 81.8738 53.1829 83.2858 51.7568 84.373C50.9515 84.9195 50.0286 85.2683 49.0632 85.391C48.0977 85.5137 47.1169 85.4068 46.2006 85.079Z" fill="#263238"/>
<path d="M46.0173 84.2529C44.3229 83.5469 44.1464 82.0502 45.6149 80.9489C46.4459 80.3878 47.3979 80.0313 48.393 79.9086C49.3881 79.7859 50.3982 79.9004 51.3406 80.2429C53.0279 80.9489 53.2115 82.4456 51.743 83.5469C50.912 84.108 49.96 84.4645 48.9649 84.5872C47.9698 84.7099 46.9597 84.5954 46.0173 84.2529Z" fill="#37474F"/>
<path d="M45.8268 83.3985C44.0829 82.6925 43.8923 81.1322 45.4102 79.9956C46.2683 79.4231 47.2492 79.0608 48.2734 78.9382C49.2976 78.8155 50.3363 78.9359 51.3053 79.2896C53.0491 79.9956 53.2398 81.5558 51.7219 82.6996C50.8632 83.2709 49.882 83.6319 48.8578 83.7533C47.8336 83.8747 46.7952 83.7532 45.8268 83.3985Z" fill="#263238"/>
<path d="M45.6569 82.5022C43.8778 81.7468 43.6872 80.1936 45.2333 79.0287C46.1096 78.4459 47.1111 78.0782 48.1563 77.9555C49.2016 77.8328 50.261 77.9586 51.2484 78.3227C53.0275 79.0781 53.2182 80.6383 51.672 81.7962C50.7962 82.38 49.7946 82.7483 48.7492 82.871C47.7038 82.9937 46.6441 82.8673 45.6569 82.5022Z" fill="#37474F"/>
<path d="M45.4737 55.9776C42.6363 56.3236 40.0524 57.7823 38.2903 60.033C36.5281 62.2837 35.732 65.142 36.0768 67.9796C37.1147 76.4516 44.2947 77.0305 44.7112 80.4546C44.7771 80.7812 44.9289 81.0842 45.1511 81.3324C45.3733 81.5807 45.6577 81.7651 45.975 81.8666C46.8347 82.1771 47.7554 82.2813 48.6628 82.1709C49.5702 82.0606 50.4391 81.7387 51.1994 81.2312C51.4834 81.0599 51.7163 80.8157 51.874 80.524C52.0317 80.2322 52.1083 79.9035 52.096 79.5721C51.6794 76.148 58.5135 73.8817 57.4828 65.3886C57.3132 63.9817 56.8679 62.6221 56.1723 61.3874C55.4768 60.1528 54.5447 59.0674 53.4293 58.1933C52.314 57.3193 51.0372 56.6737 49.6721 56.2935C48.307 55.9133 46.8803 55.8059 45.4737 55.9776Z" fill="url(#paint16_linear_691_6834)"/>
<g opacity="0.6">
<path d="M45.4737 55.9776C42.6363 56.3236 40.0524 57.7823 38.2903 60.033C36.5281 62.2837 35.732 65.142 36.0768 67.9796C37.1147 76.4516 44.2947 77.0305 44.7112 80.4546C44.7771 80.7812 44.9289 81.0842 45.1511 81.3324C45.3733 81.5807 45.6577 81.7651 45.975 81.8666C46.8347 82.1771 47.7554 82.2813 48.6628 82.1709C49.5702 82.0606 50.4391 81.7387 51.1994 81.2312C51.4834 81.0599 51.7163 80.8157 51.874 80.524C52.0317 80.2322 52.1083 79.9035 52.096 79.5721C51.6794 76.148 58.5135 73.8817 57.4828 65.3886C57.3132 63.9817 56.8679 62.6221 56.1723 61.3874C55.4768 60.1528 54.5447 59.0674 53.4293 58.1933C52.314 57.3193 51.0372 56.6737 49.6721 56.2935C48.307 55.9133 46.8803 55.8059 45.4737 55.9776Z" fill="white"/>
</g>
<path d="M46.5961 81.2878C45.4383 80.7936 45.3112 79.7769 46.3208 79.0215C46.8915 78.639 47.5442 78.3963 48.2262 78.3129C48.9081 78.2295 49.6001 78.3078 50.2461 78.5414C51.404 79.0356 51.5311 80.0523 50.5215 80.8077C49.9515 81.1917 49.2986 81.4354 48.6164 81.5188C47.9342 81.6023 47.2419 81.5231 46.5961 81.2878Z" fill="url(#paint17_linear_691_6834)"/>
<path d="M49.7877 79.4731C49.6931 79.4851 49.5977 79.4592 49.5223 79.4009C49.4468 79.3427 49.3976 79.2569 49.3852 79.1625C49.1354 77.1014 49.1354 75.0178 49.3852 72.9567C49.4547 72.3619 49.5632 71.7723 49.71 71.1917C49.3677 71.1124 49.0342 70.9989 48.7145 70.8528C48.146 70.5919 47.62 70.2468 47.1543 69.8291C46.8021 70.3449 46.3763 70.8063 45.8905 71.1988C45.6194 71.4174 45.326 71.6067 45.0151 71.7636C45.2989 72.2922 45.5466 72.8394 45.7564 73.4015C46.4933 75.3422 46.9957 77.3639 47.2531 79.4237C47.2612 79.5197 47.2319 79.6151 47.1714 79.69C47.111 79.765 47.0239 79.8137 46.9284 79.8261C46.8313 79.834 46.735 79.8038 46.6598 79.7419C46.5847 79.6799 46.5366 79.5911 46.5259 79.4943C46.2723 77.4977 45.7841 75.5379 45.0716 73.6557C44.8651 73.0967 44.6173 72.554 44.3303 72.0319C43.9757 72.1506 43.5975 72.1811 43.2285 72.1209C42.8595 72.0606 42.5107 71.9113 42.2123 71.6859C41.9887 71.5195 41.8318 71.2788 41.7697 71.0071C41.7076 70.7353 41.7444 70.4504 41.8734 70.2033C41.9627 70.0321 42.1012 69.8915 42.271 69.7996C42.4409 69.7078 42.6343 69.6689 42.8265 69.6879C43.4125 69.7374 44.0479 70.2527 44.6409 71.1564C44.924 71.0194 45.1895 70.8488 45.4316 70.6481C45.9065 70.2753 46.3168 69.8269 46.646 69.3208C46.3911 69.0598 46.1911 68.7505 46.0577 68.411C45.9243 68.0715 45.8603 67.7087 45.8694 67.344C45.9057 67.1262 46.0114 66.9259 46.1708 66.7731C46.3303 66.6204 46.5348 66.5232 46.754 66.4962C46.9732 66.4692 47.1952 66.5138 47.3869 66.6233C47.5787 66.7329 47.7299 66.9015 47.8179 67.104C47.9204 67.4569 47.9488 67.8273 47.9014 68.1917C47.854 68.5562 47.7318 68.9069 47.5426 69.222C47.9821 69.6373 48.488 69.9761 49.0393 70.2245C49.3238 70.358 49.6221 70.4598 49.9289 70.5281C50.2889 69.5114 50.7761 68.8549 51.3409 68.6713C51.5232 68.6131 51.7186 68.6094 51.9031 68.6609C52.0875 68.7123 52.2528 68.8165 52.3787 68.9608C52.5588 69.1726 52.6576 69.4416 52.6576 69.7197C52.6576 69.9978 52.5588 70.2668 52.3787 70.4787C52.1459 70.7657 51.8471 70.992 51.5077 71.1383C51.1684 71.2847 50.7986 71.3466 50.4301 71.3188C50.2708 71.8973 50.1575 72.4875 50.0912 73.0838C49.8619 75.0799 49.8619 77.0957 50.0912 79.0919C50.0982 79.1396 50.0957 79.1883 50.0839 79.2351C50.0721 79.2819 50.0511 79.3259 50.0223 79.3645C49.9934 79.4032 49.9572 79.4358 49.9158 79.4605C49.8743 79.4852 49.8284 79.5015 49.7806 79.5084L49.7877 79.4731ZM42.7206 70.3939C42.6641 70.3939 42.5935 70.4363 42.53 70.5563C42.3817 70.8175 42.6218 71.0505 42.6994 71.1211C42.873 71.2454 43.0712 71.3312 43.2806 71.3726C43.4901 71.414 43.7059 71.4101 43.9137 71.3612C43.4407 70.6975 43.0242 70.4081 42.7771 70.3939H42.7206ZM50.6913 70.5351C50.9052 70.5371 51.1168 70.4905 51.31 70.3988C51.5033 70.3071 51.6731 70.1726 51.8068 70.0056C51.8633 69.928 52.0469 69.6385 51.8421 69.4197C51.8116 69.3754 51.7678 69.342 51.717 69.3243C51.6663 69.3065 51.6112 69.3053 51.5597 69.3208C51.3267 69.4055 50.9949 69.7868 50.6913 70.5422V70.5351ZM46.8436 67.2028C46.6601 67.2028 46.6107 67.3087 46.5895 67.4287C46.5894 67.8526 46.7395 68.2628 47.0131 68.5866C47.2002 68.2054 47.2476 67.7707 47.1472 67.3581C47.1264 67.2984 47.0828 67.2493 47.0259 67.2216C46.9691 67.1938 46.9036 67.1896 46.8436 67.2099V67.2028Z" fill="white"/>
<path d="M52.3783 52.5604C52.2903 52.5263 52.2101 52.4749 52.1423 52.4092C52.0746 52.3435 52.0207 52.2649 51.9838 52.178C51.9469 52.0911 51.9279 51.9977 51.9277 51.9033C51.9276 51.809 51.9464 51.7155 51.983 51.6285L53.395 48.1832C53.4668 48.0115 53.6035 47.8752 53.7754 47.8038C53.9473 47.7324 54.1404 47.7317 54.3128 47.802C54.3999 47.8362 54.4793 47.8874 54.5465 47.9525C54.6137 48.0177 54.6672 48.0956 54.704 48.1817C54.7408 48.2677 54.7601 48.3603 54.7608 48.4539C54.7615 48.5474 54.7436 48.6402 54.7081 48.7269L53.2961 52.1792C53.262 52.2672 53.2105 52.3474 53.1449 52.4152C53.0792 52.483 53.0006 52.5369 52.9137 52.5737C52.8268 52.6106 52.7334 52.6296 52.639 52.6298C52.5446 52.6299 52.4512 52.6111 52.3642 52.5746L52.3783 52.5604Z" fill="#E0E0E0"/>
<path d="M44.2168 51.5438C44.1012 51.4977 43.9997 51.4218 43.9229 51.3239C43.846 51.2259 43.7964 51.1094 43.7791 50.9861L43.2637 47.3007C43.2375 47.1135 43.2868 46.9235 43.4006 46.7726C43.5145 46.6216 43.6836 46.5221 43.8709 46.4959C44.0581 46.4697 44.2481 46.5189 44.3991 46.6328C44.55 46.7467 44.6495 46.9158 44.6757 47.1031L45.184 50.7884C45.198 50.8812 45.1932 50.9759 45.1701 51.0669C45.147 51.1579 45.106 51.2433 45.0495 51.3183C44.9929 51.3932 44.922 51.4562 44.8409 51.5034C44.7597 51.5506 44.67 51.5811 44.5769 51.5932C44.4546 51.6085 44.3305 51.5914 44.2168 51.5438Z" fill="#E0E0E0"/>
<path d="M36.6417 54.7493C36.5278 54.7028 36.428 54.6273 36.3522 54.5304L34.0648 51.5934C34.0073 51.5193 33.965 51.4345 33.9403 51.344C33.9156 51.2535 33.9089 51.159 33.9207 51.0659C33.9325 50.9728 33.9625 50.8829 34.0091 50.8014C34.0556 50.7199 34.1177 50.6484 34.1919 50.5909C34.2661 50.5334 34.3508 50.4911 34.4413 50.4664C34.5319 50.4417 34.6264 50.435 34.7195 50.4468C34.8126 50.4586 34.9024 50.4887 34.9839 50.5352C35.0654 50.5817 35.1369 50.6438 35.1944 50.718L37.4818 53.6479C37.5404 53.7216 37.5837 53.8063 37.609 53.897C37.6344 53.9877 37.6414 54.0825 37.6295 54.1759C37.6177 54.2694 37.5873 54.3595 37.5401 54.4409C37.4929 54.5224 37.4299 54.5937 37.3548 54.6504C37.2557 54.7293 37.1372 54.7802 37.0118 54.7976C36.8863 54.8149 36.7585 54.7983 36.6417 54.7493Z" fill="#E0E0E0"/>
<path d="M28.2399 59.9099C28.0649 59.8378 27.9256 59.6991 27.8528 59.5243C27.7799 59.3496 27.7795 59.153 27.8516 58.978C27.9237 58.8029 28.0624 58.6636 28.2372 58.5908C28.4119 58.518 28.6085 58.5176 28.7835 58.5897L32.2288 60.0017C32.3155 60.0369 32.3944 60.0889 32.461 60.1546C32.5276 60.2203 32.5806 60.2985 32.617 60.3847C32.6534 60.4709 32.6724 60.5634 32.6731 60.657C32.6737 60.7506 32.6559 60.8434 32.6207 60.9301C32.5854 61.0167 32.5335 61.0956 32.4677 61.1622C32.402 61.2288 32.3238 61.2819 32.2376 61.3182C32.1514 61.3546 32.0589 61.3737 31.9653 61.3743C31.8717 61.3749 31.7789 61.3571 31.6923 61.3219L28.247 59.9099H28.2399Z" fill="#E0E0E0"/>
<path d="M26.9902 69.9774C26.8759 69.9303 26.7759 69.854 26.7003 69.7561C26.6248 69.6582 26.5762 69.5422 26.5596 69.4196C26.5456 69.3268 26.5504 69.2321 26.5735 69.1411C26.5966 69.0501 26.6376 68.9647 26.6941 68.8897C26.7507 68.8148 26.8216 68.7519 26.9027 68.7047C26.9839 68.6574 27.0736 68.6269 27.1667 68.6148L30.8521 68.0994C31.0393 68.0732 31.2293 68.1224 31.3802 68.2363C31.5312 68.3502 31.6307 68.5193 31.6569 68.7066C31.6831 68.8938 31.6339 69.0838 31.52 69.2347C31.4061 69.3857 31.237 69.4852 31.0497 69.5114L27.3644 70.0268C27.2375 70.0469 27.1075 70.0297 26.9902 69.9774Z" fill="#E0E0E0"/>
<path d="M62.128 65.0848C61.9755 65.0312 61.846 64.9268 61.7612 64.7892C61.6764 64.6515 61.6414 64.489 61.662 64.3286C61.6827 64.1683 61.7578 64.0198 61.8747 63.9082C61.9917 63.7966 62.1434 63.7284 62.3045 63.7152L65.9898 63.1998C66.0832 63.1859 66.1784 63.1909 66.2698 63.2145C66.3612 63.238 66.447 63.2796 66.522 63.3369C66.597 63.3942 66.6598 63.4659 66.7067 63.5479C66.7535 63.6298 66.7834 63.7203 66.7947 63.814C66.8086 63.9069 66.8039 64.0016 66.7808 64.0926C66.7576 64.1835 66.7166 64.269 66.6601 64.344C66.6035 64.4189 66.5326 64.4818 66.4515 64.529C66.3703 64.5762 66.2806 64.6068 66.1875 64.6189L62.5022 65.1272C62.376 65.1495 62.246 65.1348 62.128 65.0848Z" fill="#E0E0E0"/>
<path d="M58.9364 57.5164C58.8191 57.4691 58.7167 57.391 58.6399 57.2905C58.5791 57.2164 58.5339 57.1307 58.5073 57.0386C58.4807 56.9466 58.4731 56.85 58.4849 56.7549C58.4968 56.6598 58.528 56.568 58.5765 56.4854C58.6249 56.4027 58.6898 56.3307 58.767 56.2739L61.7039 53.9864C61.7781 53.929 61.8629 53.8866 61.9534 53.8619C62.0439 53.8372 62.1384 53.8305 62.2315 53.8423C62.3246 53.8541 62.4145 53.8842 62.496 53.9307C62.5774 53.9772 62.649 54.0393 62.7065 54.1135C62.7639 54.1877 62.8062 54.2724 62.831 54.363C62.8557 54.4535 62.8623 54.548 62.8505 54.6411C62.8387 54.7342 62.8087 54.824 62.7622 54.9055C62.7157 54.987 62.6535 55.0585 62.5794 55.116L59.6424 57.4035C59.5454 57.4834 59.4289 57.5361 59.3048 57.5559C59.1807 57.5758 59.0535 57.5622 58.9364 57.5164Z" fill="#E0E0E0"/>
<path d="M83.3078 138.933L79.566 140.994C79.323 141.145 79.1195 141.352 78.9722 141.598C78.8249 141.843 78.7381 142.12 78.7188 142.406C78.627 145.745 78.3164 158.877 78.8529 165.153C78.8909 165.441 78.9915 165.716 79.1477 165.96C79.3038 166.204 79.5117 166.411 79.7566 166.565C81.8746 167.758 87.6214 170.907 90.2548 171.634C90.8564 171.737 91.4746 171.671 92.041 171.444L94.6956 170.378C94.9429 170.262 95.1543 170.081 95.3072 169.855C95.4601 169.629 95.5488 169.365 95.5639 169.093C95.5639 162.428 96.7783 153.427 97.8796 146.169C97.9094 145.901 97.8581 145.631 97.7322 145.393C97.6062 145.155 97.4116 144.961 97.1736 144.835L84.9528 138.876C84.6899 138.77 84.4076 138.72 84.1243 138.73C83.8409 138.739 83.5628 138.809 83.3078 138.933Z" fill="#455A64"/>
<path d="M78.8529 165.125C78.3164 158.849 78.627 145.717 78.7188 142.378C78.7054 142.271 78.7234 142.163 78.7705 142.067C78.8177 141.971 78.8919 141.89 78.9841 141.835C79.0763 141.781 79.1825 141.754 79.2896 141.759C79.3968 141.764 79.5002 141.8 79.5872 141.862L90.9679 147.51C91.2056 147.644 91.4019 147.84 91.5352 148.078C91.6685 148.316 91.7336 148.586 91.7233 148.859C91.4833 151.817 90.7561 162.943 91.1232 170.801C91.138 170.915 91.1248 171.031 91.0848 171.138C91.0448 171.246 90.9792 171.342 90.8937 171.418C90.8082 171.495 90.7053 171.549 90.594 171.577C90.4827 171.605 90.3663 171.605 90.2548 171.578C87.6214 170.872 81.8817 167.702 79.7566 166.509C79.5151 166.357 79.3092 166.155 79.1532 165.916C78.9972 165.677 78.8948 165.407 78.8529 165.125Z" fill="#37474F"/>
<path d="M90.3682 171.613C90.9267 171.675 91.4919 171.597 92.0131 171.387L94.6748 170.321C94.9177 170.201 95.1246 170.019 95.2745 169.793C95.4245 169.568 95.5123 169.307 95.529 169.036C96.0515 162.195 96.7433 153.377 97.8518 146.119C97.8836 145.876 97.8366 145.628 97.7176 145.413L91.5613 148.237C91.663 148.441 91.7093 148.667 91.6954 148.894C91.4483 151.866 90.7282 163.014 91.0953 170.843C91.1044 170.943 91.0922 171.044 91.0594 171.138C91.0267 171.233 90.9742 171.32 90.9054 171.392C90.8366 171.465 90.7531 171.522 90.6605 171.56C90.5679 171.599 90.4682 171.616 90.3682 171.613Z" fill="#263238"/>
<path d="M80.3073 144.524L90.2761 149.176L89.796 157.648L80.0391 153.462C80.0391 153.462 80.1308 147.404 80.3073 144.524Z" fill="#263238"/>
<path d="M89.8308 157.133L80.4834 153.13C80.4834 153.13 80.5681 147.595 80.7234 144.736L90.2544 149.176L89.8308 157.133Z" fill="url(#paint18_linear_691_6834)"/>
<path opacity="0.4" d="M89.8308 157.133L80.4834 153.13C80.4834 153.13 80.5681 147.595 80.7234 144.736L90.2544 149.176L89.8308 157.133Z" fill="black"/>
<path d="M85.6591 147.779L83.5693 150.8L84.8825 151.252L83.8588 153.921L86.1957 150.772L84.8825 150.278L85.6591 147.779Z" fill="#FAFAFA"/>
<path d="M89.1675 159.59L89.1039 160.43C89.1054 160.486 89.0924 160.54 89.0661 160.589C89.0398 160.638 89.0011 160.679 88.954 160.708C88.9069 160.738 88.8529 160.754 88.7975 160.756C88.742 160.758 88.687 160.745 88.638 160.72L87.1271 160.098C87.0048 160.04 86.9018 159.948 86.8305 159.833C86.7591 159.717 86.7224 159.584 86.7247 159.449L86.7741 158.594C86.7712 158.539 86.783 158.484 86.8084 158.435C86.8338 158.386 86.8718 158.344 86.9186 158.315C86.9654 158.285 87.0192 158.269 87.0745 158.267C87.1297 158.265 87.1845 158.279 87.233 158.305L88.7651 158.94C88.8874 158.999 88.9904 159.091 89.0617 159.206C89.1331 159.321 89.1698 159.454 89.1675 159.59Z" fill="#263238"/>
<path d="M89.1746 162.322L89.1323 163.162C89.1344 163.217 89.1221 163.272 89.0967 163.321C89.0712 163.37 89.0335 163.411 88.9872 163.441C88.9409 163.471 88.8877 163.488 88.8326 163.492C88.7776 163.495 88.7227 163.483 88.6734 163.459L87.1484 162.859C87.027 162.803 86.924 162.713 86.8515 162.6C86.779 162.488 86.7399 162.357 86.7389 162.223V161.362C86.7354 161.307 86.7464 161.252 86.7709 161.203C86.7954 161.154 86.8326 161.112 86.8785 161.082C86.9244 161.052 86.9775 161.035 87.0324 161.032C87.0872 161.029 87.1419 161.04 87.1908 161.066L88.7299 161.68C88.859 161.731 88.9701 161.82 89.0492 161.934C89.1284 162.048 89.172 162.183 89.1746 162.322Z" fill="#263238"/>
<path d="M89.1886 165.054V165.895C89.192 165.95 89.1807 166.006 89.1558 166.056C89.1309 166.106 89.0933 166.148 89.0468 166.179C89.0003 166.21 88.9465 166.228 88.8908 166.231C88.8352 166.234 88.7796 166.223 88.7297 166.198L87.2047 165.626C87.0793 165.573 86.9719 165.485 86.8955 165.372C86.8191 165.26 86.7769 165.127 86.7741 164.991V164.13C86.7705 164.075 86.7816 164.02 86.8061 163.971C86.8306 163.922 86.8677 163.88 86.9136 163.85C86.9596 163.82 87.0127 163.802 87.0675 163.799C87.1224 163.796 87.1771 163.808 87.2259 163.833L88.7721 164.419C88.8949 164.474 88.9993 164.563 89.0731 164.676C89.1469 164.789 89.187 164.92 89.1886 165.054Z" fill="#263238"/>
<path d="M89.2027 167.822V168.662C89.2067 168.718 89.1962 168.773 89.1722 168.823C89.1481 168.873 89.1115 168.916 89.0658 168.947C89.0201 168.979 88.967 168.998 88.9117 169.002C88.8565 169.007 88.801 168.997 88.7508 168.973L87.2117 168.422C87.0871 168.371 86.9797 168.286 86.9022 168.176C86.8246 168.066 86.7801 167.936 86.774 167.801V166.94C86.7685 166.885 86.7777 166.829 86.8008 166.779C86.8238 166.729 86.8599 166.686 86.9052 166.654C86.9506 166.622 87.0035 166.603 87.0587 166.599C87.1138 166.595 87.1691 166.605 87.2188 166.629L88.7791 167.194C88.9021 167.248 89.0073 167.335 89.0823 167.446C89.1573 167.558 89.1991 167.688 89.2027 167.822Z" fill="#263238"/>
<path d="M85.7788 158.044L85.7365 158.919C85.7395 158.975 85.7276 159.03 85.7022 159.079C85.6768 159.128 85.6388 159.169 85.592 159.199C85.5452 159.228 85.4914 159.245 85.4362 159.247C85.3809 159.248 85.3261 159.235 85.2776 159.209L83.7809 158.588C83.6559 158.531 83.55 158.44 83.476 158.325C83.402 158.209 83.3632 158.075 83.3643 157.938V157.048C83.3598 156.993 83.3703 156.938 83.3947 156.889C83.4192 156.839 83.4566 156.797 83.5031 156.768C83.5496 156.738 83.6033 156.721 83.6584 156.72C83.7136 156.718 83.7681 156.732 83.8162 156.759L85.3411 157.394C85.47 157.447 85.5804 157.537 85.6583 157.653C85.7362 157.768 85.7781 157.905 85.7788 158.044Z" fill="#263238"/>
<path d="M85.7722 160.762L85.7299 161.638C85.7329 161.693 85.721 161.748 85.6956 161.797C85.6702 161.846 85.6322 161.888 85.5854 161.917C85.5386 161.947 85.4848 161.963 85.4296 161.965C85.3743 161.967 85.3195 161.954 85.271 161.927L83.7743 161.313C83.648 161.258 83.5406 161.167 83.4653 161.051C83.39 160.936 83.3502 160.801 83.3507 160.663V159.774C83.3461 159.719 83.3566 159.664 83.381 159.614C83.4055 159.565 83.443 159.523 83.4894 159.493C83.5359 159.463 83.5896 159.447 83.6448 159.445C83.6999 159.444 83.7544 159.457 83.8025 159.484L85.3275 160.113C85.4577 160.165 85.5696 160.254 85.6488 160.37C85.728 160.485 85.771 160.622 85.7722 160.762Z" fill="#263238"/>
<path d="M85.7575 163.473V164.349C85.7611 164.403 85.75 164.458 85.7255 164.507C85.701 164.556 85.6639 164.598 85.618 164.628C85.572 164.659 85.5189 164.676 85.4641 164.679C85.4092 164.682 85.3546 164.67 85.3057 164.645L83.7948 164.038C83.6699 163.982 83.5639 163.89 83.49 163.775C83.416 163.66 83.3772 163.525 83.3783 163.388V162.499C83.3731 162.444 83.3829 162.389 83.4064 162.34C83.43 162.29 83.4665 162.248 83.5121 162.218C83.5577 162.187 83.6107 162.17 83.6655 162.167C83.7202 162.164 83.7747 162.177 83.8231 162.202L85.348 162.831C85.4706 162.887 85.5743 162.978 85.6469 163.092C85.7195 163.206 85.7578 163.338 85.7575 163.473Z" fill="#263238"/>
<path d="M85.7434 166.191V167.067C85.7456 167.121 85.7336 167.175 85.7086 167.223C85.6835 167.271 85.6463 167.312 85.6006 167.341C85.5549 167.37 85.5023 167.387 85.4481 167.39C85.3938 167.392 85.3399 167.381 85.2915 167.356L83.7807 166.756C83.6566 166.702 83.5507 166.613 83.4756 166.5C83.4005 166.388 83.3593 166.256 83.3571 166.12V165.224C83.3535 165.169 83.3646 165.114 83.3891 165.065C83.4136 165.016 83.4507 164.974 83.4966 164.944C83.5426 164.914 83.5957 164.896 83.6505 164.894C83.7054 164.891 83.7601 164.902 83.8089 164.927L85.3339 165.549C85.4564 165.605 85.5602 165.696 85.6327 165.81C85.7053 165.924 85.7437 166.056 85.7434 166.191Z" fill="#263238"/>
<path d="M82.3969 156.526V157.437C82.4001 157.491 82.3886 157.545 82.3636 157.594C82.3386 157.642 82.301 157.683 82.2548 157.712C82.2086 157.741 82.1554 157.757 82.1009 157.758C82.0464 157.759 81.9926 157.746 81.9451 157.719L80.4554 157.098C80.3305 157.042 80.2246 156.95 80.1506 156.835C80.0766 156.72 80.0378 156.585 80.0389 156.448V155.516C80.0349 155.463 80.0454 155.41 80.0691 155.362C80.0929 155.314 80.129 155.274 80.1739 155.245C80.2187 155.216 80.2704 155.2 80.3237 155.198C80.377 155.196 80.4298 155.208 80.4766 155.234L81.9875 155.876C82.1111 155.934 82.2156 156.025 82.2882 156.141C82.3609 156.256 82.3986 156.39 82.3969 156.526Z" fill="#263238"/>
<path d="M82.411 159.145V160.056C82.4158 160.11 82.4056 160.165 82.3816 160.213C82.3575 160.262 82.3205 160.303 82.2745 160.332C82.2286 160.362 82.1756 160.378 82.1212 160.379C82.0668 160.38 82.0132 160.366 81.9662 160.338L80.4765 159.717C80.3502 159.662 80.2428 159.571 80.1676 159.456C80.0923 159.34 80.0524 159.205 80.0529 159.067V158.136C80.0481 158.081 80.0583 158.027 80.0823 157.978C80.1064 157.929 80.1434 157.888 80.1893 157.859C80.2353 157.83 80.2883 157.814 80.3427 157.813C80.3971 157.812 80.4507 157.826 80.4977 157.853L82.0085 158.496C82.1309 158.554 82.2339 158.646 82.3052 158.761C82.3766 158.876 82.4133 159.01 82.411 159.145Z" fill="#263238"/>
<path d="M82.418 161.786V162.696C82.4212 162.751 82.4097 162.805 82.3847 162.854C82.3597 162.902 82.3221 162.943 82.2759 162.972C82.2296 163.001 82.1765 163.017 82.122 163.018C82.0675 163.019 82.0137 163.006 81.9662 162.979L80.4765 162.358C80.3533 162.298 80.2487 162.206 80.174 162.092C80.0994 161.977 80.0575 161.845 80.0529 161.708V160.776C80.0481 160.722 80.0583 160.668 80.0823 160.619C80.1064 160.57 80.1434 160.529 80.1893 160.5C80.2353 160.47 80.2883 160.454 80.3427 160.453C80.3971 160.452 80.4507 160.466 80.4977 160.494L82.0085 161.136C82.1322 161.193 82.2366 161.285 82.3093 161.4C82.382 161.516 82.4197 161.65 82.418 161.786Z" fill="#263238"/>
<path d="M82.4253 164.426V165.337C82.4301 165.391 82.4199 165.445 82.3959 165.494C82.3718 165.543 82.3348 165.584 82.2889 165.613C82.2429 165.643 82.1899 165.659 82.1355 165.66C82.0811 165.661 82.0275 165.647 81.9805 165.619L80.4838 164.998C80.3588 164.942 80.2529 164.85 80.1789 164.735C80.105 164.62 80.0661 164.485 80.0672 164.348V163.417C80.0633 163.363 80.0737 163.31 80.0974 163.262C80.1212 163.215 80.1574 163.174 80.2022 163.145C80.247 163.116 80.2987 163.1 80.352 163.098C80.4053 163.096 80.4581 163.109 80.5049 163.134L82.0158 163.77C82.1374 163.831 82.2398 163.925 82.312 164.041C82.3841 164.156 82.4233 164.29 82.4253 164.426Z" fill="#263238"/>
<path d="M252.91 275.487L246.394 273.27C245.836 267.029 246.641 251.906 256.786 243.032C267.087 234.023 273.808 239.799 273.61 243.738C273.399 248.038 264.157 252.069 259.49 257.858C254.393 264.156 252.805 268.462 252.91 275.487Z" fill="url(#paint19_linear_691_6834)"/>
<path opacity="0.5" d="M252.91 275.487L246.394 273.27C245.836 267.029 246.641 251.906 256.786 243.032C267.087 234.023 273.808 239.799 273.61 243.738C273.399 248.038 264.157 252.069 259.49 257.858C254.393 264.156 252.805 268.462 252.91 275.487Z" fill="white"/>
<path d="M248.512 274.336C248.42 274.334 248.332 274.296 248.267 274.23C248.202 274.164 248.166 274.075 248.166 273.983C248.258 257.194 260.726 242.502 266.939 241.549C266.985 241.542 267.032 241.545 267.078 241.556C267.123 241.567 267.166 241.587 267.204 241.615C267.241 241.643 267.273 241.678 267.297 241.718C267.322 241.759 267.338 241.803 267.344 241.849C267.351 241.896 267.349 241.943 267.338 241.989C267.327 242.034 267.306 242.077 267.279 242.115C267.251 242.152 267.216 242.184 267.176 242.208C267.135 242.232 267.091 242.248 267.044 242.255C260.959 243.187 248.957 258.133 248.872 273.99C248.871 274.036 248.861 274.082 248.842 274.125C248.824 274.167 248.797 274.206 248.764 274.238C248.73 274.27 248.691 274.295 248.648 274.312C248.604 274.329 248.558 274.337 248.512 274.336Z" fill="white"/>
<path d="M268.393 260.435C262.745 258.578 250.46 264.755 248.081 273.849L252.91 275.48C256.81 272.293 261.531 270.274 266.529 269.655C274.485 268.857 274.019 262.291 268.393 260.435Z" fill="url(#paint20_linear_691_6834)"/>
<path opacity="0.65" d="M268.393 260.435C262.745 258.578 250.46 264.755 248.081 273.849L252.91 275.48C256.81 272.293 261.531 270.274 266.529 269.655C274.485 268.857 274.019 262.291 268.393 260.435Z" fill="white"/>
<path d="M250.284 275.077C250.228 275.079 250.172 275.067 250.121 275.042C250.039 274.997 249.977 274.922 249.95 274.832C249.922 274.742 249.93 274.645 249.973 274.562C254.809 265.222 265.307 262.461 269.579 263.605C269.624 263.616 269.666 263.637 269.703 263.665C269.739 263.693 269.77 263.728 269.793 263.768C269.816 263.808 269.831 263.852 269.837 263.898C269.842 263.944 269.839 263.991 269.826 264.035C269.801 264.125 269.742 264.202 269.662 264.249C269.581 264.297 269.486 264.311 269.395 264.29C265.314 263.195 255.275 265.878 250.601 274.88C250.573 274.94 250.528 274.99 250.472 275.025C250.415 275.06 250.35 275.078 250.284 275.077Z" fill="white"/>
<path d="M244.833 170.844V275.247C244.864 275.594 244.988 275.927 245.192 276.21C245.396 276.493 245.671 276.717 245.991 276.857C246.855 277.299 247.812 277.529 248.783 277.529C249.754 277.529 250.711 277.299 251.575 276.857C251.894 276.715 252.169 276.492 252.372 276.209C252.576 275.926 252.7 275.594 252.733 275.247V170.844H244.833Z" fill="#455A64"/>
<path d="M244.833 190.414L252.733 185.853V170.844H244.833V190.414Z" fill="#37474F"/>
<path d="M233.799 188.734L288.288 157.274V59.7544L233.799 91.2138V188.734Z" fill="url(#paint21_linear_691_6834)"/>
<path d="M288.288 59.7544L263.768 45.5991L209.279 77.0585L233.799 91.2138L288.288 59.7544Z" fill="url(#paint22_linear_691_6834)"/>
<path opacity="0.2" d="M288.288 59.7544L263.768 45.5991L209.279 77.0585L233.799 91.2138L288.288 59.7544Z" fill="white"/>
<path d="M209.279 77.0586V174.578L233.799 188.734V91.2139L209.279 77.0586Z" fill="url(#paint23_linear_691_6834)"/>
<path opacity="0.2" d="M209.279 77.0586V174.578L233.799 188.734V91.2139L209.279 77.0586Z" fill="black"/>
<path d="M268.541 85.1069L248.335 137.669L261.043 127.389L251.159 164.553L273.751 108.045L261.043 117.957L268.541 85.1069Z" fill="#FAFAFA"/>
<path d="M237.922 91.9975C238.671 91.5668 239.285 91.9198 239.285 92.7882C239.259 93.2606 239.122 93.7202 238.885 94.1298C238.648 94.5395 238.318 94.8877 237.922 95.1462C237.167 95.5839 236.56 95.2309 236.56 94.3626C236.585 93.8891 236.722 93.4283 236.959 93.0174C237.195 92.6065 237.525 92.2571 237.922 91.9975Z" fill="#37474F"/>
<path d="M237.922 180.092C238.671 179.655 239.285 180.008 239.285 180.876C239.259 181.348 239.122 181.808 238.885 182.218C238.648 182.627 238.318 182.975 237.922 183.234C237.167 183.672 236.56 183.319 236.56 182.45C236.584 181.978 236.72 181.517 236.957 181.107C237.194 180.698 237.525 180.35 237.922 180.092Z" fill="#37474F"/>
<path d="M284.2 65.2613C284.956 64.8236 285.563 65.1766 285.563 66.0449C285.538 66.5177 285.402 66.978 285.165 67.3879C284.928 67.7978 284.598 68.1457 284.2 68.403C283.452 68.8407 282.845 68.4877 282.845 67.6193C282.87 67.1474 283.005 66.688 283.241 66.2783C283.476 65.8686 283.805 65.5202 284.2 65.2613Z" fill="#37474F"/>
<path d="M284.2 153.349C284.956 152.911 285.563 153.264 285.563 154.133C285.538 154.605 285.402 155.066 285.165 155.476C284.928 155.885 284.598 156.233 284.2 156.491C283.452 156.928 282.845 156.575 282.845 155.707C282.87 155.235 283.005 154.776 283.241 154.366C283.476 153.956 283.805 153.608 284.2 153.349Z" fill="#37474F"/>
<path d="M288.288 59.7546V128.964L318.258 111.66V14.1399L263.769 45.5993L288.288 59.7546Z" fill="url(#paint24_linear_691_6834)"/>
<path d="M318.257 14.1398L263.768 45.5992L261.043 44.0248L315.532 12.5654L318.257 14.1398Z" fill="url(#paint25_linear_691_6834)"/>
<path opacity="0.2" d="M318.257 14.1398L263.768 45.5992L261.043 44.0248L315.532 12.5654L318.257 14.1398Z" fill="white"/>
<path d="M261.043 47.1737V44.0249L263.768 45.5993L261.043 47.1737Z" fill="url(#paint26_linear_691_6834)"/>
<path opacity="0.2" d="M261.043 47.1737V44.0249L263.768 45.5993L261.043 47.1737Z" fill="black"/>
<path opacity="0.2" d="M263.769 45.5991L298.857 55.229V122.864L288.288 128.964V59.7544L263.769 45.5991Z" fill="black"/>
<defs>
<linearGradient id="paint0_linear_691_6834" x1="226.231" y1="200.072" x2="141.389" y2="294.188" gradientUnits="userSpaceOnUse">
<stop stop-color="#F6B042"/>
<stop offset="0.486216" stop-color="#96B562"/>
<stop offset="1" stop-color="#1C5790"/>
</linearGradient>
<linearGradient id="paint1_linear_691_6834" x1="226.233" y1="198.486" x2="153.954" y2="290.436" gradientUnits="userSpaceOnUse">
<stop stop-color="#F6B042"/>
<stop offset="0.486216" stop-color="#96B562"/>
<stop offset="1" stop-color="#1C5790"/>
</linearGradient>
<linearGradient id="paint2_linear_691_6834" x1="201.087" y1="283.756" x2="179.602" y2="303.235" gradientUnits="userSpaceOnUse">
<stop stop-color="#F6B042"/>
<stop offset="0.486216" stop-color="#96B562"/>
<stop offset="1" stop-color="#1C5790"/>
</linearGradient>
<linearGradient id="paint3_linear_691_6834" x1="189.165" y1="289.121" x2="178.695" y2="296.208" gradientUnits="userSpaceOnUse">
<stop stop-color="#F6B042"/>
<stop offset="0.486216" stop-color="#96B562"/>
<stop offset="1" stop-color="#1C5790"/>
</linearGradient>
<linearGradient id="paint4_linear_691_6834" x1="185.308" y1="291.3" x2="175.95" y2="296.458" gradientUnits="userSpaceOnUse">
<stop stop-color="#F6B042"/>
<stop offset="0.486216" stop-color="#96B562"/>
<stop offset="1" stop-color="#1C5790"/>
</linearGradient>
<linearGradient id="paint5_linear_691_6834" x1="184.506" y1="291.698" x2="175.432" y2="296.867" gradientUnits="userSpaceOnUse">
<stop stop-color="#F6B042"/>
<stop offset="0.486216" stop-color="#96B562"/>
<stop offset="1" stop-color="#1C5790"/>
</linearGradient>
<linearGradient id="paint6_linear_691_6834" x1="170.237" y1="103.314" x2="151.951" y2="114.001" gradientUnits="userSpaceOnUse">
<stop stop-color="#F6B042"/>
<stop offset="0.486216" stop-color="#96B562"/>
<stop offset="1" stop-color="#1C5790"/>
</linearGradient>
<linearGradient id="paint7_linear_691_6834" x1="127.969" y1="33.9192" x2="87.2271" y2="76.932" gradientUnits="userSpaceOnUse">
<stop stop-color="#F6B042"/>
<stop offset="0.486216" stop-color="#96B562"/>
<stop offset="1" stop-color="#1C5790"/>
</linearGradient>
<linearGradient id="paint8_linear_691_6834" x1="122.032" y1="31.0461" x2="98.9828" y2="59.5506" gradientUnits="userSpaceOnUse">
<stop stop-color="#F6B042"/>
<stop offset="0.486216" stop-color="#96B562"/>
<stop offset="1" stop-color="#1C5790"/>
</linearGradient>
<linearGradient id="paint9_linear_691_6834" x1="117.231" y1="32.1968" x2="96.2446" y2="55.4076" gradientUnits="userSpaceOnUse">
<stop stop-color="#F6B042"/>
<stop offset="0.486216" stop-color="#96B562"/>
<stop offset="1" stop-color="#1C5790"/>
</linearGradient>
<linearGradient id="paint10_linear_691_6834" x1="133.773" y1="37.3545" x2="120.333" y2="65.6367" gradientUnits="userSpaceOnUse">
<stop stop-color="#F6B042"/>
<stop offset="0.486216" stop-color="#96B562"/>
<stop offset="1" stop-color="#1C5790"/>
</linearGradient>
<linearGradient id="paint11_linear_691_6834" x1="133.753" y1="38.4001" x2="123.154" y2="64.0315" gradientUnits="userSpaceOnUse">
<stop stop-color="#F6B042"/>
<stop offset="0.486216" stop-color="#96B562"/>
<stop offset="1" stop-color="#1C5790"/>
</linearGradient>
<linearGradient id="paint12_linear_691_6834" x1="134.14" y1="140.462" x2="124.326" y2="172.393" gradientUnits="userSpaceOnUse">
<stop stop-color="#F6B042"/>
<stop offset="0.486216" stop-color="#96B562"/>
<stop offset="1" stop-color="#1C5790"/>
</linearGradient>
<linearGradient id="paint13_linear_691_6834" x1="105.13" y1="93.8239" x2="49.0585" y2="106.103" gradientUnits="userSpaceOnUse">
<stop stop-color="#F6B042"/>
<stop offset="0.486216" stop-color="#96B562"/>
<stop offset="1" stop-color="#1C5790"/>
</linearGradient>
<linearGradient id="paint14_linear_691_6834" x1="135.665" y1="93.8369" x2="91.6858" y2="101.177" gradientUnits="userSpaceOnUse">
<stop stop-color="#F6B042"/>
<stop offset="0.486216" stop-color="#96B562"/>
<stop offset="1" stop-color="#1C5790"/>
</linearGradient>
<linearGradient id="paint15_linear_691_6834" x1="64.177" y1="95.6771" x2="43.5597" y2="108.64" gradientUnits="userSpaceOnUse">
<stop stop-color="#F6B042"/>
<stop offset="0.486216" stop-color="#96B562"/>
<stop offset="1" stop-color="#1C5790"/>
</linearGradient>
<linearGradient id="paint16_linear_691_6834" x1="57.5888" y1="62.2001" x2="19.234" y2="85.3151" gradientUnits="userSpaceOnUse">
<stop stop-color="#F6B042"/>
<stop offset="0.486216" stop-color="#96B562"/>
<stop offset="1" stop-color="#1C5790"/>
</linearGradient>
<linearGradient id="paint17_linear_691_6834" x1="51.2036" y1="79.0637" x2="45.9437" y2="85.6377" gradientUnits="userSpaceOnUse">
<stop stop-color="#F6B042"/>
<stop offset="0.486216" stop-color="#96B562"/>
<stop offset="1" stop-color="#1C5790"/>
</linearGradient>
<linearGradient id="paint18_linear_691_6834" x1="90.2544" y1="147.704" x2="72.5322" y2="157.964" gradientUnits="userSpaceOnUse">
<stop stop-color="#F6B042"/>
<stop offset="0.486216" stop-color="#96B562"/>
<stop offset="1" stop-color="#1C5790"/>
</linearGradient>
<linearGradient id="paint19_linear_691_6834" x1="273.615" y1="247.169" x2="222.313" y2="274.851" gradientUnits="userSpaceOnUse">
<stop stop-color="#F6B042"/>
<stop offset="0.486216" stop-color="#96B562"/>
<stop offset="1" stop-color="#1C5790"/>
</linearGradient>
<linearGradient id="paint20_linear_691_6834" x1="272.568" y1="263.786" x2="247.532" y2="293.075" gradientUnits="userSpaceOnUse">
<stop stop-color="#F6B042"/>
<stop offset="0.486216" stop-color="#96B562"/>
<stop offset="1" stop-color="#1C5790"/>
</linearGradient>
<linearGradient id="paint21_linear_691_6834" x1="288.288" y1="90.6415" x2="167.925" y2="127.992" gradientUnits="userSpaceOnUse">
<stop stop-color="#F6B042"/>
<stop offset="0.486216" stop-color="#96B562"/>
<stop offset="1" stop-color="#1C5790"/>
</linearGradient>
<linearGradient id="paint22_linear_691_6834" x1="288.288" y1="56.5226" x2="215.225" y2="149.48" gradientUnits="userSpaceOnUse">
<stop stop-color="#F6B042"/>
<stop offset="0.486216" stop-color="#96B562"/>
<stop offset="1" stop-color="#1C5790"/>
</linearGradient>
<linearGradient id="paint23_linear_691_6834" x1="233.799" y1="103.802" x2="175.926" y2="113.135" gradientUnits="userSpaceOnUse">
<stop stop-color="#F6B042"/>
<stop offset="0.486216" stop-color="#96B562"/>
<stop offset="1" stop-color="#1C5790"/>
</linearGradient>
<linearGradient id="paint24_linear_691_6834" x1="318.258" y1="41.6372" x2="200.6" y2="82.6497" gradientUnits="userSpaceOnUse">
<stop stop-color="#F6B042"/>
<stop offset="0.486216" stop-color="#96B562"/>
<stop offset="1" stop-color="#1C5790"/>
</linearGradient>
<linearGradient id="paint25_linear_691_6834" x1="318.257" y1="20.4761" x2="265.345" y2="87.7922" gradientUnits="userSpaceOnUse">
<stop stop-color="#F6B042"/>
<stop offset="0.486216" stop-color="#96B562"/>
<stop offset="1" stop-color="#1C5790"/>
</linearGradient>
<linearGradient id="paint26_linear_691_6834" x1="263.768" y1="44.7789" x2="259.068" y2="47.7668" gradientUnits="userSpaceOnUse">
<stop stop-color="#F6B042"/>
<stop offset="0.486216" stop-color="#96B562"/>
<stop offset="1" stop-color="#1C5790"/>
</linearGradient>
</defs>
</svg>
