<svg width="275" height="275" viewBox="0 0 275 275" fill="none" xmlns="http://www.w3.org/2000/svg">
<path d="M194.837 120.908L185.149 161.199L235.548 173.318L245.236 133.026L194.837 120.908Z" fill="#FAFAFA"/>
<path d="M245.248 133.04L245.001 132.991L244.294 132.826L241.554 132.185L231.208 129.736L194.815 121.061L194.98 120.962C192.097 132.952 188.798 146.718 185.302 161.251L185.176 161.065L235.592 173.214L235.439 173.302C238.387 161.18 240.826 151.124 242.53 144.093C243.39 140.581 244.064 137.824 244.53 135.934C244.76 134.996 244.936 134.29 245.078 133.785C245.221 133.281 245.27 133.04 245.27 133.04C245.27 133.04 245.221 133.281 245.111 133.763C245.001 134.246 244.826 134.969 244.612 135.901C244.163 137.786 243.516 140.537 242.683 144.049C241.001 151.102 238.601 161.191 235.702 173.362L235.669 173.482L235.548 173.455L185.132 161.355L184.984 161.322L185.023 161.174C188.53 146.625 191.84 132.876 194.728 120.885L194.761 120.754L194.892 120.787L231.351 129.626L241.62 132.136L244.327 132.804L245.018 132.974L245.248 133.04Z" fill="#E0E0E0"/>
<path d="M195.967 123.867L187.499 159.086L234.36 170.354L242.828 135.135L195.967 123.867Z" fill="#F5F5F5"/>
<path d="M187.505 159.091L209.134 141.133L215.979 157.271L224.615 151.605L234.364 170.363L187.505 159.091Z" fill="#EBEBEB"/>
<path d="M224.221 141.931C224.045 142.66 223.657 143.32 223.106 143.829C222.555 144.338 221.865 144.671 221.125 144.788C220.384 144.905 219.625 144.799 218.944 144.485C218.264 144.17 217.691 143.661 217.3 143.022C216.908 142.382 216.715 141.641 216.745 140.891C216.775 140.142 217.026 139.418 217.467 138.812C217.908 138.205 218.519 137.743 219.223 137.484C219.927 137.225 220.691 137.18 221.421 137.355C221.905 137.471 222.363 137.681 222.766 137.974C223.169 138.267 223.511 138.636 223.771 139.062C224.031 139.487 224.205 139.959 224.282 140.451C224.359 140.944 224.338 141.446 224.221 141.931Z" fill="#EBEBEB"/>
<path d="M52.5215 104.143L91.6651 94.8274C93.3907 94.3973 95.2161 94.6585 96.7517 95.5554C98.2874 96.4522 99.4118 97.9136 99.8851 99.6279L114.347 156.192L124.041 159.93C125.032 160.304 125.918 160.91 126.628 161.696C127.337 162.482 127.848 163.427 128.118 164.451L137.034 199.331C137.237 200.179 137.268 201.06 137.127 201.92C136.986 202.781 136.675 203.605 136.213 204.345C135.75 205.084 135.145 205.724 134.433 206.228C133.721 206.731 132.915 207.088 132.064 207.277L65.5474 223.125L52.5215 104.143Z" fill="#E0E0E0"/>
<path d="M111.246 188.141L41.7265 204.713L16.9131 107.646L86.4269 91.0742L111.246 188.141Z" fill="#F5F5F5"/>
<path d="M122.682 201.991L49.8637 219.351L23.8721 117.675L96.6903 100.32L122.682 201.991Z" fill="white"/>
<path d="M12.8027 113.614L42.2194 228.694L120.331 210.062C121.282 209.853 122.181 209.456 122.976 208.895C123.771 208.334 124.446 207.62 124.962 206.795C125.477 205.97 125.823 205.05 125.978 204.089C126.133 203.129 126.095 202.147 125.866 201.201L112.95 150.653C112.564 149.198 111.816 147.864 110.774 146.777C109.732 145.69 108.431 144.886 106.993 144.439L97.4084 141.381L88.0267 104.665C86.8266 99.9744 81.9165 97.1083 77.0667 98.2701L12.8027 113.614Z" fill="#EBEBEB"/>
<path d="M134.015 200.428L128.82 201.667L120.249 168.129L125.439 166.891L134.015 200.428Z" fill="#EBEBEB"/>
<path d="M46.8444 180.066L45.8964 180.357C42.17 168.975 46.3567 156.568 56.3084 149.488C61.1841 146.058 66.9777 144.172 72.9381 144.074C78.8985 143.977 84.7509 145.672 89.7364 148.94L89.1884 149.734C84.3715 146.579 78.7175 144.944 72.96 145.042C67.2025 145.14 61.6072 146.965 56.9002 150.282C47.2883 157.1 43.2441 169.079 46.8444 180.066Z" fill="#E0E0E0"/>
<path d="M90.6788 194.308C85.7907 197.752 79.9777 199.643 73.9987 199.733C68.0197 199.823 62.1525 198.108 57.1631 194.812L57.7111 194.023C62.5254 197.199 68.1851 198.852 73.9523 198.765C79.7195 198.678 85.3267 196.856 90.0431 193.535C94.598 190.333 98.0451 185.795 99.9071 180.548C101.707 175.495 101.898 170.008 100.455 164.842L101.414 164.59C102.912 169.94 102.721 175.623 100.866 180.86C98.9415 186.288 95.3825 190.986 90.6788 194.308Z" fill="#E0E0E0"/>
<path d="M81.511 155.229C78.3856 153.935 74.9837 153.452 71.6216 153.826C68.2595 154.2 65.0466 155.417 62.2817 157.366C59.5708 159.259 57.4156 161.843 56.0397 164.849C54.6637 167.855 54.117 171.175 54.4562 174.464L81.511 155.229Z" fill="#E0E0E0"/>
<path d="M64.8027 189.19C68.0493 190.823 71.6782 191.543 75.3022 191.275C78.9261 191.007 82.4093 189.76 85.3801 187.667C88.2931 185.636 90.5602 182.809 91.9109 179.525C93.2615 176.241 93.6387 172.637 92.9973 169.145L64.8027 189.19Z" fill="#E0E0E0"/>
<path d="M51.7654 181.949L50.8064 180.684L46.2744 183.906L47.2334 185.172L51.7654 181.949Z" fill="#E0E0E0"/>
<path d="M49.168 184.608L55.1357 192.433L56.5989 191.386L50.6366 183.566L49.168 184.608Z" fill="#E0E0E0"/>
<path d="M94.2406 151.749L93.2816 150.488L88.7441 153.711L89.7086 154.971L94.2406 151.749Z" fill="#E0E0E0"/>
<path d="M91.6436 154.408L97.6113 162.234L99.0744 161.193L93.1122 153.367L91.6436 154.408Z" fill="#E0E0E0"/>
<path d="M59.6837 187.188C59.3001 187.325 58.9055 187.188 58.4835 186.64L54.527 181.451C54.1105 180.903 54.0886 180.492 54.3352 180.179L53.2775 178.793C52.0829 179.796 52.0336 181.144 53.1351 182.591L56.9711 187.588C58.0671 189.03 59.4206 189.386 60.7687 188.586L59.6837 187.188Z" fill="#E0E0E0"/>
<path d="M53.793 178.422L54.8506 179.814C55.2342 179.677 55.6343 179.814 56.0507 180.362L60.0073 185.552C60.4292 186.1 60.4457 186.511 60.1991 186.823L61.2622 188.21C62.4514 187.207 62.5007 185.853 61.4047 184.412L57.5687 179.414C56.4946 177.978 55.1465 177.622 53.793 178.422Z" fill="#E0E0E0"/>
<path d="M58.0623 175.527L56.7197 176.481L64.052 186.093L65.3891 185.139L58.0623 175.527Z" fill="#E0E0E0"/>
<path d="M58.8782 174.942L58.5713 175.166L59.618 176.536L59.9303 176.317C60.3961 175.988 60.8126 176.027 61.3387 176.712L62.4347 178.153C62.9827 178.844 62.8676 179.249 62.4018 179.572L62.0949 179.792L63.1416 181.167L63.4485 180.948C64.9171 179.901 64.9993 178.553 63.8266 177.013L62.8731 175.764C61.7058 174.218 60.3468 173.901 58.8782 174.942Z" fill="#E0E0E0"/>
<path d="M75.434 169.422L73.8174 170.573L74.8641 171.943L76.4807 170.797L75.434 169.422Z" fill="#E0E0E0"/>
<path d="M70.2168 166.887L68.8633 167.846L76.19 177.463L77.5491 176.499L70.2168 166.887Z" fill="#E0E0E0"/>
<path d="M70.7314 166.516L71.7781 167.892L73.9098 166.374L72.8632 165.004L70.7314 166.516Z" fill="#E0E0E0"/>
<path d="M78.0584 176.136L80.1901 174.618L79.1434 173.242L77.0117 174.76L78.0584 176.136Z" fill="#E0E0E0"/>
<path d="M81.96 171.338C81.5764 171.486 81.1819 171.338 80.7544 170.79L76.7979 165.601C76.3759 165.053 76.3595 164.631 76.617 164.318L75.5758 162.938C74.3374 163.946 74.31 165.288 75.4224 166.773L79.231 171.771C80.327 173.234 81.6805 173.607 83.067 172.763L81.96 171.338Z" fill="#E0E0E0"/>
<path d="M76.0752 162.59L77.1328 163.977C77.511 163.851 77.9055 163.977 78.322 164.525L79.1056 165.555L80.4921 164.568L79.7797 163.631C78.6946 162.223 77.4014 161.834 76.0752 162.59Z" fill="#E0E0E0"/>
<path d="M82.2781 169.724C82.6891 170.272 82.7056 170.666 82.4699 170.973L83.5385 172.37C84.6729 171.373 84.6729 170.063 83.5878 168.644L82.6179 167.367L81.2314 168.354L82.2781 169.724Z" fill="#E0E0E0"/>
<path d="M80.157 159.816L78.9131 160.704L86.2399 170.316L87.4838 169.434L80.157 159.816Z" fill="#E0E0E0"/>
<path d="M89.7474 165.997L88.6185 164.517C87.8568 163.515 87.0622 162.956 86.0867 163.164C86.4977 162.38 86.3114 161.52 85.5387 160.528L84.9633 159.772C83.829 158.292 82.6234 158.029 81.1273 159.109L80.667 159.432L81.7137 160.807L82.1521 160.517C82.6727 160.15 83.133 160.292 83.6536 160.977L84.377 161.925C84.9633 162.693 84.8154 163.18 84.2728 163.569L83.9879 163.767L85.0346 165.142L85.2538 164.989C85.9168 164.512 86.4648 164.638 87.1444 165.537L88.2952 167.049C88.5652 167.479 88.9171 167.851 89.3309 168.145L90.8214 167.088C90.3929 166.801 90.0274 166.43 89.7474 165.997Z" fill="#E0E0E0"/>
<path d="M85.626 155.926L84.2725 156.896L91.5992 166.508L92.9583 165.543L85.626 155.926Z" fill="#E0E0E0"/>
<path d="M90.8377 158.473L89.2266 159.613L90.2732 160.988L91.8844 159.843L90.8377 158.473Z" fill="#E0E0E0"/>
<path d="M93.4685 165.175L95.6003 163.663L94.5536 162.293L92.4219 163.805L93.4685 165.175Z" fill="#E0E0E0"/>
<path d="M86.1416 155.563L87.1883 156.939L89.3145 155.421L88.2678 154.051L86.1416 155.563Z" fill="#E0E0E0"/>
<path d="M71.9538 178.481C71.5483 178.668 71.1319 178.558 70.6825 177.972L70.1345 177.281L68.748 178.268L69.1974 178.859C70.2934 180.312 71.6305 180.684 72.9841 179.868L71.9538 178.481Z" fill="#E0E0E0"/>
<path d="M67.1094 171.086C67.493 170.938 67.8821 171.086 68.3095 171.634L68.6109 172.034L69.9974 171.048L69.7672 170.747C68.6712 169.311 67.3834 168.922 66.0518 169.694L67.1094 171.086Z" fill="#E0E0E0"/>
<path d="M66.8414 172.695C66.4359 172.147 66.3921 171.769 66.6058 171.468L65.5427 170.07C64.3535 171.068 64.348 172.388 65.4495 173.83C67.5429 176.57 70.6939 174.926 72.2009 176.887C72.59 177.397 72.6338 177.781 72.4365 178.082L73.5325 179.501C74.6943 178.499 74.6998 177.183 73.6092 175.753C71.4994 173.002 68.3539 174.668 66.8414 172.695Z" fill="#E0E0E0"/>
<path d="M50.8069 173L51.5138 172.951C52.3632 172.896 52.8784 173.274 52.9386 174.047C52.9989 174.819 52.5605 175.312 51.6892 175.356L48.9492 175.543C48.0998 175.603 47.5847 175.225 47.5299 174.447C47.4751 173.668 47.9244 173.214 48.7738 173.153L49.2725 173.12L49.3328 173.882L48.7848 173.92C48.4067 173.92 48.2697 174.118 48.2916 174.37C48.3135 174.622 48.467 174.781 48.8396 174.753L51.7056 174.556C52.0838 174.529 52.2098 174.359 52.1934 174.101C52.1769 173.844 52.0235 173.696 51.6454 173.723L50.8836 173.773L50.8069 173Z" fill="#E0E0E0"/>
<path d="M48.8283 170.716C47.9789 170.606 47.5569 170.119 47.6611 169.335C47.7652 168.551 48.3077 168.179 49.1516 168.283L51.8916 168.628C52.7355 168.732 53.1575 169.22 53.0534 170.009C53.0413 170.183 52.9905 170.352 52.9047 170.504C52.8189 170.656 52.7002 170.787 52.5574 170.887C52.4146 170.988 52.2512 171.055 52.0791 171.084C51.9071 171.113 51.7307 171.103 51.5628 171.056L48.8283 170.716ZM51.7272 170.261C52.1053 170.31 52.2752 170.168 52.2752 169.916C52.2752 169.664 52.193 169.483 51.8149 169.434L48.9653 169.077C48.5872 169.028 48.4173 169.171 48.4173 169.428C48.4173 169.686 48.505 169.861 48.8776 169.905L51.7272 170.261Z" fill="#E0E0E0"/>
<path d="M50.176 165.185L53.8147 166.413L53.5681 167.092L48.543 165.399L48.8937 164.44L52.1817 164.67L49.1732 163.656L49.4198 162.977L54.4449 164.675L54.16 165.448L50.176 165.185Z" fill="#E0E0E0"/>
<path d="M53.1461 160.9L53.6941 160.007L54.3462 160.379L53.7982 161.278L55.6888 162.374L55.2613 163.07L50.6855 160.445L51.8144 158.609L52.472 158.982L51.7651 160.127L53.1461 160.9Z" fill="#E0E0E0"/>
<path d="M53.3496 156.604L53.8976 155.984L57.9857 159.272L57.4377 159.892L53.3496 156.604Z" fill="#E0E0E0"/>
<path d="M55.8096 154.02L56.8124 153.187C56.9344 153.063 57.0823 152.969 57.2455 152.909C57.4086 152.85 57.5829 152.829 57.7556 152.845C57.9283 152.862 58.0951 152.917 58.2438 153.007C58.3925 153.096 58.5194 153.217 58.6153 153.362L60.3689 155.335C60.9169 155.959 60.9169 156.557 60.2812 157.083L59.2784 157.916L55.8096 154.02ZM56.9384 154.047L59.4209 156.831L59.7771 156.535C59.9798 156.365 60.0072 156.168 59.7771 155.888L57.9742 153.861C57.7276 153.581 57.5139 153.587 57.3166 153.751L56.9384 154.047Z" fill="#E0E0E0"/>
<path d="M61.9473 152.334L62.9501 151.786L63.3228 152.427L62.3199 152.975L63.0762 154.291L64.3366 153.617L64.7092 154.258L62.7145 155.326L60.1279 150.838L62.1226 149.742L62.4898 150.383L61.2294 151.063L61.9473 152.334Z" fill="#E0E0E0"/>
<path d="M65.8985 149.8L67.0493 153.351L66.3314 153.57L64.7422 148.666L65.745 148.364L67.5151 151.049L66.5615 148.112L67.2739 147.898L68.8631 152.803L68.0466 153.05L65.8985 149.8Z" fill="#E0E0E0"/>
<path d="M69.915 147.365L72.4852 147.113L72.5619 147.842L71.696 147.93L72.1618 152.314L71.3289 152.396L70.8631 148.012L69.9918 148.1L69.915 147.365Z" fill="#E0E0E0"/>
<path d="M75.0286 147.137L75.867 147.186L75.5546 152.315L74.7217 152.271L75.0286 147.137Z" fill="#E0E0E0"/>
<path d="M80.0859 153.099L79.2639 152.912L79.3406 151.975L78.3433 151.751L77.9871 152.627L77.2363 152.463L79.2639 147.641L80.4531 147.904L80.0859 153.099ZM78.6063 151.099L79.3954 151.268L79.6037 148.649L78.6063 151.099Z" fill="#E0E0E0"/>
<path d="M83.8289 148.961L84.5906 149.29L82.7274 153.312L83.9823 153.86L83.67 154.529L81.6533 153.657L83.8289 148.961Z" fill="#E0E0E0"/>
<path d="M96.4934 171.553L95.7865 171.602C94.9371 171.662 94.422 171.284 94.3617 170.506C94.3014 169.728 94.7617 169.268 95.6111 169.213L98.3511 169.021C99.2005 168.966 99.7157 169.339 99.7705 170.117C99.8253 170.895 99.3759 171.35 98.5265 171.41L98.0443 171.476L97.9895 170.714L98.5375 170.676C98.9156 170.648 99.0526 170.479 99.0307 170.221C99.0087 169.963 98.8553 169.815 98.4827 169.843L95.6166 170.035C95.2385 170.062 95.1125 170.232 95.1344 170.49C95.1563 170.747 95.2988 170.901 95.6824 170.873L96.4441 170.818L96.4934 171.553Z" fill="#E0E0E0"/>
<path d="M98.4766 173.843C99.3205 173.947 99.7425 174.435 99.6383 175.224C99.626 175.398 99.5752 175.567 99.4894 175.72C99.4036 175.872 99.2852 176.003 99.1425 176.103C98.9999 176.204 98.8366 176.272 98.6646 176.302C98.4925 176.332 98.316 176.323 98.1478 176.276L95.4078 175.931C95.2343 175.936 95.0618 175.902 94.9034 175.831C94.7449 175.76 94.6046 175.654 94.4928 175.521C94.3811 175.389 94.3008 175.232 94.2581 175.064C94.2153 174.896 94.2112 174.72 94.246 174.55C94.3501 173.761 94.8926 173.394 95.7366 173.498L98.4766 173.843ZM95.5722 174.292C95.1941 174.249 95.0242 174.391 94.9968 174.643C94.9694 174.895 95.0844 175.076 95.4571 175.125L98.3067 175.482C98.6848 175.525 98.8547 175.383 98.8821 175.131C98.9095 174.879 98.7944 174.698 98.4218 174.649L95.5722 174.292Z" fill="#E0E0E0"/>
<path d="M97.1234 179.373L93.4847 178.146L93.7313 177.461L98.7565 179.149L98.4057 180.102L95.1177 179.872L98.1262 180.886L97.8797 181.565L92.8545 179.872L93.1395 179.088L97.1234 179.373Z" fill="#E0E0E0"/>
<path d="M94.1531 183.655L93.6051 184.554L92.953 184.181L93.501 183.283L91.6104 182.187L92.0378 181.496L96.6136 184.116L95.4847 185.951L94.8326 185.579L95.534 184.439L94.1531 183.655Z" fill="#E0E0E0"/>
<path d="M93.9505 187.956L93.4025 188.575L89.3145 185.287L89.8625 184.668L93.9505 187.956Z" fill="#E0E0E0"/>
<path d="M91.4678 190.541L90.465 191.374C90.3426 191.497 90.1944 191.591 90.031 191.65C89.8676 191.708 89.6932 191.73 89.5205 191.712C89.3478 191.695 89.1811 191.64 89.0326 191.55C88.8841 191.46 88.7575 191.338 88.6621 191.193L86.9085 189.226C86.3605 188.601 86.3605 188.004 86.9961 187.478L87.999 186.645L91.4678 190.541ZM90.3389 190.508L87.8565 187.724L87.5003 188.026C87.2975 188.19 87.2701 188.393 87.5003 188.672L89.3032 190.694C89.5498 190.974 89.7635 190.974 89.9608 190.804L90.3389 190.508Z" fill="#E0E0E0"/>
<path d="M85.3527 192.217L84.3499 192.765L83.9773 192.124L84.9801 191.576L84.2239 190.261L82.9635 190.94L82.5908 190.299L84.5855 189.203L87.1721 193.697L85.1774 194.793L84.8102 194.152L86.0706 193.472L85.3527 192.217Z" fill="#E0E0E0"/>
<path d="M81.4012 194.757L80.2504 191.206L80.9683 190.992L82.5575 195.897L81.5546 196.198L79.7846 193.508L80.7381 196.445L80.0257 196.659L78.4365 191.759L79.253 191.507L81.4012 194.757Z" fill="#E0E0E0"/>
<path d="M77.3841 197.177L74.814 197.435L74.7373 196.701L75.6031 196.619L75.1373 192.235L75.9703 192.152L76.4361 196.536L77.3074 196.449L77.3841 197.177Z" fill="#E0E0E0"/>
<path d="M72.2877 197.421L71.4492 197.377L71.7616 192.242L72.5945 192.292L72.2877 197.421Z" fill="#E0E0E0"/>
<path d="M67.2138 191.461L68.0358 191.642L67.9591 192.584L68.9565 192.804L69.3127 191.927L70.0634 192.091L68.0358 196.919L66.8467 196.65L67.2138 191.461ZM68.6934 193.461L67.9043 193.286L67.6961 195.905L68.6934 193.461Z" fill="#E0E0E0"/>
<path d="M63.4707 195.589L62.709 195.255L64.5722 191.238L63.3173 190.69L63.6296 190.016L65.6463 190.892L63.4707 195.589Z" fill="#E0E0E0"/>
<path d="M24.3815 119.855L26.1899 126.935L24.7596 127.275L22.2607 117.499L24.2555 117.027L27.3845 122.507L25.8885 116.66L27.3078 116.32L29.8067 126.091L28.1627 126.48L24.3815 119.855Z" fill="#E0E0E0"/>
<path d="M28.7388 117.528C28.6614 117.328 28.6305 117.113 28.6486 116.899C28.6666 116.686 28.7331 116.479 28.8429 116.295C28.9527 116.11 29.1031 115.953 29.2825 115.836C29.4619 115.718 29.6658 115.643 29.8786 115.616C30.0831 115.545 30.3009 115.52 30.5161 115.544C30.7313 115.567 30.9387 115.638 31.1232 115.751C31.3077 115.864 31.4648 116.017 31.5832 116.199C31.7015 116.38 31.7782 116.585 31.8076 116.8L32.3556 118.964C32.4329 119.164 32.4638 119.379 32.4457 119.593C32.4277 119.807 32.3612 120.014 32.2514 120.198C32.1416 120.382 31.9913 120.539 31.8118 120.657C31.6324 120.774 31.4285 120.85 31.2157 120.877C31.0111 120.947 30.7937 120.97 30.5788 120.947C30.3639 120.923 30.157 120.852 29.9727 120.739C29.7885 120.626 29.6315 120.473 29.5129 120.293C29.3943 120.112 29.3171 119.907 29.2868 119.693L28.7388 117.528ZM30.3225 119.507C30.4376 119.956 30.6622 120.055 30.9965 119.983C31.3308 119.912 31.4788 119.704 31.3637 119.26L30.7773 116.98C30.6677 116.537 30.4266 116.432 30.1033 116.509C29.78 116.586 29.6265 116.783 29.7361 117.233L30.3225 119.507ZM32.9036 121.063L33.1502 122.028L30.0923 122.778L29.8457 121.814L32.9036 121.063Z" fill="#E0E0E0"/>
<path d="M76.6391 98.375L88.4924 120.514L59.821 134.833L47.9678 112.694L76.6391 98.375Z" fill="#FAFAFA"/>
<path d="M76.639 98.3789L76.502 98.4501L76.1019 98.6529L74.5511 99.442L68.693 102.39L48.006 112.764L48.0443 112.654L59.9031 134.788L59.777 134.75L88.4539 120.447L88.421 120.551L79.8612 104.473L77.4774 99.9791C77.2089 99.4585 76.9952 99.0639 76.8527 98.7899C76.7102 98.5159 76.639 98.3789 76.639 98.3789C76.639 98.3789 76.7157 98.5049 76.8637 98.768L77.4939 99.9352L79.9105 104.401L88.5635 120.48L88.5963 120.546L88.5306 120.578L59.8592 134.909L59.777 134.952L59.7332 134.87C55.4588 126.875 51.42 119.318 47.8909 112.731L47.8525 112.654L47.9293 112.621L68.6985 102.297L74.5621 99.3927L76.1129 98.631L76.5075 98.4392L76.639 98.3789Z" fill="#E0E0E0"/>
<path d="M60.0623 132.942L86.7225 119.637L76.3598 100.281L49.7051 113.592L60.0623 132.942Z" fill="#F5F5F5"/>
<path d="M60.0625 132.941L62.934 116.265L72.7323 120.912L74.4913 114.934L86.7227 119.635L60.0625 132.941Z" fill="#EBEBEB"/>
<path d="M70.359 110.692C70.5009 110.959 70.5873 111.252 70.6129 111.554C70.6386 111.855 70.603 112.159 70.5083 112.446C70.4136 112.733 70.2617 112.998 70.0618 113.225C69.8619 113.452 69.6182 113.636 69.3452 113.767C68.7903 114.044 68.1496 114.097 67.5566 113.914C66.9636 113.732 66.4639 113.327 66.1613 112.786C66.0202 112.518 65.9345 112.225 65.9092 111.924C65.884 111.623 65.9197 111.32 66.0144 111.033C66.109 110.746 66.2606 110.481 66.4601 110.254C66.6595 110.027 66.9027 109.842 67.1751 109.711C67.7296 109.431 68.3712 109.377 68.965 109.56C69.5588 109.742 70.0585 110.149 70.359 110.692Z" fill="#EBEBEB"/>
<path d="M69 111.604C68.2434 111.611 67.5061 111.365 66.9041 110.907C66.302 110.449 65.8692 109.803 65.6737 109.073L63.8927 102.124C63.8418 101.926 63.8715 101.716 63.9753 101.541C64.0791 101.365 64.2485 101.238 64.4461 101.187C64.6438 101.136 64.8536 101.166 65.0293 101.269C65.2051 101.373 65.3324 101.543 65.3832 101.74L67.1587 108.694C67.2934 109.171 67.6089 109.575 68.038 109.822C68.467 110.069 68.9755 110.138 69.4549 110.015C69.6989 109.96 69.9293 109.856 70.1326 109.71C70.3359 109.564 70.5079 109.379 70.6385 109.166C70.7594 108.969 70.8392 108.751 70.8731 108.523C70.907 108.295 70.8943 108.062 70.8358 107.84L68.6438 99.2798C68.4167 98.4729 67.8834 97.7865 67.1578 97.3668C66.4321 96.9472 65.5712 96.8274 64.7585 97.033C64.3456 97.127 63.9558 97.3031 63.6122 97.5506C63.2686 97.7982 62.9782 98.1123 62.7583 98.4742C62.5528 98.8094 62.4168 99.1825 62.3585 99.5713C62.3001 99.9601 62.3205 100.357 62.4185 100.737L62.4733 100.946C62.518 101.14 62.4849 101.345 62.3811 101.516C62.2772 101.686 62.1109 101.81 61.9174 101.86C61.7239 101.91 61.5186 101.882 61.3451 101.783C61.1715 101.684 61.0435 101.521 60.9883 101.329L60.9335 101.116C60.7837 100.538 60.7516 99.9361 60.8392 99.3458C60.9267 98.7555 61.1321 98.1889 61.4431 97.6796C61.7687 97.1433 62.1982 96.6775 62.7064 96.3095C63.2145 95.9415 63.7912 95.6789 64.4023 95.537C65.6024 95.2497 66.8672 95.44 67.9296 96.0679C68.992 96.6957 69.7688 97.7118 70.096 98.9017L72.288 107.461C72.3938 107.882 72.4153 108.319 72.3513 108.748C72.2873 109.177 72.1392 109.589 71.9154 109.96C71.6807 110.349 71.37 110.686 71.0018 110.952C70.6336 111.217 70.2155 111.406 69.7727 111.506C69.5197 111.568 69.2605 111.601 69 111.604Z" fill="#E0E0E0"/>
<path d="M52.855 35.7826L37.2559 38.1445L37.9368 42.6417L53.5359 40.2797L52.855 35.7826Z" fill="#E0E0E0"/>
<path d="M48.5415 42.955L43.4971 43.7188L47.7205 71.6119L52.7649 70.8481L48.5415 42.955Z" fill="#E0E0E0"/>
<path d="M199.059 13.6459L183.46 16.0078L184.141 20.505L199.74 18.143L199.059 13.6459Z" fill="#E0E0E0"/>
<path d="M194.75 20.8182L189.706 21.582L193.929 49.4751L198.974 48.7113L194.75 20.8182Z" fill="#E0E0E0"/>
<path d="M66.1062 64.0701C64.9773 63.9166 64.1773 63.0398 63.8813 61.0835L61.0756 42.5775C60.7797 40.6211 61.2893 39.5416 62.3195 39.0648L61.5688 34.1328C57.2505 35.1576 55.3051 38.5607 56.0888 43.7009L58.7849 61.5219C59.5631 66.6621 62.4291 69.3363 66.8625 69.0404L66.1062 64.0701Z" fill="#E0E0E0"/>
<path d="M63.334 33.8698L64.0793 38.8018C65.2081 38.9553 66.0137 39.8321 66.3096 41.7884L69.1099 60.2944C69.4058 62.2562 68.9017 63.3303 67.8659 63.8071L68.6167 68.7391C72.9404 67.7088 74.8858 64.3058 74.0967 59.1655L71.406 41.3829C70.6443 36.2482 67.7618 33.5739 63.334 33.8698Z" fill="#E0E0E0"/>
<path d="M77.8243 31.998L73.2188 32.6953L78.4078 66.9657L83.0133 66.2684L77.8243 31.998Z" fill="#E0E0E0"/>
<path d="M80.6565 31.5728L79.5605 31.7317L80.3003 36.6308L81.3963 36.4664C83.002 36.2253 83.9939 36.8719 84.361 39.3215L85.1392 44.4617C85.5118 46.9113 84.7611 47.8264 83.1499 48.0676L82.0868 48.232L82.8266 53.1092L83.9226 52.9502C88.9697 52.183 90.9973 48.8238 90.1643 43.3383L89.4903 38.8831C88.6299 33.4195 85.6981 30.8056 80.6565 31.5728Z" fill="#E0E0E0"/>
<path d="M129.182 39.0037L123.634 39.8438L124.375 44.7364L129.923 43.8963L129.182 39.0037Z" fill="#E0E0E0"/>
<path d="M119.686 25.6608L115.021 26.3672L120.21 60.6376L124.875 59.9312L119.686 25.6608Z" fill="#E0E0E0"/>
<path d="M128.784 24.2868L121.442 25.3984L122.184 30.2965L129.526 29.1849L128.784 24.2868Z" fill="#E0E0E0"/>
<path d="M133.229 53.6579L125.888 54.7695L126.629 59.6676L133.971 58.556L133.229 53.6579Z" fill="#E0E0E0"/>
<path d="M142.794 52.4466C141.643 52.326 140.827 51.4821 140.531 49.4983L137.725 30.9924C137.424 29.0086 137.95 27.9345 139.013 27.4632L138.262 22.5312C133.823 23.5067 131.944 26.9152 132.733 32.1212L135.429 49.9422C136.218 55.1537 139.024 57.8498 143.55 57.4662L142.794 52.4466Z" fill="#E0E0E0"/>
<path d="M140.026 22.273L140.772 27.205C141.868 27.3748 142.662 28.2571 142.964 30.1861L143.512 33.8632L148.285 33.1398L147.781 29.808C147.013 24.7554 144.334 22.0647 140.026 22.273Z" fill="#E0E0E0"/>
<path d="M145.758 48.7264C146.049 50.6608 145.556 51.702 144.553 52.1788L145.303 57.1711C149.485 56.0751 151.249 52.7323 150.477 47.6633L149.792 43.1094L145.019 43.7944L145.758 48.7264Z" fill="#E0E0E0"/>
<path d="M153.894 20.4839L149.608 21.1328L154.797 55.4032L159.083 54.7543L153.894 20.4839Z" fill="#E0E0E0"/>
<path d="M169.284 48.9451L168.484 43.6569C167.936 40.0839 166.725 37.6289 164.029 36.8726C166.106 35.404 166.818 32.9435 166.281 29.4198L165.876 26.7291C165.075 21.4409 162.434 19.1887 157.201 19.9778L155.628 20.2189L156.368 25.1125L157.803 24.8933C159.595 24.6248 160.543 25.5838 160.905 28.0334L161.42 31.4091C161.837 34.1491 160.823 35.2067 158.938 35.4917L157.962 35.6396L158.702 40.5333L159.453 40.4182C161.744 40.0729 162.933 41.0977 163.415 44.2542L164.232 49.641C164.653 52.4304 164.917 52.929 165.328 53.7784L170.468 53.0003C169.788 51.8276 169.558 50.611 169.284 48.9451Z" fill="#E0E0E0"/>
<path d="M172.724 17.6318L168.048 18.3398L173.237 52.6102L177.913 51.9022L172.724 17.6318Z" fill="#E0E0E0"/>
<path d="M182.208 30.9662L176.671 31.8047L177.412 36.6974L182.949 35.8589L182.208 30.9662Z" fill="#E0E0E0"/>
<path d="M186.513 45.6339L179.173 46.7461L179.916 51.6505L187.256 50.5383L186.513 45.6339Z" fill="#E0E0E0"/>
<path d="M181.817 16.2572L174.486 17.3672L175.228 22.2653L182.559 21.1553L181.817 16.2572Z" fill="#E0E0E0"/>
<path d="M108.303 57.7189C107.048 57.6751 106.16 56.8476 105.842 54.7488L105.475 52.3047L100.702 53.028L101.02 55.1269C101.804 60.3055 104.582 63.0016 109.054 62.6619L108.303 57.7189Z" fill="#E0E0E0"/>
<path d="M106.265 32.4059C107.415 32.532 108.188 33.4088 108.489 35.4144L108.709 36.8392L113.493 36.1214L113.328 35.0254C112.556 29.9125 109.87 27.2164 105.53 27.4739L106.265 32.4059Z" fill="#E0E0E0"/>
<path d="M103.452 36.1814C103.167 34.2853 103.578 33.2222 104.521 32.7235L103.765 27.7422C99.474 28.7505 97.682 32.1262 98.4602 37.2883C99.9398 47.0811 110.007 46.9057 111.064 53.9585C111.338 55.7779 110.927 56.8136 110.034 57.3232L110.801 62.3758C115.037 61.3236 116.829 57.9534 116.056 52.8515C114.588 43.0588 104.521 43.2451 103.452 36.1814Z" fill="#E0E0E0"/>
<path d="M189.16 225.867V248.335H185.406V250.779H189.16V265.822H259.304V252.122H254.109V249.141H259.304V244.664H261.617V242.631H258.877V225.867H189.16Z" fill="#F5F5F5"/>
<path d="M240.694 225.933V265.581H259.321V251.892H254.126V249.163L259.321 249.256V244.779L261.677 244.784L261.633 242.472L258.888 242.406V225.867L240.694 225.933Z" fill="#E0E0E0"/>
<path d="M242.02 250.467C242.02 250.604 229.323 250.714 213.667 250.714C198.01 250.714 185.308 250.604 185.308 250.467C185.308 250.33 198.005 250.215 213.667 250.215C229.328 250.215 242.02 250.33 242.02 250.467Z" fill="#E0E0E0"/>
<path d="M242.02 248.197C242.02 248.334 229.323 248.444 213.667 248.444C198.01 248.444 185.308 248.334 185.308 248.197C185.308 248.06 198.005 247.945 213.667 247.945C229.328 247.945 242.02 248.044 242.02 248.197Z" fill="#E0E0E0"/>
<path d="M245.659 242.032C245.659 242.174 232.968 242.284 217.306 242.284C201.644 242.284 188.952 242.174 188.952 242.032C188.952 241.889 201.644 241.785 217.306 241.785C232.968 241.785 245.659 241.895 245.659 242.032Z" fill="#E0E0E0"/>
<path d="M246.004 258.783C246.004 258.92 233.307 259.03 217.65 259.03C201.994 259.03 189.297 258.92 189.297 258.783C189.297 258.646 201.989 258.531 217.65 258.531C233.312 258.531 246.004 258.641 246.004 258.783Z" fill="#E0E0E0"/>
<path d="M35.6869 243.66V255.557H30.9248V256.851H35.6869V264.813H124.71V257.568H118.134V255.99H124.71V253.623H127.636V252.527H124.156V243.66H35.6869Z" fill="#F5F5F5"/>
<path d="M101.069 243.699V264.681H124.71V257.437H118.112V255.99L124.71 256.039V253.672H127.697L127.636 252.45L124.157 252.412V243.66L101.069 243.699Z" fill="#E0E0E0"/>
<path d="M102.751 256.678C102.751 256.75 86.6455 256.81 66.775 256.81C46.9045 256.81 30.7988 256.75 30.7988 256.678C30.7988 256.607 46.9045 256.547 66.775 256.547C86.6455 256.547 102.751 256.607 102.751 256.678Z" fill="#E0E0E0"/>
<path d="M102.751 255.467C102.751 255.544 86.6455 255.599 66.775 255.599C46.9045 255.599 30.7988 255.544 30.7988 255.467C30.7988 255.391 46.9045 255.336 66.775 255.336C86.6455 255.336 102.751 255.396 102.751 255.467Z" fill="#E0E0E0"/>
<path d="M107.361 252.221C107.361 252.293 91.2549 252.353 71.3899 252.353C51.5249 252.353 35.4082 252.293 35.4082 252.221C35.4082 252.15 51.5139 252.09 71.3899 252.09C91.2658 252.09 107.361 252.15 107.361 252.221Z" fill="#E0E0E0"/>
<path d="M107.815 261.081C107.815 261.157 91.709 261.212 71.844 261.212C51.979 261.212 35.8623 261.157 35.8623 261.081C35.8623 261.004 51.968 260.949 71.844 260.949C91.7199 260.949 107.815 261.01 107.815 261.081Z" fill="#E0E0E0"/>
<path d="M259.101 265.232C259.101 265.309 206.17 265.375 140.892 265.375C75.6142 265.375 22.6719 265.309 22.6719 265.232C22.6719 265.156 75.5922 265.09 140.892 265.09C206.192 265.09 259.101 265.183 259.101 265.232Z" fill="#263238"/>
<path d="M102.734 35.8697C94.9527 35.5848 87.1711 39.5961 83.6365 45.7337C81.9201 48.7941 81.2083 52.3162 81.6017 55.8029C81.995 59.2896 83.4735 62.5647 85.8285 65.1658C81.9925 66.8098 80.5403 71.6541 82.9734 74.7229C85.4066 77.7917 91.0893 78.263 94.1252 75.6436C92.3004 79.0631 94.3061 83.4745 97.9612 85.4199C101.616 87.3653 106.461 87.0639 110.275 85.3486C114.089 83.6334 116.988 80.6249 119.185 77.3752L120.829 47.1037C117.887 40.725 110.516 36.1547 102.734 35.8697Z" fill="#263238"/>
<path d="M100.116 81.8687C98.7626 80.1589 98.0611 78.0239 98.1363 75.8447C98.2116 73.6655 99.0588 71.584 100.527 69.9717C98.7348 67.9002 99.2335 64.5903 100.899 62.4257C102.565 60.2611 105.119 58.9569 107.58 57.7239C108.73 51.4438 115.652 46.8132 121.981 48.0955C125.083 43.2347 132.02 42.2429 137.654 43.6567C139.029 44.0019 140.394 44.4623 141.83 44.4075C142.865 44.293 143.892 44.1099 144.904 43.8595C150.554 42.9114 156.33 46.6652 158.73 51.8055C159.053 52.659 159.488 53.466 160.023 54.2057C160.79 55.1154 161.925 55.6305 162.906 56.321C163.956 57.0735 164.831 58.0445 165.471 59.1674C166.11 60.2903 166.499 61.5383 166.61 62.8257C166.78 65.0177 166.161 67.3358 167.158 69.2812C167.657 70.2566 168.528 71.0293 168.923 72.0212C170.079 74.9804 166.835 78.1533 167.564 81.244C167.717 81.8687 168.024 82.4496 168.227 83.0689C168.634 84.3418 168.562 85.7197 168.024 86.9432C167.607 87.8803 166.928 88.7461 166.89 89.7654C166.89 90.5381 167.246 91.2615 167.438 92.0177C167.887 93.859 164.089 101.153 162.506 102.216L114.051 104.331C112.214 103.995 110.526 103.096 109.221 101.759C107.916 100.422 107.059 98.7129 106.769 96.8675C106.77 96.2479 106.593 95.641 106.259 95.1194C105.865 94.7639 105.405 94.4901 104.905 94.3138C101.721 92.7685 101.195 88.5489 101.404 85.0526C101.462 84.5638 101.434 84.0687 101.321 83.5895C101.039 82.9407 100.629 82.3554 100.116 81.8687Z" fill="#263238"/>
<path d="M115.717 81.5748C115.273 73.1028 118.588 63.0579 126.962 58.6136C132.239 55.8134 136.431 55.6544 139.242 55.227C143.189 54.7156 147.199 55.403 150.75 57.1998C153.441 57.7478 163.546 66.2473 164.401 75.8318C165.344 86.4904 166.045 99.5383 164.987 107.539C162.817 123.628 149.008 125.996 149.008 125.996L148.926 136.408C141.215 148.118 127.493 148.677 118.413 138.019L115.717 81.5748Z" fill="#FFBF9D"/>
<path d="M141.928 105.948C141.982 105.184 142.315 104.466 142.865 103.932C143.369 103.429 144.024 103.103 144.73 103.004C145.435 102.906 146.154 103.039 146.777 103.384C148.032 104.102 148.295 105.472 148.197 107.039C147.599 107.998 147.177 108.935 146.054 109.121C145.879 109.121 145.703 109.171 145.506 109.182C144.621 109.245 143.744 108.978 143.045 108.431C142.682 108.13 142.392 107.75 142.198 107.319C142.004 106.889 141.912 106.42 141.928 105.948Z" fill="#FF9A6C"/>
<path d="M158.05 89.0686C158.066 89.6069 157.872 90.1303 157.507 90.5267C157.142 90.9231 156.637 91.1609 156.099 91.1893C155.836 91.218 155.57 91.1939 155.317 91.1184C155.063 91.0428 154.828 90.9174 154.623 90.7494C154.419 90.5814 154.251 90.3743 154.128 90.1402C154.005 89.9062 153.93 89.6499 153.907 89.3864C153.892 88.8484 154.087 88.3258 154.452 87.9298C154.816 87.5337 155.321 87.2954 155.858 87.2656C156.121 87.2369 156.387 87.261 156.64 87.3366C156.894 87.4121 157.129 87.5376 157.334 87.7056C157.538 87.8735 157.706 88.0807 157.829 88.3147C157.952 88.5488 158.027 88.8051 158.05 89.0686Z" fill="#263238"/>
<path d="M160.833 82.0756C160.587 82.3496 158.981 81.2371 156.745 81.2974C154.509 81.3577 152.909 82.503 152.646 82.2345C152.526 82.1194 152.778 81.6262 153.479 81.0947C154.436 80.4001 155.584 80.0174 156.767 79.9987C157.928 79.9631 159.069 80.297 160.028 80.9522C160.713 81.4728 160.959 81.9495 160.833 82.0756Z" fill="#263238"/>
<path d="M148.181 99.8484C148.181 99.7224 149.551 99.4539 151.797 99.1141C152.345 99.0429 152.893 98.9168 152.992 98.5277C153.091 98.1387 152.861 97.5139 152.57 96.8837C152 95.5284 151.401 94.109 150.773 92.6258C148.279 86.5594 146.454 81.5671 146.701 81.474C146.948 81.3808 149.178 86.2087 151.671 92.2751L153.398 96.5604C153.628 97.1961 154.017 97.914 153.748 98.7524C153.669 98.954 153.545 99.1348 153.386 99.2811C153.226 99.4274 153.035 99.5352 152.828 99.5963C152.514 99.6912 152.19 99.7446 151.863 99.7553C149.6 99.9306 148.192 99.9745 148.181 99.8484Z" fill="#263238"/>
<path d="M149.079 125.992C141.435 126.299 133.853 124.502 127.159 120.797C127.159 120.797 132.694 132.162 148.876 130.272L149.079 125.992Z" fill="#FF9A6C"/>
<path d="M159.146 73.2718C158.785 73.8198 157.064 73.502 155.064 73.7157C153.063 73.9294 151.425 74.4884 150.97 74.0116C150.773 73.7815 150.97 73.2499 151.655 72.691C152.595 72.0059 153.702 71.5886 154.86 71.4834C156.019 71.3782 157.183 71.5891 158.231 72.0936C159.009 72.5211 159.305 73.0088 159.146 73.2718Z" fill="#263238"/>
<path d="M132.951 89.2449C132.982 89.7832 133.223 90.288 133.621 90.6515C134.019 91.015 134.544 91.2084 135.083 91.1903C135.346 91.1961 135.608 91.1493 135.853 91.0525C136.099 90.9557 136.322 90.8109 136.51 90.6266C136.699 90.4423 136.848 90.2223 136.95 89.9793C137.053 89.7364 137.105 89.4755 137.105 89.212C137.072 88.6742 136.832 88.1702 136.434 87.807C136.036 87.4438 135.512 87.25 134.973 87.2666C134.71 87.26 134.447 87.3064 134.202 87.4029C133.956 87.4994 133.733 87.6442 133.544 87.8286C133.356 88.013 133.206 88.2334 133.104 88.4767C133.002 88.7199 132.95 88.9812 132.951 89.2449Z" fill="#263238"/>
<path d="M130.255 83.6838C130.529 83.9359 132.031 82.692 134.261 82.5878C136.492 82.4837 138.201 83.4592 138.426 83.1742C138.536 83.0482 138.245 82.5824 137.5 82.1111C136.49 81.5079 135.32 81.2286 134.146 81.311C132.987 81.3743 131.878 81.8042 130.979 82.5385C130.321 83.0756 130.118 83.5742 130.255 83.6838Z" fill="#263238"/>
<path d="M129.943 75.0299C130.414 75.5067 132.107 74.882 134.173 74.7285C136.239 74.5751 138.009 74.8326 138.393 74.2846C138.557 74.0161 138.245 73.5339 137.45 73.1065C136.365 72.5786 135.154 72.3659 133.954 72.4927C132.765 72.5805 131.626 73.0022 130.666 73.7092C129.943 74.2572 129.735 74.7888 129.943 75.0299Z" fill="#263238"/>
<path d="M116.988 96.571C116.955 95.3763 115.492 92.598 114.292 92.4445C111.097 92.0281 105.365 92.4446 105.524 100.412C105.721 111.334 117.032 108.819 117.032 108.501C117.032 108.183 117.098 100.686 116.988 96.571Z" fill="#FFBF9D"/>
<path d="M113.656 104.62C113.607 104.582 113.464 104.752 113.147 104.905C112.692 105.112 112.174 105.131 111.705 104.96C110.527 104.56 109.513 102.768 109.426 100.779C109.378 99.8404 109.545 98.9035 109.913 98.0389C110.011 97.6937 110.192 97.3777 110.441 97.1188C110.689 96.8598 110.997 96.6659 111.338 96.5539C111.557 96.4898 111.792 96.5047 112.001 96.5958C112.21 96.6869 112.381 96.8485 112.483 97.0525C112.637 97.3539 112.571 97.6005 112.626 97.6005C112.681 97.6005 112.862 97.4087 112.763 96.9594C112.697 96.6902 112.54 96.452 112.319 96.2853C112.163 96.1719 111.985 96.0907 111.797 96.0465C111.609 96.0022 111.414 95.9959 111.223 96.0278C110.374 96.099 109.623 96.8881 109.245 97.754C108.793 98.7076 108.582 99.7576 108.631 100.812C108.741 103.004 109.919 105.048 111.524 105.481C111.823 105.561 112.136 105.573 112.44 105.517C112.745 105.461 113.033 105.338 113.284 105.157C113.64 104.9 113.695 104.653 113.656 104.62Z" fill="#FF9A6C"/>
<path d="M166.862 75.9281C164.593 74.6074 163.119 72.7661 163.195 70.1631C161.721 70.6344 160.171 68.7876 159.277 67.5437C158.384 66.2997 157.31 65.6859 157.337 64.1625C157.37 63.8597 157.323 63.5535 157.2 63.2747C156.965 62.8637 156.439 62.7267 155.978 62.6117C154.795 62.2701 153.716 61.6364 152.842 60.7688C151.968 59.9012 151.326 58.8276 150.975 57.6468C148.615 58.734 146.023 59.2234 143.429 59.0716C142.868 59.9101 142.105 60.5943 141.21 61.0615C140.316 61.5286 139.318 61.7636 138.309 61.7451C137.3 61.7265 136.312 61.455 135.435 60.9553C134.559 60.4557 133.821 59.7439 133.291 58.8853C132.933 59.5631 132.432 60.1558 131.824 60.6229C131.216 61.0901 130.515 61.4207 129.767 61.5924C128.268 61.9323 126.726 62.0541 125.192 61.9541C125.51 63.4331 125.281 64.9772 124.547 66.3002C123.813 67.6233 122.625 68.6355 121.202 69.1493C120.808 69.2808 120.358 69.4069 120.188 69.7795C120.019 70.1521 120.227 70.596 120.391 70.9906C121.416 73.4621 119.843 76.6569 117.207 77.3474C119.049 78.69 118.944 81.8958 117.016 83.1178C116.621 83.3699 116.106 83.6658 116.177 84.1261C116.22 84.3 116.309 84.4591 116.435 84.5865C117.284 85.6441 118.133 86.8059 118.27 88.1539C118.407 89.502 117.52 91.0364 116.155 91.1296C116.889 91.7433 117.58 92.5379 117.618 93.486C117.657 94.434 116.714 95.4259 115.804 95.1026C115.421 94.9711 109.892 94.034 109.639 93.7161C106.406 89.6007 110.226 84.8659 110.401 79.6599C110.577 74.4539 112.286 69.3685 114.785 64.7872C115.805 62.84 117.08 61.0376 118.577 59.4278C120.383 57.6813 122.384 56.1479 124.54 54.8575C127.28 53.071 130.113 51.2845 133.308 50.4735C139.237 48.9391 145.484 50.9228 151.112 53.3231C153.29 54.1566 155.347 55.2771 157.228 56.6549C159.42 58.3866 161.025 60.6882 162.456 63.0555C164.516 66.4805 166.248 70.1795 166.736 74.1361" fill="#263238"/>
<path d="M168.928 72.0545C168.782 71.6385 168.571 71.2483 168.303 70.8982C168.062 70.542 167.717 70.131 167.394 69.594C167.024 68.9771 166.794 68.287 166.72 67.5719C166.633 66.6738 166.623 65.7699 166.692 64.8702C166.785 63.7862 166.728 62.6945 166.522 61.6261C166.247 60.3974 165.721 59.2389 164.977 58.223C164.57 57.669 164.101 57.1634 163.58 56.716C163.019 56.2568 162.424 55.8427 161.799 55.4775C161.155 55.1096 160.574 54.6416 160.078 54.0911C159.628 53.4644 159.26 52.7831 158.982 52.0635C158.304 50.524 157.358 49.1175 156.187 47.9096C154.938 46.5935 153.45 45.5261 151.803 44.7641C150.944 44.3623 150.043 44.0554 149.118 43.8489C148.16 43.6464 147.181 43.5618 146.202 43.5969C145.705 43.623 145.209 43.676 144.717 43.7558C144.224 43.8435 143.742 43.9585 143.254 44.0572C142.286 44.2872 141.28 44.3152 140.3 44.1394C139.309 43.9695 138.328 43.6462 137.297 43.4215C135.21 42.937 133.057 42.7982 130.924 43.0105C129.831 43.1295 128.751 43.3553 127.702 43.6845C125.526 44.3394 123.609 45.6598 122.222 47.4603L121.827 48.0083L122.003 47.9315C120.361 47.6426 118.679 47.6843 117.054 48.0541C115.428 48.4239 113.894 49.1144 112.539 50.0852C109.9 51.8549 108.059 54.587 107.41 57.6969L107.497 57.5873C106.175 58.2117 104.893 58.92 103.661 59.7081C102.464 60.473 101.417 61.4498 100.57 62.5905C99.7838 63.7109 99.3228 65.0273 99.2388 66.3937C99.1303 67.7198 99.5454 69.0358 100.395 70.0598V69.8789C98.9628 71.4413 98.1299 73.4603 98.0442 75.5781C97.9083 77.4677 98.36 79.3531 99.3375 80.9759C99.5668 81.3469 99.8232 81.7004 100.105 82.0336C100.379 82.3624 100.653 82.6638 100.888 82.9926C101.12 83.3018 101.265 83.6667 101.31 84.0502C101.346 84.4275 101.346 84.8073 101.31 85.1846C101.228 86.5698 101.306 87.9598 101.54 89.3275C101.724 90.4352 102.122 91.4964 102.713 92.4511C103.16 93.1571 103.766 93.7483 104.483 94.1773C105.064 94.5389 105.579 94.665 105.859 94.8623C106.006 94.9539 106.144 95.0604 106.27 95.1801C106.164 95.0378 106.032 94.917 105.881 94.8239C105.596 94.6157 105.086 94.4677 104.527 94.1115C103.835 93.6743 103.25 93.086 102.817 92.3908C102.257 91.4405 101.885 90.3911 101.721 89.3001C101.498 87.944 101.433 86.5665 101.529 85.1955C101.562 84.8072 101.562 84.4167 101.529 84.0283C101.476 83.6136 101.322 83.2184 101.08 82.8775C100.832 82.5373 100.567 82.2099 100.286 81.8966C100.014 81.5708 99.7689 81.2245 99.5512 80.8609C98.6032 79.2759 98.1705 77.4359 98.3127 75.5946C98.4249 73.5498 99.2533 71.6098 100.653 70.1146L100.74 70.0269L100.658 69.9337C99.8572 68.961 99.4644 67.7157 99.5621 66.4594C99.6497 65.1471 100.097 63.8844 100.855 62.8097C101.681 61.7021 102.703 60.7549 103.869 60.0149C105.089 59.2376 106.355 58.5366 107.662 57.9161L107.733 57.8832V57.8065C108.364 54.7673 110.162 52.0971 112.742 50.3701C114.06 49.427 115.553 48.7561 117.134 48.3967C118.715 48.0372 120.351 47.9965 121.948 48.2768H122.052L122.123 48.1836L122.501 47.6356C123.847 45.8961 125.701 44.6186 127.806 43.9805C128.834 43.6565 129.891 43.4344 130.963 43.3174C132.019 43.2088 133.082 43.1905 134.141 43.2626C135.183 43.3281 136.219 43.4784 137.237 43.7119C138.245 43.9311 139.232 44.2599 140.257 44.4298C140.768 44.5217 141.288 44.5621 141.807 44.5504C142.32 44.5233 142.83 44.4536 143.331 44.3421C143.824 44.2435 144.306 44.1284 144.783 44.0407C145.262 43.9598 145.745 43.9086 146.23 43.8873C147.18 43.8497 148.132 43.9288 149.063 44.1229C149.967 44.3235 150.847 44.6212 151.688 45.0107C154.811 46.4713 157.311 48.9971 158.741 52.1347C159.03 52.8756 159.415 53.5757 159.886 54.2171C160.401 54.787 161.004 55.27 161.672 55.6474C162.29 56.0019 162.878 56.4051 163.432 56.853C164.891 58.095 165.912 59.7746 166.341 61.6425C166.551 62.6918 166.616 63.765 166.533 64.8319C166.472 65.7451 166.491 66.6618 166.588 67.5719C166.678 68.3003 166.923 69.001 167.306 69.6269C167.651 70.1749 167.996 70.5749 168.248 70.9201C168.451 71.1806 168.634 71.4553 168.796 71.7421C168.884 71.9559 168.923 72.06 168.928 72.0545Z" fill="#455A64"/>
<path d="M127.088 45.5595C127.088 45.5595 127.373 45.3842 127.904 45.1102C128.657 44.7201 129.471 44.4607 130.31 44.3429C131.541 44.1648 132.798 44.3122 133.954 44.7704C135.357 45.3424 136.542 46.3438 137.341 47.6309C137.582 48.0127 137.779 48.4209 137.927 48.8475C138.003 49.0323 138.038 49.2314 138.03 49.4311C138.021 49.6307 137.969 49.8261 137.878 50.0038L137.615 50.3819L138.059 50.2449C139.199 49.9012 140.428 50.0111 141.489 50.5518C142.334 50.9945 143.011 51.7006 143.418 52.563C143.693 53.1217 143.857 53.7284 143.901 54.3494C143.928 54.7878 143.901 55.029 143.901 55.029C143.901 55.029 143.901 54.9742 143.944 54.8591C143.975 54.6909 143.99 54.5203 143.988 54.3494C143.991 53.7027 143.852 53.0631 143.583 52.4753C143.175 51.5667 142.477 50.819 141.599 50.349C140.474 49.7516 139.16 49.6179 137.938 49.9764L138.125 50.2175C138.246 50.0023 138.318 49.7624 138.334 49.5158C138.35 49.2691 138.31 49.0219 138.218 48.7927C138.065 48.3389 137.859 47.9048 137.604 47.4994C136.774 46.1458 135.525 45.0994 134.047 44.5183C132.84 44.0492 131.527 43.9185 130.25 44.1402C129.397 44.2823 128.577 44.5814 127.833 45.0225C127.633 45.1387 127.44 45.2687 127.258 45.4115C127.154 45.4937 127.088 45.5486 127.088 45.5595Z" fill="#455A64"/>
<path d="M109.519 58.5907C109.519 58.5907 109.639 58.7496 109.913 58.9743C110.309 59.2919 110.737 59.5674 111.19 59.7963C111.869 60.1519 112.617 60.3557 113.382 60.3936C114.375 60.4472 115.352 60.1287 116.122 59.5004L115.875 59.4675L116.21 59.9059C116.336 60.0484 116.473 60.1854 116.599 60.3279C117.387 61.0985 118.352 61.6631 119.41 61.9719C120.266 62.2267 121.162 62.3142 122.051 62.2294C122.646 62.1654 123.229 62.0178 123.783 61.791C123.981 61.7111 124.165 61.6021 124.331 61.4677C123.585 61.7492 122.806 61.9333 122.013 62.0157C121.157 62.0688 120.299 61.9629 119.481 61.7033C118.482 61.3999 117.569 60.8626 116.818 60.1361C116.697 60.0045 116.566 59.8785 116.451 59.7415L116.133 59.3305L116.018 59.1825L115.886 59.2976C115.184 59.8748 114.296 60.1767 113.387 60.147C112.649 60.1296 111.923 59.9579 111.256 59.6429C110.143 59.051 109.551 58.5304 109.519 58.5907Z" fill="#455A64"/>
<path d="M103.957 68.8595C103.957 68.8595 103.957 68.9307 103.99 69.0622C104.049 69.2573 104.138 69.4421 104.253 69.6102C104.696 70.1984 105.343 70.5992 106.067 70.7336C107.135 70.8916 108.225 70.7434 109.212 70.3062C109.76 70.0925 110.347 69.8787 110.939 69.5828C111.584 69.297 112.109 68.7951 112.424 68.1635L112.489 67.9881L112.232 68.0758C113.244 68.8562 114.367 69.4805 115.564 69.9281C116.56 70.2916 117.637 70.3732 118.676 70.1637C119.371 70.0238 120.02 69.711 120.561 69.254C120.705 69.1291 120.836 68.9895 120.951 68.8375C120.995 68.7878 121.031 68.7302 121.055 68.6677C121.027 68.6677 120.863 68.8649 120.479 69.1554C119.932 69.5586 119.297 69.827 118.627 69.939C117.63 70.1061 116.607 70.0039 115.662 69.6431C114.501 69.1912 113.412 68.5728 112.429 67.8073L112.248 67.6758L112.172 67.895L112.117 68.0429C111.83 68.6015 111.36 69.0445 110.785 69.2979C110.237 69.5828 109.645 69.8075 109.103 70.0267C108.167 70.4551 107.133 70.6199 106.111 70.5035C105.43 70.3966 104.809 70.0531 104.357 69.5335C104.207 69.319 104.074 69.0937 103.957 68.8595Z" fill="#455A64"/>
<path d="M141.516 103.903C141.779 103.727 142.875 105.547 145.215 105.892C147.555 106.237 149.38 104.905 149.55 105.152C149.643 105.251 149.325 105.76 148.514 106.248C147.449 106.896 146.191 107.152 144.958 106.971C143.777 106.8 142.708 106.177 141.977 105.234C141.451 104.538 141.385 103.968 141.516 103.903Z" fill="#263238"/>
<path d="M113.668 115.321C112.854 115.31 112.06 115.068 111.379 114.622C110.699 114.177 110.159 113.546 109.824 112.805C109.488 112.064 109.371 111.242 109.486 110.436C109.601 109.631 109.943 108.875 110.473 108.257L110.889 108.613C110.347 109.249 110.038 110.052 110.015 110.888C109.991 111.724 110.254 112.543 110.76 113.209C111.265 113.874 111.983 114.348 112.795 114.549C113.606 114.751 114.462 114.669 115.221 114.318C115.98 113.966 116.595 113.366 116.966 112.616C117.336 111.866 117.439 111.013 117.258 110.196C117.077 109.38 116.622 108.65 115.969 108.128C115.316 107.606 114.504 107.323 113.668 107.325V106.777C114.774 106.817 115.822 107.284 116.591 108.081C117.359 108.878 117.789 109.942 117.789 111.049C117.789 112.156 117.359 113.22 116.591 114.017C115.822 114.814 114.774 115.281 113.668 115.321Z" fill="#455A64"/>
<path d="M170.149 206.957C171.136 206.957 206.317 199.893 206.317 199.893C206.317 199.893 196.727 145.543 178.369 142.578L167.694 186.774L168.922 206.957H170.149Z" fill="#455A64"/>
<path d="M184.918 207.602C189.094 186.121 182.787 173.012 182.787 173.012L178.348 142.577L154.148 137.645C154.148 137.645 150.181 144.949 135.428 144.769C127.756 144.659 117.86 131.918 117.86 131.918L96.0875 137.666L101.085 221.543C101.085 221.543 94.9093 245.031 87.8018 265.274L187.85 265.542C186.113 255.251 178.945 223.439 178.945 223.439C180.907 218.573 184.414 211.981 184.918 207.602Z" fill="#455A64"/>
<g opacity="0.3">
<path d="M151.003 231.548L152.044 236.612H181.877L180.431 230.047L151.003 231.548Z" fill="black"/>
</g>
<path d="M174.616 155.922C174.649 155.972 174.676 156.025 174.698 156.081L174.918 156.552L175.729 158.377C176.441 159.961 177.499 162.213 178.814 165.041C180.129 167.868 181.685 171.206 183.198 175.031C183.938 176.943 184.656 178.982 185.253 181.141C185.857 183.372 186.251 185.654 186.431 187.958C186.783 192.404 186.691 196.874 186.157 201.302C185.753 204.916 185.114 208.5 184.245 212.032C183.685 214.42 182.952 216.764 182.053 219.046C181.751 219.863 181.439 220.465 181.247 220.876C181.154 221.068 181.077 221.227 181.017 221.342C180.957 221.457 180.935 221.501 180.935 221.501C180.944 221.441 180.965 221.384 180.995 221.331L181.192 220.854C181.373 220.432 181.663 219.824 181.948 219.008C182.807 216.718 183.51 214.372 184.053 211.988C184.887 208.457 185.498 204.877 185.883 201.269C186.393 196.858 186.476 192.407 186.13 187.98C185.95 185.691 185.561 183.424 184.968 181.207C184.376 179.064 183.669 177.031 182.94 175.118C181.461 171.282 179.915 167.945 178.633 165.123C177.351 162.301 176.31 160.01 175.635 158.415C175.29 157.621 175.038 156.996 174.868 156.569L174.676 156.086C174.652 156.033 174.631 155.978 174.616 155.922Z" fill="#263238"/>
<path d="M76.9839 203.595C76.9839 203.595 74.7919 209.804 90.6291 208.5C106.466 207.195 110.867 197.277 110.867 197.277L107.727 185.221L87.5 180.508L79.0444 187.456L76.9839 203.595Z" fill="#455A64"/>
<g opacity="0.3">
<path d="M76.9839 203.595C76.9839 203.595 74.7919 209.804 90.6291 208.5C106.466 207.195 110.867 197.277 110.867 197.277L107.727 185.221L87.5 180.508L79.0444 187.456L76.9839 203.595Z" fill="black"/>
</g>
<g opacity="0.3">
<path d="M151.2 144.625C149.704 142.865 145.955 143.611 146.185 145.918L97.7148 232.77C105.168 237.193 114.051 241.538 122.095 238.354C129.904 235.242 133.532 226.298 136.141 218.237C143.199 196.383 148.871 174.03 152.159 151.283C152.487 149.009 152.712 146.373 151.2 144.625Z" fill="black"/>
</g>
<path d="M77.0996 174.422C77.0996 175.518 90.8708 215.621 93.9506 224.29C98.0222 235.798 115.958 242.533 125.296 229.387C135.429 215.139 150.893 154.146 150.893 154.146L136.821 148.365L111.865 198.819L98.4168 147.258L77.0996 174.422Z" fill="#FFBF9D"/>
<path d="M150.373 156.874C150.373 156.874 153.935 149.75 154.143 149.4C154.192 149.317 153.978 149.169 154.077 149.246C154.409 149.467 154.802 149.577 155.2 149.563C155.598 149.548 155.982 149.408 156.297 149.164C157.941 147.964 160.774 146.155 161.3 144.824C161.92 144.383 162.435 143.811 162.809 143.147C163.182 142.484 163.404 141.747 163.459 140.988C163.689 138.324 164.007 132.22 164.007 132.22C164.007 132.22 166.709 131.233 166.517 128.932C166.325 126.63 162.736 127.189 162.736 127.189C162.736 127.189 162.094 124.449 160.105 123.852C158.116 123.254 151.019 123.413 151.019 123.413C151.019 123.413 150.795 114.032 150.652 110.141C150.649 108.004 150.148 105.897 149.189 103.987C149.006 103.638 148.716 103.358 148.361 103.188C148.006 103.018 147.606 102.966 147.22 103.041C146.833 103.116 146.482 103.314 146.216 103.605C145.951 103.895 145.787 104.264 145.748 104.655C145.606 106.215 145.626 107.785 145.808 109.341C146.356 114.821 143.095 125.03 142.783 125.375C142.471 125.72 138.947 128.833 139.1 132.499C139.254 136.165 137.511 147.082 134.963 152.381" fill="#FFBF9D"/>
<path d="M134.974 152.346C134.974 152.346 135.012 152.236 135.094 152.039C135.176 151.842 135.313 151.54 135.467 151.146C135.768 150.351 136.196 149.168 136.629 147.611C137.062 146.055 137.522 144.132 137.944 141.879C138.439 139.33 138.783 136.753 138.974 134.163C138.974 133.802 139.012 133.44 139.012 133.067C139.012 132.695 139.012 132.328 139.012 131.939C139.069 131.154 139.254 130.383 139.56 129.659C140.226 128.139 141.181 126.764 142.372 125.609L142.596 125.384L142.706 125.275L142.766 125.154C142.843 124.979 142.92 124.771 142.991 124.568C143.133 124.168 143.265 123.751 143.396 123.335C143.656 122.498 143.901 121.642 144.131 120.765C144.586 119.017 145.002 117.203 145.314 115.323C145.663 113.408 145.793 111.459 145.703 109.514C145.616 108.522 145.528 107.503 145.534 106.478C145.534 105.963 145.534 105.448 145.594 104.928C145.595 104.373 145.802 103.838 146.175 103.426C146.376 103.229 146.615 103.077 146.879 102.978C147.142 102.879 147.423 102.835 147.704 102.851C147.988 102.867 148.265 102.946 148.515 103.08C148.766 103.214 148.985 103.402 149.156 103.629C149.715 104.561 150.12 105.577 150.356 106.637C150.608 107.7 150.757 108.785 150.8 109.876C150.833 110.972 150.866 112.068 150.899 113.164C150.992 116.644 151.085 120.063 151.173 123.384L151.03 123.247C153.392 123.214 155.71 123.22 157.973 123.384C158.539 123.422 159.102 123.489 159.661 123.587C160.235 123.672 160.775 123.913 161.223 124.283C162.036 125.053 162.608 126.043 162.867 127.133L162.713 127.034C163.516 126.913 164.335 126.957 165.119 127.165C165.515 127.277 165.876 127.488 166.166 127.779C166.432 128.088 166.599 128.47 166.643 128.875C166.671 129.271 166.619 129.668 166.489 130.042C166.349 130.406 166.149 130.743 165.897 131.04C165.384 131.593 164.753 132.024 164.051 132.3L164.133 132.196C163.968 134.666 163.813 137.013 163.667 139.238C163.634 139.786 163.596 140.334 163.563 140.882C163.516 141.421 163.398 141.952 163.212 142.46C162.845 143.436 162.192 144.279 161.338 144.877L161.382 144.833C161.061 145.439 160.621 145.974 160.088 146.406C159.595 146.844 159.086 147.228 158.592 147.6C158.099 147.973 157.601 148.307 157.124 148.642L156.422 149.135C156.198 149.309 155.943 149.441 155.672 149.524C155.411 149.609 155.134 149.634 154.862 149.599C154.59 149.564 154.33 149.469 154.099 149.321L154.017 149.266C153.967 149.376 154.143 149.135 154.11 149.157L154.148 149.195C154.176 149.227 154.196 149.264 154.208 149.305C154.215 149.32 154.218 149.337 154.218 149.354C154.218 149.371 154.215 149.388 154.208 149.403V149.447L154.044 149.776L153.721 150.406L152.57 152.664C151.879 154.006 151.342 155.053 150.97 155.771L150.553 156.577C150.455 156.757 150.4 156.845 150.4 156.845C150.4 156.845 150.438 156.746 150.526 156.566L150.92 155.749L152.477 152.609L153.606 150.34L153.923 149.705L154.088 149.376C154.088 149.376 154.088 149.338 154.121 149.343L154.088 149.294L154.06 149.266C154.028 149.266 154.197 149.036 154.148 149.151L154.225 149.206C154.438 149.338 154.678 149.422 154.927 149.451C155.176 149.481 155.428 149.455 155.666 149.376C155.923 149.297 156.163 149.171 156.373 149.003L157.074 148.505C157.546 148.17 158.033 147.825 158.527 147.458C159.02 147.091 159.524 146.696 160.006 146.263C160.517 145.851 160.937 145.338 161.239 144.756V144.729C162.048 144.147 162.666 143.339 163.015 142.405C163.398 141.446 163.36 140.345 163.448 139.238C163.587 137.017 163.733 134.669 163.886 132.196V132.119H163.963C164.625 131.854 165.219 131.441 165.7 130.914C165.937 130.645 166.123 130.335 166.248 129.999C166.363 129.659 166.408 129.299 166.38 128.941C166.348 128.585 166.206 128.248 165.974 127.976C165.716 127.714 165.392 127.525 165.037 127.428C164.292 127.229 163.514 127.188 162.752 127.308H162.637L162.604 127.187C162.349 126.153 161.801 125.215 161.026 124.486C160.22 123.768 159.031 123.773 157.929 123.653C155.688 123.494 153.37 123.488 151.014 123.521H150.877V123.379C150.783 120.058 150.69 116.644 150.597 113.159C150.509 110.967 150.597 108.775 150.049 106.698C149.82 105.673 149.432 104.692 148.898 103.788C148.753 103.592 148.566 103.431 148.351 103.316C148.136 103.201 147.898 103.136 147.654 103.125C147.413 103.11 147.172 103.146 146.945 103.23C146.719 103.314 146.512 103.444 146.339 103.612C146.01 103.977 145.832 104.453 145.84 104.944C145.797 105.448 145.775 105.958 145.78 106.467C145.78 107.481 145.857 108.484 145.939 109.481C146.032 111.449 145.897 113.42 145.539 115.356C145.221 117.247 144.805 119.066 144.339 120.836C144.109 121.713 143.857 122.573 143.599 123.412C143.462 123.834 143.331 124.25 143.183 124.656C143.111 124.864 143.035 125.061 142.942 125.275C142.914 125.331 142.883 125.386 142.848 125.439L142.733 125.56L142.509 125.784C141.335 126.913 140.392 128.259 139.73 129.747C139.429 130.442 139.244 131.183 139.182 131.939C139.182 132.306 139.182 132.684 139.182 133.035C139.182 133.385 139.182 133.774 139.144 134.131C138.931 136.727 138.565 139.309 138.048 141.863C137.604 144.121 137.127 146.044 136.678 147.6C136.334 148.795 135.93 149.971 135.467 151.124C135.302 151.513 135.16 151.804 135.067 152.006C134.974 152.209 134.974 152.346 134.974 152.346Z" fill="#FF9A6C"/>
<path d="M160.379 145.463C160.412 145.361 160.458 145.263 160.516 145.172C160.62 144.964 160.757 144.701 160.916 144.378C161.43 143.421 161.826 142.405 162.094 141.353C162.264 140.635 162.306 139.893 162.22 139.161C162.137 138.317 161.812 137.516 161.283 136.854C160.643 136.166 159.859 135.629 158.987 135.281C158.094 134.859 157.14 134.475 156.154 134.114C155.168 133.752 154.187 133.434 153.244 133.116C152.347 132.802 151.432 132.54 150.504 132.333C148.739 131.949 147.035 132.064 145.846 132.744C144.875 133.227 144.113 134.047 143.703 135.051C143.581 135.426 143.5 135.814 143.462 136.207C143.451 136.103 143.451 135.998 143.462 135.895C143.473 135.595 143.525 135.298 143.616 135.012C143.986 133.963 144.737 133.091 145.72 132.568C146.394 132.189 147.142 131.961 147.912 131.9C148.789 131.83 149.672 131.889 150.531 132.075C151.471 132.278 152.397 132.538 153.304 132.853C154.252 133.166 155.228 133.483 156.225 133.845C157.223 134.207 158.176 134.596 159.08 135.029C159.987 135.391 160.8 135.953 161.459 136.673C162.013 137.376 162.35 138.225 162.429 139.117C162.508 139.881 162.452 140.652 162.264 141.397C161.974 142.458 161.544 143.477 160.987 144.427C160.801 144.767 160.648 145.024 160.538 145.2C160.499 145.295 160.445 145.384 160.379 145.463Z" fill="#FF9A6C"/>
<path d="M150.893 155.838C150.919 155.736 150.96 155.639 151.013 155.548C151.112 155.334 151.243 155.065 151.402 154.737C151.561 154.408 151.786 153.958 152.016 153.454C152.28 152.888 152.488 152.297 152.635 151.69C152.77 150.943 152.823 150.184 152.794 149.427C152.781 148.554 152.666 147.686 152.449 146.84C152.049 145.032 151.287 143.108 150.969 140.933V140.812L151.095 140.779C151.3 140.722 151.498 140.645 151.687 140.549C152.046 140.361 152.364 140.104 152.624 139.792C152.883 139.481 153.079 139.122 153.2 138.735L153.298 138.406L153.457 138.708C153.706 139.164 154.073 139.545 154.519 139.811C154.965 140.077 155.475 140.218 155.994 140.22H156.208L156.121 140.412C155.567 141.628 155.482 143.005 155.879 144.281L155.912 144.396L155.797 144.429C155.062 144.618 154.421 145.067 153.99 145.693C153.56 146.318 153.371 147.078 153.457 147.832C153.517 148.247 153.679 148.64 153.929 148.977C154.098 149.213 154.208 149.328 154.197 149.333C154.186 149.339 154.164 149.333 154.104 149.262C154.044 149.191 153.972 149.131 153.874 149.021C153.593 148.684 153.404 148.28 153.326 147.848C153.226 147.164 153.345 146.466 153.665 145.854C153.88 145.453 154.175 145.1 154.531 144.817C154.887 144.535 155.298 144.328 155.737 144.21L155.655 144.358C155.221 143.027 155.3 141.583 155.874 140.308L155.994 140.494C155.425 140.495 154.865 140.343 154.375 140.054C153.884 139.765 153.48 139.349 153.205 138.85L153.463 138.823C153.337 139.248 153.127 139.644 152.844 139.985C152.561 140.327 152.213 140.608 151.819 140.812C151.611 140.92 151.393 141.004 151.167 141.064L151.271 140.911C151.578 143.026 152.328 144.966 152.723 146.796C152.932 147.661 153.039 148.548 153.041 149.437C153.063 150.213 152.997 150.989 152.843 151.75C152.685 152.368 152.459 152.968 152.169 153.537C151.928 154.041 151.704 154.463 151.517 154.802C151.331 155.142 151.183 155.411 151.079 155.592C151.025 155.679 150.962 155.762 150.893 155.838Z" fill="#FF9A6C"/>
<path d="M163.294 133.43C163.234 133.103 163.152 132.781 163.047 132.466C162.715 131.636 162.162 130.914 161.447 130.378C160.366 129.59 159.092 129.109 157.759 128.986C156.263 128.772 154.581 128.849 152.827 128.723C151.962 128.67 151.106 128.521 150.274 128.279C149.468 128.038 148.728 127.731 147.999 127.545C147.326 127.333 146.611 127.29 145.917 127.419C145.322 127.556 144.783 127.871 144.372 128.323C143.794 129.016 143.348 129.809 143.056 130.663C142.959 130.981 142.84 131.292 142.7 131.594C142.709 131.509 142.726 131.425 142.75 131.342C142.788 131.178 142.859 130.931 142.952 130.624C143.208 129.734 143.641 128.905 144.224 128.186C144.656 127.692 145.23 127.343 145.868 127.188C146.595 127.039 147.349 127.075 148.06 127.292C148.81 127.484 149.561 127.775 150.35 128.01C151.163 128.245 151.999 128.388 152.844 128.438C154.586 128.564 156.28 128.493 157.809 128.723C159.181 128.865 160.487 129.383 161.584 130.219C162.317 130.796 162.866 131.575 163.163 132.46C163.235 132.7 163.285 132.945 163.31 133.194C163.316 133.273 163.31 133.353 163.294 133.43Z" fill="#FF9A6C"/>
<path d="M146.224 123.533C147.107 123.61 147.995 123.639 148.881 123.62C150.35 123.522 151.473 123.072 151.506 123.155C150.701 123.584 149.815 123.84 148.905 123.905C147.995 123.97 147.082 123.843 146.224 123.533Z" fill="#FF9A6C"/>
<path d="M164.018 132.218C163.924 132.218 163.848 131.012 163.47 129.593C163.092 128.173 162.511 127.11 162.593 127.066C163.152 127.791 163.547 128.629 163.749 129.521C164.015 130.394 164.106 131.31 164.018 132.218Z" fill="#FF9A6C"/>
<path d="M76.9842 203.597C76.9842 202.918 71.6851 166.985 76.5294 154.206C81.4614 141.196 96.0875 137.629 96.0875 137.629L109.212 188.215C102.784 186.972 96.1303 187.709 90.1308 190.33C81.7135 194.046 76.9842 203.597 76.9842 203.597Z" fill="#455A64"/>
<path d="M101.085 155.352C101.162 155.352 103.042 162.673 105.289 171.748C107.535 180.823 109.289 188.188 109.212 188.215C109.136 188.243 107.25 180.894 105.009 171.819C102.768 162.744 101.009 155.368 101.085 155.352Z" fill="#263238"/>
<path d="M108.018 216.612C107.913 216.381 107.83 216.141 107.771 215.894C107.678 215.61 107.601 215.321 107.541 215.028C107.448 214.645 107.375 214.257 107.322 213.867C107.256 213.434 107.19 212.957 107.163 212.442C107.136 211.927 107.125 211.373 107.119 210.798C107.172 208.267 107.731 205.772 108.763 203.46C109.015 202.912 109.245 202.435 109.508 201.986C109.771 201.537 110.018 201.131 110.259 200.764C110.5 200.397 110.747 200.084 110.955 199.805C111.163 199.525 111.361 199.295 111.503 199.114C111.665 198.912 111.849 198.729 112.051 198.566C112.095 198.605 111.361 199.399 110.407 200.868C110.177 201.235 109.925 201.641 109.695 202.096C109.465 202.55 109.223 203.038 108.982 203.559C107.98 205.846 107.422 208.302 107.338 210.798C107.338 211.346 107.338 211.894 107.338 212.442C107.338 212.99 107.41 213.423 107.459 213.856C107.744 215.565 108.078 216.601 108.018 216.612Z" fill="#FF9A6C"/>
<path d="M230.95 177.841L182.008 178.158L174.265 170.437C173.595 169.766 172.799 169.232 171.922 168.869C171.046 168.505 170.106 168.317 169.157 168.316H150.345C150.05 168.318 149.759 168.38 149.489 168.498C149.219 168.616 148.977 168.789 148.776 169.004C148.575 169.22 148.421 169.474 148.322 169.752C148.223 170.029 148.183 170.324 148.202 170.618L149.446 228.218C149.46 229.128 149.83 229.997 150.476 230.638C151.122 231.279 151.994 231.642 152.904 231.649L223.705 231.709C225.881 231.699 227.967 230.839 229.517 229.313C231.067 227.786 231.959 225.714 232.002 223.538L233.098 180.071C233.108 179.782 233.061 179.494 232.957 179.225C232.854 178.955 232.697 178.708 232.497 178.5C232.297 178.292 232.056 178.127 231.791 178.013C231.525 177.9 231.239 177.841 230.95 177.841Z" fill="#96B562"/>
<g opacity="0.3">
<path d="M154.488 174.625L154.198 173.797C154.198 173.797 153.008 173.677 152.362 177.809C151.715 181.941 150.126 226.581 150.126 226.581L155.294 175.973L154.488 174.625Z" fill="black"/>
</g>
<path d="M151.967 228.469L230.233 223.466C230.66 223.44 231.064 223.258 231.366 222.955C231.669 222.652 231.851 222.249 231.877 221.822L234.365 173.559C234.379 173.322 234.345 173.084 234.264 172.861C234.183 172.637 234.057 172.433 233.895 172.259C233.732 172.086 233.536 171.948 233.318 171.853C233.1 171.758 232.865 171.708 232.628 171.707H156.094C155.651 171.71 155.225 171.882 154.904 172.187C154.582 172.493 154.389 172.909 154.362 173.351L150.104 226.573C150.082 226.824 150.115 227.078 150.201 227.316C150.286 227.554 150.422 227.77 150.599 227.95C150.776 228.13 150.99 228.27 151.226 228.36C151.463 228.449 151.715 228.486 151.967 228.469Z" fill="#FAFAFA"/>
<path d="M237.099 175.199H160.763C159.911 175.203 159.089 175.514 158.448 176.074C157.807 176.635 157.389 177.408 157.272 178.252L149.956 228.635L152.586 231.72H228.868C229.706 231.715 230.516 231.412 231.152 230.867C231.788 230.321 232.21 229.567 232.342 228.739L240.562 179.364C240.651 178.856 240.627 178.336 240.494 177.838C240.362 177.34 240.122 176.878 239.793 176.482C239.463 176.085 239.052 175.766 238.587 175.544C238.122 175.323 237.614 175.205 237.099 175.199Z" fill="#96B562"/>
<path d="M173.859 202.803L173.733 201.23L168.357 201.68L168.483 203.247L173.859 202.803Z" fill="#263238"/>
<path d="M170.358 203.748L171.148 213.486L172.885 213.343L172.096 203.605L170.358 203.748Z" fill="#263238"/>
<path d="M224.27 198.599L224.139 197.031L218.763 197.481L218.889 199.048L224.27 198.599Z" fill="#263238"/>
<path d="M220.763 199.553L221.552 209.291L223.294 209.148L222.5 199.41L220.763 199.553Z" fill="#263238"/>
<path d="M177.597 211.322C177.213 211.246 176.961 210.922 176.906 210.226L176.358 203.765C176.304 203.08 176.501 202.724 176.868 202.582L176.726 200.855C175.224 201.108 174.484 202.236 174.627 204.034L175.136 210.254C175.279 212.046 176.194 213.038 177.717 213.043L177.597 211.322Z" fill="#263238"/>
<path d="M177.355 200.812L177.492 202.544C177.876 202.621 178.128 202.944 178.183 203.64L178.731 210.101C178.786 210.786 178.588 211.142 178.227 211.285L178.364 213.016C179.865 212.759 180.605 211.63 180.463 209.838L179.958 203.613C179.789 201.81 178.873 200.818 177.355 200.812Z" fill="#263238"/>
<path d="M182.343 200.512L180.759 200.643L181.729 212.612L183.318 212.475L182.343 200.512Z" fill="#263238"/>
<path d="M183.318 200.428L182.951 200.461L183.088 202.17L183.455 202.138C184.003 202.094 184.332 202.34 184.403 203.195L184.551 204.993C184.617 205.842 184.338 206.143 183.784 206.187L183.417 206.22L183.559 207.93L183.927 207.897C185.664 207.755 186.436 206.642 186.278 204.724L186.151 203.168C185.998 201.255 185.061 200.285 183.318 200.428Z" fill="#263238"/>
<path d="M199.704 204.145L197.791 204.303L197.928 206.008L199.841 205.854L199.704 204.145Z" fill="#263238"/>
<path d="M196.772 199.312L195.166 199.444L196.136 211.412L197.747 211.275L196.772 199.312Z" fill="#263238"/>
<path d="M197.38 199.261L197.517 200.965L200.049 200.757L199.912 199.047L197.38 199.261Z" fill="#263238"/>
<path d="M198.35 211.224L200.882 211.011L200.745 209.301L198.213 209.515L198.35 211.224Z" fill="#263238"/>
<path d="M204.039 209.111C203.644 209.045 203.386 208.732 203.332 208.042L202.784 201.581C202.729 200.885 202.932 200.529 203.304 200.392L203.167 198.66C201.627 198.89 200.909 200.025 201.052 201.844L201.562 208.064C201.709 209.883 202.603 210.881 204.154 210.859L204.039 209.111Z" fill="#263238"/>
<path d="M203.808 198.621L203.945 200.347C204.317 200.429 204.564 200.753 204.619 201.443L204.723 202.726L206.367 202.589L206.268 201.427C206.12 199.64 205.271 198.648 203.808 198.621Z" fill="#263238"/>
<path d="M205.134 207.886C205.189 208.56 204.997 208.911 204.641 209.053L204.783 210.796C206.235 210.522 206.915 209.398 206.772 207.628L206.641 206.039L204.997 206.176L205.134 207.886Z" fill="#263238"/>
<path d="M208.565 198.328L207.091 198.449L208.061 210.412L209.54 210.291L208.565 198.328Z" fill="#263238"/>
<path d="M213.162 208.528L213.014 206.682C212.91 205.432 212.554 204.55 211.649 204.232C212.395 203.772 212.696 202.939 212.592 201.711L212.515 200.769C212.367 198.922 211.518 198.084 209.715 198.231L209.167 198.275L209.309 199.985L209.803 199.947C210.416 199.892 210.718 200.248 210.789 201.103L210.882 202.281C210.959 203.24 210.592 203.58 209.94 203.635L209.605 203.662L209.742 205.372H210C210.795 205.306 211.173 205.684 211.266 206.797L211.419 208.676C211.417 209.175 211.51 209.67 211.693 210.134L213.469 209.986C213.27 209.526 213.166 209.03 213.162 208.528Z" fill="#263238"/>
<path d="M215.058 197.789L213.447 197.921L214.423 209.889L216.034 209.752L215.058 197.789Z" fill="#263238"/>
<path d="M217.984 202.621L216.077 202.78L216.214 204.49L218.127 204.331L217.984 202.621Z" fill="#263238"/>
<path d="M216.642 209.699L219.169 209.491L219.026 207.781L216.5 207.989L216.642 209.699Z" fill="#263238"/>
<path d="M215.667 197.737L215.804 199.447L218.336 199.233L218.193 197.523L215.667 197.737Z" fill="#263238"/>
<path d="M192.146 210.119C191.719 210.075 191.434 209.768 191.373 209.023L191.302 208.168L189.658 208.305L189.718 209.045C189.866 210.848 190.749 211.845 192.283 211.834L192.146 210.119Z" fill="#263238"/>
<path d="M192.042 201.321C192.431 201.392 192.672 201.715 192.732 202.417L192.771 202.91L194.415 202.773L194.387 202.4C194.239 200.614 193.39 199.616 191.899 199.605L192.042 201.321Z" fill="#263238"/>
<path d="M190.99 202.562C190.936 201.899 191.1 201.543 191.434 201.395L191.297 199.652C189.807 199.904 189.105 201.028 189.264 202.825C189.538 206.245 192.98 206.426 193.177 208.886C193.232 209.522 193.062 209.867 192.75 210.026L192.892 211.791C194.361 211.528 195.051 210.404 194.909 208.623C194.629 205.204 191.204 205.023 190.99 202.562Z" fill="#263238"/>
<path d="M166.632 218.742C166.131 218.743 165.647 218.564 165.267 218.238C165.049 218.055 164.87 217.831 164.74 217.577C164.61 217.324 164.532 217.048 164.511 216.764L163.103 199.392C163.054 198.826 163.231 198.264 163.596 197.829C163.96 197.393 164.483 197.12 165.048 197.069L225.876 192C226.154 191.976 226.433 192.008 226.699 192.094C226.964 192.179 227.21 192.317 227.421 192.498C227.857 192.872 228.128 193.401 228.178 193.972L229.586 211.344C229.636 211.911 229.46 212.474 229.095 212.911C228.73 213.347 228.207 213.622 227.641 213.673L166.84 218.737L166.632 218.742ZM226.029 192.542H225.898L165.097 197.606C164.675 197.645 164.285 197.849 164.013 198.175C163.741 198.5 163.609 198.92 163.645 199.343L165.059 216.714C165.073 216.924 165.129 217.129 165.223 217.317C165.317 217.505 165.448 217.673 165.607 217.81C165.764 217.944 165.946 218.046 166.143 218.109C166.339 218.172 166.547 218.195 166.752 218.178L227.58 213.114C228.002 213.076 228.392 212.873 228.664 212.548C228.937 212.224 229.069 211.804 229.033 211.382L227.619 194.005C227.604 193.795 227.548 193.591 227.454 193.403C227.36 193.214 227.23 193.047 227.071 192.909C226.78 192.664 226.41 192.534 226.029 192.542Z" fill="#263238"/>
<path d="M230.72 175.965L232.2 193.764L210.214 195.644L208.734 177.844L230.72 175.965Z" fill="#FAFAFA"/>
<path d="M230.72 175.964H230.61L230.304 175.997L229.109 176.107L224.61 176.507L208.718 177.888L208.767 177.827C209.211 183.126 209.721 189.198 210.258 195.626L210.187 195.566L232.172 193.697L232.128 193.758C231.69 188.398 231.328 183.954 231.076 180.847C230.956 179.29 230.857 178.068 230.791 177.235C230.758 176.819 230.737 176.501 230.72 176.282C230.704 176.063 230.72 175.953 230.72 175.953C230.72 175.953 230.72 176.057 230.747 176.271C230.775 176.485 230.797 176.819 230.835 177.214C230.906 178.046 231.011 179.258 231.148 180.808C231.416 183.921 231.794 188.376 232.244 193.747V193.801H232.189L210.203 195.692H210.143V195.626C209.595 189.198 209.101 183.126 208.663 177.827V177.767H208.74L224.632 176.435L229.12 176.068L230.304 175.975H230.605L230.72 175.964Z" fill="#263238"/>
<path d="M210.883 194.462L231.323 192.714L230.024 177.156L209.584 178.904L210.883 194.462Z" fill="#455A64"/>
<g opacity="0.3">
<path d="M210.883 194.46L217.212 184.18L222.139 189.851L224.873 186.361L231.323 192.712L210.883 194.46Z" fill="black"/>
</g>
<g opacity="0.3">
<path d="M223.415 182.439C223.451 182.869 223.316 183.295 223.04 183.626C222.764 183.957 222.37 184.166 221.941 184.209C221.616 184.242 221.289 184.177 221.001 184.023C220.714 183.869 220.478 183.633 220.325 183.345C220.172 183.057 220.108 182.729 220.142 182.405C220.175 182.08 220.305 181.772 220.514 181.522C220.722 181.271 221.001 181.088 221.315 180.996C221.628 180.904 221.961 180.908 222.273 181.006C222.584 181.105 222.859 181.294 223.062 181.549C223.266 181.804 223.389 182.114 223.415 182.439Z" fill="black"/>
</g>
<path d="M221.673 181.342C221.446 181.341 221.222 181.295 221.013 181.207C220.804 181.118 220.615 180.99 220.456 180.829C220.296 180.667 220.17 180.476 220.085 180.266C220 180.056 219.956 179.832 219.958 179.605V175.922H220.615V179.605C220.605 179.75 220.624 179.895 220.673 180.032C220.721 180.169 220.797 180.295 220.896 180.401C220.995 180.508 221.115 180.593 221.248 180.651C221.381 180.709 221.525 180.739 221.67 180.739C221.816 180.739 221.959 180.709 222.093 180.651C222.226 180.593 222.346 180.508 222.445 180.401C222.544 180.295 222.62 180.169 222.668 180.032C222.716 179.895 222.736 179.75 222.725 179.605V174.607C222.74 174.324 222.696 174.04 222.598 173.774C222.499 173.508 222.348 173.264 222.152 173.058C221.957 172.852 221.721 172.689 221.46 172.577C221.199 172.465 220.918 172.407 220.635 172.407C220.351 172.407 220.07 172.465 219.809 172.577C219.548 172.689 219.313 172.852 219.117 173.058C218.921 173.264 218.77 173.508 218.671 173.774C218.573 174.04 218.529 174.324 218.544 174.607V175.27H217.881V174.607C217.881 173.88 218.17 173.184 218.683 172.67C219.197 172.156 219.894 171.867 220.621 171.867C221.348 171.867 222.044 172.156 222.558 172.67C223.072 173.184 223.361 173.88 223.361 174.607V179.605C223.364 180.058 223.189 180.494 222.873 180.819C222.557 181.144 222.126 181.332 221.673 181.342Z" fill="#E0E0E0"/>
<path d="M221.673 181.344C221.673 181.344 221.788 181.344 221.996 181.3C222.308 181.236 222.595 181.083 222.824 180.861C223.009 180.688 223.154 180.476 223.249 180.24C223.343 180.004 223.385 179.751 223.372 179.497C223.372 178.894 223.372 178.209 223.372 177.453C223.372 176.697 223.372 175.853 223.372 174.949C223.399 174.486 223.33 174.023 223.169 173.59C222.985 173.13 222.68 172.728 222.287 172.428C221.861 172.103 221.348 171.913 220.814 171.882C220.279 171.852 219.748 171.983 219.289 172.258C218.799 172.553 218.415 172.997 218.193 173.524C218.078 173.792 218.006 174.077 217.979 174.368C217.979 174.658 217.979 174.97 217.979 175.272L217.924 175.217H218.588L218.527 175.272C218.516 174.919 218.529 174.565 218.566 174.214C218.632 173.852 218.789 173.513 219.02 173.228C219.255 172.938 219.561 172.715 219.908 172.58C220.255 172.446 220.631 172.404 220.999 172.459C221.368 172.515 221.715 172.665 222.007 172.896C222.299 173.127 222.526 173.43 222.665 173.776C222.79 174.112 222.844 174.47 222.824 174.828V175.864C222.824 177.239 222.824 178.549 222.796 179.837C222.76 179.997 222.689 180.148 222.589 180.279C222.489 180.409 222.361 180.517 222.215 180.593C222.073 180.666 221.916 180.706 221.756 180.712C221.596 180.718 221.437 180.688 221.289 180.626C221.147 180.564 221.018 180.473 220.913 180.359C220.807 180.245 220.726 180.11 220.675 179.963C220.61 179.675 220.59 179.38 220.615 179.086C220.615 177.957 220.615 176.894 220.615 175.913L220.654 175.957H219.996L220.034 175.919C220.034 176.905 220.034 177.798 220.034 178.587C220.034 178.976 220.034 179.338 220.034 179.683C220.05 180.046 220.179 180.394 220.403 180.679C220.627 180.964 220.935 181.172 221.284 181.272C221.428 181.306 221.575 181.329 221.722 181.344C221.573 181.349 221.423 181.333 221.278 181.294C220.86 181.186 220.498 180.923 220.264 180.56C220.092 180.299 219.996 179.996 219.985 179.683C219.985 179.349 219.985 178.982 219.985 178.587C219.985 177.798 219.985 176.905 219.985 175.919V175.864H220.73V175.908C220.73 176.888 220.73 177.952 220.73 179.08C220.711 179.363 220.732 179.647 220.791 179.924C220.835 180.057 220.907 180.18 221.001 180.284C221.095 180.387 221.21 180.47 221.339 180.527C221.472 180.583 221.617 180.609 221.761 180.603C221.906 180.598 222.048 180.56 222.177 180.494C222.313 180.428 222.433 180.331 222.528 180.213C222.622 180.095 222.69 179.957 222.725 179.809C222.769 178.565 222.725 177.223 222.725 175.858C222.725 175.518 222.725 175.173 222.725 174.823C222.749 174.479 222.696 174.135 222.572 173.814C222.445 173.484 222.233 173.193 221.958 172.971C221.684 172.749 221.355 172.602 221.006 172.547C220.657 172.491 220.299 172.528 219.969 172.655C219.639 172.781 219.348 172.992 219.125 173.266C218.905 173.538 218.756 173.86 218.692 174.203C218.656 174.547 218.645 174.893 218.659 175.239V175.316H217.892V175.255C217.892 174.949 217.892 174.653 217.892 174.346C217.922 174.042 217.997 173.745 218.116 173.463C218.35 172.917 218.751 172.459 219.262 172.154C219.739 171.869 220.291 171.734 220.846 171.766C221.401 171.799 221.933 171.997 222.374 172.335C222.778 172.646 223.091 173.061 223.278 173.535C223.443 173.981 223.513 174.457 223.481 174.932C223.481 175.836 223.481 176.675 223.481 177.436C223.481 178.198 223.481 178.878 223.481 179.481C223.497 179.738 223.456 179.997 223.361 180.237C223.266 180.477 223.12 180.694 222.933 180.872C222.696 181.094 222.402 181.244 222.084 181.305C221.949 181.337 221.811 181.35 221.673 181.344Z" fill="#263238"/>
<g opacity="0.3">
<path d="M229.016 190.586C228.969 191.265 229.09 191.945 229.367 192.567C229.644 193.189 230.069 193.734 230.605 194.153C231.964 195.184 233.893 195.304 235.077 196.548C235.509 197.06 235.81 197.671 235.951 198.327C236.093 198.982 236.071 199.662 235.888 200.307C235.504 201.594 234.783 202.754 233.8 203.667C232.857 204.604 231.783 205.393 230.78 206.27C229.315 207.505 228.079 208.989 227.131 210.654C226.666 211.541 226.256 212.456 225.903 213.394C225.498 214.398 225.096 215.401 224.698 216.402C224.352 217.257 224.045 218.331 224.659 219.005C225.131 219.408 225.738 219.616 226.358 219.586C228.988 219.772 231.663 219.959 234.238 219.4C234.238 218.95 234.266 218.496 234.277 218.046C234.277 218.046 238.661 202.576 238.661 202.702C238.661 202.828 239.154 192.92 239.154 192.92L229.016 190.586Z" fill="black"/>
</g>
<path d="M241.68 193.469C241.68 193.469 242.99 189.682 238.595 188.422C235.735 187.6 226.884 185.863 228.254 190.066C228.525 190.797 228.999 191.435 229.62 191.905C230.242 192.375 230.985 192.657 231.762 192.718C233.828 192.959 235.57 194.625 235.57 194.625C235.57 194.625 236.962 195.721 236.776 197.026C236.589 198.33 236.748 201.316 232.89 202.675C229.033 204.034 227.202 205.536 225.98 208.035C224.884 210.227 226.254 211.186 226.254 211.186C226.254 211.186 223.887 213.011 224.287 214.748C224.378 215.422 224.231 216.106 223.87 216.682C223.743 216.947 223.679 217.237 223.683 217.53C223.686 217.824 223.758 218.112 223.892 218.373C224.025 218.634 224.218 218.861 224.454 219.035C224.69 219.21 224.963 219.327 225.251 219.378L225.443 219.417C225.443 219.417 237.154 218.989 239.779 215.964C242.404 212.939 242.804 210.183 242.804 210.183C242.804 210.183 244.957 206.517 242.524 204.374C243.418 200.171 242.524 198.039 240.88 196.795L241.68 193.469Z" fill="#FFBF9D"/>
<path d="M226.276 211.209C226.276 211.291 227.224 211.209 228.698 210.886C230.172 210.563 232.189 210.004 234.364 209.357C235.436 209.098 236.469 208.7 237.438 208.173C238.208 207.707 238.923 207.155 239.57 206.529C240.699 205.461 241.044 204.491 240.946 204.469C240.439 205.091 239.879 205.668 239.274 206.195C237.828 207.47 236.079 208.351 234.194 208.754L228.594 210.464C227.136 210.869 226.237 211.116 226.276 211.209Z" fill="#FF9A6C"/>
<path d="M224.588 216.095C224.588 216.161 225.711 216.528 227.624 216.517C230.098 216.408 232.543 215.945 234.885 215.141L236.885 214.511C237.535 214.33 238.159 214.066 238.743 213.727C239.67 213.054 240.459 212.207 241.066 211.234C242.162 209.65 242.475 208.45 242.381 208.434C242.288 208.417 241.872 209.491 240.71 210.966C240.09 211.842 239.325 212.605 238.447 213.223C237.444 213.799 236.047 214.073 234.704 214.533C232.404 215.311 230.023 215.826 227.607 216.067C225.755 216.193 224.632 215.991 224.588 216.095Z" fill="#FF9A6C"/>
<path d="M231.795 192.708C231.734 192.872 233.367 193.623 235.444 194.39C236.326 194.756 237.245 195.028 238.184 195.201C238.935 195.294 239.401 195.163 239.39 195.086C239.379 195.01 238.946 194.955 238.294 194.757C237.642 194.56 236.716 194.177 235.669 193.793C233.587 193.026 231.855 192.544 231.795 192.708Z" fill="#FF9A6C"/>
<path d="M212.247 225.609V229.017H211.584V224.305H212.505L213.261 227.138V224.305H213.913V229.017H213.162L212.247 225.609Z" fill="white"/>
<path d="M214.401 225.025C214.393 224.926 214.404 224.827 214.436 224.734C214.468 224.64 214.519 224.554 214.585 224.481C214.652 224.408 214.733 224.35 214.824 224.31C214.914 224.271 215.012 224.25 215.111 224.25C215.21 224.25 215.307 224.271 215.398 224.31C215.488 224.35 215.569 224.408 215.636 224.481C215.703 224.554 215.754 224.64 215.786 224.734C215.817 224.827 215.829 224.926 215.821 225.025V226.072C215.829 226.17 215.817 226.269 215.786 226.363C215.754 226.456 215.703 226.542 215.636 226.615C215.569 226.688 215.488 226.746 215.398 226.786C215.307 226.826 215.21 226.846 215.111 226.846C215.012 226.846 214.914 226.826 214.824 226.786C214.733 226.746 214.652 226.688 214.585 226.615C214.519 226.542 214.468 226.456 214.436 226.363C214.404 226.269 214.393 226.17 214.401 226.072V225.025ZM215.821 227.102V227.568H214.401V227.102H215.821ZM214.872 226.099C214.872 226.318 214.96 226.389 215.114 226.389C215.267 226.389 215.355 226.318 215.355 226.099V225.003C215.355 224.789 215.262 224.712 215.114 224.712C214.966 224.712 214.872 224.789 214.872 225.003V226.099Z" fill="white"/>
<path d="M228.803 229.017C228.803 229.1 226.063 229.16 222.649 229.16C219.235 229.16 216.5 229.1 216.5 229.017C216.5 228.935 219.24 228.875 222.649 228.875C226.057 228.875 228.803 228.963 228.803 229.017Z" fill="white"/>
</svg>
