<svg width="1013" height="993" viewBox="0 0 1013 993" fill="none" xmlns="http://www.w3.org/2000/svg">
<path fill-rule="evenodd" clip-rule="evenodd" d="M381.661 41.5048C356.423 44.1848 337.856 48.0208 317.161 54.8308C191.509 96.1798 112.727 221.459 129.759 352.835C134.577 389.998 147.349 426.513 167.012 459.339C206.129 524.642 274.006 572.356 349.151 587.374C371.227 591.786 377.766 592.373 404.661 592.362C424.624 592.353 433.331 591.935 442.161 590.563C483.706 584.108 521.887 569.77 555.161 548.129C575.209 535.09 583.399 527.734 635.161 476.277C703.651 408.192 732.159 380.375 733.447 380.375C734.987 380.375 745.474 400.646 750.151 412.666C754.891 424.847 759.443 441.501 761.823 455.375C764.187 469.153 764.177 502.395 761.804 516.375C752.064 573.773 721.627 621.551 674.744 653.035C645.663 672.565 613.068 683.853 577.016 686.879C531.927 690.664 482.709 676.878 445.079 649.922C440.449 646.606 435.761 643.902 434.661 643.915C433.561 643.928 428.161 644.605 422.661 645.419C407.036 647.732 380.829 648.359 364.661 646.806C336.567 644.108 335.613 644.574 344.714 656.544C352.52 666.809 373.219 688.078 385.161 698.104C425.668 732.112 479.198 754.837 533.161 760.933C546.762 762.47 578.754 762.476 592.161 760.946C644.705 754.947 695.087 734.066 736.161 701.264C747.099 692.529 768.842 670.781 777.542 659.875C809.313 620.045 829.298 573.692 836.824 522.375C839.288 505.573 839.288 466.174 836.823 449.375C827.776 387.697 801.24 334.145 758.595 291.5C667.775 200.68 528.121 183.844 418.028 250.442C392.153 266.095 382.989 274.372 304.164 353.293C265.39 392.113 233.356 423.875 232.977 423.875C231.761 423.875 222.401 406.419 217.616 395.225C211.725 381.443 206.672 363.927 203.968 347.913C201.249 331.809 201.054 303.606 203.553 287.947C215.473 213.24 263.874 153.51 333.661 127.385C371.199 113.333 413.842 111.152 453.305 121.266C480.108 128.135 503.275 139.319 526.741 156.716L529.821 159L540.741 157.37C558.126 154.775 589.838 154.284 608.038 156.328C616.424 157.27 623.932 157.793 624.723 157.489C627.621 156.377 626.105 152.251 620.079 144.847C575.213 89.7248 513.857 54.4768 444.161 43.7878C431.109 41.7858 392.349 40.3698 381.661 41.5048ZM541.597 285.355C500.236 290.082 464.696 305.073 432.257 331.474C426.979 335.77 391.207 370.629 352.764 408.938L282.868 478.592L292.219 484.753C329.087 509.041 374.999 521.222 417.098 517.884C449.773 515.293 481.487 505.329 508.661 489.115C527.726 477.739 535.745 470.404 609.968 396.436L682.275 324.378L679.468 322.087C675.511 318.857 661.953 310.691 652.588 305.896C619.805 289.114 577.388 281.264 541.597 285.355ZM587.412 838.391C570.931 841.972 558.602 854.394 555.039 871.008C553.618 877.636 554.444 891.91 556.594 897.875C563.718 917.64 586.479 929.222 608.926 924.503C616.766 922.856 626.629 918.135 630.221 914.311L632.456 911.932L626.678 905.352L620.901 898.771L618.781 900.706C613.087 905.903 602.684 908.54 594.542 906.85C586.878 905.259 581.177 901.18 577.718 894.812C575.162 890.107 574.773 888.342 574.762 881.385C574.75 874.599 575.165 872.572 577.476 868.116C580.867 861.579 586.503 857.361 593.899 855.826C601.289 854.291 609.161 855.831 615.064 859.965L619.467 863.049L625.527 856.989L631.587 850.929L628.769 847.988C625.225 844.289 615.297 839.419 608.362 837.977C601.568 836.564 595.247 836.689 587.412 838.391ZM783.412 838.391C766.931 841.972 754.602 854.394 751.039 871.008C749.432 878.499 750.452 892.171 753.114 898.833C759.316 914.352 772.237 923.356 791.161 925.347C802.797 926.571 819.703 921.249 826.221 914.311L828.456 911.932L822.678 905.352L816.901 898.771L814.768 900.774C810.675 904.62 803.158 907.169 795.912 907.169C782.287 907.169 772.257 898.493 770.606 885.28C769.772 878.603 770.619 873.878 773.764 867.671C780.184 855.002 798.558 851.206 811.064 859.965L815.467 863.049L821.52 856.996L827.573 850.943L825.139 848.352C819.169 841.997 805.337 836.831 794.661 836.969C791.911 837.005 786.849 837.645 783.412 838.391ZM119.895 838.91C110.65 841.219 103.198 847.479 101.221 854.598C99.9144 859.304 99.9144 860.446 101.221 865.152C103.694 874.058 111.836 878.97 131.292 883.295C150.051 887.464 154.772 889.549 158.205 895.179C162.138 901.63 159.697 909.576 152.236 914.603C147.106 918.06 141.606 919.127 131.161 918.689C120.18 918.229 113.197 915.613 106.287 909.37C102.864 906.277 101.897 905.849 100.657 906.878C98.2834 908.849 98.8674 910.468 103.335 914.292C117.025 926.01 140.423 928.358 155.493 919.526C163.244 914.984 166.907 907.201 165.59 898.071C165.037 894.231 164.059 892.542 160.227 888.805C155.067 883.773 147.649 880.923 129.161 876.872C113.348 873.406 106.161 868.19 106.161 860.177C106.161 842.844 137.782 836.858 155.297 850.876L158.932 853.785L160.797 851.72C162.635 849.684 162.606 849.607 158.764 846.282C152.586 840.934 145.275 838.598 133.661 838.261C128.161 838.101 121.967 838.393 119.895 838.91ZM183.4 881.125L183.661 923.375L186.399 923.69L189.137 924.006L189.399 886.447L189.661 848.888L207.161 873.052C216.786 886.342 225.16 897.381 225.771 897.582C226.381 897.783 234.931 886.815 244.771 873.209L262.661 848.469L262.923 886.237L263.185 924.006L265.923 923.69L268.661 923.375V881.375V839.375L265.616 839.077C262.694 838.791 261.841 839.794 244.616 863.77C234.741 877.516 226.42 888.787 226.125 888.818C225.831 888.85 217.506 877.635 207.625 863.898C190.504 840.093 189.508 838.92 186.4 838.898L183.139 838.875L183.4 881.125ZM303.178 879.625C293.111 902.038 284.662 921.163 284.401 922.125C284.029 923.501 284.553 923.875 286.852 923.875C289.597 923.875 290.055 923.248 294.339 913.625L298.902 903.375H324.751H350.601L355.131 913.595C359.278 922.95 359.893 923.817 362.411 923.845C363.923 923.861 365.161 923.416 365.161 922.855C365.161 921.959 351.021 890.045 333.601 851.625C327.963 839.19 327.742 838.875 324.651 838.875H321.482L303.178 879.625ZM381.161 881.358V924.008L383.911 923.691L386.661 923.375L386.936 907.125L387.211 890.875H398.577H409.944L416.414 897.625C419.972 901.337 426.884 908.76 431.773 914.12C439.61 922.712 441.055 923.865 443.994 923.87C445.828 923.873 447.178 923.482 446.994 923.001C446.811 922.52 440.586 915.516 433.161 907.436C425.736 899.356 419.511 892.325 419.328 891.81C419.144 891.296 420.494 890.865 422.328 890.853C429.623 890.805 438.515 884.849 442.45 877.375C445.333 871.9 445.5 859.082 442.76 853.555C440.198 848.386 435.607 843.978 430.172 841.468C426.115 839.595 423.42 839.351 403.411 839.047L381.161 838.709V881.358ZM452.161 841.875V844.875H467.661H483.161V884.441V924.008L485.911 923.691L488.661 923.375L488.923 884.125L489.184 844.875H504.673H520.161V841.875V838.875H486.161H452.161V841.875ZM643.632 840.09C643.36 840.798 643.256 859.827 643.4 882.376L643.661 923.375L674.949 923.639L706.236 923.904L705.949 914.639L705.661 905.375L684.925 905.105L664.188 904.835L663.925 872.105L663.661 839.375L653.894 839.089C646.638 838.876 643.999 839.133 643.632 840.09ZM717.161 881.411V923.947L726.911 923.661L736.661 923.375L736.922 881.125L737.183 838.875H727.172H717.161V881.411ZM839.618 840.126C839.354 840.814 839.256 859.827 839.4 882.376L839.661 923.375L849.387 923.661L859.112 923.947L859.387 907.385L859.661 890.824L874.189 907.099L888.717 923.375L901.439 923.655C908.436 923.809 914.155 923.584 914.148 923.155C914.141 922.726 905.602 912.943 895.172 901.414C876.503 880.78 876.236 880.422 878.023 878.414C886.985 868.345 911.161 839.897 911.161 839.42C911.161 839.087 905.66 838.94 898.937 839.094L886.713 839.375L873.187 855.324L859.661 871.272L859.386 855.074L859.111 838.875H849.605C842.918 838.875 839.956 839.246 839.618 840.126ZM387.161 865.375V885.875L403.911 885.869C422.026 885.863 426.839 885.054 432.02 881.143C440.591 874.672 441.529 859.345 433.863 851.007C429.024 845.743 425.196 844.921 405.411 844.897L387.161 844.875V865.375ZM313.907 869.667C308.039 882.706 302.947 894.163 302.592 895.125C301.99 896.759 303.445 896.875 324.554 896.875C336.988 896.875 347.161 896.481 347.161 896C347.161 895.221 345.851 892.223 337.928 874.875C336.798 872.4 333.43 864.98 330.445 858.386C327.459 851.792 324.917 846.298 324.797 846.177C324.676 846.057 319.776 856.627 313.907 869.667Z" fill="white"/>
</svg>
