<?xml version="1.0" standalone="no"?>
<!DOCTYPE svg PUBLIC "-//W3C//DTD SVG 20010904//EN"
 "http://www.w3.org/TR/2001/REC-SVG-20010904/DTD/svg10.dtd">
<svg version="1.0" xmlns="http://www.w3.org/2000/svg"
 width="700.000000pt" height="700.000000pt" viewBox="0 0 700.000000 700.000000"
 preserveAspectRatio="xMidYMid meet">
<metadata>
Created by potrace 1.14, written by Peter Selinger 2001-2017
</metadata>
<g transform="translate(0.000000,700.000000) scale(0.100000,-0.100000)"
fill="#000000" stroke="none">
<path d="M2645 6348 c-849 -96 -1563 -670 -1831 -1473 -200 -602 -138 -1236
178 -1787 278 -487 763 -859 1318 -1012 177 -48 261 -59 510 -64 270 -5 353 3
540 49 298 73 575 202 808 376 42 32 344 322 671 646 328 323 601 587 608 587
21 0 128 -234 166 -360 55 -185 62 -234 62 -465 0 -183 -3 -223 -23 -313 -142
-635 -598 -1093 -1229 -1234 -84 -19 -129 -22 -313 -23 -189 0 -227 3 -318 23
-213 48 -382 120 -572 242 l-105 68 -115 -14 c-121 -14 -360 -17 -495 -6 -106
9 -145 5 -145 -15 0 -42 249 -313 392 -425 249 -197 528 -335 833 -413 179
-46 332 -65 525 -65 345 0 635 68 955 225 246 120 413 242 602 439 632 657
791 1633 399 2451 -178 370 -430 659 -776 888 -193 128 -463 244 -685 295
-319 74 -675 74 -984 2 -229 -54 -527 -182 -711 -305 -149 -100 -243 -187
-821 -763 l-567 -563 -60 118 c-66 131 -99 219 -138 374 -23 90 -27 132 -31
303 -6 213 1 285 43 444 208 800 989 1308 1794 1168 214 -38 441 -131 630
-258 l95 -64 105 14 c92 12 406 12 610 -1 47 -3 49 16 8 77 -44 68 -245 274
-343 353 -276 223 -607 379 -949 448 -87 18 -187 29 -310 35 -207 11 -222 11
-331 -2z m1772 -1946 c133 -29 244 -67 359 -121 103 -49 264 -147 264 -160 0
-12 -1055 -1058 -1153 -1143 -201 -175 -433 -288 -715 -349 -142 -30 -393 -37
-537 -14 -215 33 -444 120 -623 234 -45 29 -82 56 -82 60 0 4 260 266 578 582
615 612 662 653 862 758 160 83 341 144 515 170 104 17 427 6 532 -17z"/>
</g>
</svg>
